G04*
G04 #@! TF.GenerationSoftware,Altium Limited,Altium Designer,22.9.1 (49)*
G04*
G04 Layer_Physical_Order=1*
G04 Layer_Color=255*
%FSLAX25Y25*%
%MOIN*%
G70*
G04*
G04 #@! TF.SameCoordinates,E9D11BAE-304F-488D-B7EA-F98EEB287584*
G04*
G04*
G04 #@! TF.FilePolarity,Positive*
G04*
G01*
G75*
%ADD19R,0.05906X0.02362*%
%ADD20R,0.03543X0.03150*%
%ADD21R,0.03150X0.03543*%
%ADD22R,0.02362X0.04724*%
%ADD23R,0.08858X0.09252*%
%ADD24R,0.02362X0.05906*%
%ADD25R,0.04724X0.02362*%
%ADD26R,0.05315X0.01575*%
%ADD27R,0.05512X0.06299*%
%ADD28R,0.06299X0.07480*%
%ADD29R,0.04134X0.02362*%
%ADD30O,0.01575X0.06299*%
%ADD53C,0.01575*%
%ADD54C,0.00799*%
%ADD55R,0.07087X0.03150*%
%ADD56C,0.01968*%
%ADD57C,0.02756*%
%ADD58C,0.00965*%
%ADD59C,0.05512*%
%ADD60C,0.07677*%
%ADD61C,0.05878*%
%ADD62C,0.05906*%
%ADD63R,0.05906X0.05906*%
%ADD64C,0.05118*%
%ADD65C,0.02756*%
%ADD66C,0.03543*%
%ADD67C,0.03150*%
%ADD68C,0.07087*%
G36*
X188167Y190346D02*
X188895Y190045D01*
X189550Y189607D01*
X190107Y189050D01*
X190545Y188395D01*
X190846Y187667D01*
X191000Y186894D01*
Y186500D01*
Y11000D01*
Y10458D01*
X190789Y9396D01*
X190374Y8395D01*
X190110Y8000D01*
X195073D01*
Y-20471D01*
X189000D01*
X188415Y-20587D01*
X187919Y-20919D01*
X187587Y-21415D01*
X187471Y-22000D01*
Y-52000D01*
Y-83000D01*
Y-113000D01*
X187587Y-113585D01*
X187919Y-114081D01*
X188415Y-114413D01*
X189000Y-114529D01*
X194615D01*
X194969Y-114883D01*
X194925Y-160423D01*
X1281D01*
Y-79252D01*
Y8000D01*
X6890D01*
X6626Y8395D01*
X6211Y9396D01*
X6000Y10458D01*
Y18500D01*
X5500Y186000D01*
Y186443D01*
X5673Y187313D01*
X6012Y188131D01*
X6505Y188869D01*
X7131Y189495D01*
X7868Y189988D01*
X8687Y190327D01*
X9557Y190500D01*
X187394D01*
X188167Y190346D01*
D02*
G37*
%LPC*%
G36*
X177795Y186297D02*
X176166D01*
X176018Y186268D01*
X175868D01*
X174270Y185950D01*
X174131Y185892D01*
X173983Y185863D01*
X172479Y185240D01*
X172353Y185156D01*
X172214Y185098D01*
X170860Y184194D01*
X170754Y184087D01*
X170628Y184003D01*
X169477Y182852D01*
X169393Y182727D01*
X169287Y182620D01*
X168382Y181266D01*
X168324Y181127D01*
X168241Y181001D01*
X167617Y179497D01*
X167588Y179349D01*
X167530Y179210D01*
X167213Y177613D01*
Y177462D01*
X167183Y177314D01*
Y175686D01*
X167213Y175538D01*
Y175387D01*
X167530Y173790D01*
X167588Y173651D01*
X167617Y173503D01*
X168241Y171999D01*
X168324Y171873D01*
X168382Y171734D01*
X169287Y170380D01*
X169393Y170273D01*
X169477Y170148D01*
X170628Y168997D01*
X170754Y168913D01*
X170860Y168806D01*
X172214Y167902D01*
X172353Y167844D01*
X172479Y167760D01*
X173983Y167137D01*
X174131Y167108D01*
X174270Y167050D01*
X175868Y166732D01*
X176018D01*
X176166Y166703D01*
X177795D01*
X177942Y166732D01*
X178093D01*
X179690Y167050D01*
X179829Y167108D01*
X179977Y167137D01*
X181482Y167760D01*
X181607Y167844D01*
X181746Y167902D01*
X183100Y168806D01*
X183207Y168913D01*
X183332Y168997D01*
X184484Y170148D01*
X184567Y170273D01*
X184674Y170380D01*
X185579Y171734D01*
X185636Y171873D01*
X185720Y171999D01*
X186343Y173503D01*
X186373Y173651D01*
X186430Y173790D01*
X186748Y175387D01*
Y175538D01*
X186777Y175686D01*
Y177314D01*
X186748Y177462D01*
Y177613D01*
X186430Y179210D01*
X186373Y179349D01*
X186343Y179497D01*
X185720Y181001D01*
X185636Y181127D01*
X185579Y181266D01*
X184674Y182620D01*
X184567Y182727D01*
X184484Y182852D01*
X183332Y184003D01*
X183207Y184087D01*
X183100Y184194D01*
X181746Y185098D01*
X181607Y185156D01*
X181482Y185240D01*
X179977Y185863D01*
X179829Y185892D01*
X179690Y185950D01*
X178093Y186268D01*
X177942D01*
X177795Y186297D01*
D02*
G37*
G36*
X20314D02*
X18686D01*
X18538Y186268D01*
X18387D01*
X16790Y185950D01*
X16651Y185892D01*
X16503Y185863D01*
X14999Y185240D01*
X14873Y185156D01*
X14734Y185098D01*
X13380Y184194D01*
X13273Y184087D01*
X13148Y184003D01*
X11997Y182852D01*
X11913Y182727D01*
X11806Y182620D01*
X10902Y181266D01*
X10844Y181127D01*
X10760Y181001D01*
X10137Y179497D01*
X10108Y179349D01*
X10050Y179210D01*
X9732Y177613D01*
Y177462D01*
X9703Y177314D01*
Y175686D01*
X9732Y175538D01*
Y175387D01*
X10050Y173790D01*
X10108Y173651D01*
X10137Y173503D01*
X10760Y171999D01*
X10844Y171873D01*
X10902Y171734D01*
X11806Y170380D01*
X11913Y170273D01*
X11997Y170148D01*
X13148Y168997D01*
X13273Y168913D01*
X13380Y168806D01*
X14734Y167902D01*
X14873Y167844D01*
X14999Y167760D01*
X16503Y167137D01*
X16651Y167108D01*
X16790Y167050D01*
X18387Y166732D01*
X18538D01*
X18686Y166703D01*
X20314D01*
X20462Y166732D01*
X20613D01*
X22210Y167050D01*
X22349Y167108D01*
X22497Y167137D01*
X24002Y167760D01*
X24127Y167844D01*
X24266Y167902D01*
X25620Y168806D01*
X25727Y168913D01*
X25852Y168997D01*
X27003Y170148D01*
X27087Y170273D01*
X27194Y170380D01*
X28098Y171734D01*
X28156Y171873D01*
X28240Y171999D01*
X28863Y173503D01*
X28892Y173651D01*
X28950Y173790D01*
X29268Y175387D01*
Y175538D01*
X29297Y175686D01*
Y177314D01*
X29268Y177462D01*
Y177613D01*
X28950Y179210D01*
X28892Y179349D01*
X28863Y179497D01*
X28240Y181001D01*
X28156Y181127D01*
X28098Y181266D01*
X27194Y182620D01*
X27087Y182727D01*
X27003Y182852D01*
X25852Y184003D01*
X25727Y184087D01*
X25620Y184194D01*
X24266Y185098D01*
X24127Y185156D01*
X24002Y185240D01*
X22497Y185863D01*
X22349Y185892D01*
X22210Y185950D01*
X20613Y186268D01*
X20462D01*
X20314Y186297D01*
D02*
G37*
G36*
X157252Y167277D02*
X39252D01*
X38667Y167161D01*
X38170Y166830D01*
X37839Y166333D01*
X37725Y165762D01*
X37577Y165772D01*
X36360Y165648D01*
X35180Y165329D01*
X34068Y164822D01*
X33052Y164140D01*
X32161Y163303D01*
X31418Y162332D01*
X30843Y161253D01*
X30451Y160095D01*
X30252Y158889D01*
Y158277D01*
X29667Y158161D01*
X29171Y157829D01*
X28839Y157333D01*
X28723Y156748D01*
Y38248D01*
X28839Y37663D01*
X29171Y37167D01*
X29667Y36835D01*
X30252Y36719D01*
X30837Y36835D01*
X31333Y37167D01*
X41776Y47609D01*
X41785Y47600D01*
X41888Y47722D01*
X42217Y48050D01*
X42259Y48114D01*
X42318Y48162D01*
X43070Y49078D01*
X43106Y49145D01*
X43160Y49199D01*
X43819Y50185D01*
X43848Y50255D01*
X43896Y50314D01*
X44281Y51034D01*
X44288Y51046D01*
X44291Y51053D01*
X44455Y51360D01*
X44477Y51432D01*
X44519Y51495D01*
X44973Y52591D01*
X44988Y52666D01*
X45024Y52733D01*
X45368Y53868D01*
X45375Y53943D01*
X45404Y54013D01*
X45636Y55176D01*
Y55252D01*
X45658Y55325D01*
X45774Y56505D01*
X45767Y56581D01*
X45781Y56655D01*
Y57248D01*
Y137748D01*
Y138341D01*
X45767Y138416D01*
X45774Y138491D01*
X45658Y139671D01*
X45636Y139744D01*
Y139820D01*
X45475Y140629D01*
X45862Y141127D01*
X45866Y141129D01*
X46236D01*
X47938Y141467D01*
X49542Y142131D01*
X50985Y143096D01*
X52213Y144323D01*
X53177Y145767D01*
X53842Y147371D01*
X54180Y149073D01*
X54180Y149941D01*
X54180Y149941D01*
Y150319D01*
X54680Y150690D01*
X54871Y150632D01*
X54947Y150625D01*
X55017Y150596D01*
X56071Y150386D01*
X56122Y150374D01*
X56140Y150372D01*
X56180Y150364D01*
X56242D01*
X56261Y150363D01*
X56329Y150342D01*
X57509Y150226D01*
X57585Y150233D01*
X57659Y150219D01*
X58092D01*
X58252Y150206D01*
Y150219D01*
X138252D01*
Y150206D01*
X138412Y150219D01*
X138845D01*
X138919Y150233D01*
X138995Y150226D01*
X140175Y150342D01*
X140243Y150363D01*
X140262Y150364D01*
X140324D01*
X140364Y150372D01*
X140382Y150374D01*
X140433Y150386D01*
X141487Y150596D01*
X141557Y150625D01*
X141632Y150632D01*
X142295Y150833D01*
X142459Y150872D01*
X142552Y150911D01*
X143054Y150675D01*
X143089Y150639D01*
X143111Y150606D01*
X143206Y150127D01*
X143862Y148543D01*
X144815Y147117D01*
X146028Y145905D01*
X147453Y144952D01*
X149038Y144296D01*
X150719Y143961D01*
X151656D01*
X151830Y143817D01*
X151854Y143787D01*
X151969Y143461D01*
X151531Y142405D01*
X151516Y142330D01*
X151480Y142263D01*
X151415Y142048D01*
X151376Y141955D01*
X151337Y141791D01*
X151136Y141129D01*
X151129Y141053D01*
X151100Y140983D01*
X150890Y139929D01*
X150878Y139878D01*
X150876Y139860D01*
X150868Y139820D01*
Y139758D01*
X150867Y139739D01*
X150846Y139671D01*
X150730Y138491D01*
X150737Y138415D01*
X150723Y138341D01*
Y137908D01*
X150710Y137748D01*
X150723D01*
Y57248D01*
X150710D01*
X150723Y57088D01*
Y56655D01*
X150737Y56581D01*
X150730Y56505D01*
X150846Y55325D01*
X150867Y55257D01*
X150868Y55238D01*
Y55176D01*
X150876Y55136D01*
X150878Y55119D01*
X150890Y55067D01*
X151100Y54013D01*
X151129Y53943D01*
X151136Y53868D01*
X151337Y53205D01*
X151376Y53041D01*
X151415Y52948D01*
X151480Y52733D01*
X151516Y52666D01*
X151531Y52591D01*
X151985Y51495D01*
X152027Y51432D01*
X152049Y51360D01*
X152155Y51161D01*
X152194Y51068D01*
X152282Y50924D01*
X152608Y50314D01*
X152656Y50255D01*
X152685Y50185D01*
X153282Y49291D01*
X153310Y49246D01*
X153321Y49233D01*
X153344Y49199D01*
X153388Y49155D01*
X153400Y49141D01*
X153434Y49078D01*
X154186Y48162D01*
X154245Y48114D01*
X154287Y48050D01*
X154593Y47744D01*
X154697Y47622D01*
X154706Y47631D01*
X159938Y42399D01*
X165171Y37167D01*
X165667Y36835D01*
X166252Y36719D01*
X166837Y36835D01*
X167333Y37167D01*
X167665Y37663D01*
X167781Y38248D01*
Y156748D01*
X167665Y157333D01*
X167333Y157829D01*
X166837Y158161D01*
X166252Y158277D01*
X166129Y158253D01*
X165906Y159373D01*
X165228Y161011D01*
X164243Y162485D01*
X162989Y163739D01*
X161515Y164724D01*
X159877Y165402D01*
X158757Y165625D01*
X158781Y165748D01*
X158665Y166333D01*
X158333Y166830D01*
X157837Y167161D01*
X157252Y167277D01*
D02*
G37*
G36*
X61771Y139187D02*
X60733D01*
X59732Y138919D01*
X58833Y138400D01*
X58100Y137667D01*
X57581Y136768D01*
X57313Y135767D01*
Y134729D01*
X57581Y133728D01*
X58100Y132829D01*
X58833Y132096D01*
X59732Y131578D01*
X60733Y131309D01*
X61771D01*
X62772Y131578D01*
X63671Y132096D01*
X64404Y132829D01*
X64922Y133728D01*
X65191Y134729D01*
Y135767D01*
X64922Y136768D01*
X64404Y137667D01*
X63671Y138400D01*
X62772Y138919D01*
X61771Y139187D01*
D02*
G37*
G36*
X61382Y64203D02*
X61252Y64195D01*
X61121Y64203D01*
X61000Y64187D01*
X60733D01*
X60476Y64118D01*
X60354Y64102D01*
X60231Y64060D01*
X60102Y64034D01*
X59989Y63988D01*
X59732Y63919D01*
X59501Y63785D01*
X59387Y63738D01*
X59279Y63666D01*
X59162Y63608D01*
X59064Y63533D01*
X58833Y63400D01*
X58645Y63212D01*
X58548Y63137D01*
X58461Y63039D01*
X58363Y62952D01*
X58289Y62855D01*
X58100Y62667D01*
X57967Y62436D01*
X57892Y62339D01*
X57834Y62221D01*
X57762Y62113D01*
X57715Y61999D01*
X57581Y61768D01*
X57512Y61511D01*
X57465Y61398D01*
X57440Y61269D01*
X57398Y61146D01*
X57382Y61024D01*
X57313Y60767D01*
Y60500D01*
X57297Y60378D01*
X57306Y60248D01*
X57297Y60118D01*
X57313Y59996D01*
Y59729D01*
X57382Y59472D01*
X57398Y59350D01*
X57440Y59227D01*
X57465Y59098D01*
X57512Y58985D01*
X57581Y58728D01*
X57627Y58648D01*
X35261Y36281D01*
X34900Y35938D01*
X34882Y35923D01*
X34588Y35565D01*
X33681Y34460D01*
X32789Y32791D01*
X32239Y30979D01*
X32101Y29570D01*
X32054Y29096D01*
X32055Y29087D01*
X32068Y28590D01*
Y5500D01*
Y-500D01*
Y-5217D01*
X31319D01*
Y-11941D01*
X39421D01*
Y-5217D01*
X34932D01*
Y-4324D01*
X34946Y-4281D01*
X34951Y-4269D01*
X35201Y-4038D01*
X35432Y-3918D01*
X35500Y-3932D01*
X35500Y-3932D01*
X54407D01*
X54928Y-4453D01*
X54819Y-4717D01*
X54819D01*
Y-11441D01*
X62921D01*
Y-4716D01*
X58843D01*
X58692Y-4637D01*
X58432Y-4500D01*
X58356Y-4118D01*
X58356Y-4118D01*
X58347Y-4096D01*
X58318Y-3954D01*
X58238Y-3834D01*
X58229Y-3812D01*
X58012Y-3488D01*
X58012Y-3488D01*
X56012Y-1488D01*
X56012Y-1488D01*
X55688Y-1271D01*
X55666Y-1262D01*
X55546Y-1182D01*
X55404Y-1153D01*
X55382Y-1144D01*
X55000Y-1068D01*
X36093D01*
X34932Y93D01*
Y5500D01*
Y29084D01*
X34931Y29086D01*
X34932Y29088D01*
X34932Y29092D01*
X34922Y29142D01*
X35047Y30421D01*
X35434Y31695D01*
X36062Y32869D01*
X36883Y33870D01*
X36928Y33900D01*
X36929Y33901D01*
X36931Y33902D01*
X59652Y56623D01*
X59732Y56577D01*
X59989Y56508D01*
X60102Y56462D01*
X60231Y56436D01*
X60354Y56394D01*
X60476Y56378D01*
X60733Y56309D01*
X61000D01*
X61122Y56293D01*
X61252Y56302D01*
X61382Y56293D01*
X61504Y56309D01*
X61771D01*
X62028Y56378D01*
X62150Y56394D01*
X62273Y56436D01*
X62402Y56462D01*
X62515Y56508D01*
X62772Y56577D01*
X63003Y56711D01*
X63117Y56758D01*
X63225Y56830D01*
X63342Y56888D01*
X63440Y56963D01*
X63671Y57096D01*
X63859Y57284D01*
X63956Y57359D01*
X64043Y57458D01*
X64141Y57544D01*
X64215Y57641D01*
X64404Y57829D01*
X64537Y58060D01*
X64612Y58158D01*
X64670Y58275D01*
X64742Y58384D01*
X64789Y58497D01*
X64922Y58728D01*
X64991Y58985D01*
X65038Y59098D01*
X65064Y59227D01*
X65106Y59350D01*
X65122Y59472D01*
X65191Y59729D01*
Y59996D01*
X65207Y60118D01*
X65198Y60248D01*
X65207Y60378D01*
X65191Y60500D01*
Y60767D01*
X65122Y61024D01*
X65106Y61146D01*
X65064Y61269D01*
X65038Y61398D01*
X64991Y61511D01*
X64922Y61768D01*
X64789Y61999D01*
X64742Y62113D01*
X64670Y62221D01*
X64612Y62339D01*
X64537Y62436D01*
X64404Y62667D01*
X64215Y62855D01*
X64141Y62952D01*
X64043Y63039D01*
X63956Y63137D01*
X63859Y63212D01*
X63671Y63400D01*
X63440Y63533D01*
X63342Y63608D01*
X63225Y63666D01*
X63117Y63738D01*
X63003Y63785D01*
X62772Y63919D01*
X62515Y63988D01*
X62402Y64034D01*
X62273Y64060D01*
X62150Y64102D01*
X62028Y64118D01*
X61771Y64187D01*
X61504D01*
X61382Y64203D01*
D02*
G37*
G36*
X136771Y139187D02*
X135733D01*
X134732Y138919D01*
X133833Y138400D01*
X133100Y137667D01*
X132581Y136768D01*
X132313Y135767D01*
Y134729D01*
X132581Y133728D01*
X133100Y132829D01*
X133833Y132096D01*
X134732Y131578D01*
X135733Y131309D01*
X136771D01*
X137772Y131578D01*
X137856Y131626D01*
X138062Y131420D01*
X138116Y131384D01*
X139144Y130131D01*
X139938Y128646D01*
X140427Y127034D01*
X140585Y125421D01*
X140573Y125358D01*
Y61273D01*
X140073Y61207D01*
X139922Y61768D01*
X139404Y62667D01*
X138671Y63400D01*
X137772Y63919D01*
X136771Y64187D01*
X135733D01*
X134732Y63919D01*
X133833Y63400D01*
X133100Y62667D01*
X132581Y61768D01*
X132313Y60767D01*
Y59729D01*
X132581Y58728D01*
X133100Y57829D01*
X133833Y57096D01*
X134732Y56577D01*
X135733Y56309D01*
X135801D01*
X136274Y55423D01*
X137354Y54107D01*
X137364Y54118D01*
X157987Y33495D01*
X158334Y33148D01*
X158658Y32783D01*
X159415Y31859D01*
X160209Y30374D01*
X160698Y28762D01*
X160857Y27149D01*
X160845Y27086D01*
Y5500D01*
Y2772D01*
X159697D01*
Y2772D01*
X159272Y2952D01*
Y3331D01*
X153728D01*
Y-1819D01*
X153728D01*
Y-2181D01*
X153728D01*
Y-7331D01*
X154197D01*
Y-12669D01*
X153728D01*
Y-17819D01*
X153728D01*
Y-18181D01*
X153728D01*
Y-23331D01*
X154734D01*
Y-24288D01*
X154478Y-24673D01*
X154339Y-25370D01*
Y-30095D01*
X154478Y-30792D01*
X154873Y-31383D01*
X155464Y-31778D01*
X156161Y-31917D01*
X156859Y-31778D01*
X157441Y-31389D01*
X158023Y-31778D01*
X158721Y-31917D01*
X159418Y-31778D01*
X160000Y-31389D01*
X160582Y-31778D01*
X161279Y-31917D01*
X161977Y-31778D01*
X162559Y-31389D01*
X163141Y-31778D01*
X163594Y-31868D01*
X164331Y-32605D01*
X164331Y-32605D01*
X164794Y-32915D01*
X165340Y-33024D01*
X167228D01*
Y-35346D01*
X172772D01*
Y-32215D01*
X177480Y-27507D01*
X177480Y-27507D01*
X177789Y-27044D01*
X177802Y-26980D01*
X185929D01*
Y-17747D01*
X186009Y-17667D01*
X186009Y-17666D01*
X186318Y-17204D01*
X186427Y-16657D01*
X186427Y-16657D01*
Y-10681D01*
X188067D01*
Y-6319D01*
X187313D01*
X187106Y-5819D01*
X187636Y-5290D01*
X188234Y-4254D01*
X188543Y-3098D01*
Y-1902D01*
X188234Y-746D01*
X187636Y290D01*
X186790Y1135D01*
X185754Y1734D01*
X184598Y2043D01*
X183402D01*
X182246Y1734D01*
X181210Y1135D01*
X180365Y290D01*
X179766Y-746D01*
X179457Y-1902D01*
Y-2446D01*
X179012Y-2579D01*
Y-2579D01*
X172878D01*
Y-3241D01*
X172772Y-3697D01*
X167228D01*
Y-8846D01*
X172772D01*
Y-8094D01*
X173743D01*
X173743Y-8094D01*
X174440Y-7955D01*
X175031Y-7560D01*
X175651Y-6941D01*
X179012D01*
Y-6582D01*
X180374D01*
X180374Y-6582D01*
X181071Y-6443D01*
X181383Y-6235D01*
X181933Y-6553D01*
Y-10681D01*
X183573D01*
Y-15728D01*
X175071D01*
Y-25246D01*
X175043Y-25384D01*
X175043Y-25384D01*
Y-25907D01*
X170754Y-30197D01*
X168963D01*
X168825Y-30169D01*
X168825Y-30169D01*
X165932D01*
X165661Y-29899D01*
Y-25370D01*
X165522Y-24673D01*
X165127Y-24081D01*
X164536Y-23686D01*
X163839Y-23548D01*
X163207Y-23673D01*
X162961Y-23590D01*
X162706Y-23454D01*
Y-17089D01*
X162729D01*
X162531Y-15583D01*
X161983Y-14262D01*
X161983Y-14262D01*
X161693Y-13884D01*
X161509Y-13610D01*
X161429Y-13208D01*
X161427D01*
Y-8000D01*
X161418Y-7956D01*
X161569Y-7200D01*
X162022Y-6522D01*
X162700Y-6069D01*
X163031Y-6003D01*
X163500Y-5929D01*
Y-5929D01*
X164388Y-5812D01*
X165215Y-5470D01*
X165925Y-4925D01*
X166470Y-4214D01*
X166812Y-3387D01*
X166929Y-2500D01*
X166927D01*
Y4586D01*
X166941D01*
X166821Y5500D01*
X166776Y5843D01*
X166291Y7013D01*
X165878Y7552D01*
D01*
X165519Y8019D01*
X165427Y8481D01*
Y27858D01*
X165435D01*
X165294Y29647D01*
X164875Y31391D01*
X164189Y33049D01*
X163251Y34579D01*
X162086Y35943D01*
X162086Y35943D01*
X161727Y36292D01*
X145938Y52080D01*
X145884Y52116D01*
X144856Y53369D01*
X144062Y54854D01*
X143573Y56466D01*
X143414Y58079D01*
X143427Y58142D01*
Y125358D01*
X143435D01*
X143294Y127147D01*
X142875Y128891D01*
X142189Y130549D01*
X141251Y132079D01*
X140086Y133443D01*
X139967Y133895D01*
X140191Y134729D01*
Y135767D01*
X139922Y136768D01*
X139404Y137667D01*
X138671Y138400D01*
X137772Y138919D01*
X136771Y139187D01*
D02*
G37*
G36*
X137752Y45290D02*
Y45277D01*
X58752D01*
Y45290D01*
X58592Y45277D01*
X58159D01*
X58084Y45263D01*
X58009Y45270D01*
X56829Y45154D01*
X56761Y45133D01*
X56742Y45132D01*
X56680D01*
X56640Y45124D01*
X56622Y45122D01*
X56571Y45110D01*
X55517Y44900D01*
X55447Y44871D01*
X55371Y44864D01*
X54710Y44663D01*
X54545Y44624D01*
X54452Y44585D01*
X54237Y44520D01*
X54170Y44484D01*
X54095Y44469D01*
X52999Y44015D01*
X52936Y43973D01*
X52864Y43951D01*
X52666Y43845D01*
X52572Y43806D01*
X52428Y43718D01*
X51818Y43392D01*
X51759Y43344D01*
X51689Y43315D01*
X50795Y42718D01*
X50750Y42690D01*
X50737Y42679D01*
X50703Y42656D01*
X50659Y42612D01*
X50645Y42600D01*
X50582Y42566D01*
X49665Y41814D01*
X49617Y41755D01*
X49554Y41713D01*
X49248Y41407D01*
X49126Y41303D01*
X49135Y41294D01*
X38170Y30329D01*
X37839Y29833D01*
X37723Y29248D01*
X37839Y28663D01*
X38170Y28167D01*
X38667Y27835D01*
X39252Y27719D01*
X157252D01*
X157837Y27835D01*
X158333Y28167D01*
X158665Y28663D01*
X158781Y29248D01*
X158665Y29833D01*
X158333Y30329D01*
X147369Y41294D01*
X147378Y41303D01*
X147256Y41407D01*
X146950Y41713D01*
X146887Y41755D01*
X146838Y41814D01*
X145922Y42566D01*
X145859Y42600D01*
X145844Y42612D01*
X145801Y42656D01*
X145767Y42679D01*
X145754Y42690D01*
X145708Y42718D01*
X144815Y43315D01*
X144745Y43344D01*
X144686Y43392D01*
X144076Y43718D01*
X143932Y43806D01*
X143838Y43845D01*
X143640Y43951D01*
X143568Y43973D01*
X143505Y44015D01*
X142409Y44469D01*
X142334Y44484D01*
X142267Y44520D01*
X142052Y44585D01*
X141959Y44624D01*
X141794Y44663D01*
X141132Y44864D01*
X141057Y44871D01*
X140987Y44900D01*
X139933Y45110D01*
X139882Y45122D01*
X139864Y45124D01*
X139824Y45132D01*
X139762D01*
X139743Y45133D01*
X139675Y45154D01*
X138495Y45270D01*
X138419Y45263D01*
X138345Y45277D01*
X137912D01*
X137752Y45290D01*
D02*
G37*
G36*
X177795Y28817D02*
X176166D01*
X176018Y28787D01*
X175868D01*
X174270Y28470D01*
X174131Y28412D01*
X173983Y28383D01*
X172479Y27759D01*
X172353Y27676D01*
X172214Y27618D01*
X170860Y26713D01*
X170754Y26607D01*
X170628Y26523D01*
X169477Y25372D01*
X169393Y25246D01*
X169287Y25140D01*
X168382Y23786D01*
X168324Y23646D01*
X168241Y23521D01*
X167617Y22017D01*
X167588Y21869D01*
X167530Y21730D01*
X167213Y20132D01*
Y19982D01*
X167183Y19834D01*
Y18205D01*
X167213Y18058D01*
Y17907D01*
X167530Y16310D01*
X167588Y16171D01*
X167617Y16023D01*
X168241Y14518D01*
X168324Y14393D01*
X168382Y14254D01*
X169287Y12900D01*
X169393Y12793D01*
X169477Y12668D01*
X170628Y11516D01*
X170754Y11433D01*
X170860Y11326D01*
X172214Y10421D01*
X172353Y10364D01*
X172479Y10280D01*
X173983Y9657D01*
X174131Y9627D01*
X174270Y9570D01*
X175868Y9252D01*
X176018D01*
X176166Y9223D01*
X177795D01*
X177942Y9252D01*
X178093D01*
X179690Y9570D01*
X179829Y9627D01*
X179977Y9657D01*
X181482Y10280D01*
X181607Y10364D01*
X181746Y10421D01*
X183100Y11326D01*
X183207Y11433D01*
X183332Y11516D01*
X184484Y12668D01*
X184567Y12793D01*
X184674Y12900D01*
X185579Y14254D01*
X185636Y14393D01*
X185720Y14518D01*
X186343Y16023D01*
X186373Y16171D01*
X186430Y16310D01*
X186748Y17907D01*
Y18058D01*
X186777Y18205D01*
Y19834D01*
X186748Y19982D01*
Y20132D01*
X186430Y21730D01*
X186373Y21869D01*
X186343Y22017D01*
X185720Y23521D01*
X185636Y23646D01*
X185579Y23786D01*
X184674Y25140D01*
X184567Y25246D01*
X184484Y25372D01*
X183332Y26523D01*
X183207Y26607D01*
X183100Y26713D01*
X181746Y27618D01*
X181607Y27676D01*
X181482Y27759D01*
X179977Y28383D01*
X179829Y28412D01*
X179690Y28470D01*
X178093Y28787D01*
X177942D01*
X177795Y28817D01*
D02*
G37*
G36*
X20314D02*
X18686D01*
X18538Y28787D01*
X18387D01*
X16790Y28470D01*
X16651Y28412D01*
X16503Y28383D01*
X14999Y27759D01*
X14873Y27676D01*
X14734Y27618D01*
X13380Y26713D01*
X13273Y26607D01*
X13148Y26523D01*
X11997Y25372D01*
X11913Y25246D01*
X11806Y25140D01*
X10902Y23786D01*
X10844Y23646D01*
X10760Y23521D01*
X10137Y22017D01*
X10108Y21869D01*
X10050Y21730D01*
X9732Y20132D01*
Y19982D01*
X9703Y19834D01*
Y18205D01*
X9732Y18058D01*
Y17907D01*
X10050Y16310D01*
X10108Y16171D01*
X10137Y16023D01*
X10760Y14518D01*
X10844Y14393D01*
X10902Y14254D01*
X11806Y12900D01*
X11913Y12793D01*
X11997Y12668D01*
X13148Y11516D01*
X13273Y11433D01*
X13380Y11326D01*
X14734Y10421D01*
X14873Y10364D01*
X14999Y10280D01*
X16503Y9657D01*
X16651Y9627D01*
X16790Y9570D01*
X18387Y9252D01*
X18538D01*
X18686Y9223D01*
X20314D01*
X20462Y9252D01*
X20613D01*
X22210Y9570D01*
X22349Y9627D01*
X22497Y9657D01*
X24002Y10280D01*
X24127Y10364D01*
X24266Y10421D01*
X25620Y11326D01*
X25727Y11433D01*
X25852Y11516D01*
X27003Y12668D01*
X27087Y12793D01*
X27194Y12900D01*
X28098Y14254D01*
X28156Y14393D01*
X28240Y14518D01*
X28863Y16023D01*
X28892Y16171D01*
X28950Y16310D01*
X29268Y17907D01*
Y18058D01*
X29297Y18205D01*
Y19834D01*
X29268Y19982D01*
Y20132D01*
X28950Y21730D01*
X28892Y21869D01*
X28863Y22017D01*
X28240Y23521D01*
X28156Y23646D01*
X28098Y23786D01*
X27194Y25140D01*
X27087Y25246D01*
X27003Y25372D01*
X25852Y26523D01*
X25727Y26607D01*
X25620Y26713D01*
X24266Y27618D01*
X24127Y27676D01*
X24002Y27759D01*
X22497Y28383D01*
X22349Y28412D01*
X22210Y28470D01*
X20613Y28787D01*
X20462D01*
X20314Y28817D01*
D02*
G37*
G36*
X131181Y-11848D02*
X131000Y-11859D01*
X130819Y-11848D01*
X130100Y-11942D01*
X129928Y-12000D01*
X129751Y-12036D01*
X129080Y-12314D01*
X128930Y-12414D01*
X128767Y-12494D01*
X128192Y-12936D01*
X128072Y-13072D01*
X127936Y-13192D01*
X127494Y-13767D01*
X127414Y-13930D01*
X127314Y-14080D01*
X127036Y-14751D01*
X127000Y-14928D01*
X126942Y-15100D01*
X126848Y-15819D01*
X126859Y-16000D01*
X126848Y-16181D01*
X126942Y-16900D01*
X127000Y-17072D01*
X127036Y-17249D01*
X127314Y-17920D01*
X127414Y-18070D01*
X127494Y-18233D01*
X127936Y-18808D01*
X128072Y-18928D01*
X128192Y-19064D01*
X128767Y-19506D01*
X128930Y-19586D01*
X129080Y-19686D01*
X129183Y-19729D01*
Y-25247D01*
X122507Y-31923D01*
X81598D01*
X81390Y-31611D01*
Y-31559D01*
X81337D01*
X80920Y-31280D01*
X80390Y-31174D01*
X75665D01*
X75135Y-31280D01*
X74718Y-31559D01*
X74665D01*
Y-31611D01*
X74386Y-32029D01*
X74281Y-32559D01*
Y-34921D01*
X74386Y-35451D01*
X74665Y-35869D01*
Y-35921D01*
X74718D01*
X75135Y-36200D01*
X75665Y-36306D01*
X80390D01*
X80920Y-36200D01*
X81337Y-35921D01*
X81390D01*
Y-35869D01*
X81598Y-35557D01*
X123260D01*
X123790Y-35452D01*
X124095Y-35325D01*
X124545Y-35025D01*
X124545Y-35025D01*
X132285Y-27285D01*
X132285Y-27285D01*
X132585Y-26836D01*
X132585Y-26836D01*
X132712Y-26530D01*
X132817Y-26000D01*
Y-19729D01*
X132920Y-19686D01*
X133070Y-19586D01*
X133233Y-19506D01*
X133808Y-19064D01*
X133928Y-18928D01*
X134064Y-18808D01*
X134506Y-18233D01*
X134586Y-18070D01*
X134686Y-17920D01*
X134964Y-17249D01*
X135000Y-17072D01*
X135058Y-16900D01*
X135152Y-16181D01*
X135141Y-16000D01*
X135152Y-15819D01*
X135058Y-15100D01*
X135000Y-14928D01*
X134964Y-14751D01*
X134686Y-14080D01*
X134586Y-13930D01*
X134506Y-13767D01*
X134064Y-13192D01*
X133928Y-13072D01*
X133808Y-12936D01*
X133233Y-12494D01*
X133070Y-12414D01*
X132920Y-12314D01*
X132249Y-12036D01*
X132072Y-12000D01*
X131900Y-11942D01*
X131181Y-11848D01*
D02*
G37*
G36*
X96681D02*
X96500Y-11859D01*
X96319Y-11848D01*
X95600Y-11942D01*
X95428Y-12000D01*
X95251Y-12036D01*
X94580Y-12314D01*
X94430Y-12414D01*
X94267Y-12494D01*
X93692Y-12936D01*
X93572Y-13072D01*
X93436Y-13192D01*
X92994Y-13767D01*
X92914Y-13930D01*
X92814Y-14080D01*
X92536Y-14751D01*
X92501Y-14928D01*
X92442Y-15100D01*
X92348Y-15819D01*
X92360Y-16000D01*
X92348Y-16181D01*
X92442Y-16900D01*
X92501Y-17072D01*
X92536Y-17249D01*
X92814Y-17920D01*
X92914Y-18070D01*
X92994Y-18233D01*
X93436Y-18808D01*
X93572Y-18928D01*
X93692Y-19064D01*
X94267Y-19506D01*
X94430Y-19586D01*
X94580Y-19686D01*
X94683Y-19729D01*
Y-22747D01*
X92988Y-24443D01*
X81598D01*
X81390Y-24131D01*
Y-24079D01*
X81337D01*
X80920Y-23800D01*
X80390Y-23694D01*
X75665D01*
X75543Y-23719D01*
X75043Y-23308D01*
Y-20772D01*
X76346D01*
Y-15228D01*
X71197D01*
Y-15624D01*
X70735Y-15815D01*
X70702Y-15782D01*
X70070Y-15417D01*
X69365Y-15228D01*
X68635D01*
X67930Y-15417D01*
X67298Y-15782D01*
X66782Y-16298D01*
X66417Y-16930D01*
X66228Y-17635D01*
Y-18365D01*
X66417Y-19070D01*
X66782Y-19702D01*
X67298Y-20218D01*
X67930Y-20583D01*
X68635Y-20772D01*
X69365D01*
X70070Y-20583D01*
X70702Y-20218D01*
X70735Y-20185D01*
X71197Y-20376D01*
Y-20772D01*
X72189D01*
Y-24079D01*
X65610D01*
Y-24833D01*
X64240D01*
X63694Y-24941D01*
X63231Y-25251D01*
X63231Y-25251D01*
X62831Y-25651D01*
X62331Y-25444D01*
Y-24728D01*
X57181D01*
X57181Y-24728D01*
X56700Y-24684D01*
X56349Y-24449D01*
X55819Y-24344D01*
X55077D01*
Y-21492D01*
X55389Y-21283D01*
X55441D01*
Y-21231D01*
X55720Y-20813D01*
X55826Y-20283D01*
Y-15775D01*
X57757D01*
X58559Y-16577D01*
Y-21283D01*
X62921D01*
Y-14559D01*
X60577D01*
X59357Y-13339D01*
X58894Y-13029D01*
X58348Y-12921D01*
X58348Y-12921D01*
X48077D01*
X48077Y-12921D01*
X47531Y-13029D01*
X47068Y-13339D01*
X47068Y-13339D01*
X46253Y-14154D01*
X42728D01*
Y-19303D01*
X42728D01*
X42885Y-19803D01*
X42667Y-20180D01*
X42478Y-20885D01*
Y-21615D01*
X42667Y-22320D01*
X43032Y-22952D01*
X43548Y-23468D01*
X44180Y-23833D01*
X44885Y-24022D01*
X45615D01*
X46320Y-23833D01*
X46952Y-23468D01*
X47468Y-22952D01*
X47833Y-22320D01*
X48022Y-21615D01*
Y-20885D01*
X47833Y-20180D01*
X47615Y-19803D01*
X47904Y-19303D01*
X48272D01*
Y-16172D01*
X48668Y-15775D01*
X50694D01*
Y-20283D01*
X50800Y-20813D01*
X51079Y-21231D01*
Y-21283D01*
X51131D01*
X51443Y-21492D01*
Y-25120D01*
X51390Y-25199D01*
X51285Y-25728D01*
Y-29272D01*
X51390Y-29801D01*
X51420Y-29846D01*
X51669Y-30272D01*
Y-30728D01*
X51435Y-31131D01*
X51390Y-31198D01*
X51285Y-31728D01*
Y-35272D01*
X51390Y-35802D01*
X51669Y-36219D01*
Y-36272D01*
X51722D01*
X52140Y-36551D01*
X52669Y-36656D01*
X53749D01*
X53759Y-36679D01*
X54059Y-37129D01*
X54059Y-37129D01*
X58715Y-41785D01*
X58715Y-41785D01*
X59164Y-42085D01*
X59470Y-42212D01*
X60000Y-42317D01*
X117747D01*
X128683Y-53253D01*
Y-55265D01*
X127457D01*
X126927Y-55370D01*
X126509Y-55650D01*
X126457D01*
Y-55702D01*
X126178Y-56120D01*
X126072Y-56650D01*
Y-57849D01*
X125610Y-58040D01*
X111285Y-43715D01*
X111285Y-43715D01*
X110836Y-43415D01*
X110530Y-43288D01*
X110000Y-43183D01*
X48253D01*
X31577Y-26507D01*
Y-21992D01*
X31889Y-21783D01*
X31941D01*
Y-21731D01*
X32220Y-21313D01*
X32326Y-20784D01*
Y-16059D01*
X32434Y-15927D01*
X35032D01*
Y-17640D01*
X35032Y-17640D01*
X35059Y-17778D01*
Y-21783D01*
X39421D01*
Y-15059D01*
X37886D01*
Y-14968D01*
X37777Y-14422D01*
X37468Y-13959D01*
X37468Y-13959D01*
X37000Y-13491D01*
X36537Y-13182D01*
X35991Y-13073D01*
X35990Y-13073D01*
X26500D01*
X25954Y-13182D01*
X25491Y-13491D01*
X25491Y-13491D01*
X24328Y-14654D01*
X19228D01*
Y-19803D01*
X19624D01*
X19815Y-20265D01*
X19782Y-20298D01*
X19417Y-20930D01*
X19228Y-21635D01*
Y-22365D01*
X19417Y-23070D01*
X19782Y-23702D01*
X20298Y-24218D01*
X20930Y-24583D01*
X21635Y-24772D01*
X22365D01*
X23070Y-24583D01*
X23702Y-24218D01*
X24218Y-23702D01*
X24583Y-23070D01*
X24772Y-22365D01*
Y-21635D01*
X24583Y-20930D01*
X24218Y-20298D01*
X24185Y-20265D01*
X24376Y-19803D01*
X24772D01*
Y-17871D01*
X25048Y-17816D01*
X25511Y-17507D01*
X26694Y-16324D01*
X27194Y-16531D01*
Y-20784D01*
X27300Y-21313D01*
X27579Y-21731D01*
Y-21783D01*
X27631D01*
X27943Y-21992D01*
Y-27260D01*
X28048Y-27790D01*
X28175Y-28095D01*
X28475Y-28545D01*
X28475Y-28545D01*
X46215Y-46285D01*
X46215Y-46285D01*
X46664Y-46585D01*
X46970Y-46712D01*
X47500Y-46817D01*
X109247D01*
X125095Y-62665D01*
X125095Y-62665D01*
X125544Y-62965D01*
X125850Y-63092D01*
X125850Y-63092D01*
X126072Y-63136D01*
Y-64130D01*
X126178Y-64660D01*
X126457Y-65078D01*
Y-69461D01*
Y-73791D01*
Y-77158D01*
X125957Y-77436D01*
X125461Y-77303D01*
X124783D01*
X124128Y-77479D01*
X123541Y-77818D01*
X123062Y-78297D01*
X122723Y-78884D01*
X122547Y-79539D01*
Y-80217D01*
X122723Y-80872D01*
X123062Y-81459D01*
X123399Y-81796D01*
X123538Y-81953D01*
X123416Y-82443D01*
X123231Y-82628D01*
X122892Y-83215D01*
X122716Y-83870D01*
Y-84548D01*
X122892Y-85202D01*
X123231Y-85790D01*
X123710Y-86269D01*
X124297Y-86608D01*
X124952Y-86783D01*
X125630D01*
X125957Y-86696D01*
X126026Y-86708D01*
X126457Y-87059D01*
Y-91114D01*
X135543D01*
Y-86783D01*
Y-82453D01*
Y-78149D01*
X137728D01*
Y-80847D01*
X141537D01*
X141675Y-80874D01*
X143428D01*
X144063Y-81509D01*
X144063Y-81509D01*
X144526Y-81818D01*
X145072Y-81927D01*
X145072Y-81927D01*
X145819D01*
Y-84453D01*
X146573D01*
Y-94228D01*
X145669D01*
Y-99772D01*
X150819D01*
Y-94228D01*
X149799D01*
X149664Y-94008D01*
X149909Y-93542D01*
X149945Y-93508D01*
X153921D01*
Y-88429D01*
X156073D01*
X156073Y-88429D01*
X156619Y-88320D01*
X157082Y-88011D01*
X162247Y-82846D01*
X165772D01*
Y-79234D01*
X165799Y-79097D01*
Y-78731D01*
X170124Y-74405D01*
X175421D01*
Y-71846D01*
Y-69287D01*
Y-66728D01*
Y-63153D01*
X168106D01*
Y-64435D01*
X167644Y-64626D01*
X167269Y-64251D01*
X166806Y-63942D01*
X166260Y-63833D01*
X165890Y-63525D01*
Y-63079D01*
X159165D01*
Y-67441D01*
X165890D01*
Y-67441D01*
X166267Y-67285D01*
X167103Y-68121D01*
X167103Y-68121D01*
X167566Y-68431D01*
X168106Y-68538D01*
Y-69109D01*
X168007Y-69129D01*
X167544Y-69438D01*
X166267Y-70715D01*
X165890Y-70559D01*
Y-70559D01*
X159165D01*
Y-70920D01*
X158665Y-71071D01*
X158509Y-70837D01*
X158509Y-70837D01*
X156835Y-69163D01*
Y-67441D01*
Y-63079D01*
X150110D01*
Y-63833D01*
X147331D01*
Y-63228D01*
X142319D01*
X142181Y-63228D01*
X141819D01*
X141681Y-63228D01*
X136669D01*
Y-65459D01*
X135804D01*
X135623Y-64959D01*
X135822Y-64660D01*
X135928Y-64130D01*
Y-60980D01*
X135822Y-60451D01*
X135782Y-60390D01*
X135822Y-60329D01*
X135928Y-59799D01*
Y-56650D01*
X135822Y-56120D01*
X135543Y-55702D01*
Y-55650D01*
X135491D01*
X135073Y-55370D01*
X134543Y-55265D01*
X132317D01*
Y-52500D01*
X132212Y-51970D01*
X132085Y-51664D01*
X131785Y-51215D01*
X131785Y-51215D01*
X119785Y-39215D01*
X119785Y-39215D01*
X119336Y-38915D01*
X119030Y-38788D01*
X118500Y-38683D01*
X60753D01*
X58803Y-36734D01*
X58995Y-36272D01*
X62331D01*
Y-35167D01*
X65610D01*
Y-35921D01*
X72335D01*
Y-31427D01*
X73148D01*
X73148Y-31427D01*
X73694Y-31318D01*
X74157Y-31009D01*
X74625Y-30541D01*
X74625Y-30541D01*
X74934Y-30078D01*
X75043Y-29532D01*
Y-29212D01*
X75543Y-28801D01*
X75665Y-28826D01*
X80390D01*
X80920Y-28720D01*
X81337Y-28441D01*
X81390D01*
Y-28389D01*
X81598Y-28077D01*
X93740D01*
X94270Y-27972D01*
X94576Y-27845D01*
X95025Y-27545D01*
X95025Y-27545D01*
X97785Y-24785D01*
X97785Y-24785D01*
X98085Y-24336D01*
X98085Y-24336D01*
X98212Y-24030D01*
X98317Y-23500D01*
Y-19729D01*
X98420Y-19686D01*
X98570Y-19586D01*
X98733Y-19506D01*
X99308Y-19064D01*
X99428Y-18928D01*
X99564Y-18808D01*
X100006Y-18233D01*
X100086Y-18070D01*
X100186Y-17920D01*
X100464Y-17249D01*
X100499Y-17072D01*
X100558Y-16900D01*
X100652Y-16181D01*
X100640Y-16000D01*
X100652Y-15819D01*
X100558Y-15100D01*
X100499Y-14928D01*
X100464Y-14751D01*
X100186Y-14080D01*
X100086Y-13930D01*
X100006Y-13767D01*
X99564Y-13192D01*
X99428Y-13072D01*
X99308Y-12936D01*
X98733Y-12494D01*
X98570Y-12414D01*
X98420Y-12314D01*
X97749Y-12036D01*
X97572Y-12000D01*
X97400Y-11942D01*
X96681Y-11848D01*
D02*
G37*
G36*
X179012Y-10059D02*
X172878D01*
Y-14421D01*
X179012D01*
Y-10059D01*
D02*
G37*
G36*
X152772Y-36181D02*
X147228D01*
Y-41331D01*
X152772D01*
X152772Y-41331D01*
Y-41331D01*
X153168Y-41568D01*
X153270Y-41647D01*
X153859Y-42415D01*
X154229Y-43308D01*
X154339Y-44141D01*
Y-46630D01*
X154478Y-47327D01*
X154873Y-47919D01*
X155101Y-48071D01*
X155152Y-48707D01*
X154940Y-48919D01*
X154601Y-49506D01*
X154425Y-50161D01*
Y-50839D01*
X154601Y-51494D01*
X154940Y-52081D01*
X155419Y-52560D01*
X156006Y-52899D01*
X156661Y-53075D01*
X157339D01*
X157994Y-52899D01*
X158581Y-52560D01*
X159060Y-52081D01*
X159399Y-51494D01*
X159491Y-51151D01*
X160009D01*
X160101Y-51494D01*
X160440Y-52081D01*
X160919Y-52560D01*
X161506Y-52899D01*
X162161Y-53075D01*
X162839D01*
X163494Y-52899D01*
X164081Y-52560D01*
X164560Y-52081D01*
X164899Y-51494D01*
X165075Y-50839D01*
Y-50161D01*
X164899Y-49506D01*
X164560Y-48919D01*
X164081Y-48440D01*
X163494Y-48101D01*
X163110Y-47998D01*
X162883Y-47465D01*
X162885Y-47444D01*
X162963Y-47327D01*
X163102Y-46630D01*
Y-41906D01*
X162963Y-41208D01*
X162568Y-40617D01*
X161977Y-40222D01*
X161279Y-40083D01*
X160582Y-40222D01*
X160000Y-40611D01*
X159418Y-40222D01*
X158721Y-40083D01*
X158023Y-40222D01*
X157441Y-40611D01*
X156859Y-40222D01*
X156752Y-40201D01*
X156748Y-40193D01*
X155836Y-39081D01*
X154725Y-38169D01*
X153456Y-37492D01*
X152772Y-37284D01*
Y-36181D01*
D02*
G37*
G36*
X69043Y-55650D02*
X59957D01*
Y-60799D01*
Y-65459D01*
X59181D01*
X58911Y-64991D01*
X58395Y-64475D01*
X57763Y-64110D01*
X57058Y-63921D01*
X56328D01*
X55623Y-64110D01*
X54991Y-64475D01*
X54475Y-64991D01*
X54110Y-65623D01*
X53921Y-66328D01*
Y-67058D01*
X54110Y-67763D01*
X54475Y-68395D01*
X54969Y-68889D01*
X54973Y-69162D01*
X54972Y-69173D01*
X54899Y-69435D01*
X54298Y-69782D01*
X53782Y-70298D01*
X53417Y-70930D01*
X53228Y-71635D01*
Y-72365D01*
X53417Y-73070D01*
X53782Y-73702D01*
X54298Y-74218D01*
X54930Y-74583D01*
X55635Y-74772D01*
X56365D01*
X57070Y-74583D01*
X57702Y-74218D01*
X58218Y-73702D01*
X58583Y-73070D01*
X58697Y-72644D01*
X59957D01*
Y-78451D01*
X57772D01*
Y-75697D01*
X52228D01*
Y-76845D01*
X51272D01*
Y-75697D01*
X46054D01*
X45570Y-75417D01*
X44865Y-75228D01*
X44135D01*
X43430Y-75417D01*
X42798Y-75782D01*
X42282Y-76298D01*
X41917Y-76930D01*
X41728Y-77635D01*
Y-78365D01*
X41917Y-79070D01*
X42282Y-79702D01*
X42798Y-80218D01*
X43430Y-80583D01*
X44135Y-80772D01*
X44865D01*
X45228Y-80674D01*
X45728Y-80847D01*
Y-80847D01*
X51272D01*
Y-79699D01*
X52228D01*
Y-80847D01*
X55753D01*
X55794Y-80887D01*
X55794Y-80887D01*
X56257Y-81196D01*
X56803Y-81305D01*
X56803Y-81305D01*
X59957D01*
Y-82453D01*
X69043D01*
Y-78122D01*
Y-73791D01*
Y-69461D01*
Y-65130D01*
Y-60799D01*
Y-55650D01*
D02*
G37*
G36*
Y-85965D02*
X59957D01*
Y-91114D01*
X69043D01*
Y-85965D01*
D02*
G37*
G36*
Y-100925D02*
X59957D01*
Y-106075D01*
Y-110734D01*
X56772D01*
Y-110197D01*
X51228D01*
Y-110734D01*
X50272D01*
Y-110197D01*
X45117D01*
X44702Y-109782D01*
X44070Y-109417D01*
X43365Y-109228D01*
X42635D01*
X41930Y-109417D01*
X41298Y-109782D01*
X40782Y-110298D01*
X40417Y-110930D01*
X40228Y-111635D01*
Y-112365D01*
X40417Y-113070D01*
X40782Y-113702D01*
X41298Y-114218D01*
X41930Y-114583D01*
X42635Y-114772D01*
X43365D01*
X44070Y-114583D01*
X44228Y-114491D01*
X44728Y-114780D01*
Y-115347D01*
X48537D01*
X48675Y-115374D01*
X48813Y-115347D01*
X50272D01*
Y-113588D01*
X51228D01*
Y-115347D01*
X56772D01*
Y-113588D01*
X59957D01*
Y-119067D01*
X69043D01*
Y-114736D01*
Y-110406D01*
Y-106075D01*
Y-100925D01*
D02*
G37*
G36*
X135543D02*
X126457D01*
Y-106075D01*
Y-110406D01*
Y-114736D01*
X135543D01*
Y-112407D01*
X136060Y-112305D01*
X136523Y-111995D01*
X137335Y-111183D01*
X138728D01*
Y-112331D01*
X144272D01*
Y-107181D01*
X144272D01*
Y-106819D01*
X144272D01*
Y-101669D01*
X138728D01*
Y-102823D01*
X138210Y-102926D01*
X137747Y-103235D01*
X137747Y-103235D01*
X136005Y-104977D01*
X135543Y-104785D01*
Y-100925D01*
D02*
G37*
G36*
X147494Y-116744D02*
X146505D01*
X145550Y-117000D01*
X144694Y-117494D01*
X143994Y-118194D01*
X143536Y-118989D01*
X135543D01*
Y-118248D01*
X126457D01*
Y-123398D01*
X135543D01*
Y-122011D01*
X143536D01*
X143994Y-122806D01*
X144694Y-123505D01*
X145550Y-124000D01*
X146505Y-124256D01*
X147494D01*
X148450Y-124000D01*
X149306Y-123505D01*
X150005Y-122806D01*
X150500Y-121950D01*
X150756Y-120994D01*
Y-120006D01*
X150500Y-119050D01*
X150005Y-118194D01*
X149306Y-117494D01*
X148450Y-117000D01*
X147494Y-116744D01*
D02*
G37*
G36*
X166969Y-121941D02*
X166031D01*
X165126Y-122184D01*
X164315Y-122652D01*
X163652Y-123315D01*
X163183Y-124126D01*
X162941Y-125031D01*
Y-125969D01*
X163183Y-126874D01*
X163652Y-127685D01*
X164315Y-128348D01*
X165126Y-128816D01*
X166031Y-129059D01*
X166969D01*
X167485Y-128920D01*
X167736Y-129171D01*
X168392Y-129609D01*
X169166Y-129763D01*
X169228D01*
Y-129803D01*
X174772D01*
Y-129763D01*
X177020D01*
Y-129921D01*
X184925D01*
Y-125559D01*
X177020D01*
Y-125717D01*
X174772D01*
Y-124653D01*
X169958D01*
X169817Y-124126D01*
X169348Y-123315D01*
X168685Y-122652D01*
X167874Y-122184D01*
X166969Y-121941D01*
D02*
G37*
G36*
X190028Y-121575D02*
X189100Y-121760D01*
X189012Y-121819D01*
X186075D01*
Y-126181D01*
X187603D01*
Y-129145D01*
X184520Y-132228D01*
X181654D01*
Y-135095D01*
X181463Y-135286D01*
X180937Y-136072D01*
X180753Y-137000D01*
Y-140914D01*
X180750Y-140916D01*
X180014Y-141652D01*
X180013Y-141654D01*
X176342D01*
X176340Y-141652D01*
X175604Y-140916D01*
X174703Y-140395D01*
X173698Y-140126D01*
X173653D01*
Y-137772D01*
X173803D01*
Y-132228D01*
X168654D01*
Y-137772D01*
X168804D01*
Y-141278D01*
X168495Y-141654D01*
X166342D01*
X166340Y-141652D01*
X165604Y-140916D01*
X164703Y-140395D01*
X163698Y-140126D01*
X162657D01*
X161652Y-140395D01*
X160750Y-140916D01*
X160014Y-141652D01*
X160013Y-141654D01*
X156342D01*
X156340Y-141652D01*
X155604Y-140916D01*
X154703Y-140395D01*
X153698Y-140126D01*
X152657D01*
X151652Y-140395D01*
X150750Y-140916D01*
X150014Y-141652D01*
X149494Y-142553D01*
X149224Y-143558D01*
Y-144599D01*
X149494Y-145604D01*
X150014Y-146506D01*
X150750Y-147242D01*
X151652Y-147762D01*
X152657Y-148031D01*
X153698D01*
X154703Y-147762D01*
X155604Y-147242D01*
X156340Y-146506D01*
X156342Y-146503D01*
X160013D01*
X160014Y-146506D01*
X160750Y-147242D01*
X161652Y-147762D01*
X162657Y-148031D01*
X163698D01*
X164703Y-147762D01*
X165604Y-147242D01*
X166340Y-146506D01*
X166342Y-146503D01*
X170013D01*
X170014Y-146506D01*
X170750Y-147242D01*
X171651Y-147762D01*
X172657Y-148031D01*
X173698D01*
X174703Y-147762D01*
X175604Y-147242D01*
X176340Y-146506D01*
X176342Y-146503D01*
X180013D01*
X180014Y-146506D01*
X180750Y-147242D01*
X181651Y-147762D01*
X182657Y-148031D01*
X183698D01*
X184703Y-147762D01*
X185604Y-147242D01*
X186340Y-146506D01*
X186861Y-145604D01*
X187130Y-144599D01*
Y-143558D01*
X186861Y-142553D01*
X186340Y-141652D01*
X185604Y-140916D01*
X185602Y-140914D01*
Y-138004D01*
X185834Y-137772D01*
X186803D01*
Y-136803D01*
X191742Y-131864D01*
X192268Y-131077D01*
X192452Y-130150D01*
Y-126181D01*
X193980D01*
Y-121819D01*
X191043D01*
X190955Y-121760D01*
X190028Y-121575D01*
D02*
G37*
G36*
X143698Y-140126D02*
X142657D01*
X141651Y-140395D01*
X140750Y-140916D01*
X140014Y-141652D01*
X139494Y-142553D01*
X139224Y-143558D01*
Y-144599D01*
X139494Y-145604D01*
X140014Y-146506D01*
X140750Y-147242D01*
X141651Y-147762D01*
X142657Y-148031D01*
X143698D01*
X144703Y-147762D01*
X145604Y-147242D01*
X146340Y-146506D01*
X146861Y-145604D01*
X147130Y-144599D01*
Y-143558D01*
X146861Y-142553D01*
X146340Y-141652D01*
X145604Y-140916D01*
X144703Y-140395D01*
X143698Y-140126D01*
D02*
G37*
G36*
X133698D02*
X132657D01*
X131651Y-140395D01*
X130750Y-140916D01*
X130014Y-141652D01*
X129494Y-142553D01*
X129224Y-143558D01*
Y-144599D01*
X129494Y-145604D01*
X130014Y-146506D01*
X130750Y-147242D01*
X131651Y-147762D01*
X132657Y-148031D01*
X133698D01*
X134703Y-147762D01*
X135604Y-147242D01*
X136340Y-146506D01*
X136861Y-145604D01*
X137130Y-144599D01*
Y-143558D01*
X136861Y-142553D01*
X136340Y-141652D01*
X135604Y-140916D01*
X134703Y-140395D01*
X133698Y-140126D01*
D02*
G37*
G36*
X123698D02*
X122657D01*
X121651Y-140395D01*
X120750Y-140916D01*
X120014Y-141652D01*
X119494Y-142553D01*
X119224Y-143558D01*
Y-144599D01*
X119494Y-145604D01*
X120014Y-146506D01*
X120750Y-147242D01*
X121651Y-147762D01*
X122657Y-148031D01*
X123698D01*
X124703Y-147762D01*
X125604Y-147242D01*
X126340Y-146506D01*
X126860Y-145604D01*
X127130Y-144599D01*
Y-143558D01*
X126860Y-142553D01*
X126340Y-141652D01*
X125604Y-140916D01*
X124703Y-140395D01*
X123698Y-140126D01*
D02*
G37*
G36*
X113698D02*
X112657D01*
X111652Y-140395D01*
X110750Y-140916D01*
X110014Y-141652D01*
X109494Y-142553D01*
X109224Y-143558D01*
Y-144599D01*
X109494Y-145604D01*
X110014Y-146506D01*
X110750Y-147242D01*
X111652Y-147762D01*
X112657Y-148031D01*
X113698D01*
X114703Y-147762D01*
X115604Y-147242D01*
X116340Y-146506D01*
X116860Y-145604D01*
X117130Y-144599D01*
Y-143558D01*
X116860Y-142553D01*
X116340Y-141652D01*
X115604Y-140916D01*
X114703Y-140395D01*
X113698Y-140126D01*
D02*
G37*
G36*
X103698D02*
X102657D01*
X101652Y-140395D01*
X100750Y-140916D01*
X100014Y-141652D01*
X99494Y-142553D01*
X99224Y-143558D01*
Y-144599D01*
X99494Y-145604D01*
X100014Y-146506D01*
X100750Y-147242D01*
X101652Y-147762D01*
X102657Y-148031D01*
X103698D01*
X104703Y-147762D01*
X105604Y-147242D01*
X106340Y-146506D01*
X106860Y-145604D01*
X107130Y-144599D01*
Y-143558D01*
X106860Y-142553D01*
X106340Y-141652D01*
X105604Y-140916D01*
X104703Y-140395D01*
X103698Y-140126D01*
D02*
G37*
G36*
X93698D02*
X92657D01*
X91651Y-140395D01*
X90750Y-140916D01*
X90014Y-141652D01*
X89494Y-142553D01*
X89224Y-143558D01*
Y-144599D01*
X89494Y-145604D01*
X90014Y-146506D01*
X90750Y-147242D01*
X91651Y-147762D01*
X92657Y-148031D01*
X93698D01*
X94703Y-147762D01*
X95604Y-147242D01*
X96340Y-146506D01*
X96861Y-145604D01*
X97130Y-144599D01*
Y-143558D01*
X96861Y-142553D01*
X96340Y-141652D01*
X95604Y-140916D01*
X94703Y-140395D01*
X93698Y-140126D01*
D02*
G37*
G36*
X83698D02*
X82657D01*
X81652Y-140395D01*
X80750Y-140916D01*
X80014Y-141652D01*
X79494Y-142553D01*
X79224Y-143558D01*
Y-144599D01*
X79494Y-145604D01*
X80014Y-146506D01*
X80750Y-147242D01*
X81652Y-147762D01*
X82657Y-148031D01*
X83698D01*
X84703Y-147762D01*
X85604Y-147242D01*
X86340Y-146506D01*
X86861Y-145604D01*
X87130Y-144599D01*
Y-143558D01*
X86861Y-142553D01*
X86340Y-141652D01*
X85604Y-140916D01*
X84703Y-140395D01*
X83698Y-140126D01*
D02*
G37*
G36*
X73698D02*
X72657D01*
X71652Y-140395D01*
X70750Y-140916D01*
X70014Y-141652D01*
X69494Y-142553D01*
X69224Y-143558D01*
Y-144599D01*
X69494Y-145604D01*
X70014Y-146506D01*
X70750Y-147242D01*
X71652Y-147762D01*
X72657Y-148031D01*
X73698D01*
X74703Y-147762D01*
X75604Y-147242D01*
X76340Y-146506D01*
X76861Y-145604D01*
X77130Y-144599D01*
Y-143558D01*
X76861Y-142553D01*
X76340Y-141652D01*
X75604Y-140916D01*
X74703Y-140395D01*
X73698Y-140126D01*
D02*
G37*
G36*
X63698D02*
X62657D01*
X61651Y-140395D01*
X60750Y-140916D01*
X60014Y-141652D01*
X59494Y-142553D01*
X59224Y-143558D01*
Y-144599D01*
X59494Y-145604D01*
X60014Y-146506D01*
X60750Y-147242D01*
X61651Y-147762D01*
X62657Y-148031D01*
X63698D01*
X64703Y-147762D01*
X65604Y-147242D01*
X66340Y-146506D01*
X66861Y-145604D01*
X67130Y-144599D01*
Y-143558D01*
X66861Y-142553D01*
X66340Y-141652D01*
X65604Y-140916D01*
X64703Y-140395D01*
X63698Y-140126D01*
D02*
G37*
G36*
X53698D02*
X52657D01*
X51652Y-140395D01*
X50750Y-140916D01*
X50014Y-141652D01*
X49494Y-142553D01*
X49224Y-143558D01*
Y-144599D01*
X49494Y-145604D01*
X50014Y-146506D01*
X50750Y-147242D01*
X51652Y-147762D01*
X52657Y-148031D01*
X53698D01*
X54703Y-147762D01*
X55604Y-147242D01*
X56340Y-146506D01*
X56861Y-145604D01*
X57130Y-144599D01*
Y-143558D01*
X56861Y-142553D01*
X56340Y-141652D01*
X55604Y-140916D01*
X54703Y-140395D01*
X53698Y-140126D01*
D02*
G37*
G36*
X43698D02*
X42657D01*
X41651Y-140395D01*
X40750Y-140916D01*
X40014Y-141652D01*
X39494Y-142553D01*
X39224Y-143558D01*
Y-144599D01*
X39494Y-145604D01*
X40014Y-146506D01*
X40750Y-147242D01*
X41651Y-147762D01*
X42657Y-148031D01*
X43698D01*
X44703Y-147762D01*
X45604Y-147242D01*
X46340Y-146506D01*
X46861Y-145604D01*
X47130Y-144599D01*
Y-143558D01*
X46861Y-142553D01*
X46340Y-141652D01*
X45604Y-140916D01*
X44703Y-140395D01*
X43698Y-140126D01*
D02*
G37*
G36*
X33698D02*
X32657D01*
X31651Y-140395D01*
X30750Y-140916D01*
X30014Y-141652D01*
X29494Y-142553D01*
X29224Y-143558D01*
Y-144599D01*
X29494Y-145604D01*
X30014Y-146506D01*
X30750Y-147242D01*
X31651Y-147762D01*
X32657Y-148031D01*
X33698D01*
X34703Y-147762D01*
X35604Y-147242D01*
X36340Y-146506D01*
X36861Y-145604D01*
X37130Y-144599D01*
Y-143558D01*
X36861Y-142553D01*
X36340Y-141652D01*
X35604Y-140916D01*
X34703Y-140395D01*
X33698Y-140126D01*
D02*
G37*
G36*
X23698D02*
X22657D01*
X21652Y-140395D01*
X20750Y-140916D01*
X20014Y-141652D01*
X19494Y-142553D01*
X19224Y-143558D01*
Y-144599D01*
X19494Y-145604D01*
X20014Y-146506D01*
X20750Y-147242D01*
X21652Y-147762D01*
X22657Y-148031D01*
X23698D01*
X24703Y-147762D01*
X25604Y-147242D01*
X26340Y-146506D01*
X26861Y-145604D01*
X27130Y-144599D01*
Y-143558D01*
X26861Y-142553D01*
X26340Y-141652D01*
X25604Y-140916D01*
X24703Y-140395D01*
X23698Y-140126D01*
D02*
G37*
G36*
X13698D02*
X12657D01*
X11652Y-140395D01*
X10750Y-140916D01*
X10014Y-141652D01*
X9494Y-142553D01*
X9224Y-143558D01*
Y-144599D01*
X9494Y-145604D01*
X10014Y-146506D01*
X10750Y-147242D01*
X11652Y-147762D01*
X12657Y-148031D01*
X13698D01*
X14703Y-147762D01*
X15604Y-147242D01*
X16340Y-146506D01*
X16861Y-145604D01*
X17130Y-144599D01*
Y-143558D01*
X16861Y-142553D01*
X16340Y-141652D01*
X15604Y-140916D01*
X14703Y-140395D01*
X13698Y-140126D01*
D02*
G37*
%LPD*%
G36*
X136669Y-74772D02*
X141681D01*
X141819Y-74772D01*
X142181D01*
X142319Y-74772D01*
X147331D01*
Y-74167D01*
X150110D01*
Y-74921D01*
X156103D01*
X156182Y-75318D01*
X156491Y-75781D01*
X160228Y-79518D01*
Y-80828D01*
X155482Y-85575D01*
X152522D01*
X152384Y-85602D01*
X149559Y-85602D01*
X149427Y-85157D01*
Y-84453D01*
X150181D01*
Y-76547D01*
X145819D01*
Y-78522D01*
X145319Y-78729D01*
X145028Y-78438D01*
X144565Y-78128D01*
X144019Y-78020D01*
X144019Y-78020D01*
X143272D01*
Y-75697D01*
X139738D01*
X139300Y-75404D01*
X138754Y-75295D01*
X138754Y-75295D01*
X135543D01*
Y-72644D01*
X136669D01*
Y-74772D01*
D02*
G37*
D19*
X180972Y-120260D02*
D03*
Y-127740D02*
D03*
X190028Y-124000D02*
D03*
D20*
X171961Y-120693D02*
D03*
X172000Y-127228D02*
D03*
X55000Y-78272D02*
D03*
X55039Y-84807D02*
D03*
X54000Y-112772D02*
D03*
X54039Y-119307D02*
D03*
X48539Y-84807D02*
D03*
X48500Y-78272D02*
D03*
X47500Y-112772D02*
D03*
X47539Y-119307D02*
D03*
X170000Y-6272D02*
D03*
X170039Y-12807D02*
D03*
X21961Y-10693D02*
D03*
X22000Y-17228D02*
D03*
X140539Y-84807D02*
D03*
X140500Y-78272D02*
D03*
X163039Y-86807D02*
D03*
X163000Y-80272D02*
D03*
X141500Y-104244D02*
D03*
Y-109756D02*
D03*
X170039Y-39307D02*
D03*
X170000Y-32772D02*
D03*
X150000Y-38756D02*
D03*
Y-33244D02*
D03*
X156500Y-15244D02*
D03*
Y-20756D02*
D03*
Y756D02*
D03*
Y-4756D02*
D03*
X45500Y-16728D02*
D03*
X45461Y-10193D02*
D03*
D21*
X80307Y-17961D02*
D03*
X73772Y-18000D02*
D03*
X164693Y-135039D02*
D03*
X171228Y-135000D02*
D03*
X177693Y-135039D02*
D03*
X184228Y-135000D02*
D03*
X148244Y-97000D02*
D03*
X153756D02*
D03*
X139244Y-66000D02*
D03*
X144756D02*
D03*
X54244Y-33500D02*
D03*
X59756D02*
D03*
X54244Y-27500D02*
D03*
X59756D02*
D03*
X139244Y-72000D02*
D03*
X144756D02*
D03*
X163307Y-9961D02*
D03*
X156772Y-10000D02*
D03*
X168807Y39D02*
D03*
X162272Y0D02*
D03*
D22*
X60740Y-8079D02*
D03*
X57000D02*
D03*
X53260D02*
D03*
Y-17921D02*
D03*
X60740D02*
D03*
X37240Y-8579D02*
D03*
X33500D02*
D03*
X29760D02*
D03*
Y-18421D02*
D03*
X37240D02*
D03*
D23*
X180500Y-21354D02*
D03*
Y-40646D02*
D03*
D24*
X155480Y-80500D02*
D03*
X148000D02*
D03*
X151740Y-89555D02*
D03*
D25*
X78028Y-33740D02*
D03*
Y-30000D02*
D03*
Y-26260D02*
D03*
X68972D02*
D03*
Y-30000D02*
D03*
Y-33740D02*
D03*
X162528Y-72740D02*
D03*
Y-69000D02*
D03*
Y-65260D02*
D03*
X153472D02*
D03*
Y-69000D02*
D03*
Y-72740D02*
D03*
D26*
X171764Y-72618D02*
D03*
Y-70059D02*
D03*
Y-67500D02*
D03*
Y-64941D02*
D03*
Y-62382D02*
D03*
D27*
X172650Y-80098D02*
D03*
Y-54902D02*
D03*
D28*
X182295Y-72224D02*
D03*
Y-62776D02*
D03*
D29*
X175945Y-4760D02*
D03*
Y-12240D02*
D03*
X185000Y-8500D02*
D03*
D30*
X156161Y-44268D02*
D03*
X158721D02*
D03*
X161279D02*
D03*
X163839D02*
D03*
X156161Y-27732D02*
D03*
X158721D02*
D03*
X161279D02*
D03*
X163839D02*
D03*
D53*
X156161Y-44268D02*
G03*
X150650Y-38756I-5512J0D01*
G01*
X54039Y-119500D02*
Y-119307D01*
Y-122539D02*
Y-119500D01*
X57500D01*
X43500D02*
X54039D01*
X58823Y-120823D02*
X64500D01*
X57500Y-119500D02*
X58823Y-120823D01*
X54039Y-122539D02*
X56653Y-125154D01*
X64500D01*
X48839Y-84508D02*
X64201D01*
X44500Y-84000D02*
X45307Y-84807D01*
X48539D01*
X48839Y-84508D01*
X64201D02*
X64500Y-84209D01*
X90435Y-21000D02*
X91500D01*
X80307Y-17961D02*
X87395D01*
X90435Y-21000D01*
X26217Y-8579D02*
X29760D01*
X21961Y-10693D02*
X22748Y-9905D01*
X24890D01*
X26217Y-8579D01*
X45461Y-10193D02*
X52327D01*
X53260Y-9260D01*
Y-8079D01*
X21961Y-10693D02*
Y-7039D01*
X22000Y-7000D01*
X44768Y-9500D02*
X45461Y-10193D01*
X42000Y-9500D02*
X44768D01*
X182634Y-2500D02*
X184000D01*
X175945Y-4760D02*
X180374D01*
X182634Y-2500D01*
X173743Y-6272D02*
X174665Y-5349D01*
Y-5153D02*
X175059Y-4760D01*
X170000Y-6272D02*
X173743D01*
X174665Y-5349D02*
Y-5153D01*
X175059Y-4760D02*
X175945D01*
X29760Y-8579D02*
Y-3760D01*
X150000Y-38756D02*
X150650D01*
D54*
X161279Y-17089D02*
G03*
X160727Y-14962I-4369J0D01*
G01*
X160228Y-14246D02*
G03*
X160727Y-14962I2253J1038D01*
G01*
X160000Y-13208D02*
G03*
X160228Y-14246I2481J0D01*
G01*
X163500Y-4500D02*
G03*
X160000Y-8000I0J-3500D01*
G01*
X163500Y-4500D02*
G03*
X165500Y-2500I0J2000D01*
G01*
Y4586D02*
G03*
X164500Y7000I-3414J0D01*
G01*
X164000Y8207D02*
G03*
X164500Y7000I1707J0D01*
G01*
X142000Y125358D02*
G03*
X139071Y132429I-10000J0D01*
G01*
X142000Y58142D02*
G03*
X144929Y51071I10000J0D01*
G01*
X164000Y27858D02*
G03*
X161071Y34929I-10000J0D01*
G01*
X136252Y60248D02*
G03*
X138373Y55127I7243J0D01*
G01*
X162272Y27086D02*
G03*
X159343Y34157I-10000J0D01*
G01*
X162272Y0D02*
G03*
X160447Y756I-1825J-1825D01*
G01*
X157000Y-5963D02*
G03*
X156500Y-4756I-1707J0D01*
G01*
X157000Y-20756D02*
G03*
X156161Y-22781I2025J-2025D01*
G01*
X158721Y-24909D02*
G03*
X157000Y-20756I-5874J0D01*
G01*
X35919Y34915D02*
G03*
X33500Y29088I5791J-5819D01*
G01*
X43161Y-112161D02*
X64500D01*
X43000Y-112000D02*
X43161Y-112161D01*
X44772Y-78272D02*
X48500D01*
X44500Y-78000D02*
X44772Y-78272D01*
X48500D02*
X55000D01*
X55197D02*
X56803Y-79878D01*
X64500D01*
X55000Y-78272D02*
X55197D01*
X69000Y-18000D02*
X73772D01*
X73616Y-18156D02*
X73772Y-18000D01*
X73616Y-29532D02*
Y-18156D01*
X73148Y-30000D02*
X73616Y-29532D01*
X68972Y-30000D02*
X73148D01*
X45500Y-21000D02*
Y-16728D01*
X45000Y-21500D02*
X45500Y-21000D01*
X22000Y-22000D02*
Y-17228D01*
X56500Y-71500D02*
X56783Y-71216D01*
X64500D01*
X56500Y-66500D02*
X56886Y-66886D01*
X64500D01*
X118500Y-40500D02*
X130500Y-52500D01*
X60000Y-40500D02*
X118500D01*
X55344Y-35844D02*
X60000Y-40500D01*
X129825Y-61380D02*
X131000Y-62555D01*
X29760Y-27260D02*
Y-18421D01*
Y-27260D02*
X47500Y-45000D01*
X110000D01*
X126380Y-61380D01*
X129825D01*
X55344Y-35844D02*
Y-34600D01*
X54244Y-33500D02*
X55344Y-34600D01*
X130500Y-57724D02*
X130776Y-58000D01*
X130500Y-57724D02*
Y-52500D01*
X59756Y-33500D02*
X59996Y-33740D01*
X68972D01*
X64240Y-26260D02*
X68972D01*
X63000Y-27500D02*
X64240Y-26260D01*
X59756Y-27500D02*
X63000D01*
X53260Y-26516D02*
Y-17921D01*
Y-26516D02*
X54244Y-27500D01*
X131000Y-26000D02*
Y-16000D01*
X123260Y-33740D02*
X131000Y-26000D01*
X78028Y-33740D02*
X123260D01*
X96500Y-23500D02*
Y-16000D01*
X93740Y-26260D02*
X96500Y-23500D01*
X78028Y-26260D02*
X93740D01*
X47500Y-112772D02*
X48675Y-113947D01*
X22000Y-17228D02*
X22731Y-16498D01*
X24502D02*
X26500Y-14500D01*
X35991D01*
X22731Y-16498D02*
X24502D01*
X36459Y-17640D02*
Y-14968D01*
X35991Y-14500D02*
X36459Y-14968D01*
Y-17640D02*
X37240Y-18421D01*
X45500Y-16728D02*
X45697D01*
X48077Y-14348D01*
X60740Y-17921D02*
Y-16740D01*
X58348Y-14348D02*
X60740Y-16740D01*
X48077Y-14348D02*
X58348D01*
X57000Y-8079D02*
Y-4500D01*
X35500Y-2500D02*
X55000D01*
X57000Y-4500D01*
X33500Y-500D02*
Y29084D01*
Y-8579D02*
Y-500D01*
X35500Y-2500D01*
X153756Y-97000D02*
X157000D01*
X163039Y-89961D02*
Y-86807D01*
X140539Y-87461D02*
Y-84807D01*
X155480Y-80500D02*
Y-76480D01*
X158500Y-69000D02*
X162528D01*
X168807Y39D02*
X171461D01*
X163307Y-9961D02*
X165961D01*
X170039Y-15461D02*
Y-12807D01*
X180500Y-21354D02*
Y-21158D01*
X185000Y-16657D02*
Y-8500D01*
X180500Y-21158D02*
X185000Y-16657D01*
X170197Y-32772D02*
X176470Y-26498D01*
Y-25384D01*
X170000Y-32772D02*
X170197D01*
X176470Y-25384D02*
X180500Y-21354D01*
X165340Y-31596D02*
X168825D01*
X170000Y-32772D01*
X163839Y-30095D02*
X165340Y-31596D01*
X163839Y-30095D02*
Y-27732D01*
Y-44268D02*
X164071Y-44500D01*
X168000D01*
X170039Y-42461D01*
Y-39307D01*
X150000Y-33244D02*
Y-30000D01*
X131000Y-120823D02*
X131323Y-120500D01*
X131105Y-107726D02*
X135274D01*
X138756Y-104244D02*
X141500D01*
X131000Y-107831D02*
X131105Y-107726D01*
X135274D02*
X138756Y-104244D01*
X135514Y-110986D02*
X136744Y-109756D01*
X141500D01*
X131000Y-112161D02*
X132175Y-110986D01*
X135514D01*
X161279Y-49279D02*
X162500Y-50500D01*
X161279Y-49279D02*
Y-44268D01*
X157000Y-50500D02*
X158721Y-48779D01*
Y-44268D01*
X130961Y-88500D02*
X131000Y-88539D01*
X125122Y-79878D02*
X131000D01*
X125291Y-84209D02*
X131000D01*
X161628Y-79097D02*
X162803Y-80272D01*
X157500Y-74772D02*
X161628Y-78900D01*
X157500Y-74772D02*
Y-71846D01*
X162803Y-80272D02*
X163000D01*
X161628Y-79097D02*
Y-78900D01*
X153472Y-69000D02*
X154654D01*
X157500Y-71846D01*
X164372Y-78140D02*
X169894Y-72618D01*
X163197Y-80272D02*
X164372Y-79097D01*
X169894Y-72618D02*
X171764D01*
X164372Y-79097D02*
Y-78140D01*
X163000Y-80272D02*
X163197D01*
X156073Y-87002D02*
X162803Y-80272D01*
X152522Y-87002D02*
X156073D01*
X151740Y-89555D02*
Y-87783D01*
X152522Y-87002D01*
X148000Y-96756D02*
X148244Y-97000D01*
X148000Y-96756D02*
Y-80500D01*
X141675Y-79447D02*
X144019D01*
X145072Y-80500D01*
X140500Y-78272D02*
X141675Y-79447D01*
X145072Y-80500D02*
X148000D01*
X131000Y-75547D02*
X132175Y-76722D01*
X138754D01*
X140303Y-78272D01*
X140500D01*
X160000Y-13208D02*
Y-8000D01*
X161279Y-27732D02*
Y-17089D01*
X165500Y-2500D02*
Y4586D01*
X157000Y-10000D02*
Y-5963D01*
X164000Y8207D02*
Y27858D01*
X136252Y135248D02*
X139071Y132429D01*
X142000Y58142D02*
Y125358D01*
X144929Y51071D02*
X161071Y34929D01*
X138373Y55127D02*
X159343Y34157D01*
X162272Y0D02*
Y27086D01*
X156500Y756D02*
X160447D01*
X157000Y-15244D02*
Y-10000D01*
X158721Y-27732D02*
Y-24909D01*
X156161Y-27732D02*
Y-22781D01*
X145496Y-72740D02*
X153472D01*
X144756Y-72000D02*
X145496Y-72740D01*
X145496Y-65260D02*
X153472D01*
X144756Y-66000D02*
X145496Y-65260D01*
X162528D02*
X166260D01*
X168112Y-67112D01*
X171376D01*
X171764Y-67500D01*
X162528Y-72740D02*
X166260D01*
X168553Y-70447D01*
X171376D02*
X171764Y-70059D01*
X168553Y-70447D02*
X171376D01*
X131000Y-71216D02*
X140461D01*
X131000Y-66886D02*
X140358D01*
X35919Y34915D02*
X61252Y60248D01*
X33500Y29088D02*
X33500Y29084D01*
D55*
X64500Y-58224D02*
D03*
Y-62555D02*
D03*
Y-66886D02*
D03*
Y-71216D02*
D03*
Y-75547D02*
D03*
Y-79878D02*
D03*
Y-84209D02*
D03*
Y-88539D02*
D03*
Y-103500D02*
D03*
Y-107831D02*
D03*
Y-112161D02*
D03*
Y-116492D02*
D03*
Y-120823D02*
D03*
Y-125154D02*
D03*
X131000D02*
D03*
Y-120823D02*
D03*
Y-116492D02*
D03*
Y-112161D02*
D03*
Y-107831D02*
D03*
Y-103500D02*
D03*
Y-88539D02*
D03*
Y-84209D02*
D03*
Y-79878D02*
D03*
Y-75547D02*
D03*
Y-71216D02*
D03*
Y-66886D02*
D03*
Y-62555D02*
D03*
Y-58224D02*
D03*
D56*
X169166Y-127740D02*
X180972D01*
X166926Y-125500D02*
X169166Y-127740D01*
X166500Y-125500D02*
X166926D01*
D57*
X183177Y-144079D02*
Y-137000D01*
X190028Y-130150D01*
Y-124000D01*
X173177Y-144079D02*
Y-143227D01*
X171228Y-141278D02*
Y-135000D01*
Y-141278D02*
X173177Y-143227D01*
Y-144079D02*
X183177D01*
X163177D02*
X173177D01*
X153177D02*
X163177D01*
X153177D02*
X153224Y-144032D01*
D58*
X131323Y-120500D02*
X147000D01*
D59*
X101500Y-21000D02*
D03*
X91500D02*
D03*
Y-11000D02*
D03*
X101500D02*
D03*
X96500Y-16000D02*
D03*
X136000Y-11000D02*
D03*
Y-21000D02*
D03*
X126000D02*
D03*
Y-11000D02*
D03*
X131000Y-16000D02*
D03*
X152000Y-125500D02*
D03*
X142000D02*
D03*
Y-115500D02*
D03*
X152000D02*
D03*
X147000Y-120500D02*
D03*
D60*
X182295Y-80492D02*
D03*
Y-54508D02*
D03*
D61*
X61252Y60248D02*
D03*
X98752D02*
D03*
X136252D02*
D03*
Y135248D02*
D03*
X61252D02*
D03*
D62*
X13177Y223874D02*
D03*
Y213874D02*
D03*
X23177Y223874D02*
D03*
Y213874D02*
D03*
X33177Y223874D02*
D03*
Y213874D02*
D03*
X43177Y223874D02*
D03*
Y213874D02*
D03*
X53177Y223874D02*
D03*
Y213874D02*
D03*
X63177Y223874D02*
D03*
Y213874D02*
D03*
X73177Y223874D02*
D03*
Y213874D02*
D03*
X83177Y223874D02*
D03*
Y213874D02*
D03*
X93177Y223874D02*
D03*
Y213874D02*
D03*
X103177Y223874D02*
D03*
Y213874D02*
D03*
X113177Y223874D02*
D03*
Y213874D02*
D03*
X123177Y223874D02*
D03*
Y213874D02*
D03*
X133177Y223874D02*
D03*
Y213874D02*
D03*
X143177Y223874D02*
D03*
Y213874D02*
D03*
X153177Y223874D02*
D03*
Y213874D02*
D03*
X163177Y223874D02*
D03*
Y213874D02*
D03*
X173177Y223874D02*
D03*
Y213874D02*
D03*
X183177Y223874D02*
D03*
X13177Y-144079D02*
D03*
Y-154079D02*
D03*
X23177Y-144079D02*
D03*
Y-154079D02*
D03*
X33177Y-144079D02*
D03*
Y-154079D02*
D03*
X43177Y-144079D02*
D03*
Y-154079D02*
D03*
X53177Y-144079D02*
D03*
Y-154079D02*
D03*
X63177Y-144079D02*
D03*
Y-154079D02*
D03*
X73177Y-144079D02*
D03*
Y-154079D02*
D03*
X83177Y-144079D02*
D03*
Y-154079D02*
D03*
X93177Y-144079D02*
D03*
Y-154079D02*
D03*
X103177Y-144079D02*
D03*
Y-154079D02*
D03*
X113177Y-144079D02*
D03*
Y-154079D02*
D03*
X123177Y-144079D02*
D03*
Y-154079D02*
D03*
X133177Y-144079D02*
D03*
Y-154079D02*
D03*
X143177Y-144079D02*
D03*
Y-154079D02*
D03*
X153177Y-144079D02*
D03*
Y-154079D02*
D03*
X163177Y-144079D02*
D03*
Y-154079D02*
D03*
X173177Y-144079D02*
D03*
Y-154079D02*
D03*
X183177Y-144079D02*
D03*
D63*
Y213874D02*
D03*
Y-154079D02*
D03*
D64*
X166500Y-125500D02*
D03*
D65*
X86681Y-23048D02*
D03*
X83137D02*
D03*
X79674Y-22299D02*
D03*
X76131D02*
D03*
X82394Y-29472D02*
D03*
X85937D02*
D03*
X89480D02*
D03*
X93024D02*
D03*
X96334Y-28209D02*
D03*
X98831Y-25694D02*
D03*
X124474Y-27983D02*
D03*
X121968Y-30489D02*
D03*
X118425Y-30528D02*
D03*
X114882D02*
D03*
X111338D02*
D03*
X107795D02*
D03*
X104252D02*
D03*
X100709D02*
D03*
X75527Y-37683D02*
D03*
X79070Y-37701D02*
D03*
X82534Y-36952D02*
D03*
X86077D02*
D03*
X89620D02*
D03*
X93164D02*
D03*
X96707D02*
D03*
X100250D02*
D03*
X103794D02*
D03*
X107337D02*
D03*
X110880D02*
D03*
X114424D02*
D03*
X117967D02*
D03*
X121510D02*
D03*
X125012Y-36410D02*
D03*
X127577Y-33966D02*
D03*
X130082Y-31460D02*
D03*
X132588Y-28955D02*
D03*
X134212Y-25806D02*
D03*
X49890Y-32197D02*
D03*
X49951Y-35740D02*
D03*
X52640Y-38047D02*
D03*
X55321Y-40364D02*
D03*
X117896Y-44438D02*
D03*
X120401Y-46944D02*
D03*
X122907Y-49449D02*
D03*
X125412Y-51955D02*
D03*
X124962Y-55470D02*
D03*
X136524Y-54704D02*
D03*
X133712Y-52549D02*
D03*
X131993Y-49450D02*
D03*
X129488Y-46945D02*
D03*
X126982Y-44440D02*
D03*
X124477Y-41934D02*
D03*
X69485Y-37288D02*
D03*
X65942D02*
D03*
X62398D02*
D03*
X25876Y-21366D02*
D03*
X26548Y-24845D02*
D03*
X26783Y-28381D02*
D03*
X29056Y-31099D02*
D03*
X31561Y-33604D02*
D03*
X34067Y-36110D02*
D03*
X36572Y-38615D02*
D03*
X39078Y-41121D02*
D03*
X41583Y-43626D02*
D03*
X44089Y-46132D02*
D03*
X47000Y-48152D02*
D03*
X50543Y-48212D02*
D03*
X54086D02*
D03*
X57629D02*
D03*
X61173D02*
D03*
X64716D02*
D03*
X68259D02*
D03*
X71803D02*
D03*
X75346D02*
D03*
X78889D02*
D03*
X82433D02*
D03*
X85976D02*
D03*
X89519D02*
D03*
X93063D02*
D03*
X96606D02*
D03*
X100149D02*
D03*
X103692D02*
D03*
X107236D02*
D03*
X110353Y-49896D02*
D03*
X112859Y-52402D02*
D03*
X115364Y-54907D02*
D03*
X117870Y-57413D02*
D03*
X120375Y-59918D02*
D03*
X122881Y-62424D02*
D03*
X124957Y-65295D02*
D03*
X137253Y-60447D02*
D03*
X112406Y-42863D02*
D03*
X48794Y-41751D02*
D03*
X46288Y-39245D02*
D03*
X43783Y-36740D02*
D03*
X41277Y-34234D02*
D03*
X38772Y-31729D02*
D03*
X36266Y-29223D02*
D03*
X33761Y-26718D02*
D03*
X32972Y-23264D02*
D03*
X33721Y-19800D02*
D03*
X58377Y64780D02*
D03*
X56116Y61780D02*
D03*
X55122Y58158D02*
D03*
X52466Y55503D02*
D03*
X49810Y52847D02*
D03*
X47155Y50191D02*
D03*
X44499Y47535D02*
D03*
X41843Y44879D02*
D03*
X39187Y42224D02*
D03*
X36531Y39568D02*
D03*
X33876Y36911D02*
D03*
X31729Y33829D02*
D03*
X30732Y30208D02*
D03*
X30643Y26453D02*
D03*
Y22697D02*
D03*
Y15186D02*
D03*
Y11430D02*
D03*
Y7674D02*
D03*
Y3918D02*
D03*
Y162D02*
D03*
X42404Y-5357D02*
D03*
X46159D02*
D03*
X49915D02*
D03*
X58048Y-1507D02*
D03*
X54787Y357D02*
D03*
X51032D02*
D03*
X47276D02*
D03*
X43520D02*
D03*
X39764D02*
D03*
X36357Y1939D02*
D03*
Y5694D02*
D03*
Y9450D02*
D03*
Y13206D02*
D03*
Y16962D02*
D03*
Y20718D02*
D03*
Y24474D02*
D03*
Y28230D02*
D03*
X37158Y31899D02*
D03*
X39705Y34660D02*
D03*
X42361Y37316D02*
D03*
X45016Y39972D02*
D03*
X47672Y42628D02*
D03*
X50328Y45284D02*
D03*
X52984Y47939D02*
D03*
X55640Y50595D02*
D03*
X58296Y53251D02*
D03*
X61673Y54894D02*
D03*
X65069Y56498D02*
D03*
X66619Y59920D02*
D03*
X65511Y63509D02*
D03*
X62336Y65515D02*
D03*
X49299Y-19480D02*
D03*
X50048Y-22944D02*
D03*
X49890Y-26484D02*
D03*
X56472Y-22763D02*
D03*
X57221Y-19300D02*
D03*
D66*
X164000Y-130500D02*
D03*
X186272Y186445D02*
D03*
Y168728D02*
D03*
Y162823D02*
D03*
Y156917D02*
D03*
Y151012D02*
D03*
Y145106D02*
D03*
Y139201D02*
D03*
Y133295D02*
D03*
Y127390D02*
D03*
Y121484D02*
D03*
Y115579D02*
D03*
Y109673D02*
D03*
Y103768D02*
D03*
Y97862D02*
D03*
Y91957D02*
D03*
Y86051D02*
D03*
Y80146D02*
D03*
Y74240D02*
D03*
Y68335D02*
D03*
Y62429D02*
D03*
Y56524D02*
D03*
Y50618D02*
D03*
Y44712D02*
D03*
Y38807D02*
D03*
Y32901D02*
D03*
Y26996D02*
D03*
X180366Y162823D02*
D03*
Y156917D02*
D03*
Y151012D02*
D03*
Y145106D02*
D03*
Y139201D02*
D03*
Y133295D02*
D03*
Y127390D02*
D03*
Y121484D02*
D03*
Y115579D02*
D03*
Y109673D02*
D03*
Y103768D02*
D03*
Y97862D02*
D03*
Y91957D02*
D03*
Y86051D02*
D03*
Y80146D02*
D03*
Y74240D02*
D03*
Y68335D02*
D03*
Y62429D02*
D03*
Y56524D02*
D03*
Y50618D02*
D03*
Y44712D02*
D03*
Y38807D02*
D03*
Y32901D02*
D03*
X174460Y162823D02*
D03*
Y156917D02*
D03*
Y151012D02*
D03*
Y145106D02*
D03*
Y139201D02*
D03*
Y133295D02*
D03*
Y127390D02*
D03*
Y121484D02*
D03*
Y115579D02*
D03*
Y109673D02*
D03*
Y103768D02*
D03*
Y97862D02*
D03*
Y91957D02*
D03*
Y86051D02*
D03*
Y80146D02*
D03*
Y74240D02*
D03*
Y68335D02*
D03*
Y62429D02*
D03*
Y56524D02*
D03*
Y50618D02*
D03*
Y44712D02*
D03*
Y38807D02*
D03*
Y32901D02*
D03*
X168555Y186445D02*
D03*
Y162823D02*
D03*
Y32901D02*
D03*
X162650Y186445D02*
D03*
Y180539D02*
D03*
Y174634D02*
D03*
Y168728D02*
D03*
X156744Y186445D02*
D03*
Y180539D02*
D03*
Y174634D02*
D03*
Y21091D02*
D03*
Y15185D02*
D03*
Y-108831D02*
D03*
Y-120642D02*
D03*
Y-132453D02*
D03*
X150838Y186445D02*
D03*
Y180539D02*
D03*
Y174634D02*
D03*
Y21091D02*
D03*
Y15185D02*
D03*
Y-102925D02*
D03*
Y-108831D02*
D03*
Y-132453D02*
D03*
X144933Y186445D02*
D03*
Y180539D02*
D03*
Y174634D02*
D03*
Y139201D02*
D03*
Y133295D02*
D03*
Y21091D02*
D03*
Y15185D02*
D03*
Y-132453D02*
D03*
X139028Y186445D02*
D03*
Y180539D02*
D03*
Y174634D02*
D03*
Y145106D02*
D03*
Y21091D02*
D03*
Y15185D02*
D03*
Y9279D02*
D03*
Y-132453D02*
D03*
X133122Y186445D02*
D03*
Y180539D02*
D03*
Y174634D02*
D03*
Y145106D02*
D03*
Y127390D02*
D03*
Y121484D02*
D03*
Y115579D02*
D03*
Y109673D02*
D03*
Y103768D02*
D03*
Y97862D02*
D03*
Y91957D02*
D03*
Y74240D02*
D03*
Y68335D02*
D03*
Y50618D02*
D03*
Y21091D02*
D03*
Y15185D02*
D03*
Y9279D02*
D03*
X127216Y186445D02*
D03*
Y180539D02*
D03*
Y174634D02*
D03*
Y145106D02*
D03*
Y139201D02*
D03*
Y133295D02*
D03*
Y127390D02*
D03*
Y121484D02*
D03*
Y115579D02*
D03*
Y109673D02*
D03*
Y103768D02*
D03*
Y97862D02*
D03*
Y80146D02*
D03*
Y74240D02*
D03*
Y68335D02*
D03*
Y62429D02*
D03*
Y56524D02*
D03*
Y50618D02*
D03*
Y21091D02*
D03*
Y15185D02*
D03*
Y9279D02*
D03*
X121311Y186445D02*
D03*
Y180539D02*
D03*
Y174634D02*
D03*
Y145106D02*
D03*
Y139201D02*
D03*
Y133295D02*
D03*
Y127390D02*
D03*
Y121484D02*
D03*
Y115579D02*
D03*
Y109673D02*
D03*
Y103768D02*
D03*
Y86051D02*
D03*
Y80146D02*
D03*
Y74240D02*
D03*
Y68335D02*
D03*
Y62429D02*
D03*
Y56524D02*
D03*
Y50618D02*
D03*
Y21091D02*
D03*
Y15185D02*
D03*
Y9279D02*
D03*
Y-67492D02*
D03*
Y-73398D02*
D03*
Y-91114D02*
D03*
Y-102925D02*
D03*
Y-108831D02*
D03*
Y-132453D02*
D03*
X115405Y186445D02*
D03*
Y180539D02*
D03*
Y174634D02*
D03*
Y145106D02*
D03*
Y139201D02*
D03*
Y133295D02*
D03*
Y127390D02*
D03*
Y121484D02*
D03*
Y115579D02*
D03*
Y109673D02*
D03*
Y91957D02*
D03*
Y86051D02*
D03*
Y80146D02*
D03*
Y74240D02*
D03*
Y68335D02*
D03*
Y62429D02*
D03*
Y56524D02*
D03*
Y50618D02*
D03*
Y21091D02*
D03*
Y15185D02*
D03*
Y9279D02*
D03*
Y-61587D02*
D03*
Y-67492D02*
D03*
Y-73398D02*
D03*
Y-79303D02*
D03*
Y-85209D02*
D03*
Y-91114D02*
D03*
X109500Y186445D02*
D03*
Y180539D02*
D03*
Y174634D02*
D03*
Y145106D02*
D03*
Y139201D02*
D03*
Y133295D02*
D03*
Y127390D02*
D03*
Y121484D02*
D03*
Y115579D02*
D03*
Y97862D02*
D03*
Y91957D02*
D03*
Y86051D02*
D03*
Y80146D02*
D03*
Y74240D02*
D03*
Y68335D02*
D03*
Y62429D02*
D03*
Y56524D02*
D03*
Y50618D02*
D03*
Y21091D02*
D03*
Y15185D02*
D03*
Y9279D02*
D03*
Y-55681D02*
D03*
Y-61587D02*
D03*
Y-67492D02*
D03*
Y-73398D02*
D03*
Y-79303D02*
D03*
Y-85209D02*
D03*
Y-91114D02*
D03*
Y-97020D02*
D03*
Y-102925D02*
D03*
Y-108831D02*
D03*
Y-114736D02*
D03*
Y-120642D02*
D03*
Y-126547D02*
D03*
Y-132453D02*
D03*
X103594Y186445D02*
D03*
Y180539D02*
D03*
Y174634D02*
D03*
Y145106D02*
D03*
Y139201D02*
D03*
Y133295D02*
D03*
Y127390D02*
D03*
Y121484D02*
D03*
Y103768D02*
D03*
Y97862D02*
D03*
Y91957D02*
D03*
Y86051D02*
D03*
Y80146D02*
D03*
Y74240D02*
D03*
Y68335D02*
D03*
Y56524D02*
D03*
Y50618D02*
D03*
Y21091D02*
D03*
Y15185D02*
D03*
Y9279D02*
D03*
Y-55681D02*
D03*
Y-61587D02*
D03*
Y-67492D02*
D03*
Y-73398D02*
D03*
Y-79303D02*
D03*
Y-85209D02*
D03*
Y-91114D02*
D03*
Y-97020D02*
D03*
Y-102925D02*
D03*
Y-108831D02*
D03*
Y-114736D02*
D03*
Y-120642D02*
D03*
Y-126547D02*
D03*
Y-132453D02*
D03*
X97689Y186445D02*
D03*
Y180539D02*
D03*
Y174634D02*
D03*
Y145106D02*
D03*
Y139201D02*
D03*
Y133295D02*
D03*
Y127390D02*
D03*
Y109673D02*
D03*
Y103768D02*
D03*
Y97862D02*
D03*
Y91957D02*
D03*
Y86051D02*
D03*
Y80146D02*
D03*
Y74240D02*
D03*
Y68335D02*
D03*
Y50618D02*
D03*
Y21091D02*
D03*
Y15185D02*
D03*
Y9279D02*
D03*
Y-55681D02*
D03*
Y-61587D02*
D03*
Y-67492D02*
D03*
Y-73398D02*
D03*
Y-79303D02*
D03*
Y-85209D02*
D03*
Y-91114D02*
D03*
Y-97020D02*
D03*
Y-102925D02*
D03*
Y-108831D02*
D03*
Y-114736D02*
D03*
Y-120642D02*
D03*
Y-126547D02*
D03*
Y-132453D02*
D03*
X91783Y186445D02*
D03*
Y180539D02*
D03*
Y174634D02*
D03*
Y145106D02*
D03*
Y139201D02*
D03*
Y133295D02*
D03*
Y115579D02*
D03*
Y109673D02*
D03*
Y103768D02*
D03*
Y97862D02*
D03*
Y91957D02*
D03*
Y86051D02*
D03*
Y80146D02*
D03*
Y74240D02*
D03*
Y68335D02*
D03*
Y62429D02*
D03*
Y56524D02*
D03*
Y50618D02*
D03*
Y21091D02*
D03*
Y15185D02*
D03*
Y9279D02*
D03*
Y-55681D02*
D03*
Y-61587D02*
D03*
Y-67492D02*
D03*
Y-73398D02*
D03*
Y-79303D02*
D03*
Y-85209D02*
D03*
Y-91114D02*
D03*
Y-97020D02*
D03*
Y-102925D02*
D03*
Y-108831D02*
D03*
Y-114736D02*
D03*
Y-120642D02*
D03*
Y-126547D02*
D03*
Y-132453D02*
D03*
X85878Y186445D02*
D03*
Y180539D02*
D03*
Y174634D02*
D03*
Y145106D02*
D03*
Y139201D02*
D03*
Y121484D02*
D03*
Y115579D02*
D03*
Y109673D02*
D03*
Y103768D02*
D03*
Y97862D02*
D03*
Y91957D02*
D03*
Y86051D02*
D03*
Y80146D02*
D03*
Y74240D02*
D03*
Y68335D02*
D03*
Y62429D02*
D03*
Y56524D02*
D03*
Y50618D02*
D03*
Y21091D02*
D03*
Y15185D02*
D03*
Y9279D02*
D03*
Y-55681D02*
D03*
Y-61587D02*
D03*
Y-67492D02*
D03*
Y-73398D02*
D03*
Y-79303D02*
D03*
Y-85209D02*
D03*
Y-91114D02*
D03*
Y-97020D02*
D03*
Y-102925D02*
D03*
Y-108831D02*
D03*
Y-114736D02*
D03*
Y-120642D02*
D03*
Y-126547D02*
D03*
Y-132453D02*
D03*
X79972Y186445D02*
D03*
Y180539D02*
D03*
Y174634D02*
D03*
Y145106D02*
D03*
Y127390D02*
D03*
Y121484D02*
D03*
Y115579D02*
D03*
Y109673D02*
D03*
Y103768D02*
D03*
Y97862D02*
D03*
Y91957D02*
D03*
Y86051D02*
D03*
Y80146D02*
D03*
Y74240D02*
D03*
Y68335D02*
D03*
Y62429D02*
D03*
Y56524D02*
D03*
Y50618D02*
D03*
Y21091D02*
D03*
Y15185D02*
D03*
Y9279D02*
D03*
X74067Y186445D02*
D03*
Y180539D02*
D03*
Y174634D02*
D03*
Y145106D02*
D03*
Y121484D02*
D03*
Y115579D02*
D03*
Y109673D02*
D03*
Y103768D02*
D03*
Y97862D02*
D03*
Y91957D02*
D03*
Y86051D02*
D03*
Y80146D02*
D03*
Y74240D02*
D03*
Y68335D02*
D03*
Y62429D02*
D03*
Y56524D02*
D03*
Y50618D02*
D03*
Y21091D02*
D03*
Y15185D02*
D03*
Y9279D02*
D03*
X68161Y186445D02*
D03*
Y180539D02*
D03*
Y174634D02*
D03*
Y145106D02*
D03*
Y121484D02*
D03*
Y115579D02*
D03*
Y109673D02*
D03*
Y103768D02*
D03*
Y97862D02*
D03*
Y91957D02*
D03*
Y86051D02*
D03*
Y80146D02*
D03*
Y74240D02*
D03*
Y68335D02*
D03*
Y50618D02*
D03*
Y21091D02*
D03*
Y15185D02*
D03*
Y9279D02*
D03*
X62256Y186445D02*
D03*
Y180539D02*
D03*
Y174634D02*
D03*
Y145106D02*
D03*
Y127390D02*
D03*
Y121484D02*
D03*
Y115579D02*
D03*
Y109673D02*
D03*
Y103768D02*
D03*
Y97862D02*
D03*
Y91957D02*
D03*
Y86051D02*
D03*
Y80146D02*
D03*
Y74240D02*
D03*
Y50618D02*
D03*
Y21091D02*
D03*
Y15185D02*
D03*
Y9279D02*
D03*
X56350Y186445D02*
D03*
Y180539D02*
D03*
Y174634D02*
D03*
Y145106D02*
D03*
Y139201D02*
D03*
Y127390D02*
D03*
Y121484D02*
D03*
Y115579D02*
D03*
Y109673D02*
D03*
Y103768D02*
D03*
Y97862D02*
D03*
Y91957D02*
D03*
Y86051D02*
D03*
Y80146D02*
D03*
Y74240D02*
D03*
Y68335D02*
D03*
Y21091D02*
D03*
Y15185D02*
D03*
Y9279D02*
D03*
X50445Y186445D02*
D03*
Y180539D02*
D03*
Y174634D02*
D03*
Y139201D02*
D03*
Y133295D02*
D03*
Y127390D02*
D03*
Y121484D02*
D03*
Y115579D02*
D03*
Y109673D02*
D03*
Y103768D02*
D03*
Y97862D02*
D03*
Y91957D02*
D03*
Y86051D02*
D03*
Y80146D02*
D03*
Y74240D02*
D03*
Y68335D02*
D03*
Y21091D02*
D03*
Y15185D02*
D03*
Y9279D02*
D03*
X44539Y186445D02*
D03*
Y180539D02*
D03*
Y174634D02*
D03*
Y21091D02*
D03*
Y15185D02*
D03*
Y9279D02*
D03*
X38634Y186445D02*
D03*
Y180539D02*
D03*
Y174634D02*
D03*
X32728Y186445D02*
D03*
Y180539D02*
D03*
Y174634D02*
D03*
Y168728D02*
D03*
X26823Y186445D02*
D03*
Y162823D02*
D03*
Y156917D02*
D03*
Y151012D02*
D03*
Y145106D02*
D03*
Y139201D02*
D03*
Y133295D02*
D03*
Y127390D02*
D03*
Y121484D02*
D03*
Y115579D02*
D03*
Y109673D02*
D03*
Y103768D02*
D03*
Y97862D02*
D03*
Y91957D02*
D03*
Y86051D02*
D03*
Y80146D02*
D03*
Y74240D02*
D03*
Y68335D02*
D03*
Y62429D02*
D03*
Y56524D02*
D03*
Y50618D02*
D03*
Y44712D02*
D03*
Y38807D02*
D03*
Y32901D02*
D03*
Y9279D02*
D03*
X20917Y162823D02*
D03*
Y156917D02*
D03*
Y151012D02*
D03*
Y145106D02*
D03*
Y139201D02*
D03*
Y133295D02*
D03*
Y127390D02*
D03*
Y121484D02*
D03*
Y115579D02*
D03*
Y109673D02*
D03*
Y103768D02*
D03*
Y97862D02*
D03*
Y91957D02*
D03*
Y86051D02*
D03*
Y80146D02*
D03*
Y74240D02*
D03*
Y68335D02*
D03*
Y62429D02*
D03*
Y56524D02*
D03*
Y50618D02*
D03*
Y44712D02*
D03*
Y38807D02*
D03*
Y32901D02*
D03*
X15012Y162823D02*
D03*
Y156917D02*
D03*
Y151012D02*
D03*
Y145106D02*
D03*
Y139201D02*
D03*
Y133295D02*
D03*
Y127390D02*
D03*
Y121484D02*
D03*
Y115579D02*
D03*
Y109673D02*
D03*
Y103768D02*
D03*
Y97862D02*
D03*
Y91957D02*
D03*
Y86051D02*
D03*
Y80146D02*
D03*
Y74240D02*
D03*
Y68335D02*
D03*
Y62429D02*
D03*
Y56524D02*
D03*
Y50618D02*
D03*
Y44712D02*
D03*
Y38807D02*
D03*
Y32901D02*
D03*
X9106Y186445D02*
D03*
Y168728D02*
D03*
Y162823D02*
D03*
Y156917D02*
D03*
Y151012D02*
D03*
Y145106D02*
D03*
Y139201D02*
D03*
Y133295D02*
D03*
Y127390D02*
D03*
Y121484D02*
D03*
Y115579D02*
D03*
Y109673D02*
D03*
Y103768D02*
D03*
Y97862D02*
D03*
Y91957D02*
D03*
Y86051D02*
D03*
Y80146D02*
D03*
Y74240D02*
D03*
Y68335D02*
D03*
Y62429D02*
D03*
Y56524D02*
D03*
Y50618D02*
D03*
Y44712D02*
D03*
Y38807D02*
D03*
Y32901D02*
D03*
Y26996D02*
D03*
Y9279D02*
D03*
X43000Y-112000D02*
D03*
X43500Y-119500D02*
D03*
X44500Y-84000D02*
D03*
Y-78000D02*
D03*
X69000Y-18000D02*
D03*
X42000Y-9500D02*
D03*
X45250Y-21250D02*
D03*
X22000Y-22000D02*
D03*
Y-7000D02*
D03*
X56000Y-72000D02*
D03*
X56693Y-66693D02*
D03*
D67*
X137000Y-127000D02*
D03*
X133500Y-128500D02*
D03*
X130000D02*
D03*
X126500D02*
D03*
X125000Y-114500D02*
D03*
Y-118000D02*
D03*
Y-121500D02*
D03*
Y-125000D02*
D03*
X147000Y-126000D02*
D03*
X152500Y-120500D02*
D03*
X147000Y-115000D02*
D03*
X137000Y-123500D02*
D03*
Y-117500D02*
D03*
X157000Y-97000D02*
D03*
X163039Y-89961D02*
D03*
X140539Y-87461D02*
D03*
X155480Y-76480D02*
D03*
X158500Y-69000D02*
D03*
X181000Y-39500D02*
D03*
X170039Y-15461D02*
D03*
X165961Y-9961D02*
D03*
X171461Y39D02*
D03*
X168000Y-44500D02*
D03*
X150000Y-30000D02*
D03*
X29760Y-3760D02*
D03*
X157000Y-50500D02*
D03*
X162500D02*
D03*
X125291Y-84209D02*
D03*
X125122Y-79878D02*
D03*
D68*
X184000Y-2500D02*
D03*
M02*
