M48
;Layer_Color=9474304
;FILE_FORMAT=2:5
INCH,LZ
;TYPE=PLATED
T1F00S00C0.01000
T2F00S00C0.01181
T3F00S00C0.01968
T4F00S00C0.03346
T5F00S00C0.03543
T6F00S00C0.03780
T7F00S00C0.03937
T8F00S00C0.05118
%
T01
X0030643Y0000162
Y0003918
Y0007674
Y001143
Y0015186
X0036357Y0016962
Y0013206
Y000945
Y0005694
Y0001939
X0039764Y0000357
X004352
X0047276
X0051032
X0054787
X0058048Y-0001507
X0049915Y-0005357
X0046159
X0042404
X0036357Y0020718
Y0024474
Y002823
X0037158Y0031899
X0039705Y003466
X0042361Y0037316
X0045016Y0039972
X0047672Y0042628
X0050328Y0045284
X0052984Y0047939
X005564Y0050595
X0058296Y0053251
X0061673Y0054894
X0065069Y0056498
X0066619Y005992
X0065511Y0063509
X0062336Y0065515
X0058377Y006478
X0056116Y006178
X0055122Y0058158
X0052466Y0055503
X004981Y0052847
X0047155Y0050191
X0044499Y0047535
X0041843Y0044879
X0039187Y0042224
X0036531Y0039568
X0033876Y0036911
X0031729Y0033829
X0030732Y0030208
X0030643Y0026453
Y0022697
T02
X00435Y-01195
X0043Y-0112
X00445Y-0084
X0085878Y-0085209
X0091783
X0097689
X0103594
X01095
X0115405
Y-0091114
X0121311
X0125291Y-0084209
X0140539Y-0087461
X0150838Y-0102925
Y-0108831
X0147Y-0115
Y-0126
X0144933Y-0132453
X0150838
X0139028
X0137Y-0127
Y-01235
Y-01175
X0125Y-0118
Y-01145
Y-01215
Y-0125
X01265Y-01285
X013
X01335
X0121311Y-0132453
X01095
Y-0126547
Y-0120642
Y-0114736
Y-0108831
Y-0102925
Y-009702
Y-0091114
X0103594
Y-009702
Y-0102925
Y-0108831
Y-0114736
Y-0120642
Y-0126547
Y-0132453
X0097689
Y-0126547
Y-0120642
Y-0114736
Y-0108831
Y-0102925
Y-009702
Y-0091114
X0091783
Y-009702
Y-0102925
Y-0108831
Y-0114736
Y-0120642
Y-0126547
Y-0132453
X0085878
Y-0126547
Y-0120642
Y-0114736
Y-0108831
Y-0102925
Y-009702
Y-0091114
X0121311Y-0102925
Y-0108831
X01525Y-01205
X0156744Y-0120642
Y-0108831
X0157Y-0097
X0163039Y-0089961
X0164Y-01305
X0156744Y-0132453
X01585Y-0069
X0157Y-00505
X01625
X0168Y-00445
X0181Y-00395
X0170039Y-0015461
X0165961Y-0009961
X0171461Y0000039
X0156744Y0015185
Y0021091
X0168555Y0032901
X017446
X0180366
X0186272
Y0038807
Y0044712
Y0050618
Y0056524
Y0062429
Y0068335
X0180366
Y0062429
Y0056524
Y0050618
Y0044712
Y0038807
X017446
Y0044712
Y0050618
Y0056524
Y0062429
Y0068335
X0186272Y0026996
X0150838Y0021091
Y0015185
X0144933
Y0021091
X0139028
Y0015185
Y0009279
X0133122
Y0015185
Y0021091
X0127216
Y0015185
Y0009279
X0121311
Y0015185
Y0021091
X0115405
Y0015185
Y0009279
X01095
Y0015185
Y0021091
X0103594
Y0015185
Y0009279
X0097689
Y0015185
Y0021091
X0091783
Y0015185
Y0009279
X0085878
Y0015185
Y0021091
X0079972
Y0015185
Y0009279
X0074067
Y0015185
Y0021091
X0068161
Y0015185
Y0009279
X0062256
Y0015185
Y0021091
X005635
Y0015185
Y0009279
X0050445
Y0015185
Y0021091
X0044539
Y0015185
Y0009279
X0026823
X002976Y-000376
X0022Y-0007
Y-0022
X0025876Y-0021366
X0026548Y-0024845
X0026783Y-0028381
X0029056Y-0031099
X0031561Y-0033604
X0034067Y-003611
X0036572Y-0038615
X0039078Y-0041121
X0041583Y-0043626
X0044089Y-0046132
X0047Y-0048152
X0050543Y-0048212
X0054086
X0057629
X0061173
X0064716
X0068259
X0071803
X0075346
X0078889
X0082433
X0085976
X0089519
X0093063
X0096606
X0100149
X0103692
X0107236
X0110353Y-0049896
X0112859Y-0052402
X0115364Y-0054907
X011787Y-0057413
X0120375Y-0059918
X0122881Y-0062424
X0124957Y-0065295
X0121311Y-0067492
Y-0073398
X0115405
Y-0067492
Y-0061587
X01095
Y-0055681
X0103594
Y-0061587
Y-0067492
X01095
Y-0073398
Y-0079303
X0115405
X0125122Y-0079878
X0103594Y-0079303
Y-0073398
X0097689
Y-0067492
Y-0061587
Y-0055681
X0091783
Y-0061587
Y-0067492
Y-0073398
Y-0079303
X0097689
X0085878
Y-0073398
Y-0067492
Y-0061587
Y-0055681
X0086077Y-0036952
X0082534
X007907Y-0037701
X0075527Y-0037683
X0069485Y-0037288
X0065942
X0062398
X0055321Y-0040364
X005264Y-0038047
X0049951Y-003574
X004989Y-0032197
Y-0026484
X0050048Y-0022944
X0049299Y-001948
X004525Y-002125
X0056472Y-0022763
X0057221Y-00193
X0069Y-0018
X0076131Y-0022299
X0079674
X0083137Y-0023048
X0086681
X0085937Y-0029472
X0082394
X008948
X0093024
X0096334Y-0028209
X0098831Y-0025694
X0100709Y-0030528
X0104252
X0107795
X0111338
X0114882
X0118425
X0121968Y-0030489
X0124474Y-0027983
X0125012Y-003641
X012151Y-0036952
X0117967
X0114424
X011088
X0107337
X0103794
X010025
X0096707
X0093164
X008962
X0112406Y-0042863
X0117896Y-0044438
X0120401Y-0046944
X0122907Y-0049449
X0125412Y-0051955
X0124962Y-005547
X0133712Y-0052549
X0131993Y-004945
X0129488Y-0046945
X0126982Y-004444
X0124477Y-0041934
X0127577Y-0033966
X0130082Y-003146
X0132588Y-0028955
X0134212Y-0025806
X015Y-003
X0136524Y-0054704
X0137253Y-0060447
X015548Y-007648
X0056Y-0072
X0056693Y-0066693
X00445Y-0078
X0048794Y-0041751
X0046288Y-0039245
X0043783Y-003674
X0041277Y-0034234
X0038772Y-0031729
X0036266Y-0029223
X0033761Y-0026718
X0032972Y-0023264
X0033721Y-00198
X0042Y-00095
X0009106Y0009279
Y0026996
Y0032901
X0015012
X0020917
X0026823
Y0038807
Y0044712
Y0050618
Y0056524
Y0062429
Y0068335
X0020917
Y0062429
Y0056524
Y0050618
Y0044712
Y0038807
X0015012
Y0044712
Y0050618
Y0056524
Y0062429
Y0068335
X0009106
Y0062429
Y0056524
Y0050618
Y0044712
Y0038807
X0062256Y0050618
X0068161
X0074067
X0079972
X0085878
X0091783
X0097689
X0103594
X01095
X0115405
X0121311
X0127216
X0133122
X0127216Y0056524
Y0062429
Y0068335
X0133122
X0121311
Y0062429
Y0056524
X0115405
Y0062429
Y0068335
X01095
Y0062429
Y0056524
X0103594
Y0068335
X0097689
X0091783
Y0062429
Y0056524
X0085878
Y0062429
Y0068335
X0079972
Y0062429
Y0056524
X0074067
Y0062429
Y0068335
X0068161
X005635
X0050445
Y007424
X005635
X0062256
X0068161
X0074067
X0079972
X0085878
X0091783
X0097689
X0103594
X01095
X0115405
X0121311
X0127216
X0133122
X0127216Y0080146
X0121311
Y0086051
X0115405
Y0091957
X01095
Y0097862
X0103594
Y0103768
X0097689
Y0109673
X0091783
Y0115579
X0085878
Y0121484
X0079972
Y012739
Y0115579
Y0109673
X0085878
Y0103768
X0091783
Y0097862
X0097689
Y0091957
X0103594
Y0086051
X01095
Y0080146
X0115405
X0103594
X0097689
Y0086051
X0091783
Y0091957
X0085878
Y0097862
X0079972
Y0103768
X0074067
Y0109673
Y0115579
Y0121484
X0068161
Y0115579
Y0109673
Y0103768
Y0097862
X0074067
Y0091957
X0079972
Y0086051
X0085878
Y0080146
X0091783
X0079972
X0074067
Y0086051
X0068161
Y0091957
X0062256
Y0097862
Y0103768
Y0109673
Y0115579
Y0121484
Y012739
X005635
Y0121484
Y0115579
Y0109673
Y0103768
Y0097862
Y0091957
Y0086051
X0062256
Y0080146
X0068161
X005635
X0050445
Y0086051
Y0091957
Y0097862
Y0103768
Y0109673
Y0115579
Y0121484
Y012739
Y0133295
Y0139201
X005635
Y0145106
X0062256
X0068161
X0074067
X0079972
X0085878
X0091783
X0097689
X0103594
X01095
X0115405
X0121311
X0127216
X0133122
X0139028
X0144933Y0139201
Y0133295
X0133122Y012739
Y0121484
Y0115579
Y0109673
Y0103768
Y0097862
Y0091957
X0127216Y0097862
Y0103768
Y0109673
Y0115579
Y0121484
Y012739
Y0133295
Y0139201
X0121311
Y0133295
Y012739
Y0121484
Y0115579
Y0109673
Y0103768
X0115405Y0109673
Y0115579
Y0121484
Y012739
Y0133295
Y0139201
X01095
Y0133295
Y012739
Y0121484
Y0115579
X0103594Y0121484
Y012739
Y0133295
Y0139201
X0097689
Y0133295
Y012739
X0091783Y0133295
Y0139201
X0085878
Y0174634
X0091783
X0097689
X0103594
X01095
X0115405
X0121311
X0127216
X0133122
X0139028
X0144933
X0150838
Y0180539
Y0186445
X0144933
Y0180539
X0139028
Y0186445
X0133122
Y0180539
X0127216
Y0186445
X0121311
Y0180539
X0115405
Y0186445
X01095
Y0180539
X0103594
Y0186445
X0097689
Y0180539
X0091783
Y0186445
X0085878
Y0180539
X0079972
Y0186445
X0074067
Y0180539
Y0174634
X0079972
X0068161
Y0180539
Y0186445
X0062256
Y0180539
Y0174634
X005635
Y0180539
Y0186445
X0050445
Y0180539
Y0174634
X0044539
Y0180539
Y0186445
X0038634
Y0180539
Y0174634
X0032728
Y0180539
Y0186445
X0026823
X0009106
Y0168728
Y0162823
X0015012
X0020917
X0026823
Y0156917
Y0151012
Y0145106
Y0139201
Y0133295
Y012739
Y0121484
Y0115579
Y0109673
Y0103768
Y0097862
Y0091957
Y0086051
Y0080146
Y007424
X0020917
Y0080146
Y0086051
Y0091957
Y0097862
Y0103768
Y0109673
Y0115579
Y0121484
Y012739
Y0133295
Y0139201
Y0145106
Y0151012
Y0156917
X0015012
Y0151012
Y0145106
Y0139201
Y0133295
Y012739
Y0121484
Y0115579
Y0109673
Y0103768
Y0097862
Y0091957
Y0086051
Y0080146
Y007424
X0009106
Y0080146
Y0086051
Y0091957
Y0097862
Y0103768
Y0109673
Y0115579
Y0121484
Y012739
Y0133295
Y0139201
Y0145106
Y0151012
Y0156917
X0032728Y0168728
X016265
Y0174634
Y0180539
Y0186445
X0168555
X0156744
Y0180539
Y0174634
X0168555Y0162823
X017446
X0180366
X0186272
Y0168728
Y0156917
Y0151012
Y0145106
Y0139201
Y0133295
Y012739
Y0121484
Y0115579
Y0109673
Y0103768
Y0097862
Y0091957
Y0086051
Y0080146
Y007424
X0180366
Y0080146
Y0086051
Y0091957
Y0097862
Y0103768
Y0109673
Y0115579
Y0121484
Y012739
Y0133295
Y0139201
Y0145106
Y0151012
Y0156917
X017446
Y0151012
Y0145106
Y0139201
Y0133295
Y012739
Y0121484
Y0115579
Y0109673
Y0103768
Y0097862
Y0091957
Y0086051
Y0080146
Y007424
X0186272Y0186445
T03
X01665Y-01255
T04
X0142Y-01255
X0152
Y-01155
X0142
X0147Y-01205
X0136Y-0021
Y-0011
X0126
Y-0021
X0131Y-0016
X01015Y-0021
X00915
Y-0011
X01015
X00965Y-0016
T05
X0013177Y-0154079
Y-0144079
X0023177
Y-0154079
X0033177
Y-0144079
X0043177
Y-0154079
X0053177
Y-0144079
X0063177
Y-0154079
X0073177
Y-0144079
X0083177
Y-0154079
X0093177
Y-0144079
X0103177
Y-0154079
X0113177
Y-0144079
X0123177
Y-0154079
X0133177
Y-0144079
X0143177
Y-0154079
X0153177
Y-0144079
X0163177
Y-0154079
X0173177
Y-0144079
X0183177
Y-0154079
X0153177Y0213874
X0143177
X0133177
X0123177
X0113177
X0103177
X0093177
X0083177
X0073177
X0063177
X0053177
X0043177
X0033177
X0023177
X0013177
Y0223874
X0023177
X0033177
X0043177
X0053177
X0063177
X0073177
X0083177
X0093177
X0103177
X0113177
X0123177
X0133177
X0143177
X0153177
X0163177
Y0213874
X0173177
Y0223874
X0183177
Y0213874
T06
X0061252Y0060248
X0098752
X0136252
Y0135248
X0061252
T07
X0184Y-00025
T08
X0182295Y-0080492
Y-0054508
M30
