G04*
G04 #@! TF.GenerationSoftware,Altium Limited,Altium Designer,22.9.1 (49)*
G04*
G04 Layer_Physical_Order=4*
G04 Layer_Color=16711680*
%FSLAX25Y25*%
%MOIN*%
G70*
G04*
G04 #@! TF.SameCoordinates,E9D11BAE-304F-488D-B7EA-F98EEB287584*
G04*
G04*
G04 #@! TF.FilePolarity,Positive*
G04*
G01*
G75*
%ADD20R,0.03543X0.03150*%
%ADD54C,0.00799*%
%ADD59C,0.05512*%
%ADD60C,0.07677*%
%ADD61C,0.05878*%
%ADD62C,0.05906*%
%ADD63R,0.05906X0.05906*%
%ADD64C,0.05118*%
%ADD65C,0.02756*%
%ADD66C,0.03543*%
%ADD67C,0.03150*%
%ADD68C,0.07087*%
%ADD69C,0.03937*%
G36*
X149000Y51388D02*
X148538Y51196D01*
X148229Y51506D01*
X147885Y51849D01*
X147592Y52228D01*
X147400Y52478D01*
X147096Y53212D01*
X146993Y53994D01*
X146994Y54000D01*
Y67358D01*
X147009D01*
X146848Y69393D01*
X146372Y71378D01*
X145591Y73264D01*
X144524Y75004D01*
X143199Y76556D01*
X143188Y76546D01*
X84818Y134917D01*
X84828Y134927D01*
X83276Y136252D01*
X81535Y137319D01*
X79649Y138100D01*
X77665Y138577D01*
X75630Y138737D01*
Y138723D01*
X63112D01*
X62772Y138919D01*
X61771Y139187D01*
X60733D01*
X59732Y138919D01*
X58833Y138400D01*
X58100Y137667D01*
X57581Y136768D01*
X57313Y135767D01*
Y134729D01*
X57581Y133728D01*
X58100Y132829D01*
X58833Y132096D01*
X59732Y131578D01*
X60733Y131309D01*
X61771D01*
X62772Y131578D01*
X63671Y132096D01*
X64309Y132734D01*
X75630D01*
X75670Y132740D01*
X76998Y132609D01*
X78314Y132210D01*
X79527Y131561D01*
X80558Y130715D01*
X80583Y130682D01*
X138954Y72312D01*
X138987Y72287D01*
X139833Y71255D01*
X140481Y70043D01*
X140881Y68726D01*
X141011Y67399D01*
X141006Y67358D01*
Y54000D01*
X140988D01*
X141162Y52235D01*
X141677Y50538D01*
X142499Y49000D01*
X142423Y48726D01*
X142316Y48500D01*
X49500D01*
X45781Y133616D01*
Y138341D01*
X45767Y138416D01*
X45774Y138491D01*
X45658Y139671D01*
X45636Y139744D01*
Y139820D01*
X45475Y140628D01*
X45016Y151139D01*
X45362Y151500D01*
X52471D01*
X52499Y151481D01*
X53595Y151027D01*
X53670Y151012D01*
X53737Y150976D01*
X53952Y150911D01*
X54045Y150872D01*
X54209Y150833D01*
X54871Y150632D01*
X54947Y150625D01*
X55017Y150596D01*
X56071Y150386D01*
X56122Y150374D01*
X56140Y150372D01*
X56180Y150364D01*
X56242D01*
X56261Y150363D01*
X56329Y150342D01*
X57509Y150226D01*
X57585Y150233D01*
X57659Y150219D01*
X58092D01*
X58252Y150206D01*
Y150219D01*
X138252D01*
Y150206D01*
X138412Y150219D01*
X138845D01*
X138919Y150233D01*
X138995Y150226D01*
X140175Y150342D01*
X140243Y150363D01*
X140262Y150364D01*
X140324D01*
X140364Y150372D01*
X140382Y150374D01*
X140433Y150386D01*
X141487Y150596D01*
X141557Y150625D01*
X141632Y150632D01*
X142295Y150833D01*
X142459Y150872D01*
X142552Y150911D01*
X142767Y150976D01*
X142834Y151012D01*
X142909Y151027D01*
X144004Y151481D01*
X144033Y151500D01*
X149000D01*
Y51388D01*
D02*
G37*
G36*
X195073Y-20471D02*
X189000D01*
X188415Y-20587D01*
X187919Y-20919D01*
X187587Y-21415D01*
X187471Y-22000D01*
Y-52000D01*
Y-83000D01*
Y-98000D01*
X114500D01*
X114000Y-97500D01*
Y-137000D01*
X163500D01*
X182000Y-118500D01*
X194612D01*
X194965Y-118854D01*
X194925Y-160423D01*
X1281D01*
Y-79252D01*
Y7000D01*
X160506D01*
Y0D01*
X160608Y-775D01*
X160907Y-1497D01*
X161383Y-2117D01*
X165635Y-6369D01*
X166255Y-6845D01*
X166977Y-7144D01*
X167752Y-7246D01*
X183252D01*
X184027Y-7144D01*
X184270Y-7043D01*
X184598D01*
X185754Y-6734D01*
X186790Y-6135D01*
X187636Y-5290D01*
X188234Y-4254D01*
X188543Y-3098D01*
Y-1902D01*
X188234Y-746D01*
X187636Y290D01*
X186790Y1135D01*
X185754Y1734D01*
X184598Y2043D01*
X183402D01*
X182246Y1734D01*
X181210Y1135D01*
X180365Y290D01*
X179766Y-746D01*
X179629Y-1258D01*
X168992D01*
X166494Y1240D01*
Y7000D01*
X195073D01*
Y-20471D01*
D02*
G37*
%LPC*%
G36*
X136771Y139187D02*
X135733D01*
X134732Y138919D01*
X133833Y138400D01*
X133100Y137667D01*
X132581Y136768D01*
X132313Y135767D01*
Y134729D01*
X132581Y133728D01*
X133100Y132829D01*
X133833Y132096D01*
X134732Y131578D01*
X135733Y131309D01*
X136771D01*
X137772Y131578D01*
X138671Y132096D01*
X139404Y132829D01*
X139922Y133728D01*
X140191Y134729D01*
Y135767D01*
X139922Y136768D01*
X139404Y137667D01*
X138671Y138400D01*
X137772Y138919D01*
X136771Y139187D01*
D02*
G37*
G36*
Y64187D02*
X135733D01*
X134732Y63919D01*
X133833Y63400D01*
X133100Y62667D01*
X132581Y61768D01*
X132313Y60767D01*
Y59729D01*
X132581Y58728D01*
X133100Y57829D01*
X133833Y57096D01*
X134732Y56577D01*
X135733Y56309D01*
X136771D01*
X137772Y56577D01*
X138671Y57096D01*
X139404Y57829D01*
X139922Y58728D01*
X140191Y59729D01*
Y60767D01*
X139922Y61768D01*
X139404Y62667D01*
X138671Y63400D01*
X137772Y63919D01*
X136771Y64187D01*
D02*
G37*
G36*
X61771D02*
X60733D01*
X59732Y63919D01*
X58833Y63400D01*
X58100Y62667D01*
X57581Y61768D01*
X57313Y60767D01*
Y59729D01*
X57581Y58728D01*
X58100Y57829D01*
X58833Y57096D01*
X59732Y56577D01*
X60733Y56309D01*
X61771D01*
X62772Y56577D01*
X63671Y57096D01*
X64404Y57829D01*
X64922Y58728D01*
X65191Y59729D01*
Y60767D01*
X64922Y61768D01*
X64404Y62667D01*
X63671Y63400D01*
X62772Y63919D01*
X61771Y64187D01*
D02*
G37*
G36*
X131494Y-12244D02*
X130506D01*
X129550Y-12500D01*
X128694Y-12994D01*
X127995Y-13694D01*
X127500Y-14550D01*
X127244Y-15506D01*
Y-16495D01*
X127500Y-17450D01*
X127995Y-18306D01*
X128694Y-19005D01*
X129550Y-19500D01*
X130506Y-19756D01*
X131494D01*
X132450Y-19500D01*
X133306Y-19005D01*
X134005Y-18306D01*
X134500Y-17450D01*
X134756Y-16495D01*
Y-15506D01*
X134500Y-14550D01*
X134005Y-13694D01*
X133306Y-12994D01*
X132450Y-12500D01*
X131494Y-12244D01*
D02*
G37*
G36*
X96995D02*
X96005D01*
X95050Y-12500D01*
X94194Y-12994D01*
X93494Y-13694D01*
X93000Y-14550D01*
X92744Y-15506D01*
Y-16495D01*
X93000Y-17450D01*
X93494Y-18306D01*
X94194Y-19005D01*
X95050Y-19500D01*
X96005Y-19756D01*
X96995D01*
X97950Y-19500D01*
X98806Y-19005D01*
X99506Y-18306D01*
X100000Y-17450D01*
X100256Y-16495D01*
Y-15506D01*
X100000Y-14550D01*
X99506Y-13694D01*
X98806Y-12994D01*
X97950Y-12500D01*
X96995Y-12244D01*
D02*
G37*
G36*
X69365Y-15228D02*
X68635D01*
X67930Y-15417D01*
X67298Y-15782D01*
X66782Y-16298D01*
X66417Y-16930D01*
X66228Y-17635D01*
Y-18365D01*
X66417Y-19070D01*
X66782Y-19702D01*
X67298Y-20218D01*
X67930Y-20583D01*
X68635Y-20772D01*
X69365D01*
X70070Y-20583D01*
X70702Y-20218D01*
X71218Y-19702D01*
X71583Y-19070D01*
X71772Y-18365D01*
Y-17635D01*
X71583Y-16930D01*
X71218Y-16298D01*
X70702Y-15782D01*
X70070Y-15417D01*
X69365Y-15228D01*
D02*
G37*
G36*
X45615Y-18478D02*
X44885D01*
X44180Y-18667D01*
X43548Y-19032D01*
X43032Y-19548D01*
X42667Y-20180D01*
X42478Y-20885D01*
Y-21615D01*
X42667Y-22320D01*
X43032Y-22952D01*
X43548Y-23468D01*
X44180Y-23833D01*
X44885Y-24022D01*
X45615D01*
X46320Y-23833D01*
X46952Y-23468D01*
X47468Y-22952D01*
X47833Y-22320D01*
X48022Y-21615D01*
Y-20885D01*
X47833Y-20180D01*
X47468Y-19548D01*
X46952Y-19032D01*
X46320Y-18667D01*
X45615Y-18478D01*
D02*
G37*
G36*
X22365Y-19228D02*
X21635D01*
X20930Y-19417D01*
X20298Y-19782D01*
X19782Y-20298D01*
X19417Y-20930D01*
X19228Y-21635D01*
Y-22365D01*
X19417Y-23070D01*
X19782Y-23702D01*
X20298Y-24218D01*
X20930Y-24583D01*
X21635Y-24772D01*
X22365D01*
X23070Y-24583D01*
X23702Y-24218D01*
X24218Y-23702D01*
X24583Y-23070D01*
X24772Y-22365D01*
Y-21635D01*
X24583Y-20930D01*
X24218Y-20298D01*
X23702Y-19782D01*
X23070Y-19417D01*
X22365Y-19228D01*
D02*
G37*
G36*
X162839Y-47925D02*
X162161D01*
X161506Y-48101D01*
X160919Y-48440D01*
X160440Y-48919D01*
X160101Y-49506D01*
X160009Y-49849D01*
X159491D01*
X159399Y-49506D01*
X159060Y-48919D01*
X158581Y-48440D01*
X157994Y-48101D01*
X157339Y-47925D01*
X156661D01*
X156006Y-48101D01*
X155419Y-48440D01*
X154940Y-48919D01*
X154601Y-49506D01*
X154425Y-50161D01*
Y-50839D01*
X154471Y-51011D01*
X127305Y-78177D01*
X127063D01*
X126703Y-77818D01*
X126116Y-77479D01*
X125461Y-77303D01*
X124783D01*
X124128Y-77479D01*
X123541Y-77818D01*
X123062Y-78297D01*
X122723Y-78884D01*
X122547Y-79539D01*
Y-80217D01*
X122723Y-80872D01*
X123062Y-81459D01*
X123399Y-81796D01*
X123538Y-81953D01*
X123416Y-82443D01*
X123231Y-82628D01*
X122892Y-83215D01*
X122716Y-83870D01*
Y-84548D01*
X122892Y-85202D01*
X123231Y-85790D01*
X123710Y-86269D01*
X124297Y-86608D01*
X124952Y-86783D01*
X125630D01*
X126285Y-86608D01*
X126872Y-86269D01*
X127352Y-85790D01*
X127691Y-85202D01*
X127866Y-84548D01*
Y-83870D01*
X127820Y-83698D01*
X156091Y-55427D01*
X159000D01*
X159000Y-55427D01*
X159546Y-55318D01*
X160009Y-55009D01*
X161989Y-53029D01*
X162161Y-53075D01*
X162839D01*
X163494Y-52899D01*
X164081Y-52560D01*
X164560Y-52081D01*
X164899Y-51494D01*
X165075Y-50839D01*
Y-50161D01*
X164899Y-49506D01*
X164560Y-48919D01*
X164081Y-48440D01*
X163494Y-48101D01*
X162839Y-47925D01*
D02*
G37*
G36*
X44865Y-75228D02*
X44135D01*
X43430Y-75417D01*
X42798Y-75782D01*
X42282Y-76298D01*
X41917Y-76930D01*
X41728Y-77635D01*
Y-78365D01*
X41917Y-79070D01*
X42282Y-79702D01*
X42798Y-80218D01*
X43430Y-80583D01*
X44135Y-80772D01*
X44865D01*
X45570Y-80583D01*
X46202Y-80218D01*
X46718Y-79702D01*
X47083Y-79070D01*
X47272Y-78365D01*
Y-77635D01*
X47083Y-76930D01*
X46718Y-76298D01*
X46202Y-75782D01*
X45570Y-75417D01*
X44865Y-75228D01*
D02*
G37*
G36*
X43365Y-109228D02*
X42635D01*
X41930Y-109417D01*
X41298Y-109782D01*
X40782Y-110298D01*
X40417Y-110930D01*
X40228Y-111635D01*
Y-112365D01*
X40417Y-113070D01*
X40782Y-113702D01*
X41298Y-114218D01*
X41930Y-114583D01*
X42635Y-114772D01*
X43365D01*
X44070Y-114583D01*
X44702Y-114218D01*
X45218Y-113702D01*
X45583Y-113070D01*
X45772Y-112365D01*
Y-111635D01*
X45583Y-110930D01*
X45218Y-110298D01*
X44702Y-109782D01*
X44070Y-109417D01*
X43365Y-109228D01*
D02*
G37*
G36*
X183698Y-140126D02*
X182657D01*
X181651Y-140395D01*
X180750Y-140916D01*
X180014Y-141652D01*
X179494Y-142553D01*
X179224Y-143558D01*
Y-144599D01*
X179494Y-145604D01*
X180014Y-146506D01*
X180750Y-147242D01*
X181651Y-147762D01*
X182657Y-148031D01*
X183698D01*
X184703Y-147762D01*
X185604Y-147242D01*
X186340Y-146506D01*
X186861Y-145604D01*
X187130Y-144599D01*
Y-143558D01*
X186861Y-142553D01*
X186340Y-141652D01*
X185604Y-140916D01*
X184703Y-140395D01*
X183698Y-140126D01*
D02*
G37*
G36*
X173698D02*
X172657D01*
X171651Y-140395D01*
X170750Y-140916D01*
X170014Y-141652D01*
X169494Y-142553D01*
X169224Y-143558D01*
Y-144599D01*
X169494Y-145604D01*
X170014Y-146506D01*
X170750Y-147242D01*
X171651Y-147762D01*
X172657Y-148031D01*
X173698D01*
X174703Y-147762D01*
X175604Y-147242D01*
X176340Y-146506D01*
X176860Y-145604D01*
X177130Y-144599D01*
Y-143558D01*
X176860Y-142553D01*
X176340Y-141652D01*
X175604Y-140916D01*
X174703Y-140395D01*
X173698Y-140126D01*
D02*
G37*
G36*
X163698D02*
X162657D01*
X161652Y-140395D01*
X160750Y-140916D01*
X160014Y-141652D01*
X159494Y-142553D01*
X159224Y-143558D01*
Y-144599D01*
X159494Y-145604D01*
X160014Y-146506D01*
X160750Y-147242D01*
X161652Y-147762D01*
X162657Y-148031D01*
X163698D01*
X164703Y-147762D01*
X165604Y-147242D01*
X166340Y-146506D01*
X166860Y-145604D01*
X167130Y-144599D01*
Y-143558D01*
X166860Y-142553D01*
X166340Y-141652D01*
X165604Y-140916D01*
X164703Y-140395D01*
X163698Y-140126D01*
D02*
G37*
G36*
X153698D02*
X152657D01*
X151652Y-140395D01*
X150750Y-140916D01*
X150014Y-141652D01*
X149494Y-142553D01*
X149224Y-143558D01*
Y-144599D01*
X149494Y-145604D01*
X150014Y-146506D01*
X150750Y-147242D01*
X151652Y-147762D01*
X152657Y-148031D01*
X153698D01*
X154703Y-147762D01*
X155604Y-147242D01*
X156340Y-146506D01*
X156860Y-145604D01*
X157130Y-144599D01*
Y-143558D01*
X156860Y-142553D01*
X156340Y-141652D01*
X155604Y-140916D01*
X154703Y-140395D01*
X153698Y-140126D01*
D02*
G37*
G36*
X143698D02*
X142657D01*
X141651Y-140395D01*
X140750Y-140916D01*
X140014Y-141652D01*
X139494Y-142553D01*
X139224Y-143558D01*
Y-144599D01*
X139494Y-145604D01*
X140014Y-146506D01*
X140750Y-147242D01*
X141651Y-147762D01*
X142657Y-148031D01*
X143698D01*
X144703Y-147762D01*
X145604Y-147242D01*
X146340Y-146506D01*
X146861Y-145604D01*
X147130Y-144599D01*
Y-143558D01*
X146861Y-142553D01*
X146340Y-141652D01*
X145604Y-140916D01*
X144703Y-140395D01*
X143698Y-140126D01*
D02*
G37*
G36*
X133698D02*
X132657D01*
X131651Y-140395D01*
X130750Y-140916D01*
X130014Y-141652D01*
X129494Y-142553D01*
X129224Y-143558D01*
Y-144599D01*
X129494Y-145604D01*
X130014Y-146506D01*
X130750Y-147242D01*
X131651Y-147762D01*
X132657Y-148031D01*
X133698D01*
X134703Y-147762D01*
X135604Y-147242D01*
X136340Y-146506D01*
X136861Y-145604D01*
X137130Y-144599D01*
Y-143558D01*
X136861Y-142553D01*
X136340Y-141652D01*
X135604Y-140916D01*
X134703Y-140395D01*
X133698Y-140126D01*
D02*
G37*
G36*
X123698D02*
X122657D01*
X121651Y-140395D01*
X120750Y-140916D01*
X120014Y-141652D01*
X119494Y-142553D01*
X119224Y-143558D01*
Y-144599D01*
X119494Y-145604D01*
X120014Y-146506D01*
X120750Y-147242D01*
X121651Y-147762D01*
X122657Y-148031D01*
X123698D01*
X124703Y-147762D01*
X125604Y-147242D01*
X126340Y-146506D01*
X126860Y-145604D01*
X127130Y-144599D01*
Y-143558D01*
X126860Y-142553D01*
X126340Y-141652D01*
X125604Y-140916D01*
X124703Y-140395D01*
X123698Y-140126D01*
D02*
G37*
G36*
X113698D02*
X112657D01*
X111652Y-140395D01*
X110750Y-140916D01*
X110014Y-141652D01*
X109494Y-142553D01*
X109224Y-143558D01*
Y-144599D01*
X109494Y-145604D01*
X110014Y-146506D01*
X110750Y-147242D01*
X111652Y-147762D01*
X112657Y-148031D01*
X113698D01*
X114703Y-147762D01*
X115604Y-147242D01*
X116340Y-146506D01*
X116860Y-145604D01*
X117130Y-144599D01*
Y-143558D01*
X116860Y-142553D01*
X116340Y-141652D01*
X115604Y-140916D01*
X114703Y-140395D01*
X113698Y-140126D01*
D02*
G37*
G36*
X103698D02*
X102657D01*
X101652Y-140395D01*
X100750Y-140916D01*
X100014Y-141652D01*
X99494Y-142553D01*
X99224Y-143558D01*
Y-144599D01*
X99494Y-145604D01*
X100014Y-146506D01*
X100750Y-147242D01*
X101652Y-147762D01*
X102657Y-148031D01*
X103698D01*
X104703Y-147762D01*
X105604Y-147242D01*
X106340Y-146506D01*
X106860Y-145604D01*
X107130Y-144599D01*
Y-143558D01*
X106860Y-142553D01*
X106340Y-141652D01*
X105604Y-140916D01*
X104703Y-140395D01*
X103698Y-140126D01*
D02*
G37*
G36*
X93698D02*
X92657D01*
X91651Y-140395D01*
X90750Y-140916D01*
X90014Y-141652D01*
X89494Y-142553D01*
X89224Y-143558D01*
Y-144599D01*
X89494Y-145604D01*
X90014Y-146506D01*
X90750Y-147242D01*
X91651Y-147762D01*
X92657Y-148031D01*
X93698D01*
X94703Y-147762D01*
X95604Y-147242D01*
X96340Y-146506D01*
X96861Y-145604D01*
X97130Y-144599D01*
Y-143558D01*
X96861Y-142553D01*
X96340Y-141652D01*
X95604Y-140916D01*
X94703Y-140395D01*
X93698Y-140126D01*
D02*
G37*
G36*
X57058Y-63921D02*
X56328D01*
X55623Y-64110D01*
X54991Y-64475D01*
X54475Y-64991D01*
X54110Y-65623D01*
X53921Y-66328D01*
Y-67058D01*
X54110Y-67763D01*
X54475Y-68395D01*
X54969Y-68889D01*
X54973Y-69162D01*
X54972Y-69173D01*
X54899Y-69435D01*
X54298Y-69782D01*
X53782Y-70298D01*
X53417Y-70930D01*
X53228Y-71635D01*
Y-72365D01*
X53417Y-73070D01*
X53782Y-73702D01*
X54298Y-74218D01*
X54930Y-74583D01*
X55635Y-74772D01*
X56365D01*
X57070Y-74583D01*
X57702Y-74218D01*
X57951Y-73969D01*
X60073Y-76091D01*
Y-132402D01*
X60073Y-132402D01*
X60182Y-132948D01*
X60491Y-133411D01*
X69545Y-142465D01*
X69494Y-142553D01*
X69224Y-143558D01*
Y-144599D01*
X69494Y-145604D01*
X70014Y-146506D01*
X70750Y-147242D01*
X71652Y-147762D01*
X72657Y-148031D01*
X73698D01*
X74703Y-147762D01*
X75604Y-147242D01*
X76340Y-146506D01*
X76861Y-145604D01*
X77130Y-144599D01*
Y-143855D01*
X77630Y-143648D01*
X78485Y-144503D01*
X78485Y-144503D01*
X78948Y-144812D01*
X79300Y-144882D01*
X79494Y-145604D01*
X80014Y-146506D01*
X80750Y-147242D01*
X81652Y-147762D01*
X82657Y-148031D01*
X83698D01*
X84703Y-147762D01*
X85604Y-147242D01*
X86340Y-146506D01*
X86861Y-145604D01*
X87130Y-144599D01*
Y-143558D01*
X86861Y-142553D01*
X86340Y-141652D01*
X85604Y-140916D01*
X84703Y-140395D01*
X83698Y-140126D01*
X82657D01*
X81652Y-140395D01*
X80750Y-140916D01*
X80196Y-141470D01*
X79560Y-141542D01*
X64927Y-126909D01*
Y-71000D01*
X64927Y-71000D01*
X64818Y-70454D01*
X64509Y-69991D01*
X64509Y-69991D01*
X60009Y-65491D01*
X59546Y-65182D01*
X59000Y-65073D01*
X59000Y-65073D01*
X58958D01*
X58911Y-64991D01*
X58395Y-64475D01*
X57763Y-64110D01*
X57058Y-63921D01*
D02*
G37*
G36*
X63698Y-140126D02*
X62657D01*
X61651Y-140395D01*
X60750Y-140916D01*
X60014Y-141652D01*
X59494Y-142553D01*
X59224Y-143558D01*
Y-144599D01*
X59494Y-145604D01*
X60014Y-146506D01*
X60750Y-147242D01*
X61651Y-147762D01*
X62657Y-148031D01*
X63698D01*
X64703Y-147762D01*
X65604Y-147242D01*
X66340Y-146506D01*
X66861Y-145604D01*
X67130Y-144599D01*
Y-143558D01*
X66861Y-142553D01*
X66340Y-141652D01*
X65604Y-140916D01*
X64703Y-140395D01*
X63698Y-140126D01*
D02*
G37*
G36*
X53698D02*
X52657D01*
X51652Y-140395D01*
X50750Y-140916D01*
X50014Y-141652D01*
X49494Y-142553D01*
X49224Y-143558D01*
Y-144599D01*
X49494Y-145604D01*
X50014Y-146506D01*
X50750Y-147242D01*
X51652Y-147762D01*
X52657Y-148031D01*
X53698D01*
X54703Y-147762D01*
X55604Y-147242D01*
X56340Y-146506D01*
X56861Y-145604D01*
X57130Y-144599D01*
Y-143558D01*
X56861Y-142553D01*
X56340Y-141652D01*
X55604Y-140916D01*
X54703Y-140395D01*
X53698Y-140126D01*
D02*
G37*
G36*
X43698D02*
X42657D01*
X41651Y-140395D01*
X40750Y-140916D01*
X40014Y-141652D01*
X39494Y-142553D01*
X39224Y-143558D01*
Y-144599D01*
X39494Y-145604D01*
X40014Y-146506D01*
X40750Y-147242D01*
X41651Y-147762D01*
X42657Y-148031D01*
X43698D01*
X44703Y-147762D01*
X45604Y-147242D01*
X46340Y-146506D01*
X46861Y-145604D01*
X47130Y-144599D01*
Y-143558D01*
X46861Y-142553D01*
X46340Y-141652D01*
X45604Y-140916D01*
X44703Y-140395D01*
X43698Y-140126D01*
D02*
G37*
G36*
X33698D02*
X32657D01*
X31651Y-140395D01*
X30750Y-140916D01*
X30014Y-141652D01*
X29494Y-142553D01*
X29224Y-143558D01*
Y-144599D01*
X29494Y-145604D01*
X30014Y-146506D01*
X30750Y-147242D01*
X31651Y-147762D01*
X32657Y-148031D01*
X33698D01*
X34703Y-147762D01*
X35604Y-147242D01*
X36340Y-146506D01*
X36861Y-145604D01*
X37130Y-144599D01*
Y-143558D01*
X36861Y-142553D01*
X36340Y-141652D01*
X35604Y-140916D01*
X34703Y-140395D01*
X33698Y-140126D01*
D02*
G37*
G36*
X23698D02*
X22657D01*
X21652Y-140395D01*
X20750Y-140916D01*
X20014Y-141652D01*
X19494Y-142553D01*
X19224Y-143558D01*
Y-144599D01*
X19494Y-145604D01*
X20014Y-146506D01*
X20750Y-147242D01*
X21652Y-147762D01*
X22657Y-148031D01*
X23698D01*
X24703Y-147762D01*
X25604Y-147242D01*
X26340Y-146506D01*
X26861Y-145604D01*
X27130Y-144599D01*
Y-143558D01*
X26861Y-142553D01*
X26340Y-141652D01*
X25604Y-140916D01*
X24703Y-140395D01*
X23698Y-140126D01*
D02*
G37*
G36*
X13698D02*
X12657D01*
X11652Y-140395D01*
X10750Y-140916D01*
X10014Y-141652D01*
X9494Y-142553D01*
X9224Y-143558D01*
Y-144599D01*
X9494Y-145604D01*
X10014Y-146506D01*
X10750Y-147242D01*
X11652Y-147762D01*
X12657Y-148031D01*
X13698D01*
X14703Y-147762D01*
X15604Y-147242D01*
X16340Y-146506D01*
X16861Y-145604D01*
X17130Y-144599D01*
Y-143558D01*
X16861Y-142553D01*
X16340Y-141652D01*
X15604Y-140916D01*
X14703Y-140395D01*
X13698Y-140126D01*
D02*
G37*
%LPD*%
G36*
X73608Y-139626D02*
X73401Y-140126D01*
X72657D01*
X71652Y-140395D01*
X71563Y-140446D01*
X62927Y-131810D01*
Y-129598D01*
X63389Y-129407D01*
X73608Y-139626D01*
D02*
G37*
D20*
X68461Y129193D02*
D03*
X68500Y135728D02*
D03*
X74461Y129193D02*
D03*
X74500Y135728D02*
D03*
D54*
X63500Y-127500D02*
X79494Y-143494D01*
X63500Y-127500D02*
Y-71000D01*
X82592Y-143494D02*
X83177Y-144079D01*
X79494Y-143494D02*
X82592D01*
X56500Y-66500D02*
X59000D01*
X63500Y-71000D01*
X61500Y-132402D02*
Y-75500D01*
X58000Y-72000D02*
X61500Y-75500D01*
X57500Y-72000D02*
X58000D01*
X61500Y-132402D02*
X73177Y-144079D01*
X155500Y-54000D02*
X159000D01*
X162500Y-50500D01*
X125291Y-84209D02*
X155500Y-54000D01*
X127896Y-79604D02*
X157000Y-50500D01*
X125396Y-79604D02*
X127896D01*
D59*
X101500Y-21000D02*
D03*
X91500D02*
D03*
Y-11000D02*
D03*
X101500D02*
D03*
X96500Y-16000D02*
D03*
X136000Y-11000D02*
D03*
Y-21000D02*
D03*
X126000D02*
D03*
Y-11000D02*
D03*
X131000Y-16000D02*
D03*
X152000Y-125500D02*
D03*
X142000D02*
D03*
Y-115500D02*
D03*
X152000D02*
D03*
X147000Y-120500D02*
D03*
D60*
X182295Y-80492D02*
D03*
Y-54508D02*
D03*
D61*
X61252Y60248D02*
D03*
X98752D02*
D03*
X136252D02*
D03*
Y135248D02*
D03*
X61252D02*
D03*
D62*
X13177Y223874D02*
D03*
Y213874D02*
D03*
X23177Y223874D02*
D03*
Y213874D02*
D03*
X33177Y223874D02*
D03*
Y213874D02*
D03*
X43177Y223874D02*
D03*
Y213874D02*
D03*
X53177Y223874D02*
D03*
Y213874D02*
D03*
X63177Y223874D02*
D03*
Y213874D02*
D03*
X73177Y223874D02*
D03*
Y213874D02*
D03*
X83177Y223874D02*
D03*
Y213874D02*
D03*
X93177Y223874D02*
D03*
Y213874D02*
D03*
X103177Y223874D02*
D03*
Y213874D02*
D03*
X113177Y223874D02*
D03*
Y213874D02*
D03*
X123177Y223874D02*
D03*
Y213874D02*
D03*
X133177Y223874D02*
D03*
Y213874D02*
D03*
X143177Y223874D02*
D03*
Y213874D02*
D03*
X153177Y223874D02*
D03*
Y213874D02*
D03*
X163177Y223874D02*
D03*
Y213874D02*
D03*
X173177Y223874D02*
D03*
Y213874D02*
D03*
X183177Y223874D02*
D03*
X13177Y-144079D02*
D03*
Y-154079D02*
D03*
X23177Y-144079D02*
D03*
Y-154079D02*
D03*
X33177Y-144079D02*
D03*
Y-154079D02*
D03*
X43177Y-144079D02*
D03*
Y-154079D02*
D03*
X53177Y-144079D02*
D03*
Y-154079D02*
D03*
X63177Y-144079D02*
D03*
Y-154079D02*
D03*
X73177Y-144079D02*
D03*
Y-154079D02*
D03*
X83177Y-144079D02*
D03*
Y-154079D02*
D03*
X93177Y-144079D02*
D03*
Y-154079D02*
D03*
X103177Y-144079D02*
D03*
Y-154079D02*
D03*
X113177Y-144079D02*
D03*
Y-154079D02*
D03*
X123177Y-144079D02*
D03*
Y-154079D02*
D03*
X133177Y-144079D02*
D03*
Y-154079D02*
D03*
X143177Y-144079D02*
D03*
Y-154079D02*
D03*
X153177Y-144079D02*
D03*
Y-154079D02*
D03*
X163177Y-144079D02*
D03*
Y-154079D02*
D03*
X173177Y-144079D02*
D03*
Y-154079D02*
D03*
X183177Y-144079D02*
D03*
D63*
Y213874D02*
D03*
Y-154079D02*
D03*
D64*
X166500Y-125500D02*
D03*
D65*
X86681Y-23048D02*
D03*
X83137D02*
D03*
X79674Y-22299D02*
D03*
X76131D02*
D03*
X82394Y-29472D02*
D03*
X85937D02*
D03*
X89480D02*
D03*
X93024D02*
D03*
X96334Y-28209D02*
D03*
X98831Y-25694D02*
D03*
X124474Y-27983D02*
D03*
X121968Y-30489D02*
D03*
X118425Y-30528D02*
D03*
X114882D02*
D03*
X111338D02*
D03*
X107795D02*
D03*
X104252D02*
D03*
X100709D02*
D03*
X75527Y-37683D02*
D03*
X79070Y-37701D02*
D03*
X82534Y-36952D02*
D03*
X86077D02*
D03*
X89620D02*
D03*
X93164D02*
D03*
X96707D02*
D03*
X100250D02*
D03*
X103794D02*
D03*
X107337D02*
D03*
X110880D02*
D03*
X114424D02*
D03*
X117967D02*
D03*
X121510D02*
D03*
X125012Y-36410D02*
D03*
X127577Y-33966D02*
D03*
X130082Y-31460D02*
D03*
X132588Y-28955D02*
D03*
X134212Y-25806D02*
D03*
X49890Y-32197D02*
D03*
X49951Y-35740D02*
D03*
X52640Y-38047D02*
D03*
X55321Y-40364D02*
D03*
X117896Y-44438D02*
D03*
X120401Y-46944D02*
D03*
X122907Y-49449D02*
D03*
X125412Y-51955D02*
D03*
X124962Y-55470D02*
D03*
X136524Y-54704D02*
D03*
X133712Y-52549D02*
D03*
X131993Y-49450D02*
D03*
X129488Y-46945D02*
D03*
X126982Y-44440D02*
D03*
X124477Y-41934D02*
D03*
X69485Y-37288D02*
D03*
X65942D02*
D03*
X62398D02*
D03*
X25876Y-21366D02*
D03*
X26548Y-24845D02*
D03*
X26783Y-28381D02*
D03*
X29056Y-31099D02*
D03*
X31561Y-33604D02*
D03*
X34067Y-36110D02*
D03*
X36572Y-38615D02*
D03*
X39078Y-41121D02*
D03*
X41583Y-43626D02*
D03*
X44089Y-46132D02*
D03*
X47000Y-48152D02*
D03*
X50543Y-48212D02*
D03*
X54086D02*
D03*
X57629D02*
D03*
X61173D02*
D03*
X64716D02*
D03*
X68259D02*
D03*
X71803D02*
D03*
X75346D02*
D03*
X78889D02*
D03*
X82433D02*
D03*
X85976D02*
D03*
X89519D02*
D03*
X93063D02*
D03*
X96606D02*
D03*
X100149D02*
D03*
X103692D02*
D03*
X107236D02*
D03*
X110353Y-49896D02*
D03*
X112859Y-52402D02*
D03*
X115364Y-54907D02*
D03*
X117870Y-57413D02*
D03*
X120375Y-59918D02*
D03*
X122881Y-62424D02*
D03*
X124957Y-65295D02*
D03*
X137253Y-60447D02*
D03*
X112406Y-42863D02*
D03*
X48794Y-41751D02*
D03*
X46288Y-39245D02*
D03*
X43783Y-36740D02*
D03*
X41277Y-34234D02*
D03*
X38772Y-31729D02*
D03*
X36266Y-29223D02*
D03*
X33761Y-26718D02*
D03*
X32972Y-23264D02*
D03*
X33721Y-19800D02*
D03*
X58377Y64780D02*
D03*
X56116Y61780D02*
D03*
X55122Y58158D02*
D03*
X52466Y55503D02*
D03*
X49810Y52847D02*
D03*
X47155Y50191D02*
D03*
X44499Y47535D02*
D03*
X41843Y44879D02*
D03*
X39187Y42224D02*
D03*
X36531Y39568D02*
D03*
X33876Y36911D02*
D03*
X31729Y33829D02*
D03*
X30732Y30208D02*
D03*
X30643Y26453D02*
D03*
Y22697D02*
D03*
Y15186D02*
D03*
Y11430D02*
D03*
Y7674D02*
D03*
Y3918D02*
D03*
Y162D02*
D03*
X42404Y-5357D02*
D03*
X46159D02*
D03*
X49915D02*
D03*
X58048Y-1507D02*
D03*
X54787Y357D02*
D03*
X51032D02*
D03*
X47276D02*
D03*
X43520D02*
D03*
X39764D02*
D03*
X36357Y1939D02*
D03*
Y5694D02*
D03*
Y9450D02*
D03*
Y13206D02*
D03*
Y16962D02*
D03*
Y20718D02*
D03*
Y24474D02*
D03*
Y28230D02*
D03*
X37158Y31899D02*
D03*
X39705Y34660D02*
D03*
X42361Y37316D02*
D03*
X45016Y39972D02*
D03*
X47672Y42628D02*
D03*
X50328Y45284D02*
D03*
X52984Y47939D02*
D03*
X55640Y50595D02*
D03*
X58296Y53251D02*
D03*
X61673Y54894D02*
D03*
X65069Y56498D02*
D03*
X66619Y59920D02*
D03*
X65511Y63509D02*
D03*
X62336Y65515D02*
D03*
X49299Y-19480D02*
D03*
X50048Y-22944D02*
D03*
X49890Y-26484D02*
D03*
X56472Y-22763D02*
D03*
X57221Y-19300D02*
D03*
D66*
X164000Y-130500D02*
D03*
X186272Y186445D02*
D03*
Y168728D02*
D03*
Y162823D02*
D03*
Y156917D02*
D03*
Y151012D02*
D03*
Y145106D02*
D03*
Y139201D02*
D03*
Y133295D02*
D03*
Y127390D02*
D03*
Y121484D02*
D03*
Y115579D02*
D03*
Y109673D02*
D03*
Y103768D02*
D03*
Y97862D02*
D03*
Y91957D02*
D03*
Y86051D02*
D03*
Y80146D02*
D03*
Y74240D02*
D03*
Y68335D02*
D03*
Y62429D02*
D03*
Y56524D02*
D03*
Y50618D02*
D03*
Y44712D02*
D03*
Y38807D02*
D03*
Y32901D02*
D03*
Y26996D02*
D03*
X180366Y162823D02*
D03*
Y156917D02*
D03*
Y151012D02*
D03*
Y145106D02*
D03*
Y139201D02*
D03*
Y133295D02*
D03*
Y127390D02*
D03*
Y121484D02*
D03*
Y115579D02*
D03*
Y109673D02*
D03*
Y103768D02*
D03*
Y97862D02*
D03*
Y91957D02*
D03*
Y86051D02*
D03*
Y80146D02*
D03*
Y74240D02*
D03*
Y68335D02*
D03*
Y62429D02*
D03*
Y56524D02*
D03*
Y50618D02*
D03*
Y44712D02*
D03*
Y38807D02*
D03*
Y32901D02*
D03*
X174460Y162823D02*
D03*
Y156917D02*
D03*
Y151012D02*
D03*
Y145106D02*
D03*
Y139201D02*
D03*
Y133295D02*
D03*
Y127390D02*
D03*
Y121484D02*
D03*
Y115579D02*
D03*
Y109673D02*
D03*
Y103768D02*
D03*
Y97862D02*
D03*
Y91957D02*
D03*
Y86051D02*
D03*
Y80146D02*
D03*
Y74240D02*
D03*
Y68335D02*
D03*
Y62429D02*
D03*
Y56524D02*
D03*
Y50618D02*
D03*
Y44712D02*
D03*
Y38807D02*
D03*
Y32901D02*
D03*
X168555Y186445D02*
D03*
Y162823D02*
D03*
Y32901D02*
D03*
X162650Y186445D02*
D03*
Y180539D02*
D03*
Y174634D02*
D03*
Y168728D02*
D03*
X156744Y186445D02*
D03*
Y180539D02*
D03*
Y174634D02*
D03*
Y21091D02*
D03*
Y15185D02*
D03*
Y-108831D02*
D03*
Y-120642D02*
D03*
Y-132453D02*
D03*
X150838Y186445D02*
D03*
Y180539D02*
D03*
Y174634D02*
D03*
Y21091D02*
D03*
Y15185D02*
D03*
Y-102925D02*
D03*
Y-108831D02*
D03*
Y-132453D02*
D03*
X144933Y186445D02*
D03*
Y180539D02*
D03*
Y174634D02*
D03*
Y139201D02*
D03*
Y133295D02*
D03*
Y21091D02*
D03*
Y15185D02*
D03*
Y-132453D02*
D03*
X139028Y186445D02*
D03*
Y180539D02*
D03*
Y174634D02*
D03*
Y145106D02*
D03*
Y21091D02*
D03*
Y15185D02*
D03*
Y9279D02*
D03*
Y-132453D02*
D03*
X133122Y186445D02*
D03*
Y180539D02*
D03*
Y174634D02*
D03*
Y145106D02*
D03*
Y127390D02*
D03*
Y121484D02*
D03*
Y115579D02*
D03*
Y109673D02*
D03*
Y103768D02*
D03*
Y97862D02*
D03*
Y91957D02*
D03*
Y74240D02*
D03*
Y68335D02*
D03*
Y50618D02*
D03*
Y21091D02*
D03*
Y15185D02*
D03*
Y9279D02*
D03*
X127216Y186445D02*
D03*
Y180539D02*
D03*
Y174634D02*
D03*
Y145106D02*
D03*
Y139201D02*
D03*
Y133295D02*
D03*
Y127390D02*
D03*
Y121484D02*
D03*
Y115579D02*
D03*
Y109673D02*
D03*
Y103768D02*
D03*
Y97862D02*
D03*
Y80146D02*
D03*
Y74240D02*
D03*
Y68335D02*
D03*
Y62429D02*
D03*
Y56524D02*
D03*
Y50618D02*
D03*
Y21091D02*
D03*
Y15185D02*
D03*
Y9279D02*
D03*
X121311Y186445D02*
D03*
Y180539D02*
D03*
Y174634D02*
D03*
Y145106D02*
D03*
Y139201D02*
D03*
Y133295D02*
D03*
Y127390D02*
D03*
Y121484D02*
D03*
Y115579D02*
D03*
Y109673D02*
D03*
Y103768D02*
D03*
Y86051D02*
D03*
Y80146D02*
D03*
Y74240D02*
D03*
Y68335D02*
D03*
Y62429D02*
D03*
Y56524D02*
D03*
Y50618D02*
D03*
Y21091D02*
D03*
Y15185D02*
D03*
Y9279D02*
D03*
Y-67492D02*
D03*
Y-73398D02*
D03*
Y-91114D02*
D03*
Y-102925D02*
D03*
Y-108831D02*
D03*
Y-132453D02*
D03*
X115405Y186445D02*
D03*
Y180539D02*
D03*
Y174634D02*
D03*
Y145106D02*
D03*
Y139201D02*
D03*
Y133295D02*
D03*
Y127390D02*
D03*
Y121484D02*
D03*
Y115579D02*
D03*
Y109673D02*
D03*
Y91957D02*
D03*
Y86051D02*
D03*
Y80146D02*
D03*
Y74240D02*
D03*
Y68335D02*
D03*
Y62429D02*
D03*
Y56524D02*
D03*
Y50618D02*
D03*
Y21091D02*
D03*
Y15185D02*
D03*
Y9279D02*
D03*
Y-61587D02*
D03*
Y-67492D02*
D03*
Y-73398D02*
D03*
Y-79303D02*
D03*
Y-85209D02*
D03*
Y-91114D02*
D03*
X109500Y186445D02*
D03*
Y180539D02*
D03*
Y174634D02*
D03*
Y145106D02*
D03*
Y139201D02*
D03*
Y133295D02*
D03*
Y127390D02*
D03*
Y121484D02*
D03*
Y115579D02*
D03*
Y97862D02*
D03*
Y91957D02*
D03*
Y86051D02*
D03*
Y80146D02*
D03*
Y74240D02*
D03*
Y68335D02*
D03*
Y62429D02*
D03*
Y56524D02*
D03*
Y50618D02*
D03*
Y21091D02*
D03*
Y15185D02*
D03*
Y9279D02*
D03*
Y-55681D02*
D03*
Y-61587D02*
D03*
Y-67492D02*
D03*
Y-73398D02*
D03*
Y-79303D02*
D03*
Y-85209D02*
D03*
Y-91114D02*
D03*
Y-97020D02*
D03*
Y-102925D02*
D03*
Y-108831D02*
D03*
Y-114736D02*
D03*
Y-120642D02*
D03*
Y-126547D02*
D03*
Y-132453D02*
D03*
X103594Y186445D02*
D03*
Y180539D02*
D03*
Y174634D02*
D03*
Y145106D02*
D03*
Y139201D02*
D03*
Y133295D02*
D03*
Y127390D02*
D03*
Y121484D02*
D03*
Y103768D02*
D03*
Y97862D02*
D03*
Y91957D02*
D03*
Y86051D02*
D03*
Y80146D02*
D03*
Y74240D02*
D03*
Y68335D02*
D03*
Y56524D02*
D03*
Y50618D02*
D03*
Y21091D02*
D03*
Y15185D02*
D03*
Y9279D02*
D03*
Y-55681D02*
D03*
Y-61587D02*
D03*
Y-67492D02*
D03*
Y-73398D02*
D03*
Y-79303D02*
D03*
Y-85209D02*
D03*
Y-91114D02*
D03*
Y-97020D02*
D03*
Y-102925D02*
D03*
Y-108831D02*
D03*
Y-114736D02*
D03*
Y-120642D02*
D03*
Y-126547D02*
D03*
Y-132453D02*
D03*
X97689Y186445D02*
D03*
Y180539D02*
D03*
Y174634D02*
D03*
Y145106D02*
D03*
Y139201D02*
D03*
Y133295D02*
D03*
Y127390D02*
D03*
Y109673D02*
D03*
Y103768D02*
D03*
Y97862D02*
D03*
Y91957D02*
D03*
Y86051D02*
D03*
Y80146D02*
D03*
Y74240D02*
D03*
Y68335D02*
D03*
Y50618D02*
D03*
Y21091D02*
D03*
Y15185D02*
D03*
Y9279D02*
D03*
Y-55681D02*
D03*
Y-61587D02*
D03*
Y-67492D02*
D03*
Y-73398D02*
D03*
Y-79303D02*
D03*
Y-85209D02*
D03*
Y-91114D02*
D03*
Y-97020D02*
D03*
Y-102925D02*
D03*
Y-108831D02*
D03*
Y-114736D02*
D03*
Y-120642D02*
D03*
Y-126547D02*
D03*
Y-132453D02*
D03*
X91783Y186445D02*
D03*
Y180539D02*
D03*
Y174634D02*
D03*
Y145106D02*
D03*
Y139201D02*
D03*
Y133295D02*
D03*
Y115579D02*
D03*
Y109673D02*
D03*
Y103768D02*
D03*
Y97862D02*
D03*
Y91957D02*
D03*
Y86051D02*
D03*
Y80146D02*
D03*
Y74240D02*
D03*
Y68335D02*
D03*
Y62429D02*
D03*
Y56524D02*
D03*
Y50618D02*
D03*
Y21091D02*
D03*
Y15185D02*
D03*
Y9279D02*
D03*
Y-55681D02*
D03*
Y-61587D02*
D03*
Y-67492D02*
D03*
Y-73398D02*
D03*
Y-79303D02*
D03*
Y-85209D02*
D03*
Y-91114D02*
D03*
Y-97020D02*
D03*
Y-102925D02*
D03*
Y-108831D02*
D03*
Y-114736D02*
D03*
Y-120642D02*
D03*
Y-126547D02*
D03*
Y-132453D02*
D03*
X85878Y186445D02*
D03*
Y180539D02*
D03*
Y174634D02*
D03*
Y145106D02*
D03*
Y139201D02*
D03*
Y121484D02*
D03*
Y115579D02*
D03*
Y109673D02*
D03*
Y103768D02*
D03*
Y97862D02*
D03*
Y91957D02*
D03*
Y86051D02*
D03*
Y80146D02*
D03*
Y74240D02*
D03*
Y68335D02*
D03*
Y62429D02*
D03*
Y56524D02*
D03*
Y50618D02*
D03*
Y21091D02*
D03*
Y15185D02*
D03*
Y9279D02*
D03*
Y-55681D02*
D03*
Y-61587D02*
D03*
Y-67492D02*
D03*
Y-73398D02*
D03*
Y-79303D02*
D03*
Y-85209D02*
D03*
Y-91114D02*
D03*
Y-97020D02*
D03*
Y-102925D02*
D03*
Y-108831D02*
D03*
Y-114736D02*
D03*
Y-120642D02*
D03*
Y-126547D02*
D03*
Y-132453D02*
D03*
X79972Y186445D02*
D03*
Y180539D02*
D03*
Y174634D02*
D03*
Y145106D02*
D03*
Y127390D02*
D03*
Y121484D02*
D03*
Y115579D02*
D03*
Y109673D02*
D03*
Y103768D02*
D03*
Y97862D02*
D03*
Y91957D02*
D03*
Y86051D02*
D03*
Y80146D02*
D03*
Y74240D02*
D03*
Y68335D02*
D03*
Y62429D02*
D03*
Y56524D02*
D03*
Y50618D02*
D03*
Y21091D02*
D03*
Y15185D02*
D03*
Y9279D02*
D03*
X74067Y186445D02*
D03*
Y180539D02*
D03*
Y174634D02*
D03*
Y145106D02*
D03*
Y121484D02*
D03*
Y115579D02*
D03*
Y109673D02*
D03*
Y103768D02*
D03*
Y97862D02*
D03*
Y91957D02*
D03*
Y86051D02*
D03*
Y80146D02*
D03*
Y74240D02*
D03*
Y68335D02*
D03*
Y62429D02*
D03*
Y56524D02*
D03*
Y50618D02*
D03*
Y21091D02*
D03*
Y15185D02*
D03*
Y9279D02*
D03*
X68161Y186445D02*
D03*
Y180539D02*
D03*
Y174634D02*
D03*
Y145106D02*
D03*
Y121484D02*
D03*
Y115579D02*
D03*
Y109673D02*
D03*
Y103768D02*
D03*
Y97862D02*
D03*
Y91957D02*
D03*
Y86051D02*
D03*
Y80146D02*
D03*
Y74240D02*
D03*
Y68335D02*
D03*
Y50618D02*
D03*
Y21091D02*
D03*
Y15185D02*
D03*
Y9279D02*
D03*
X62256Y186445D02*
D03*
Y180539D02*
D03*
Y174634D02*
D03*
Y145106D02*
D03*
Y127390D02*
D03*
Y121484D02*
D03*
Y115579D02*
D03*
Y109673D02*
D03*
Y103768D02*
D03*
Y97862D02*
D03*
Y91957D02*
D03*
Y86051D02*
D03*
Y80146D02*
D03*
Y74240D02*
D03*
Y50618D02*
D03*
Y21091D02*
D03*
Y15185D02*
D03*
Y9279D02*
D03*
X56350Y186445D02*
D03*
Y180539D02*
D03*
Y174634D02*
D03*
Y145106D02*
D03*
Y139201D02*
D03*
Y127390D02*
D03*
Y121484D02*
D03*
Y115579D02*
D03*
Y109673D02*
D03*
Y103768D02*
D03*
Y97862D02*
D03*
Y91957D02*
D03*
Y86051D02*
D03*
Y80146D02*
D03*
Y74240D02*
D03*
Y68335D02*
D03*
Y21091D02*
D03*
Y15185D02*
D03*
Y9279D02*
D03*
X50445Y186445D02*
D03*
Y180539D02*
D03*
Y174634D02*
D03*
Y139201D02*
D03*
Y133295D02*
D03*
Y127390D02*
D03*
Y121484D02*
D03*
Y115579D02*
D03*
Y109673D02*
D03*
Y103768D02*
D03*
Y97862D02*
D03*
Y91957D02*
D03*
Y86051D02*
D03*
Y80146D02*
D03*
Y74240D02*
D03*
Y68335D02*
D03*
Y21091D02*
D03*
Y15185D02*
D03*
Y9279D02*
D03*
X44539Y186445D02*
D03*
Y180539D02*
D03*
Y174634D02*
D03*
Y21091D02*
D03*
Y15185D02*
D03*
Y9279D02*
D03*
X38634Y186445D02*
D03*
Y180539D02*
D03*
Y174634D02*
D03*
X32728Y186445D02*
D03*
Y180539D02*
D03*
Y174634D02*
D03*
Y168728D02*
D03*
X26823Y186445D02*
D03*
Y162823D02*
D03*
Y156917D02*
D03*
Y151012D02*
D03*
Y145106D02*
D03*
Y139201D02*
D03*
Y133295D02*
D03*
Y127390D02*
D03*
Y121484D02*
D03*
Y115579D02*
D03*
Y109673D02*
D03*
Y103768D02*
D03*
Y97862D02*
D03*
Y91957D02*
D03*
Y86051D02*
D03*
Y80146D02*
D03*
Y74240D02*
D03*
Y68335D02*
D03*
Y62429D02*
D03*
Y56524D02*
D03*
Y50618D02*
D03*
Y44712D02*
D03*
Y38807D02*
D03*
Y32901D02*
D03*
Y9279D02*
D03*
X20917Y162823D02*
D03*
Y156917D02*
D03*
Y151012D02*
D03*
Y145106D02*
D03*
Y139201D02*
D03*
Y133295D02*
D03*
Y127390D02*
D03*
Y121484D02*
D03*
Y115579D02*
D03*
Y109673D02*
D03*
Y103768D02*
D03*
Y97862D02*
D03*
Y91957D02*
D03*
Y86051D02*
D03*
Y80146D02*
D03*
Y74240D02*
D03*
Y68335D02*
D03*
Y62429D02*
D03*
Y56524D02*
D03*
Y50618D02*
D03*
Y44712D02*
D03*
Y38807D02*
D03*
Y32901D02*
D03*
X15012Y162823D02*
D03*
Y156917D02*
D03*
Y151012D02*
D03*
Y145106D02*
D03*
Y139201D02*
D03*
Y133295D02*
D03*
Y127390D02*
D03*
Y121484D02*
D03*
Y115579D02*
D03*
Y109673D02*
D03*
Y103768D02*
D03*
Y97862D02*
D03*
Y91957D02*
D03*
Y86051D02*
D03*
Y80146D02*
D03*
Y74240D02*
D03*
Y68335D02*
D03*
Y62429D02*
D03*
Y56524D02*
D03*
Y50618D02*
D03*
Y44712D02*
D03*
Y38807D02*
D03*
Y32901D02*
D03*
X9106Y186445D02*
D03*
Y168728D02*
D03*
Y162823D02*
D03*
Y156917D02*
D03*
Y151012D02*
D03*
Y145106D02*
D03*
Y139201D02*
D03*
Y133295D02*
D03*
Y127390D02*
D03*
Y121484D02*
D03*
Y115579D02*
D03*
Y109673D02*
D03*
Y103768D02*
D03*
Y97862D02*
D03*
Y91957D02*
D03*
Y86051D02*
D03*
Y80146D02*
D03*
Y74240D02*
D03*
Y68335D02*
D03*
Y62429D02*
D03*
Y56524D02*
D03*
Y50618D02*
D03*
Y44712D02*
D03*
Y38807D02*
D03*
Y32901D02*
D03*
Y26996D02*
D03*
Y9279D02*
D03*
X43000Y-112000D02*
D03*
X43500Y-119500D02*
D03*
X44500Y-84000D02*
D03*
Y-78000D02*
D03*
X69000Y-18000D02*
D03*
X42000Y-9500D02*
D03*
X45250Y-21250D02*
D03*
X22000Y-22000D02*
D03*
Y-7000D02*
D03*
X56000Y-72000D02*
D03*
X56693Y-66693D02*
D03*
D67*
X137000Y-127000D02*
D03*
X133500Y-128500D02*
D03*
X130000D02*
D03*
X126500D02*
D03*
X125000Y-114500D02*
D03*
Y-118000D02*
D03*
Y-121500D02*
D03*
Y-125000D02*
D03*
X147000Y-126000D02*
D03*
X152500Y-120500D02*
D03*
X147000Y-115000D02*
D03*
X137000Y-123500D02*
D03*
Y-117500D02*
D03*
X157000Y-97000D02*
D03*
X163039Y-89961D02*
D03*
X140539Y-87461D02*
D03*
X155480Y-76480D02*
D03*
X158500Y-69000D02*
D03*
X181000Y-39500D02*
D03*
X170039Y-15461D02*
D03*
X165961Y-9961D02*
D03*
X171461Y39D02*
D03*
X168000Y-44500D02*
D03*
X150000Y-30000D02*
D03*
X29760Y-3760D02*
D03*
X157000Y-50500D02*
D03*
X162500D02*
D03*
X125291Y-84209D02*
D03*
X125122Y-79878D02*
D03*
D68*
X184000Y-2500D02*
D03*
D69*
X82701Y132799D02*
G03*
X75630Y135728I-7071J-7071D01*
G01*
X163500Y25464D02*
G03*
X158875Y36625I-15778J-0D01*
G01*
X144000Y67358D02*
G03*
X141071Y74429I-10000J0D01*
G01*
X144000Y54000D02*
G03*
X145768Y49732I6036J0D01*
G01*
X163500Y25464D02*
X163500Y25456D01*
X74500Y135728D02*
X75630D01*
X82701Y132799D02*
X141071Y74429D01*
X61252Y135728D02*
X68500D01*
X158869Y36631D02*
X158875Y36625D01*
X145768Y49732D02*
X158869Y36631D01*
X144000Y54000D02*
Y67358D01*
X167752Y-4252D02*
X183252D01*
X163500Y0D02*
X167752Y-4252D01*
X163500Y0D02*
Y25456D01*
X68500Y135728D02*
X74500D01*
X61252Y135248D02*
Y135728D01*
M02*
