G04*
G04 #@! TF.GenerationSoftware,Altium Limited,Altium Designer,22.9.1 (49)*
G04*
G04 Layer_Physical_Order=2*
G04 Layer_Color=36540*
%FSLAX25Y25*%
%MOIN*%
G70*
G04*
G04 #@! TF.SameCoordinates,E9D11BAE-304F-488D-B7EA-F98EEB287584*
G04*
G04*
G04 #@! TF.FilePolarity,Positive*
G04*
G01*
G75*
%ADD59C,0.05512*%
%ADD60C,0.07677*%
%ADD61C,0.05878*%
%ADD62C,0.05906*%
%ADD63R,0.05906X0.05906*%
%ADD65C,0.02756*%
%ADD66C,0.03543*%
%ADD67C,0.03150*%
G36*
X188167Y190346D02*
X188895Y190045D01*
X189550Y189607D01*
X190107Y189050D01*
X190545Y188395D01*
X190846Y187667D01*
X191000Y186894D01*
Y186500D01*
Y11000D01*
Y10458D01*
X190789Y9396D01*
X190374Y8395D01*
X189772Y7494D01*
X189006Y6728D01*
D01*
Y-1697D01*
X188506Y-1763D01*
X188234Y-746D01*
X187636Y290D01*
X186790Y1135D01*
X185754Y1734D01*
X184598Y2043D01*
X183402D01*
X182246Y1734D01*
X181210Y1135D01*
X180365Y290D01*
X179766Y-746D01*
X179457Y-1902D01*
Y-3098D01*
X179766Y-4254D01*
X180365Y-5290D01*
X181210Y-6135D01*
X182246Y-6734D01*
X183402Y-7043D01*
X184598D01*
X185754Y-6734D01*
X186790Y-6135D01*
X187636Y-5290D01*
X188234Y-4254D01*
X188506Y-3237D01*
X189006Y-3303D01*
Y-20471D01*
X189000D01*
X188415Y-20587D01*
X187919Y-20919D01*
X187587Y-21415D01*
X187471Y-22000D01*
Y-52000D01*
Y-83000D01*
Y-113000D01*
X187587Y-113585D01*
X187919Y-114081D01*
X188415Y-114413D01*
X189000Y-114529D01*
X189006D01*
Y-160423D01*
X6423D01*
X6211Y-160211D01*
Y9040D01*
X6316Y9143D01*
X6211Y9396D01*
X6000Y10458D01*
Y18500D01*
X5500Y186000D01*
Y186443D01*
X5673Y187313D01*
X6012Y188131D01*
X6505Y188869D01*
X7131Y189495D01*
X7868Y189988D01*
X8687Y190327D01*
X9557Y190500D01*
X187394D01*
X188167Y190346D01*
D02*
G37*
%LPC*%
G36*
X177795Y186297D02*
X176166D01*
X176018Y186268D01*
X175868D01*
X174270Y185950D01*
X174131Y185892D01*
X173983Y185863D01*
X172479Y185240D01*
X172353Y185156D01*
X172214Y185098D01*
X170860Y184194D01*
X170754Y184087D01*
X170628Y184003D01*
X169477Y182852D01*
X169393Y182727D01*
X169287Y182620D01*
X168382Y181266D01*
X168324Y181127D01*
X168241Y181001D01*
X167617Y179497D01*
X167588Y179349D01*
X167530Y179210D01*
X167213Y177613D01*
Y177462D01*
X167183Y177314D01*
Y175686D01*
X167213Y175538D01*
Y175387D01*
X167530Y173790D01*
X167588Y173651D01*
X167617Y173503D01*
X168241Y171999D01*
X168324Y171873D01*
X168382Y171734D01*
X169287Y170380D01*
X169393Y170273D01*
X169477Y170148D01*
X170628Y168997D01*
X170754Y168913D01*
X170860Y168806D01*
X172214Y167902D01*
X172353Y167844D01*
X172479Y167760D01*
X173983Y167137D01*
X174131Y167108D01*
X174270Y167050D01*
X175868Y166732D01*
X176018D01*
X176166Y166703D01*
X177795D01*
X177942Y166732D01*
X178093D01*
X179690Y167050D01*
X179829Y167108D01*
X179977Y167137D01*
X181482Y167760D01*
X181607Y167844D01*
X181746Y167902D01*
X183100Y168806D01*
X183207Y168913D01*
X183332Y168997D01*
X184484Y170148D01*
X184567Y170273D01*
X184674Y170380D01*
X185579Y171734D01*
X185636Y171873D01*
X185720Y171999D01*
X186343Y173503D01*
X186373Y173651D01*
X186430Y173790D01*
X186748Y175387D01*
Y175538D01*
X186777Y175686D01*
Y177314D01*
X186748Y177462D01*
Y177613D01*
X186430Y179210D01*
X186373Y179349D01*
X186343Y179497D01*
X185720Y181001D01*
X185636Y181127D01*
X185579Y181266D01*
X184674Y182620D01*
X184567Y182727D01*
X184484Y182852D01*
X183332Y184003D01*
X183207Y184087D01*
X183100Y184194D01*
X181746Y185098D01*
X181607Y185156D01*
X181482Y185240D01*
X179977Y185863D01*
X179829Y185892D01*
X179690Y185950D01*
X178093Y186268D01*
X177942D01*
X177795Y186297D01*
D02*
G37*
G36*
X20314D02*
X18686D01*
X18538Y186268D01*
X18387D01*
X16790Y185950D01*
X16651Y185892D01*
X16503Y185863D01*
X14999Y185240D01*
X14873Y185156D01*
X14734Y185098D01*
X13380Y184194D01*
X13273Y184087D01*
X13148Y184003D01*
X11997Y182852D01*
X11913Y182727D01*
X11806Y182620D01*
X10902Y181266D01*
X10844Y181127D01*
X10760Y181001D01*
X10137Y179497D01*
X10108Y179349D01*
X10050Y179210D01*
X9732Y177613D01*
Y177462D01*
X9703Y177314D01*
Y175686D01*
X9732Y175538D01*
Y175387D01*
X10050Y173790D01*
X10108Y173651D01*
X10137Y173503D01*
X10760Y171999D01*
X10844Y171873D01*
X10902Y171734D01*
X11806Y170380D01*
X11913Y170273D01*
X11997Y170148D01*
X13148Y168997D01*
X13273Y168913D01*
X13380Y168806D01*
X14734Y167902D01*
X14873Y167844D01*
X14999Y167760D01*
X16503Y167137D01*
X16651Y167108D01*
X16790Y167050D01*
X18387Y166732D01*
X18538D01*
X18686Y166703D01*
X20314D01*
X20462Y166732D01*
X20613D01*
X22210Y167050D01*
X22349Y167108D01*
X22497Y167137D01*
X24002Y167760D01*
X24127Y167844D01*
X24266Y167902D01*
X25620Y168806D01*
X25727Y168913D01*
X25852Y168997D01*
X27003Y170148D01*
X27087Y170273D01*
X27194Y170380D01*
X28098Y171734D01*
X28156Y171873D01*
X28240Y171999D01*
X28863Y173503D01*
X28892Y173651D01*
X28950Y173790D01*
X29268Y175387D01*
Y175538D01*
X29297Y175686D01*
Y177314D01*
X29268Y177462D01*
Y177613D01*
X28950Y179210D01*
X28892Y179349D01*
X28863Y179497D01*
X28240Y181001D01*
X28156Y181127D01*
X28098Y181266D01*
X27194Y182620D01*
X27087Y182727D01*
X27003Y182852D01*
X25852Y184003D01*
X25727Y184087D01*
X25620Y184194D01*
X24266Y185098D01*
X24127Y185156D01*
X24002Y185240D01*
X22497Y185863D01*
X22349Y185892D01*
X22210Y185950D01*
X20613Y186268D01*
X20462D01*
X20314Y186297D01*
D02*
G37*
G36*
X136771Y139187D02*
X135733D01*
X134732Y138919D01*
X133833Y138400D01*
X133100Y137667D01*
X132581Y136768D01*
X132313Y135767D01*
Y134729D01*
X132581Y133728D01*
X133100Y132829D01*
X133833Y132096D01*
X134732Y131578D01*
X135733Y131309D01*
X136771D01*
X137772Y131578D01*
X138671Y132096D01*
X139404Y132829D01*
X139922Y133728D01*
X140191Y134729D01*
Y135767D01*
X139922Y136768D01*
X139404Y137667D01*
X138671Y138400D01*
X137772Y138919D01*
X136771Y139187D01*
D02*
G37*
G36*
X61771D02*
X60733D01*
X59732Y138919D01*
X58833Y138400D01*
X58100Y137667D01*
X57581Y136768D01*
X57313Y135767D01*
Y134729D01*
X57581Y133728D01*
X58100Y132829D01*
X58833Y132096D01*
X59732Y131578D01*
X60733Y131309D01*
X61771D01*
X62772Y131578D01*
X63671Y132096D01*
X64404Y132829D01*
X64922Y133728D01*
X65191Y134729D01*
Y135767D01*
X64922Y136768D01*
X64404Y137667D01*
X63671Y138400D01*
X62772Y138919D01*
X61771Y139187D01*
D02*
G37*
G36*
X136771Y64187D02*
X135733D01*
X134732Y63919D01*
X133833Y63400D01*
X133100Y62667D01*
X132581Y61768D01*
X132313Y60767D01*
Y59729D01*
X132581Y58728D01*
X133100Y57829D01*
X133833Y57096D01*
X134732Y56577D01*
X135733Y56309D01*
X136771D01*
X137772Y56577D01*
X138671Y57096D01*
X139404Y57829D01*
X139922Y58728D01*
X140191Y59729D01*
Y60767D01*
X139922Y61768D01*
X139404Y62667D01*
X138671Y63400D01*
X137772Y63919D01*
X136771Y64187D01*
D02*
G37*
G36*
X61771D02*
X60733D01*
X59732Y63919D01*
X58833Y63400D01*
X58100Y62667D01*
X57581Y61768D01*
X57313Y60767D01*
Y59729D01*
X57581Y58728D01*
X58100Y57829D01*
X58833Y57096D01*
X59732Y56577D01*
X60733Y56309D01*
X61771D01*
X62772Y56577D01*
X63671Y57096D01*
X64404Y57829D01*
X64922Y58728D01*
X65191Y59729D01*
Y60767D01*
X64922Y61768D01*
X64404Y62667D01*
X63671Y63400D01*
X62772Y63919D01*
X61771Y64187D01*
D02*
G37*
G36*
X137752Y45290D02*
Y45277D01*
X58752D01*
Y45290D01*
X58592Y45277D01*
X58159D01*
X58084Y45263D01*
X58009Y45270D01*
X56829Y45154D01*
X56761Y45133D01*
X56742Y45132D01*
X56680D01*
X56640Y45124D01*
X56622Y45122D01*
X56571Y45110D01*
X55517Y44900D01*
X55447Y44871D01*
X55371Y44864D01*
X54710Y44663D01*
X54545Y44624D01*
X54452Y44585D01*
X54237Y44520D01*
X54170Y44484D01*
X54095Y44469D01*
X52999Y44015D01*
X52936Y43973D01*
X52864Y43951D01*
X52666Y43845D01*
X52572Y43806D01*
X52428Y43718D01*
X51818Y43392D01*
X51759Y43344D01*
X51689Y43315D01*
X50795Y42718D01*
X50750Y42690D01*
X50737Y42679D01*
X50703Y42656D01*
X50659Y42612D01*
X50645Y42600D01*
X50582Y42566D01*
X49665Y41814D01*
X49617Y41755D01*
X49554Y41713D01*
X49248Y41407D01*
X49126Y41303D01*
X49135Y41294D01*
X38170Y30329D01*
X37839Y29833D01*
X37723Y29248D01*
X37839Y28663D01*
X38170Y28167D01*
X38667Y27835D01*
X39252Y27719D01*
X157252D01*
X157837Y27835D01*
X158333Y28167D01*
X158665Y28663D01*
X158781Y29248D01*
X158665Y29833D01*
X158333Y30329D01*
X147369Y41294D01*
X147378Y41303D01*
X147256Y41407D01*
X146950Y41713D01*
X146887Y41755D01*
X146838Y41814D01*
X145922Y42566D01*
X145859Y42600D01*
X145844Y42612D01*
X145801Y42656D01*
X145767Y42679D01*
X145754Y42690D01*
X145708Y42718D01*
X144815Y43315D01*
X144745Y43344D01*
X144686Y43392D01*
X144076Y43718D01*
X143932Y43806D01*
X143838Y43845D01*
X143640Y43951D01*
X143568Y43973D01*
X143505Y44015D01*
X142409Y44469D01*
X142334Y44484D01*
X142267Y44520D01*
X142052Y44585D01*
X141959Y44624D01*
X141794Y44663D01*
X141132Y44864D01*
X141057Y44871D01*
X140987Y44900D01*
X139933Y45110D01*
X139882Y45122D01*
X139864Y45124D01*
X139824Y45132D01*
X139762D01*
X139743Y45133D01*
X139675Y45154D01*
X138495Y45270D01*
X138419Y45263D01*
X138345Y45277D01*
X137912D01*
X137752Y45290D01*
D02*
G37*
G36*
X157252Y167277D02*
X39252D01*
X38667Y167161D01*
X38170Y166830D01*
X37839Y166333D01*
X37723Y165748D01*
X37747Y165625D01*
X36627Y165402D01*
X34989Y164724D01*
X33515Y163739D01*
X32261Y162485D01*
X31276Y161011D01*
X30598Y159373D01*
X30400Y158376D01*
X30252Y158277D01*
X29667Y158161D01*
X29171Y157829D01*
X28839Y157333D01*
X28723Y156748D01*
Y38248D01*
X28839Y37663D01*
X29171Y37167D01*
X29667Y36835D01*
X30252Y36719D01*
X30837Y36835D01*
X31333Y37167D01*
X41776Y47609D01*
X41785Y47600D01*
X41888Y47722D01*
X42217Y48050D01*
X42259Y48114D01*
X42318Y48162D01*
X43070Y49078D01*
X43106Y49145D01*
X43160Y49199D01*
X43819Y50185D01*
X43848Y50255D01*
X43896Y50314D01*
X44281Y51034D01*
X44288Y51046D01*
X44291Y51053D01*
X44455Y51360D01*
X44477Y51432D01*
X44519Y51495D01*
X44973Y52591D01*
X44988Y52666D01*
X45024Y52733D01*
X45368Y53868D01*
X45375Y53943D01*
X45404Y54013D01*
X45636Y55176D01*
Y55252D01*
X45658Y55325D01*
X45774Y56505D01*
X45767Y56581D01*
X45781Y56655D01*
Y57248D01*
Y137748D01*
Y138341D01*
X45767Y138416D01*
X45774Y138491D01*
X45658Y139671D01*
X45636Y139744D01*
Y139820D01*
X45481Y140596D01*
X45798Y140983D01*
X46269D01*
X47964Y141320D01*
X49561Y141982D01*
X50999Y142942D01*
X52221Y144165D01*
X53182Y145602D01*
X53843Y147199D01*
X54180Y148895D01*
Y150319D01*
X54680Y150690D01*
X54871Y150632D01*
X54947Y150625D01*
X55017Y150596D01*
X56071Y150386D01*
X56122Y150374D01*
X56140Y150372D01*
X56180Y150364D01*
X56242D01*
X56261Y150363D01*
X56329Y150342D01*
X57509Y150226D01*
X57585Y150233D01*
X57659Y150219D01*
X58092D01*
X58252Y150206D01*
Y150219D01*
X138252D01*
Y150206D01*
X138412Y150219D01*
X138845D01*
X138919Y150233D01*
X138995Y150226D01*
X140175Y150342D01*
X140243Y150363D01*
X140262Y150364D01*
X140324D01*
X140364Y150372D01*
X140382Y150374D01*
X140433Y150386D01*
X141487Y150596D01*
X141557Y150625D01*
X141632Y150632D01*
X142295Y150833D01*
X142459Y150872D01*
X142552Y150911D01*
X143052Y150674D01*
X143089Y150634D01*
X143108Y150605D01*
X143211Y150091D01*
X143877Y148483D01*
X144843Y147037D01*
X146073Y145806D01*
X147520Y144840D01*
X149127Y144174D01*
X150834Y143834D01*
X151607D01*
X151712Y143741D01*
X151916Y143334D01*
X151531Y142405D01*
X151516Y142330D01*
X151480Y142263D01*
X151415Y142048D01*
X151376Y141955D01*
X151337Y141791D01*
X151136Y141129D01*
X151129Y141053D01*
X151100Y140983D01*
X150890Y139929D01*
X150878Y139878D01*
X150876Y139860D01*
X150868Y139820D01*
Y139758D01*
X150867Y139739D01*
X150846Y139671D01*
X150730Y138491D01*
X150737Y138415D01*
X150723Y138341D01*
Y137908D01*
X150710Y137748D01*
X150723D01*
Y57248D01*
X150710D01*
X150723Y57088D01*
Y56655D01*
X150737Y56581D01*
X150730Y56505D01*
X150846Y55325D01*
X150867Y55257D01*
X150868Y55238D01*
Y55176D01*
X150876Y55136D01*
X150878Y55119D01*
X150890Y55067D01*
X151100Y54013D01*
X151129Y53943D01*
X151136Y53868D01*
X151337Y53205D01*
X151376Y53041D01*
X151415Y52948D01*
X151480Y52733D01*
X151516Y52666D01*
X151531Y52591D01*
X151985Y51495D01*
X152027Y51432D01*
X152049Y51360D01*
X152155Y51161D01*
X152194Y51068D01*
X152282Y50924D01*
X152608Y50314D01*
X152656Y50255D01*
X152685Y50185D01*
X153282Y49291D01*
X153310Y49246D01*
X153321Y49233D01*
X153344Y49199D01*
X153388Y49155D01*
X153400Y49141D01*
X153434Y49078D01*
X154186Y48162D01*
X154245Y48114D01*
X154287Y48050D01*
X154593Y47744D01*
X154697Y47622D01*
X154706Y47631D01*
X159938Y42399D01*
X165171Y37167D01*
X165667Y36835D01*
X166252Y36719D01*
X166837Y36835D01*
X167333Y37167D01*
X167665Y37663D01*
X167781Y38248D01*
Y156748D01*
X167665Y157333D01*
X167333Y157829D01*
X166837Y158161D01*
X166252Y158277D01*
X166129Y158253D01*
X165906Y159373D01*
X165228Y161011D01*
X164243Y162485D01*
X162989Y163739D01*
X161515Y164724D01*
X159877Y165402D01*
X158757Y165625D01*
X158781Y165748D01*
X158665Y166333D01*
X158333Y166830D01*
X157837Y167161D01*
X157252Y167277D01*
D02*
G37*
G36*
X177795Y28817D02*
X176166D01*
X176018Y28787D01*
X175868D01*
X174270Y28470D01*
X174131Y28412D01*
X173983Y28383D01*
X172479Y27759D01*
X172353Y27676D01*
X172214Y27618D01*
X170860Y26713D01*
X170754Y26607D01*
X170628Y26523D01*
X169477Y25372D01*
X169393Y25246D01*
X169287Y25140D01*
X168382Y23786D01*
X168324Y23646D01*
X168241Y23521D01*
X167617Y22017D01*
X167588Y21869D01*
X167530Y21730D01*
X167213Y20132D01*
Y19982D01*
X167183Y19834D01*
Y18205D01*
X167213Y18058D01*
Y17907D01*
X167530Y16310D01*
X167588Y16171D01*
X167617Y16023D01*
X168241Y14518D01*
X168324Y14393D01*
X168382Y14254D01*
X169287Y12900D01*
X169393Y12793D01*
X169477Y12668D01*
X170628Y11516D01*
X170754Y11433D01*
X170860Y11326D01*
X172214Y10421D01*
X172353Y10364D01*
X172479Y10280D01*
X173983Y9657D01*
X174131Y9627D01*
X174270Y9570D01*
X175868Y9252D01*
X176018D01*
X176166Y9223D01*
X177795D01*
X177942Y9252D01*
X178093D01*
X179690Y9570D01*
X179829Y9627D01*
X179977Y9657D01*
X181482Y10280D01*
X181607Y10364D01*
X181746Y10421D01*
X183100Y11326D01*
X183207Y11433D01*
X183332Y11516D01*
X184484Y12668D01*
X184567Y12793D01*
X184674Y12900D01*
X185579Y14254D01*
X185636Y14393D01*
X185720Y14518D01*
X186343Y16023D01*
X186373Y16171D01*
X186430Y16310D01*
X186748Y17907D01*
Y18058D01*
X186777Y18205D01*
Y19834D01*
X186748Y19982D01*
Y20132D01*
X186430Y21730D01*
X186373Y21869D01*
X186343Y22017D01*
X185720Y23521D01*
X185636Y23646D01*
X185579Y23786D01*
X184674Y25140D01*
X184567Y25246D01*
X184484Y25372D01*
X183332Y26523D01*
X183207Y26607D01*
X183100Y26713D01*
X181746Y27618D01*
X181607Y27676D01*
X181482Y27759D01*
X179977Y28383D01*
X179829Y28412D01*
X179690Y28470D01*
X178093Y28787D01*
X177942D01*
X177795Y28817D01*
D02*
G37*
G36*
X20314D02*
X18686D01*
X18538Y28787D01*
X18387D01*
X16790Y28470D01*
X16651Y28412D01*
X16503Y28383D01*
X14999Y27759D01*
X14873Y27676D01*
X14734Y27618D01*
X13380Y26713D01*
X13273Y26607D01*
X13148Y26523D01*
X11997Y25372D01*
X11913Y25246D01*
X11806Y25140D01*
X10902Y23786D01*
X10844Y23646D01*
X10760Y23521D01*
X10137Y22017D01*
X10108Y21869D01*
X10050Y21730D01*
X9732Y20132D01*
Y19982D01*
X9703Y19834D01*
Y18205D01*
X9732Y18058D01*
Y17907D01*
X10050Y16310D01*
X10108Y16171D01*
X10137Y16023D01*
X10760Y14518D01*
X10844Y14393D01*
X10902Y14254D01*
X11806Y12900D01*
X11913Y12793D01*
X11997Y12668D01*
X13148Y11516D01*
X13273Y11433D01*
X13380Y11326D01*
X14734Y10421D01*
X14873Y10364D01*
X14999Y10280D01*
X16503Y9657D01*
X16651Y9627D01*
X16790Y9570D01*
X18387Y9252D01*
X18538D01*
X18686Y9223D01*
X20314D01*
X20462Y9252D01*
X20613D01*
X22210Y9570D01*
X22349Y9627D01*
X22497Y9657D01*
X24002Y10280D01*
X24127Y10364D01*
X24266Y10421D01*
X25620Y11326D01*
X25727Y11433D01*
X25852Y11516D01*
X27003Y12668D01*
X27087Y12793D01*
X27194Y12900D01*
X28098Y14254D01*
X28156Y14393D01*
X28240Y14518D01*
X28863Y16023D01*
X28892Y16171D01*
X28950Y16310D01*
X29268Y17907D01*
Y18058D01*
X29297Y18205D01*
Y19834D01*
X29268Y19982D01*
Y20132D01*
X28950Y21730D01*
X28892Y21869D01*
X28863Y22017D01*
X28240Y23521D01*
X28156Y23646D01*
X28098Y23786D01*
X27194Y25140D01*
X27087Y25246D01*
X27003Y25372D01*
X25852Y26523D01*
X25727Y26607D01*
X25620Y26713D01*
X24266Y27618D01*
X24127Y27676D01*
X24002Y27759D01*
X22497Y28383D01*
X22349Y28412D01*
X22210Y28470D01*
X20613Y28787D01*
X20462D01*
X20314Y28817D01*
D02*
G37*
G36*
X131494Y-12244D02*
X130506D01*
X129550Y-12500D01*
X128694Y-12994D01*
X127995Y-13694D01*
X127500Y-14550D01*
X127244Y-15506D01*
Y-16495D01*
X127500Y-17450D01*
X127995Y-18306D01*
X128694Y-19005D01*
X129550Y-19500D01*
X130506Y-19756D01*
X131494D01*
X132450Y-19500D01*
X133306Y-19005D01*
X134005Y-18306D01*
X134500Y-17450D01*
X134756Y-16495D01*
Y-15506D01*
X134500Y-14550D01*
X134005Y-13694D01*
X133306Y-12994D01*
X132450Y-12500D01*
X131494Y-12244D01*
D02*
G37*
G36*
X96995D02*
X96005D01*
X95050Y-12500D01*
X94194Y-12994D01*
X93494Y-13694D01*
X93000Y-14550D01*
X92744Y-15506D01*
Y-16495D01*
X93000Y-17450D01*
X93494Y-18306D01*
X94194Y-19005D01*
X95050Y-19500D01*
X96005Y-19756D01*
X96995D01*
X97950Y-19500D01*
X98806Y-19005D01*
X99506Y-18306D01*
X100000Y-17450D01*
X100256Y-16495D01*
Y-15506D01*
X100000Y-14550D01*
X99506Y-13694D01*
X98806Y-12994D01*
X97950Y-12500D01*
X96995Y-12244D01*
D02*
G37*
G36*
X69365Y-15228D02*
X68635D01*
X67930Y-15417D01*
X67298Y-15782D01*
X66782Y-16298D01*
X66417Y-16930D01*
X66228Y-17635D01*
Y-18365D01*
X66417Y-19070D01*
X66782Y-19702D01*
X67298Y-20218D01*
X67930Y-20583D01*
X68635Y-20772D01*
X69365D01*
X70070Y-20583D01*
X70702Y-20218D01*
X71218Y-19702D01*
X71583Y-19070D01*
X71772Y-18365D01*
Y-17635D01*
X71583Y-16930D01*
X71218Y-16298D01*
X70702Y-15782D01*
X70070Y-15417D01*
X69365Y-15228D01*
D02*
G37*
G36*
X45615Y-18478D02*
X44885D01*
X44180Y-18667D01*
X43548Y-19032D01*
X43032Y-19548D01*
X42667Y-20180D01*
X42478Y-20885D01*
Y-21615D01*
X42667Y-22320D01*
X43032Y-22952D01*
X43548Y-23468D01*
X44180Y-23833D01*
X44885Y-24022D01*
X45615D01*
X46320Y-23833D01*
X46952Y-23468D01*
X47468Y-22952D01*
X47833Y-22320D01*
X48022Y-21615D01*
Y-20885D01*
X47833Y-20180D01*
X47468Y-19548D01*
X46952Y-19032D01*
X46320Y-18667D01*
X45615Y-18478D01*
D02*
G37*
G36*
X22365Y-19228D02*
X21635D01*
X20930Y-19417D01*
X20298Y-19782D01*
X19782Y-20298D01*
X19417Y-20930D01*
X19228Y-21635D01*
Y-22365D01*
X19417Y-23070D01*
X19782Y-23702D01*
X20298Y-24218D01*
X20930Y-24583D01*
X21635Y-24772D01*
X22365D01*
X23070Y-24583D01*
X23702Y-24218D01*
X24218Y-23702D01*
X24583Y-23070D01*
X24772Y-22365D01*
Y-21635D01*
X24583Y-20930D01*
X24218Y-20298D01*
X23702Y-19782D01*
X23070Y-19417D01*
X22365Y-19228D01*
D02*
G37*
G36*
X162839Y-47925D02*
X162161D01*
X161506Y-48101D01*
X160919Y-48440D01*
X160440Y-48919D01*
X160101Y-49506D01*
X160009Y-49849D01*
X159491D01*
X159399Y-49506D01*
X159060Y-48919D01*
X158581Y-48440D01*
X157994Y-48101D01*
X157339Y-47925D01*
X156661D01*
X156006Y-48101D01*
X155419Y-48440D01*
X154940Y-48919D01*
X154601Y-49506D01*
X154425Y-50161D01*
Y-50839D01*
X154601Y-51494D01*
X154940Y-52081D01*
X155419Y-52560D01*
X156006Y-52899D01*
X156661Y-53075D01*
X157339D01*
X157994Y-52899D01*
X158581Y-52560D01*
X159060Y-52081D01*
X159399Y-51494D01*
X159491Y-51151D01*
X160009D01*
X160101Y-51494D01*
X160440Y-52081D01*
X160919Y-52560D01*
X161506Y-52899D01*
X162161Y-53075D01*
X162839D01*
X163494Y-52899D01*
X164081Y-52560D01*
X164560Y-52081D01*
X164899Y-51494D01*
X165075Y-50839D01*
Y-50161D01*
X164899Y-49506D01*
X164560Y-48919D01*
X164081Y-48440D01*
X163494Y-48101D01*
X162839Y-47925D01*
D02*
G37*
G36*
X57058Y-63921D02*
X56328D01*
X55623Y-64110D01*
X54991Y-64475D01*
X54475Y-64991D01*
X54110Y-65623D01*
X53921Y-66328D01*
Y-67058D01*
X54110Y-67763D01*
X54475Y-68395D01*
X54969Y-68889D01*
X54973Y-69162D01*
X54972Y-69173D01*
X54899Y-69435D01*
X54298Y-69782D01*
X53782Y-70298D01*
X53417Y-70930D01*
X53228Y-71635D01*
Y-72365D01*
X53417Y-73070D01*
X53782Y-73702D01*
X54298Y-74218D01*
X54930Y-74583D01*
X55635Y-74772D01*
X56365D01*
X57070Y-74583D01*
X57702Y-74218D01*
X58218Y-73702D01*
X58583Y-73070D01*
X58772Y-72365D01*
Y-71635D01*
X58583Y-70930D01*
X58218Y-70298D01*
X57723Y-69804D01*
X57720Y-69531D01*
X57721Y-69520D01*
X57794Y-69258D01*
X58395Y-68911D01*
X58911Y-68395D01*
X59276Y-67763D01*
X59465Y-67058D01*
Y-66328D01*
X59276Y-65623D01*
X58911Y-64991D01*
X58395Y-64475D01*
X57763Y-64110D01*
X57058Y-63921D01*
D02*
G37*
G36*
X44865Y-75228D02*
X44135D01*
X43430Y-75417D01*
X42798Y-75782D01*
X42282Y-76298D01*
X41917Y-76930D01*
X41728Y-77635D01*
Y-78365D01*
X41917Y-79070D01*
X42282Y-79702D01*
X42798Y-80218D01*
X43430Y-80583D01*
X44135Y-80772D01*
X44865D01*
X45570Y-80583D01*
X46202Y-80218D01*
X46718Y-79702D01*
X47083Y-79070D01*
X47272Y-78365D01*
Y-77635D01*
X47083Y-76930D01*
X46718Y-76298D01*
X46202Y-75782D01*
X45570Y-75417D01*
X44865Y-75228D01*
D02*
G37*
G36*
X125461Y-77303D02*
X124783D01*
X124128Y-77479D01*
X123541Y-77818D01*
X123062Y-78297D01*
X122723Y-78884D01*
X122547Y-79539D01*
Y-80217D01*
X122723Y-80872D01*
X123062Y-81459D01*
X123399Y-81796D01*
X123538Y-81953D01*
X123416Y-82443D01*
X123231Y-82628D01*
X122892Y-83215D01*
X122716Y-83870D01*
Y-84548D01*
X122892Y-85202D01*
X123231Y-85790D01*
X123710Y-86269D01*
X124297Y-86608D01*
X124952Y-86783D01*
X125630D01*
X126285Y-86608D01*
X126872Y-86269D01*
X127352Y-85790D01*
X127691Y-85202D01*
X127866Y-84548D01*
Y-83870D01*
X127691Y-83215D01*
X127352Y-82628D01*
X127015Y-82291D01*
X126876Y-82134D01*
X126998Y-81643D01*
X127182Y-81459D01*
X127521Y-80872D01*
X127697Y-80217D01*
Y-79539D01*
X127521Y-78884D01*
X127182Y-78297D01*
X126703Y-77818D01*
X126116Y-77479D01*
X125461Y-77303D01*
D02*
G37*
G36*
X43365Y-109228D02*
X42635D01*
X41930Y-109417D01*
X41298Y-109782D01*
X40782Y-110298D01*
X40417Y-110930D01*
X40228Y-111635D01*
Y-112365D01*
X40417Y-113070D01*
X40782Y-113702D01*
X41298Y-114218D01*
X41930Y-114583D01*
X42635Y-114772D01*
X43365D01*
X44070Y-114583D01*
X44702Y-114218D01*
X45218Y-113702D01*
X45583Y-113070D01*
X45772Y-112365D01*
Y-111635D01*
X45583Y-110930D01*
X45218Y-110298D01*
X44702Y-109782D01*
X44070Y-109417D01*
X43365Y-109228D01*
D02*
G37*
G36*
X147494Y-116744D02*
X146505D01*
X145550Y-117000D01*
X144694Y-117494D01*
X143994Y-118194D01*
X143500Y-119050D01*
X143244Y-120006D01*
Y-120994D01*
X143500Y-121950D01*
X143994Y-122806D01*
X144694Y-123505D01*
X145550Y-124000D01*
X146505Y-124256D01*
X147494D01*
X148450Y-124000D01*
X149306Y-123505D01*
X150005Y-122806D01*
X150500Y-121950D01*
X150756Y-120994D01*
Y-120006D01*
X150500Y-119050D01*
X150005Y-118194D01*
X149306Y-117494D01*
X148450Y-117000D01*
X147494Y-116744D01*
D02*
G37*
G36*
X166969Y-121941D02*
X166031D01*
X165126Y-122184D01*
X164315Y-122652D01*
X163652Y-123315D01*
X163183Y-124126D01*
X162941Y-125031D01*
Y-125969D01*
X163183Y-126874D01*
X163652Y-127685D01*
X164315Y-128348D01*
X165126Y-128816D01*
X166031Y-129059D01*
X166969D01*
X167874Y-128816D01*
X168685Y-128348D01*
X169348Y-127685D01*
X169817Y-126874D01*
X170059Y-125969D01*
Y-125031D01*
X169817Y-124126D01*
X169348Y-123315D01*
X168685Y-122652D01*
X167874Y-122184D01*
X166969Y-121941D01*
D02*
G37*
G36*
X183698Y-140126D02*
X182657D01*
X181651Y-140395D01*
X180750Y-140916D01*
X180014Y-141652D01*
X179494Y-142553D01*
X179224Y-143558D01*
Y-144599D01*
X179494Y-145604D01*
X180014Y-146506D01*
X180750Y-147242D01*
X181651Y-147762D01*
X182657Y-148031D01*
X183698D01*
X184703Y-147762D01*
X185604Y-147242D01*
X186340Y-146506D01*
X186861Y-145604D01*
X187130Y-144599D01*
Y-143558D01*
X186861Y-142553D01*
X186340Y-141652D01*
X185604Y-140916D01*
X184703Y-140395D01*
X183698Y-140126D01*
D02*
G37*
G36*
X173698D02*
X172657D01*
X171651Y-140395D01*
X170750Y-140916D01*
X170014Y-141652D01*
X169494Y-142553D01*
X169224Y-143558D01*
Y-144599D01*
X169494Y-145604D01*
X170014Y-146506D01*
X170750Y-147242D01*
X171651Y-147762D01*
X172657Y-148031D01*
X173698D01*
X174703Y-147762D01*
X175604Y-147242D01*
X176340Y-146506D01*
X176860Y-145604D01*
X177130Y-144599D01*
Y-143558D01*
X176860Y-142553D01*
X176340Y-141652D01*
X175604Y-140916D01*
X174703Y-140395D01*
X173698Y-140126D01*
D02*
G37*
G36*
X163698D02*
X162657D01*
X161652Y-140395D01*
X160750Y-140916D01*
X160014Y-141652D01*
X159494Y-142553D01*
X159224Y-143558D01*
Y-144599D01*
X159494Y-145604D01*
X160014Y-146506D01*
X160750Y-147242D01*
X161652Y-147762D01*
X162657Y-148031D01*
X163698D01*
X164703Y-147762D01*
X165604Y-147242D01*
X166340Y-146506D01*
X166860Y-145604D01*
X167130Y-144599D01*
Y-143558D01*
X166860Y-142553D01*
X166340Y-141652D01*
X165604Y-140916D01*
X164703Y-140395D01*
X163698Y-140126D01*
D02*
G37*
G36*
X153698D02*
X152657D01*
X151652Y-140395D01*
X150750Y-140916D01*
X150014Y-141652D01*
X149494Y-142553D01*
X149224Y-143558D01*
Y-144599D01*
X149494Y-145604D01*
X150014Y-146506D01*
X150750Y-147242D01*
X151652Y-147762D01*
X152657Y-148031D01*
X153698D01*
X154703Y-147762D01*
X155604Y-147242D01*
X156340Y-146506D01*
X156860Y-145604D01*
X157130Y-144599D01*
Y-143558D01*
X156860Y-142553D01*
X156340Y-141652D01*
X155604Y-140916D01*
X154703Y-140395D01*
X153698Y-140126D01*
D02*
G37*
G36*
X143698D02*
X142657D01*
X141651Y-140395D01*
X140750Y-140916D01*
X140014Y-141652D01*
X139494Y-142553D01*
X139224Y-143558D01*
Y-144599D01*
X139494Y-145604D01*
X140014Y-146506D01*
X140750Y-147242D01*
X141651Y-147762D01*
X142657Y-148031D01*
X143698D01*
X144703Y-147762D01*
X145604Y-147242D01*
X146340Y-146506D01*
X146861Y-145604D01*
X147130Y-144599D01*
Y-143558D01*
X146861Y-142553D01*
X146340Y-141652D01*
X145604Y-140916D01*
X144703Y-140395D01*
X143698Y-140126D01*
D02*
G37*
G36*
X133698D02*
X132657D01*
X131651Y-140395D01*
X130750Y-140916D01*
X130014Y-141652D01*
X129494Y-142553D01*
X129224Y-143558D01*
Y-144599D01*
X129494Y-145604D01*
X130014Y-146506D01*
X130750Y-147242D01*
X131651Y-147762D01*
X132657Y-148031D01*
X133698D01*
X134703Y-147762D01*
X135604Y-147242D01*
X136340Y-146506D01*
X136861Y-145604D01*
X137130Y-144599D01*
Y-143558D01*
X136861Y-142553D01*
X136340Y-141652D01*
X135604Y-140916D01*
X134703Y-140395D01*
X133698Y-140126D01*
D02*
G37*
G36*
X123698D02*
X122657D01*
X121651Y-140395D01*
X120750Y-140916D01*
X120014Y-141652D01*
X119494Y-142553D01*
X119224Y-143558D01*
Y-144599D01*
X119494Y-145604D01*
X120014Y-146506D01*
X120750Y-147242D01*
X121651Y-147762D01*
X122657Y-148031D01*
X123698D01*
X124703Y-147762D01*
X125604Y-147242D01*
X126340Y-146506D01*
X126860Y-145604D01*
X127130Y-144599D01*
Y-143558D01*
X126860Y-142553D01*
X126340Y-141652D01*
X125604Y-140916D01*
X124703Y-140395D01*
X123698Y-140126D01*
D02*
G37*
G36*
X113698D02*
X112657D01*
X111652Y-140395D01*
X110750Y-140916D01*
X110014Y-141652D01*
X109494Y-142553D01*
X109224Y-143558D01*
Y-144599D01*
X109494Y-145604D01*
X110014Y-146506D01*
X110750Y-147242D01*
X111652Y-147762D01*
X112657Y-148031D01*
X113698D01*
X114703Y-147762D01*
X115604Y-147242D01*
X116340Y-146506D01*
X116860Y-145604D01*
X117130Y-144599D01*
Y-143558D01*
X116860Y-142553D01*
X116340Y-141652D01*
X115604Y-140916D01*
X114703Y-140395D01*
X113698Y-140126D01*
D02*
G37*
G36*
X103698D02*
X102657D01*
X101652Y-140395D01*
X100750Y-140916D01*
X100014Y-141652D01*
X99494Y-142553D01*
X99224Y-143558D01*
Y-144599D01*
X99494Y-145604D01*
X100014Y-146506D01*
X100750Y-147242D01*
X101652Y-147762D01*
X102657Y-148031D01*
X103698D01*
X104703Y-147762D01*
X105604Y-147242D01*
X106340Y-146506D01*
X106860Y-145604D01*
X107130Y-144599D01*
Y-143558D01*
X106860Y-142553D01*
X106340Y-141652D01*
X105604Y-140916D01*
X104703Y-140395D01*
X103698Y-140126D01*
D02*
G37*
G36*
X93698D02*
X92657D01*
X91651Y-140395D01*
X90750Y-140916D01*
X90014Y-141652D01*
X89494Y-142553D01*
X89224Y-143558D01*
Y-144599D01*
X89494Y-145604D01*
X90014Y-146506D01*
X90750Y-147242D01*
X91651Y-147762D01*
X92657Y-148031D01*
X93698D01*
X94703Y-147762D01*
X95604Y-147242D01*
X96340Y-146506D01*
X96861Y-145604D01*
X97130Y-144599D01*
Y-143558D01*
X96861Y-142553D01*
X96340Y-141652D01*
X95604Y-140916D01*
X94703Y-140395D01*
X93698Y-140126D01*
D02*
G37*
G36*
X83698D02*
X82657D01*
X81652Y-140395D01*
X80750Y-140916D01*
X80014Y-141652D01*
X79494Y-142553D01*
X79224Y-143558D01*
Y-144599D01*
X79494Y-145604D01*
X80014Y-146506D01*
X80750Y-147242D01*
X81652Y-147762D01*
X82657Y-148031D01*
X83698D01*
X84703Y-147762D01*
X85604Y-147242D01*
X86340Y-146506D01*
X86861Y-145604D01*
X87130Y-144599D01*
Y-143558D01*
X86861Y-142553D01*
X86340Y-141652D01*
X85604Y-140916D01*
X84703Y-140395D01*
X83698Y-140126D01*
D02*
G37*
G36*
X73698D02*
X72657D01*
X71652Y-140395D01*
X70750Y-140916D01*
X70014Y-141652D01*
X69494Y-142553D01*
X69224Y-143558D01*
Y-144599D01*
X69494Y-145604D01*
X70014Y-146506D01*
X70750Y-147242D01*
X71652Y-147762D01*
X72657Y-148031D01*
X73698D01*
X74703Y-147762D01*
X75604Y-147242D01*
X76340Y-146506D01*
X76861Y-145604D01*
X77130Y-144599D01*
Y-143558D01*
X76861Y-142553D01*
X76340Y-141652D01*
X75604Y-140916D01*
X74703Y-140395D01*
X73698Y-140126D01*
D02*
G37*
G36*
X63698D02*
X62657D01*
X61651Y-140395D01*
X60750Y-140916D01*
X60014Y-141652D01*
X59494Y-142553D01*
X59224Y-143558D01*
Y-144599D01*
X59494Y-145604D01*
X60014Y-146506D01*
X60750Y-147242D01*
X61651Y-147762D01*
X62657Y-148031D01*
X63698D01*
X64703Y-147762D01*
X65604Y-147242D01*
X66340Y-146506D01*
X66861Y-145604D01*
X67130Y-144599D01*
Y-143558D01*
X66861Y-142553D01*
X66340Y-141652D01*
X65604Y-140916D01*
X64703Y-140395D01*
X63698Y-140126D01*
D02*
G37*
G36*
X53698D02*
X52657D01*
X51652Y-140395D01*
X50750Y-140916D01*
X50014Y-141652D01*
X49494Y-142553D01*
X49224Y-143558D01*
Y-144599D01*
X49494Y-145604D01*
X50014Y-146506D01*
X50750Y-147242D01*
X51652Y-147762D01*
X52657Y-148031D01*
X53698D01*
X54703Y-147762D01*
X55604Y-147242D01*
X56340Y-146506D01*
X56861Y-145604D01*
X57130Y-144599D01*
Y-143558D01*
X56861Y-142553D01*
X56340Y-141652D01*
X55604Y-140916D01*
X54703Y-140395D01*
X53698Y-140126D01*
D02*
G37*
G36*
X43698D02*
X42657D01*
X41651Y-140395D01*
X40750Y-140916D01*
X40014Y-141652D01*
X39494Y-142553D01*
X39224Y-143558D01*
Y-144599D01*
X39494Y-145604D01*
X40014Y-146506D01*
X40750Y-147242D01*
X41651Y-147762D01*
X42657Y-148031D01*
X43698D01*
X44703Y-147762D01*
X45604Y-147242D01*
X46340Y-146506D01*
X46861Y-145604D01*
X47130Y-144599D01*
Y-143558D01*
X46861Y-142553D01*
X46340Y-141652D01*
X45604Y-140916D01*
X44703Y-140395D01*
X43698Y-140126D01*
D02*
G37*
G36*
X33698D02*
X32657D01*
X31651Y-140395D01*
X30750Y-140916D01*
X30014Y-141652D01*
X29494Y-142553D01*
X29224Y-143558D01*
Y-144599D01*
X29494Y-145604D01*
X30014Y-146506D01*
X30750Y-147242D01*
X31651Y-147762D01*
X32657Y-148031D01*
X33698D01*
X34703Y-147762D01*
X35604Y-147242D01*
X36340Y-146506D01*
X36861Y-145604D01*
X37130Y-144599D01*
Y-143558D01*
X36861Y-142553D01*
X36340Y-141652D01*
X35604Y-140916D01*
X34703Y-140395D01*
X33698Y-140126D01*
D02*
G37*
G36*
X23698D02*
X22657D01*
X21652Y-140395D01*
X20750Y-140916D01*
X20014Y-141652D01*
X19494Y-142553D01*
X19224Y-143558D01*
Y-144599D01*
X19494Y-145604D01*
X20014Y-146506D01*
X20750Y-147242D01*
X21652Y-147762D01*
X22657Y-148031D01*
X23698D01*
X24703Y-147762D01*
X25604Y-147242D01*
X26340Y-146506D01*
X26861Y-145604D01*
X27130Y-144599D01*
Y-143558D01*
X26861Y-142553D01*
X26340Y-141652D01*
X25604Y-140916D01*
X24703Y-140395D01*
X23698Y-140126D01*
D02*
G37*
G36*
X13698D02*
X12657D01*
X11652Y-140395D01*
X10750Y-140916D01*
X10014Y-141652D01*
X9494Y-142553D01*
X9224Y-143558D01*
Y-144599D01*
X9494Y-145604D01*
X10014Y-146506D01*
X10750Y-147242D01*
X11652Y-147762D01*
X12657Y-148031D01*
X13698D01*
X14703Y-147762D01*
X15604Y-147242D01*
X16340Y-146506D01*
X16861Y-145604D01*
X17130Y-144599D01*
Y-143558D01*
X16861Y-142553D01*
X16340Y-141652D01*
X15604Y-140916D01*
X14703Y-140395D01*
X13698Y-140126D01*
D02*
G37*
%LPD*%
D59*
X101500Y-21000D02*
D03*
X91500D02*
D03*
Y-11000D02*
D03*
X101500D02*
D03*
X136000D02*
D03*
Y-21000D02*
D03*
X126000D02*
D03*
Y-11000D02*
D03*
X152000Y-125500D02*
D03*
X142000D02*
D03*
Y-115500D02*
D03*
X152000D02*
D03*
D60*
X182295Y-80492D02*
D03*
Y-54508D02*
D03*
D61*
X98752Y60248D02*
D03*
D62*
X13177Y-154079D02*
D03*
X23177D02*
D03*
X33177D02*
D03*
X43177D02*
D03*
X53177D02*
D03*
X63177D02*
D03*
X73177D02*
D03*
X83177D02*
D03*
X93177D02*
D03*
X103177D02*
D03*
X113177D02*
D03*
X123177D02*
D03*
X133177D02*
D03*
X143177D02*
D03*
X153177D02*
D03*
X163177D02*
D03*
X173177D02*
D03*
D63*
X183177D02*
D03*
D65*
X86681Y-23048D02*
D03*
X83137D02*
D03*
X79674Y-22299D02*
D03*
X76131D02*
D03*
X82394Y-29472D02*
D03*
X85937D02*
D03*
X89480D02*
D03*
X93024D02*
D03*
X96334Y-28209D02*
D03*
X98831Y-25694D02*
D03*
X124474Y-27983D02*
D03*
X121968Y-30489D02*
D03*
X118425Y-30528D02*
D03*
X114882D02*
D03*
X111338D02*
D03*
X107795D02*
D03*
X104252D02*
D03*
X100709D02*
D03*
X75527Y-37683D02*
D03*
X79070Y-37701D02*
D03*
X82534Y-36952D02*
D03*
X86077D02*
D03*
X89620D02*
D03*
X93164D02*
D03*
X96707D02*
D03*
X100250D02*
D03*
X103794D02*
D03*
X107337D02*
D03*
X110880D02*
D03*
X114424D02*
D03*
X117967D02*
D03*
X121510D02*
D03*
X125012Y-36410D02*
D03*
X127577Y-33966D02*
D03*
X130082Y-31460D02*
D03*
X132588Y-28955D02*
D03*
X134212Y-25806D02*
D03*
X49890Y-32197D02*
D03*
X49951Y-35740D02*
D03*
X52640Y-38047D02*
D03*
X55321Y-40364D02*
D03*
X117896Y-44438D02*
D03*
X120401Y-46944D02*
D03*
X122907Y-49449D02*
D03*
X125412Y-51955D02*
D03*
X124962Y-55470D02*
D03*
X136524Y-54704D02*
D03*
X133712Y-52549D02*
D03*
X131993Y-49450D02*
D03*
X129488Y-46945D02*
D03*
X126982Y-44440D02*
D03*
X124477Y-41934D02*
D03*
X69485Y-37288D02*
D03*
X65942D02*
D03*
X62398D02*
D03*
X25876Y-21366D02*
D03*
X26548Y-24845D02*
D03*
X26783Y-28381D02*
D03*
X29056Y-31099D02*
D03*
X31561Y-33604D02*
D03*
X34067Y-36110D02*
D03*
X36572Y-38615D02*
D03*
X39078Y-41121D02*
D03*
X41583Y-43626D02*
D03*
X44089Y-46132D02*
D03*
X47000Y-48152D02*
D03*
X50543Y-48212D02*
D03*
X54086D02*
D03*
X57629D02*
D03*
X61173D02*
D03*
X64716D02*
D03*
X68259D02*
D03*
X71803D02*
D03*
X75346D02*
D03*
X78889D02*
D03*
X82433D02*
D03*
X85976D02*
D03*
X89519D02*
D03*
X93063D02*
D03*
X96606D02*
D03*
X100149D02*
D03*
X103692D02*
D03*
X107236D02*
D03*
X110353Y-49896D02*
D03*
X112859Y-52402D02*
D03*
X115364Y-54907D02*
D03*
X117870Y-57413D02*
D03*
X120375Y-59918D02*
D03*
X122881Y-62424D02*
D03*
X124957Y-65295D02*
D03*
X137253Y-60447D02*
D03*
X112406Y-42863D02*
D03*
X48794Y-41751D02*
D03*
X46288Y-39245D02*
D03*
X43783Y-36740D02*
D03*
X41277Y-34234D02*
D03*
X38772Y-31729D02*
D03*
X36266Y-29223D02*
D03*
X33761Y-26718D02*
D03*
X32972Y-23264D02*
D03*
X33721Y-19800D02*
D03*
X58377Y64780D02*
D03*
X56116Y61780D02*
D03*
X55122Y58158D02*
D03*
X52466Y55503D02*
D03*
X49810Y52847D02*
D03*
X47155Y50191D02*
D03*
X44499Y47535D02*
D03*
X41843Y44879D02*
D03*
X39187Y42224D02*
D03*
X36531Y39568D02*
D03*
X33876Y36911D02*
D03*
X31729Y33829D02*
D03*
X30732Y30208D02*
D03*
X30643Y26453D02*
D03*
Y22697D02*
D03*
Y15186D02*
D03*
Y11430D02*
D03*
Y7674D02*
D03*
Y3918D02*
D03*
Y162D02*
D03*
X42404Y-5357D02*
D03*
X46159D02*
D03*
X49915D02*
D03*
X58048Y-1507D02*
D03*
X54787Y357D02*
D03*
X51032D02*
D03*
X47276D02*
D03*
X43520D02*
D03*
X39764D02*
D03*
X36357Y1939D02*
D03*
Y5694D02*
D03*
Y9450D02*
D03*
Y13206D02*
D03*
Y16962D02*
D03*
Y20718D02*
D03*
Y24474D02*
D03*
Y28230D02*
D03*
X37158Y31899D02*
D03*
X39705Y34660D02*
D03*
X42361Y37316D02*
D03*
X45016Y39972D02*
D03*
X47672Y42628D02*
D03*
X50328Y45284D02*
D03*
X52984Y47939D02*
D03*
X55640Y50595D02*
D03*
X58296Y53251D02*
D03*
X61673Y54894D02*
D03*
X65069Y56498D02*
D03*
X66619Y59920D02*
D03*
X65511Y63509D02*
D03*
X62336Y65515D02*
D03*
X49299Y-19480D02*
D03*
X50048Y-22944D02*
D03*
X49890Y-26484D02*
D03*
X56472Y-22763D02*
D03*
X57221Y-19300D02*
D03*
D66*
X164000Y-130500D02*
D03*
X186272Y186445D02*
D03*
Y168728D02*
D03*
Y162823D02*
D03*
Y156917D02*
D03*
Y151012D02*
D03*
Y145106D02*
D03*
Y139201D02*
D03*
Y133295D02*
D03*
Y127390D02*
D03*
Y121484D02*
D03*
Y115579D02*
D03*
Y109673D02*
D03*
Y103768D02*
D03*
Y97862D02*
D03*
Y91957D02*
D03*
Y86051D02*
D03*
Y80146D02*
D03*
Y74240D02*
D03*
Y68335D02*
D03*
Y62429D02*
D03*
Y56524D02*
D03*
Y50618D02*
D03*
Y44712D02*
D03*
Y38807D02*
D03*
Y32901D02*
D03*
Y26996D02*
D03*
X180366Y162823D02*
D03*
Y156917D02*
D03*
Y151012D02*
D03*
Y145106D02*
D03*
Y139201D02*
D03*
Y133295D02*
D03*
Y127390D02*
D03*
Y121484D02*
D03*
Y115579D02*
D03*
Y109673D02*
D03*
Y103768D02*
D03*
Y97862D02*
D03*
Y91957D02*
D03*
Y86051D02*
D03*
Y80146D02*
D03*
Y74240D02*
D03*
Y68335D02*
D03*
Y62429D02*
D03*
Y56524D02*
D03*
Y50618D02*
D03*
Y44712D02*
D03*
Y38807D02*
D03*
Y32901D02*
D03*
X174460Y162823D02*
D03*
Y156917D02*
D03*
Y151012D02*
D03*
Y145106D02*
D03*
Y139201D02*
D03*
Y133295D02*
D03*
Y127390D02*
D03*
Y121484D02*
D03*
Y115579D02*
D03*
Y109673D02*
D03*
Y103768D02*
D03*
Y97862D02*
D03*
Y91957D02*
D03*
Y86051D02*
D03*
Y80146D02*
D03*
Y74240D02*
D03*
Y68335D02*
D03*
Y62429D02*
D03*
Y56524D02*
D03*
Y50618D02*
D03*
Y44712D02*
D03*
Y38807D02*
D03*
Y32901D02*
D03*
X168555Y186445D02*
D03*
Y162823D02*
D03*
Y32901D02*
D03*
X162650Y186445D02*
D03*
Y180539D02*
D03*
Y174634D02*
D03*
Y168728D02*
D03*
X156744Y186445D02*
D03*
Y180539D02*
D03*
Y174634D02*
D03*
Y21091D02*
D03*
Y15185D02*
D03*
Y-108831D02*
D03*
Y-120642D02*
D03*
Y-132453D02*
D03*
X150838Y186445D02*
D03*
Y180539D02*
D03*
Y174634D02*
D03*
Y21091D02*
D03*
Y15185D02*
D03*
Y-102925D02*
D03*
Y-108831D02*
D03*
Y-132453D02*
D03*
X144933Y186445D02*
D03*
Y180539D02*
D03*
Y174634D02*
D03*
Y139201D02*
D03*
Y133295D02*
D03*
Y21091D02*
D03*
Y15185D02*
D03*
Y-132453D02*
D03*
X139028Y186445D02*
D03*
Y180539D02*
D03*
Y174634D02*
D03*
Y145106D02*
D03*
Y21091D02*
D03*
Y15185D02*
D03*
Y9279D02*
D03*
Y-132453D02*
D03*
X133122Y186445D02*
D03*
Y180539D02*
D03*
Y174634D02*
D03*
Y145106D02*
D03*
Y127390D02*
D03*
Y121484D02*
D03*
Y115579D02*
D03*
Y109673D02*
D03*
Y103768D02*
D03*
Y97862D02*
D03*
Y91957D02*
D03*
Y74240D02*
D03*
Y68335D02*
D03*
Y50618D02*
D03*
Y21091D02*
D03*
Y15185D02*
D03*
Y9279D02*
D03*
X127216Y186445D02*
D03*
Y180539D02*
D03*
Y174634D02*
D03*
Y145106D02*
D03*
Y139201D02*
D03*
Y133295D02*
D03*
Y127390D02*
D03*
Y121484D02*
D03*
Y115579D02*
D03*
Y109673D02*
D03*
Y103768D02*
D03*
Y97862D02*
D03*
Y80146D02*
D03*
Y74240D02*
D03*
Y68335D02*
D03*
Y62429D02*
D03*
Y56524D02*
D03*
Y50618D02*
D03*
Y21091D02*
D03*
Y15185D02*
D03*
Y9279D02*
D03*
X121311Y186445D02*
D03*
Y180539D02*
D03*
Y174634D02*
D03*
Y145106D02*
D03*
Y139201D02*
D03*
Y133295D02*
D03*
Y127390D02*
D03*
Y121484D02*
D03*
Y115579D02*
D03*
Y109673D02*
D03*
Y103768D02*
D03*
Y86051D02*
D03*
Y80146D02*
D03*
Y74240D02*
D03*
Y68335D02*
D03*
Y62429D02*
D03*
Y56524D02*
D03*
Y50618D02*
D03*
Y21091D02*
D03*
Y15185D02*
D03*
Y9279D02*
D03*
Y-67492D02*
D03*
Y-73398D02*
D03*
Y-91114D02*
D03*
Y-102925D02*
D03*
Y-108831D02*
D03*
Y-132453D02*
D03*
X115405Y186445D02*
D03*
Y180539D02*
D03*
Y174634D02*
D03*
Y145106D02*
D03*
Y139201D02*
D03*
Y133295D02*
D03*
Y127390D02*
D03*
Y121484D02*
D03*
Y115579D02*
D03*
Y109673D02*
D03*
Y91957D02*
D03*
Y86051D02*
D03*
Y80146D02*
D03*
Y74240D02*
D03*
Y68335D02*
D03*
Y62429D02*
D03*
Y56524D02*
D03*
Y50618D02*
D03*
Y21091D02*
D03*
Y15185D02*
D03*
Y9279D02*
D03*
Y-61587D02*
D03*
Y-67492D02*
D03*
Y-73398D02*
D03*
Y-79303D02*
D03*
Y-85209D02*
D03*
Y-91114D02*
D03*
X109500Y186445D02*
D03*
Y180539D02*
D03*
Y174634D02*
D03*
Y145106D02*
D03*
Y139201D02*
D03*
Y133295D02*
D03*
Y127390D02*
D03*
Y121484D02*
D03*
Y115579D02*
D03*
Y97862D02*
D03*
Y91957D02*
D03*
Y86051D02*
D03*
Y80146D02*
D03*
Y74240D02*
D03*
Y68335D02*
D03*
Y62429D02*
D03*
Y56524D02*
D03*
Y50618D02*
D03*
Y21091D02*
D03*
Y15185D02*
D03*
Y9279D02*
D03*
Y-55681D02*
D03*
Y-61587D02*
D03*
Y-67492D02*
D03*
Y-73398D02*
D03*
Y-79303D02*
D03*
Y-85209D02*
D03*
Y-91114D02*
D03*
Y-97020D02*
D03*
Y-102925D02*
D03*
Y-108831D02*
D03*
Y-114736D02*
D03*
Y-120642D02*
D03*
Y-126547D02*
D03*
Y-132453D02*
D03*
X103594Y186445D02*
D03*
Y180539D02*
D03*
Y174634D02*
D03*
Y145106D02*
D03*
Y139201D02*
D03*
Y133295D02*
D03*
Y127390D02*
D03*
Y121484D02*
D03*
Y103768D02*
D03*
Y97862D02*
D03*
Y91957D02*
D03*
Y86051D02*
D03*
Y80146D02*
D03*
Y74240D02*
D03*
Y68335D02*
D03*
Y56524D02*
D03*
Y50618D02*
D03*
Y21091D02*
D03*
Y15185D02*
D03*
Y9279D02*
D03*
Y-55681D02*
D03*
Y-61587D02*
D03*
Y-67492D02*
D03*
Y-73398D02*
D03*
Y-79303D02*
D03*
Y-85209D02*
D03*
Y-91114D02*
D03*
Y-97020D02*
D03*
Y-102925D02*
D03*
Y-108831D02*
D03*
Y-114736D02*
D03*
Y-120642D02*
D03*
Y-126547D02*
D03*
Y-132453D02*
D03*
X97689Y186445D02*
D03*
Y180539D02*
D03*
Y174634D02*
D03*
Y145106D02*
D03*
Y139201D02*
D03*
Y133295D02*
D03*
Y127390D02*
D03*
Y109673D02*
D03*
Y103768D02*
D03*
Y97862D02*
D03*
Y91957D02*
D03*
Y86051D02*
D03*
Y80146D02*
D03*
Y74240D02*
D03*
Y68335D02*
D03*
Y50618D02*
D03*
Y21091D02*
D03*
Y15185D02*
D03*
Y9279D02*
D03*
Y-55681D02*
D03*
Y-61587D02*
D03*
Y-67492D02*
D03*
Y-73398D02*
D03*
Y-79303D02*
D03*
Y-85209D02*
D03*
Y-91114D02*
D03*
Y-97020D02*
D03*
Y-102925D02*
D03*
Y-108831D02*
D03*
Y-114736D02*
D03*
Y-120642D02*
D03*
Y-126547D02*
D03*
Y-132453D02*
D03*
X91783Y186445D02*
D03*
Y180539D02*
D03*
Y174634D02*
D03*
Y145106D02*
D03*
Y139201D02*
D03*
Y133295D02*
D03*
Y115579D02*
D03*
Y109673D02*
D03*
Y103768D02*
D03*
Y97862D02*
D03*
Y91957D02*
D03*
Y86051D02*
D03*
Y80146D02*
D03*
Y74240D02*
D03*
Y68335D02*
D03*
Y62429D02*
D03*
Y56524D02*
D03*
Y50618D02*
D03*
Y21091D02*
D03*
Y15185D02*
D03*
Y9279D02*
D03*
Y-55681D02*
D03*
Y-61587D02*
D03*
Y-67492D02*
D03*
Y-73398D02*
D03*
Y-79303D02*
D03*
Y-85209D02*
D03*
Y-91114D02*
D03*
Y-97020D02*
D03*
Y-102925D02*
D03*
Y-108831D02*
D03*
Y-114736D02*
D03*
Y-120642D02*
D03*
Y-126547D02*
D03*
Y-132453D02*
D03*
X85878Y186445D02*
D03*
Y180539D02*
D03*
Y174634D02*
D03*
Y145106D02*
D03*
Y139201D02*
D03*
Y121484D02*
D03*
Y115579D02*
D03*
Y109673D02*
D03*
Y103768D02*
D03*
Y97862D02*
D03*
Y91957D02*
D03*
Y86051D02*
D03*
Y80146D02*
D03*
Y74240D02*
D03*
Y68335D02*
D03*
Y62429D02*
D03*
Y56524D02*
D03*
Y50618D02*
D03*
Y21091D02*
D03*
Y15185D02*
D03*
Y9279D02*
D03*
Y-55681D02*
D03*
Y-61587D02*
D03*
Y-67492D02*
D03*
Y-73398D02*
D03*
Y-79303D02*
D03*
Y-85209D02*
D03*
Y-91114D02*
D03*
Y-97020D02*
D03*
Y-102925D02*
D03*
Y-108831D02*
D03*
Y-114736D02*
D03*
Y-120642D02*
D03*
Y-126547D02*
D03*
Y-132453D02*
D03*
X79972Y186445D02*
D03*
Y180539D02*
D03*
Y174634D02*
D03*
Y145106D02*
D03*
Y127390D02*
D03*
Y121484D02*
D03*
Y115579D02*
D03*
Y109673D02*
D03*
Y103768D02*
D03*
Y97862D02*
D03*
Y91957D02*
D03*
Y86051D02*
D03*
Y80146D02*
D03*
Y74240D02*
D03*
Y68335D02*
D03*
Y62429D02*
D03*
Y56524D02*
D03*
Y50618D02*
D03*
Y21091D02*
D03*
Y15185D02*
D03*
Y9279D02*
D03*
X74067Y186445D02*
D03*
Y180539D02*
D03*
Y174634D02*
D03*
Y145106D02*
D03*
Y121484D02*
D03*
Y115579D02*
D03*
Y109673D02*
D03*
Y103768D02*
D03*
Y97862D02*
D03*
Y91957D02*
D03*
Y86051D02*
D03*
Y80146D02*
D03*
Y74240D02*
D03*
Y68335D02*
D03*
Y62429D02*
D03*
Y56524D02*
D03*
Y50618D02*
D03*
Y21091D02*
D03*
Y15185D02*
D03*
Y9279D02*
D03*
X68161Y186445D02*
D03*
Y180539D02*
D03*
Y174634D02*
D03*
Y145106D02*
D03*
Y121484D02*
D03*
Y115579D02*
D03*
Y109673D02*
D03*
Y103768D02*
D03*
Y97862D02*
D03*
Y91957D02*
D03*
Y86051D02*
D03*
Y80146D02*
D03*
Y74240D02*
D03*
Y68335D02*
D03*
Y50618D02*
D03*
Y21091D02*
D03*
Y15185D02*
D03*
Y9279D02*
D03*
X62256Y186445D02*
D03*
Y180539D02*
D03*
Y174634D02*
D03*
Y145106D02*
D03*
Y127390D02*
D03*
Y121484D02*
D03*
Y115579D02*
D03*
Y109673D02*
D03*
Y103768D02*
D03*
Y97862D02*
D03*
Y91957D02*
D03*
Y86051D02*
D03*
Y80146D02*
D03*
Y74240D02*
D03*
Y50618D02*
D03*
Y21091D02*
D03*
Y15185D02*
D03*
Y9279D02*
D03*
X56350Y186445D02*
D03*
Y180539D02*
D03*
Y174634D02*
D03*
Y145106D02*
D03*
Y139201D02*
D03*
Y127390D02*
D03*
Y121484D02*
D03*
Y115579D02*
D03*
Y109673D02*
D03*
Y103768D02*
D03*
Y97862D02*
D03*
Y91957D02*
D03*
Y86051D02*
D03*
Y80146D02*
D03*
Y74240D02*
D03*
Y68335D02*
D03*
Y21091D02*
D03*
Y15185D02*
D03*
Y9279D02*
D03*
X50445Y186445D02*
D03*
Y180539D02*
D03*
Y174634D02*
D03*
Y139201D02*
D03*
Y133295D02*
D03*
Y127390D02*
D03*
Y121484D02*
D03*
Y115579D02*
D03*
Y109673D02*
D03*
Y103768D02*
D03*
Y97862D02*
D03*
Y91957D02*
D03*
Y86051D02*
D03*
Y80146D02*
D03*
Y74240D02*
D03*
Y68335D02*
D03*
Y21091D02*
D03*
Y15185D02*
D03*
Y9279D02*
D03*
X44539Y186445D02*
D03*
Y180539D02*
D03*
Y174634D02*
D03*
Y21091D02*
D03*
Y15185D02*
D03*
Y9279D02*
D03*
X38634Y186445D02*
D03*
Y180539D02*
D03*
Y174634D02*
D03*
X32728Y186445D02*
D03*
Y180539D02*
D03*
Y174634D02*
D03*
Y168728D02*
D03*
X26823Y186445D02*
D03*
Y162823D02*
D03*
Y156917D02*
D03*
Y151012D02*
D03*
Y145106D02*
D03*
Y139201D02*
D03*
Y133295D02*
D03*
Y127390D02*
D03*
Y121484D02*
D03*
Y115579D02*
D03*
Y109673D02*
D03*
Y103768D02*
D03*
Y97862D02*
D03*
Y91957D02*
D03*
Y86051D02*
D03*
Y80146D02*
D03*
Y74240D02*
D03*
Y68335D02*
D03*
Y62429D02*
D03*
Y56524D02*
D03*
Y50618D02*
D03*
Y44712D02*
D03*
Y38807D02*
D03*
Y32901D02*
D03*
Y9279D02*
D03*
X20917Y162823D02*
D03*
Y156917D02*
D03*
Y151012D02*
D03*
Y145106D02*
D03*
Y139201D02*
D03*
Y133295D02*
D03*
Y127390D02*
D03*
Y121484D02*
D03*
Y115579D02*
D03*
Y109673D02*
D03*
Y103768D02*
D03*
Y97862D02*
D03*
Y91957D02*
D03*
Y86051D02*
D03*
Y80146D02*
D03*
Y74240D02*
D03*
Y68335D02*
D03*
Y62429D02*
D03*
Y56524D02*
D03*
Y50618D02*
D03*
Y44712D02*
D03*
Y38807D02*
D03*
Y32901D02*
D03*
X15012Y162823D02*
D03*
Y156917D02*
D03*
Y151012D02*
D03*
Y145106D02*
D03*
Y139201D02*
D03*
Y133295D02*
D03*
Y127390D02*
D03*
Y121484D02*
D03*
Y115579D02*
D03*
Y109673D02*
D03*
Y103768D02*
D03*
Y97862D02*
D03*
Y91957D02*
D03*
Y86051D02*
D03*
Y80146D02*
D03*
Y74240D02*
D03*
Y68335D02*
D03*
Y62429D02*
D03*
Y56524D02*
D03*
Y50618D02*
D03*
Y44712D02*
D03*
Y38807D02*
D03*
Y32901D02*
D03*
X9106Y186445D02*
D03*
Y168728D02*
D03*
Y162823D02*
D03*
Y156917D02*
D03*
Y151012D02*
D03*
Y145106D02*
D03*
Y139201D02*
D03*
Y133295D02*
D03*
Y127390D02*
D03*
Y121484D02*
D03*
Y115579D02*
D03*
Y109673D02*
D03*
Y103768D02*
D03*
Y97862D02*
D03*
Y91957D02*
D03*
Y86051D02*
D03*
Y80146D02*
D03*
Y74240D02*
D03*
Y68335D02*
D03*
Y62429D02*
D03*
Y56524D02*
D03*
Y50618D02*
D03*
Y44712D02*
D03*
Y38807D02*
D03*
Y32901D02*
D03*
Y26996D02*
D03*
Y9279D02*
D03*
X43500Y-119500D02*
D03*
X44500Y-84000D02*
D03*
X42000Y-9500D02*
D03*
X22000Y-7000D02*
D03*
D67*
X137000Y-127000D02*
D03*
X133500Y-128500D02*
D03*
X130000D02*
D03*
X126500D02*
D03*
X125000Y-114500D02*
D03*
Y-118000D02*
D03*
Y-121500D02*
D03*
Y-125000D02*
D03*
X147000Y-126000D02*
D03*
X152500Y-120500D02*
D03*
X147000Y-115000D02*
D03*
X137000Y-123500D02*
D03*
Y-117500D02*
D03*
X157000Y-97000D02*
D03*
X163039Y-89961D02*
D03*
X140539Y-87461D02*
D03*
X155480Y-76480D02*
D03*
X158500Y-69000D02*
D03*
X181000Y-39500D02*
D03*
X170039Y-15461D02*
D03*
X165961Y-9961D02*
D03*
X171461Y39D02*
D03*
X168000Y-44500D02*
D03*
X150000Y-30000D02*
D03*
X29760Y-3760D02*
D03*
M02*
