G04*
G04 #@! TF.GenerationSoftware,Altium Limited,Altium Designer,22.9.1 (49)*
G04*
G04 Layer_Color=16711935*
%FSLAX25Y25*%
%MOIN*%
G70*
G04*
G04 #@! TF.SameCoordinates,E9D11BAE-304F-488D-B7EA-F98EEB287584*
G04*
G04*
G04 #@! TF.FilePolarity,Negative*
G04*
G01*
G75*
%ADD33R,0.04043X0.03650*%
%ADD46C,0.06012*%
%ADD47C,0.08177*%
%ADD48C,0.06378*%
%ADD49C,0.06406*%
%ADD50R,0.06406X0.06406*%
%ADD51C,0.03556*%
%ADD52C,0.03256*%
D33*
X68461Y129193D02*
D03*
X68500Y135728D02*
D03*
X74461Y129193D02*
D03*
X74500Y135728D02*
D03*
D46*
X101500Y-21000D02*
D03*
X91500D02*
D03*
Y-11000D02*
D03*
X101500D02*
D03*
X96500Y-16000D02*
D03*
X136000Y-11000D02*
D03*
Y-21000D02*
D03*
X126000D02*
D03*
Y-11000D02*
D03*
X131000Y-16000D02*
D03*
X152000Y-125500D02*
D03*
X142000D02*
D03*
Y-115500D02*
D03*
X152000D02*
D03*
X147000Y-120500D02*
D03*
D47*
X182295Y-80492D02*
D03*
Y-54508D02*
D03*
D48*
X61252Y60248D02*
D03*
X98752D02*
D03*
X136252D02*
D03*
Y135248D02*
D03*
X61252D02*
D03*
D49*
X13177Y223874D02*
D03*
Y213874D02*
D03*
X23177Y223874D02*
D03*
Y213874D02*
D03*
X33177Y223874D02*
D03*
Y213874D02*
D03*
X43177Y223874D02*
D03*
Y213874D02*
D03*
X53177Y223874D02*
D03*
Y213874D02*
D03*
X63177Y223874D02*
D03*
Y213874D02*
D03*
X73177Y223874D02*
D03*
Y213874D02*
D03*
X83177Y223874D02*
D03*
Y213874D02*
D03*
X93177Y223874D02*
D03*
Y213874D02*
D03*
X103177Y223874D02*
D03*
Y213874D02*
D03*
X113177Y223874D02*
D03*
Y213874D02*
D03*
X123177Y223874D02*
D03*
Y213874D02*
D03*
X133177Y223874D02*
D03*
Y213874D02*
D03*
X143177Y223874D02*
D03*
Y213874D02*
D03*
X153177Y223874D02*
D03*
Y213874D02*
D03*
X163177Y223874D02*
D03*
Y213874D02*
D03*
X173177Y223874D02*
D03*
Y213874D02*
D03*
X183177Y223874D02*
D03*
X13177Y-144079D02*
D03*
Y-154079D02*
D03*
X23177Y-144079D02*
D03*
Y-154079D02*
D03*
X33177Y-144079D02*
D03*
Y-154079D02*
D03*
X43177Y-144079D02*
D03*
Y-154079D02*
D03*
X53177Y-144079D02*
D03*
Y-154079D02*
D03*
X63177Y-144079D02*
D03*
Y-154079D02*
D03*
X73177Y-144079D02*
D03*
Y-154079D02*
D03*
X83177Y-144079D02*
D03*
Y-154079D02*
D03*
X93177Y-144079D02*
D03*
Y-154079D02*
D03*
X103177Y-144079D02*
D03*
Y-154079D02*
D03*
X113177Y-144079D02*
D03*
Y-154079D02*
D03*
X123177Y-144079D02*
D03*
Y-154079D02*
D03*
X133177Y-144079D02*
D03*
Y-154079D02*
D03*
X143177Y-144079D02*
D03*
Y-154079D02*
D03*
X153177Y-144079D02*
D03*
Y-154079D02*
D03*
X163177Y-144079D02*
D03*
Y-154079D02*
D03*
X173177Y-144079D02*
D03*
Y-154079D02*
D03*
X183177Y-144079D02*
D03*
D50*
Y213874D02*
D03*
Y-154079D02*
D03*
D51*
X86681Y-23048D02*
D03*
X83137D02*
D03*
X79674Y-22299D02*
D03*
X76131D02*
D03*
X82394Y-29472D02*
D03*
X85937D02*
D03*
X89480D02*
D03*
X93024D02*
D03*
X96334Y-28209D02*
D03*
X98831Y-25694D02*
D03*
X124474Y-27983D02*
D03*
X121968Y-30489D02*
D03*
X118425Y-30528D02*
D03*
X114882D02*
D03*
X111338D02*
D03*
X107795D02*
D03*
X104252D02*
D03*
X100709D02*
D03*
X75527Y-37683D02*
D03*
X79070Y-37701D02*
D03*
X82534Y-36952D02*
D03*
X86077D02*
D03*
X89620D02*
D03*
X93164D02*
D03*
X96707D02*
D03*
X100250D02*
D03*
X103794D02*
D03*
X107337D02*
D03*
X110880D02*
D03*
X114424D02*
D03*
X117967D02*
D03*
X121510D02*
D03*
X125012Y-36410D02*
D03*
X127577Y-33966D02*
D03*
X130082Y-31460D02*
D03*
X132588Y-28955D02*
D03*
X134212Y-25806D02*
D03*
X49890Y-32197D02*
D03*
X49951Y-35740D02*
D03*
X52640Y-38047D02*
D03*
X55321Y-40364D02*
D03*
X117896Y-44438D02*
D03*
X120401Y-46944D02*
D03*
X122907Y-49449D02*
D03*
X125412Y-51955D02*
D03*
X124962Y-55470D02*
D03*
X136524Y-54704D02*
D03*
X133712Y-52549D02*
D03*
X131993Y-49450D02*
D03*
X129488Y-46945D02*
D03*
X126982Y-44440D02*
D03*
X124477Y-41934D02*
D03*
X69485Y-37288D02*
D03*
X65942D02*
D03*
X62398D02*
D03*
X25876Y-21366D02*
D03*
X26548Y-24845D02*
D03*
X26783Y-28381D02*
D03*
X29056Y-31099D02*
D03*
X31561Y-33604D02*
D03*
X34067Y-36110D02*
D03*
X36572Y-38615D02*
D03*
X39078Y-41121D02*
D03*
X41583Y-43626D02*
D03*
X44089Y-46132D02*
D03*
X47000Y-48152D02*
D03*
X50543Y-48212D02*
D03*
X54086D02*
D03*
X57629D02*
D03*
X61173D02*
D03*
X64716D02*
D03*
X68259D02*
D03*
X71803D02*
D03*
X75346D02*
D03*
X78889D02*
D03*
X82433D02*
D03*
X85976D02*
D03*
X89519D02*
D03*
X93063D02*
D03*
X96606D02*
D03*
X100149D02*
D03*
X103692D02*
D03*
X107236D02*
D03*
X110353Y-49896D02*
D03*
X112859Y-52402D02*
D03*
X115364Y-54907D02*
D03*
X117870Y-57413D02*
D03*
X120375Y-59918D02*
D03*
X122881Y-62424D02*
D03*
X124957Y-65295D02*
D03*
X137253Y-60447D02*
D03*
X112406Y-42863D02*
D03*
X48794Y-41751D02*
D03*
X46288Y-39245D02*
D03*
X43783Y-36740D02*
D03*
X41277Y-34234D02*
D03*
X38772Y-31729D02*
D03*
X36266Y-29223D02*
D03*
X33761Y-26718D02*
D03*
X32972Y-23264D02*
D03*
X33721Y-19800D02*
D03*
X49299Y-19480D02*
D03*
X50048Y-22944D02*
D03*
X49890Y-26484D02*
D03*
X56472Y-22763D02*
D03*
X57221Y-19300D02*
D03*
D52*
X58377Y64780D02*
D03*
X56116Y61780D02*
D03*
X55122Y58158D02*
D03*
X52466Y55503D02*
D03*
X49810Y52847D02*
D03*
X47155Y50191D02*
D03*
X44499Y47535D02*
D03*
X41843Y44879D02*
D03*
X39187Y42224D02*
D03*
X36531Y39568D02*
D03*
X33876Y36911D02*
D03*
X31729Y33829D02*
D03*
X30732Y30208D02*
D03*
X30643Y26453D02*
D03*
Y22697D02*
D03*
Y15186D02*
D03*
Y11430D02*
D03*
Y7674D02*
D03*
Y3918D02*
D03*
Y162D02*
D03*
X42404Y-5357D02*
D03*
X46159D02*
D03*
X49915D02*
D03*
X58048Y-1507D02*
D03*
X54787Y357D02*
D03*
X51032D02*
D03*
X47276D02*
D03*
X43520D02*
D03*
X39764D02*
D03*
X36357Y1939D02*
D03*
Y5694D02*
D03*
Y9450D02*
D03*
Y13206D02*
D03*
Y16962D02*
D03*
Y20718D02*
D03*
Y24474D02*
D03*
Y28230D02*
D03*
X37158Y31899D02*
D03*
X39705Y34660D02*
D03*
X42361Y37316D02*
D03*
X45016Y39972D02*
D03*
X47672Y42628D02*
D03*
X50328Y45284D02*
D03*
X52984Y47939D02*
D03*
X55640Y50595D02*
D03*
X58296Y53251D02*
D03*
X61673Y54894D02*
D03*
X65069Y56498D02*
D03*
X66619Y59920D02*
D03*
X65511Y63509D02*
D03*
X62336Y65515D02*
D03*
M02*
