G04*
G04 #@! TF.GenerationSoftware,Altium Limited,Altium Designer,22.9.1 (49)*
G04*
G04 Layer_Color=8388736*
%FSLAX25Y25*%
%MOIN*%
G70*
G04*
G04 #@! TF.SameCoordinates,E9D11BAE-304F-488D-B7EA-F98EEB287584*
G04*
G04*
G04 #@! TF.FilePolarity,Negative*
G04*
G01*
G75*
%ADD31R,0.31500X0.12500*%
%ADD32R,0.06406X0.02862*%
%ADD33R,0.04043X0.03650*%
%ADD34R,0.03650X0.04043*%
%ADD35R,0.02862X0.05224*%
%ADD36R,0.07587X0.03650*%
%ADD37R,0.07887X0.03950*%
%ADD38R,0.09358X0.09752*%
%ADD39R,0.02862X0.06406*%
%ADD40R,0.05224X0.02862*%
%ADD41R,0.05815X0.02075*%
%ADD42R,0.06012X0.06799*%
%ADD43R,0.06799X0.07980*%
%ADD44R,0.04634X0.02862*%
%ADD45O,0.02075X0.06799*%
%ADD46C,0.06012*%
%ADD47C,0.08177*%
%ADD48C,0.06378*%
%ADD49C,0.06406*%
%ADD50R,0.06406X0.06406*%
%ADD51C,0.03556*%
%ADD52C,0.03256*%
D31*
X139750Y-120750D02*
D03*
D32*
X180972Y-120260D02*
D03*
Y-127740D02*
D03*
X190028Y-124000D02*
D03*
D33*
X171961Y-120693D02*
D03*
X172000Y-127228D02*
D03*
X55000Y-78272D02*
D03*
X55039Y-84807D02*
D03*
X54000Y-112772D02*
D03*
X54039Y-119307D02*
D03*
X48539Y-84807D02*
D03*
X48500Y-78272D02*
D03*
X47500Y-112772D02*
D03*
X47539Y-119307D02*
D03*
X170000Y-6272D02*
D03*
X170039Y-12807D02*
D03*
X21961Y-10693D02*
D03*
X22000Y-17228D02*
D03*
X140539Y-84807D02*
D03*
X140500Y-78272D02*
D03*
X163039Y-86807D02*
D03*
X163000Y-80272D02*
D03*
X141500Y-104244D02*
D03*
Y-109756D02*
D03*
X170039Y-39307D02*
D03*
X170000Y-32772D02*
D03*
X150000Y-38756D02*
D03*
Y-33244D02*
D03*
X156500Y-15244D02*
D03*
Y-20756D02*
D03*
Y756D02*
D03*
Y-4756D02*
D03*
X45500Y-16728D02*
D03*
X45461Y-10193D02*
D03*
D34*
X80307Y-17961D02*
D03*
X73772Y-18000D02*
D03*
X164693Y-135039D02*
D03*
X171228Y-135000D02*
D03*
X177693Y-135039D02*
D03*
X184228Y-135000D02*
D03*
X148244Y-97000D02*
D03*
X153756D02*
D03*
X139244Y-66000D02*
D03*
X144756D02*
D03*
X54244Y-33500D02*
D03*
X59756D02*
D03*
X54244Y-27500D02*
D03*
X59756D02*
D03*
X139244Y-72000D02*
D03*
X144756D02*
D03*
X163307Y-9961D02*
D03*
X156772Y-10000D02*
D03*
X168807Y39D02*
D03*
X162272Y0D02*
D03*
D35*
X60740Y-8079D02*
D03*
X57000D02*
D03*
X53260D02*
D03*
Y-17921D02*
D03*
X60740D02*
D03*
X37240Y-8579D02*
D03*
X33500D02*
D03*
X29760D02*
D03*
Y-18421D02*
D03*
X37240D02*
D03*
D36*
X64500Y-58224D02*
D03*
X131000Y-125154D02*
D03*
D37*
X64500Y-62555D02*
D03*
Y-66886D02*
D03*
Y-71216D02*
D03*
Y-75547D02*
D03*
Y-79878D02*
D03*
Y-84209D02*
D03*
Y-88539D02*
D03*
Y-103500D02*
D03*
Y-107831D02*
D03*
Y-112161D02*
D03*
Y-116492D02*
D03*
Y-120823D02*
D03*
Y-125154D02*
D03*
X131000Y-120823D02*
D03*
Y-116492D02*
D03*
Y-112161D02*
D03*
Y-107831D02*
D03*
Y-103500D02*
D03*
Y-88539D02*
D03*
Y-84209D02*
D03*
Y-79878D02*
D03*
Y-75547D02*
D03*
Y-71216D02*
D03*
Y-66886D02*
D03*
Y-62555D02*
D03*
Y-58224D02*
D03*
D38*
X180500Y-21354D02*
D03*
Y-40646D02*
D03*
D39*
X155480Y-80500D02*
D03*
X148000D02*
D03*
X151740Y-89555D02*
D03*
D40*
X78028Y-33740D02*
D03*
Y-30000D02*
D03*
Y-26260D02*
D03*
X68972D02*
D03*
Y-30000D02*
D03*
Y-33740D02*
D03*
X162528Y-72740D02*
D03*
Y-69000D02*
D03*
Y-65260D02*
D03*
X153472D02*
D03*
Y-69000D02*
D03*
Y-72740D02*
D03*
D41*
X171764Y-72618D02*
D03*
Y-70059D02*
D03*
Y-67500D02*
D03*
Y-64941D02*
D03*
Y-62382D02*
D03*
D42*
X172650Y-80098D02*
D03*
Y-54902D02*
D03*
D43*
X182295Y-72224D02*
D03*
Y-62776D02*
D03*
D44*
X175945Y-4760D02*
D03*
Y-12240D02*
D03*
X185000Y-8500D02*
D03*
D45*
X156161Y-44268D02*
D03*
X158721D02*
D03*
X161279D02*
D03*
X163839D02*
D03*
X156161Y-27732D02*
D03*
X158721D02*
D03*
X161279D02*
D03*
X163839D02*
D03*
D46*
X101500Y-21000D02*
D03*
X91500D02*
D03*
Y-11000D02*
D03*
X101500D02*
D03*
X96500Y-16000D02*
D03*
X136000Y-11000D02*
D03*
Y-21000D02*
D03*
X126000D02*
D03*
Y-11000D02*
D03*
X131000Y-16000D02*
D03*
X152000Y-125500D02*
D03*
X142000D02*
D03*
Y-115500D02*
D03*
X152000D02*
D03*
X147000Y-120500D02*
D03*
D47*
X182295Y-80492D02*
D03*
Y-54508D02*
D03*
D48*
X61252Y60248D02*
D03*
X98752D02*
D03*
X136252D02*
D03*
Y135248D02*
D03*
X61252D02*
D03*
D49*
X13177Y223874D02*
D03*
Y213874D02*
D03*
X23177Y223874D02*
D03*
Y213874D02*
D03*
X33177Y223874D02*
D03*
Y213874D02*
D03*
X43177Y223874D02*
D03*
Y213874D02*
D03*
X53177Y223874D02*
D03*
Y213874D02*
D03*
X63177Y223874D02*
D03*
Y213874D02*
D03*
X73177Y223874D02*
D03*
Y213874D02*
D03*
X83177Y223874D02*
D03*
Y213874D02*
D03*
X93177Y223874D02*
D03*
Y213874D02*
D03*
X103177Y223874D02*
D03*
Y213874D02*
D03*
X113177Y223874D02*
D03*
Y213874D02*
D03*
X123177Y223874D02*
D03*
Y213874D02*
D03*
X133177Y223874D02*
D03*
Y213874D02*
D03*
X143177Y223874D02*
D03*
Y213874D02*
D03*
X153177Y223874D02*
D03*
Y213874D02*
D03*
X163177Y223874D02*
D03*
Y213874D02*
D03*
X173177Y223874D02*
D03*
Y213874D02*
D03*
X183177Y223874D02*
D03*
X13177Y-144079D02*
D03*
Y-154079D02*
D03*
X23177Y-144079D02*
D03*
Y-154079D02*
D03*
X33177Y-144079D02*
D03*
Y-154079D02*
D03*
X43177Y-144079D02*
D03*
Y-154079D02*
D03*
X53177Y-144079D02*
D03*
Y-154079D02*
D03*
X63177Y-144079D02*
D03*
Y-154079D02*
D03*
X73177Y-144079D02*
D03*
Y-154079D02*
D03*
X83177Y-144079D02*
D03*
Y-154079D02*
D03*
X93177Y-144079D02*
D03*
Y-154079D02*
D03*
X103177Y-144079D02*
D03*
Y-154079D02*
D03*
X113177Y-144079D02*
D03*
Y-154079D02*
D03*
X123177Y-144079D02*
D03*
Y-154079D02*
D03*
X133177Y-144079D02*
D03*
Y-154079D02*
D03*
X143177Y-144079D02*
D03*
Y-154079D02*
D03*
X153177Y-144079D02*
D03*
Y-154079D02*
D03*
X163177Y-144079D02*
D03*
Y-154079D02*
D03*
X173177Y-144079D02*
D03*
Y-154079D02*
D03*
X183177Y-144079D02*
D03*
D50*
Y213874D02*
D03*
Y-154079D02*
D03*
D51*
X86681Y-23048D02*
D03*
X83137D02*
D03*
X79674Y-22299D02*
D03*
X76131D02*
D03*
X82394Y-29472D02*
D03*
X85937D02*
D03*
X89480D02*
D03*
X93024D02*
D03*
X96334Y-28209D02*
D03*
X98831Y-25694D02*
D03*
X124474Y-27983D02*
D03*
X121968Y-30489D02*
D03*
X118425Y-30528D02*
D03*
X114882D02*
D03*
X111338D02*
D03*
X107795D02*
D03*
X104252D02*
D03*
X100709D02*
D03*
X75527Y-37683D02*
D03*
X79070Y-37701D02*
D03*
X82534Y-36952D02*
D03*
X86077D02*
D03*
X89620D02*
D03*
X93164D02*
D03*
X96707D02*
D03*
X100250D02*
D03*
X103794D02*
D03*
X107337D02*
D03*
X110880D02*
D03*
X114424D02*
D03*
X117967D02*
D03*
X121510D02*
D03*
X125012Y-36410D02*
D03*
X127577Y-33966D02*
D03*
X130082Y-31460D02*
D03*
X132588Y-28955D02*
D03*
X134212Y-25806D02*
D03*
X49890Y-32197D02*
D03*
X49951Y-35740D02*
D03*
X52640Y-38047D02*
D03*
X55321Y-40364D02*
D03*
X117896Y-44438D02*
D03*
X120401Y-46944D02*
D03*
X122907Y-49449D02*
D03*
X125412Y-51955D02*
D03*
X124962Y-55470D02*
D03*
X136524Y-54704D02*
D03*
X133712Y-52549D02*
D03*
X131993Y-49450D02*
D03*
X129488Y-46945D02*
D03*
X126982Y-44440D02*
D03*
X124477Y-41934D02*
D03*
X69485Y-37288D02*
D03*
X65942D02*
D03*
X62398D02*
D03*
X25876Y-21366D02*
D03*
X26548Y-24845D02*
D03*
X26783Y-28381D02*
D03*
X29056Y-31099D02*
D03*
X31561Y-33604D02*
D03*
X34067Y-36110D02*
D03*
X36572Y-38615D02*
D03*
X39078Y-41121D02*
D03*
X41583Y-43626D02*
D03*
X44089Y-46132D02*
D03*
X47000Y-48152D02*
D03*
X50543Y-48212D02*
D03*
X54086D02*
D03*
X57629D02*
D03*
X61173D02*
D03*
X64716D02*
D03*
X68259D02*
D03*
X71803D02*
D03*
X75346D02*
D03*
X78889D02*
D03*
X82433D02*
D03*
X85976D02*
D03*
X89519D02*
D03*
X93063D02*
D03*
X96606D02*
D03*
X100149D02*
D03*
X103692D02*
D03*
X107236D02*
D03*
X110353Y-49896D02*
D03*
X112859Y-52402D02*
D03*
X115364Y-54907D02*
D03*
X117870Y-57413D02*
D03*
X120375Y-59918D02*
D03*
X122881Y-62424D02*
D03*
X124957Y-65295D02*
D03*
X137253Y-60447D02*
D03*
X112406Y-42863D02*
D03*
X48794Y-41751D02*
D03*
X46288Y-39245D02*
D03*
X43783Y-36740D02*
D03*
X41277Y-34234D02*
D03*
X38772Y-31729D02*
D03*
X36266Y-29223D02*
D03*
X33761Y-26718D02*
D03*
X32972Y-23264D02*
D03*
X33721Y-19800D02*
D03*
X49299Y-19480D02*
D03*
X50048Y-22944D02*
D03*
X49890Y-26484D02*
D03*
X56472Y-22763D02*
D03*
X57221Y-19300D02*
D03*
D52*
X58377Y64780D02*
D03*
X56116Y61780D02*
D03*
X55122Y58158D02*
D03*
X52466Y55503D02*
D03*
X49810Y52847D02*
D03*
X47155Y50191D02*
D03*
X44499Y47535D02*
D03*
X41843Y44879D02*
D03*
X39187Y42224D02*
D03*
X36531Y39568D02*
D03*
X33876Y36911D02*
D03*
X31729Y33829D02*
D03*
X30732Y30208D02*
D03*
X30643Y26453D02*
D03*
Y22697D02*
D03*
Y15186D02*
D03*
Y11430D02*
D03*
Y7674D02*
D03*
Y3918D02*
D03*
Y162D02*
D03*
X42404Y-5357D02*
D03*
X46159D02*
D03*
X49915D02*
D03*
X58048Y-1507D02*
D03*
X54787Y357D02*
D03*
X51032D02*
D03*
X47276D02*
D03*
X43520D02*
D03*
X39764D02*
D03*
X36357Y1939D02*
D03*
Y5694D02*
D03*
Y9450D02*
D03*
Y13206D02*
D03*
Y16962D02*
D03*
Y20718D02*
D03*
Y24474D02*
D03*
Y28230D02*
D03*
X37158Y31899D02*
D03*
X39705Y34660D02*
D03*
X42361Y37316D02*
D03*
X45016Y39972D02*
D03*
X47672Y42628D02*
D03*
X50328Y45284D02*
D03*
X52984Y47939D02*
D03*
X55640Y50595D02*
D03*
X58296Y53251D02*
D03*
X61673Y54894D02*
D03*
X65069Y56498D02*
D03*
X66619Y59920D02*
D03*
X65511Y63509D02*
D03*
X62336Y65515D02*
D03*
M02*
