G04*
G04 #@! TF.GenerationSoftware,Altium Limited,Altium Designer,22.9.1 (49)*
G04*
G04 Layer_Color=32896*
%FSLAX25Y25*%
%MOIN*%
G70*
G04*
G04 #@! TF.SameCoordinates,E9D11BAE-304F-488D-B7EA-F98EEB287584*
G04*
G04*
G04 #@! TF.FilePolarity,Positive*
G04*
G01*
G75*
%ADD12C,0.00787*%
%ADD16C,0.00591*%
D12*
X8177Y208874D02*
X188177D01*
X8177Y228874D02*
X188177D01*
Y208874D02*
Y228874D01*
X8177Y208874D02*
Y228874D01*
Y-159079D02*
X188177D01*
X8177Y-139079D02*
X188177D01*
Y-159079D02*
Y-139079D01*
X8177Y-159079D02*
Y-139079D01*
D16*
X7177Y224334D02*
X6685Y224826D01*
X5701D01*
X5209Y224334D01*
Y223842D01*
X5701Y223350D01*
X6193D01*
X5701D01*
X5209Y222858D01*
Y222366D01*
X5701Y221874D01*
X6685D01*
X7177Y222366D01*
X2258Y224826D02*
X3241Y224334D01*
X4225Y223350D01*
Y222366D01*
X3733Y221874D01*
X2750D01*
X2258Y222366D01*
Y222858D01*
X2750Y223350D01*
X4225D01*
X7177Y214334D02*
X6685Y214826D01*
X5701D01*
X5209Y214334D01*
Y213842D01*
X5701Y213350D01*
X6193D01*
X5701D01*
X5209Y212858D01*
Y212366D01*
X5701Y211874D01*
X6685D01*
X7177Y212366D01*
X2258Y214826D02*
X4225D01*
Y213350D01*
X3241Y213842D01*
X2750D01*
X2258Y213350D01*
Y212366D01*
X2750Y211874D01*
X3733D01*
X4225Y212366D01*
X193177Y211874D02*
X192193D01*
X192685D01*
Y214826D01*
X193177Y214334D01*
X191532Y222000D02*
X193500D01*
X191532Y223968D01*
Y224460D01*
X192024Y224952D01*
X193008D01*
X193500Y224460D01*
X7177Y-143619D02*
X6685Y-143127D01*
X5701D01*
X5209Y-143619D01*
Y-144111D01*
X5701Y-144603D01*
X6193D01*
X5701D01*
X5209Y-145095D01*
Y-145587D01*
X5701Y-146079D01*
X6685D01*
X7177Y-145587D01*
X2258Y-143127D02*
X3241Y-143619D01*
X4225Y-144603D01*
Y-145587D01*
X3733Y-146079D01*
X2750D01*
X2258Y-145587D01*
Y-145095D01*
X2750Y-144603D01*
X4225D01*
X7177Y-153619D02*
X6685Y-153127D01*
X5701D01*
X5209Y-153619D01*
Y-154111D01*
X5701Y-154603D01*
X6193D01*
X5701D01*
X5209Y-155095D01*
Y-155587D01*
X5701Y-156079D01*
X6685D01*
X7177Y-155587D01*
X2258Y-153127D02*
X4225D01*
Y-154603D01*
X3241Y-154111D01*
X2750D01*
X2258Y-154603D01*
Y-155587D01*
X2750Y-156079D01*
X3733D01*
X4225Y-155587D01*
X192177Y-154579D02*
X191193D01*
X191685D01*
Y-151627D01*
X192177Y-152119D01*
X190709Y-145079D02*
X192677D01*
X190709Y-143111D01*
Y-142619D01*
X191201Y-142127D01*
X192185D01*
X192677Y-142619D01*
X75984Y143008D02*
X76476Y142516D01*
Y141532D01*
X75984Y141040D01*
X74016D01*
X73524Y141532D01*
Y142516D01*
X74016Y143008D01*
Y143992D02*
X73524Y144484D01*
Y145468D01*
X74016Y145960D01*
X75984D01*
X76476Y145468D01*
Y144484D01*
X75984Y143992D01*
X75492D01*
X75000Y144484D01*
Y145960D01*
X68984Y142508D02*
X69476Y142016D01*
Y141032D01*
X68984Y140540D01*
X67016D01*
X66524Y141032D01*
Y142016D01*
X67016Y142508D01*
X68984Y143492D02*
X69476Y143984D01*
Y144968D01*
X68984Y145460D01*
X68492D01*
X68000Y144968D01*
X67508Y145460D01*
X67016D01*
X66524Y144968D01*
Y143984D01*
X67016Y143492D01*
X67508D01*
X68000Y143984D01*
X68492Y143492D01*
X68984D01*
X68000Y143984D02*
Y144968D01*
X186212Y202772D02*
Y205724D01*
X184736D01*
X184244Y205232D01*
Y204248D01*
X184736Y203756D01*
X186212D01*
X181292Y202772D02*
X183260D01*
X181292Y204740D01*
Y205232D01*
X181784Y205724D01*
X182768D01*
X183260Y205232D01*
X192652Y-136052D02*
Y-133100D01*
X191176D01*
X190684Y-133592D01*
Y-134576D01*
X191176Y-135068D01*
X192652D01*
X189700Y-136052D02*
X188716D01*
X189208D01*
Y-133100D01*
X189700Y-133592D01*
M02*
