G04*
G04 #@! TF.GenerationSoftware,Altium Limited,Altium Designer,22.9.1 (49)*
G04*
G04 Layer_Color=16711935*
%FSLAX25Y25*%
%MOIN*%
G70*
G04*
G04 #@! TF.SameCoordinates,E9D11BAE-304F-488D-B7EA-F98EEB287584*
G04*
G04*
G04 #@! TF.FilePolarity,Positive*
G04*
G01*
G75*
%ADD13C,0.01000*%
%ADD16C,0.00591*%
D13*
X44230Y137770D02*
G03*
X40694Y146306I-12071J0D01*
G01*
Y48690D02*
G03*
X44230Y57226I-8535J8535D01*
G01*
X58752Y43748D02*
G03*
X50216Y40213I0J-12071D01*
G01*
X146288D02*
G03*
X137752Y43748I-8535J-8535D01*
G01*
X138252Y151748D02*
G03*
X146788Y155284I0J12071D01*
G01*
X49716D02*
G03*
X58252Y151748I8535J8535D01*
G01*
X152252Y57248D02*
G03*
X155788Y48713I12071J0D01*
G01*
Y146284D02*
G03*
X152252Y137748I8535J-8535D01*
G01*
X189000Y-83000D02*
Y-52000D01*
X190547Y-161953D02*
X196453D01*
X196500Y-162000D01*
Y-113000D01*
X-248Y-161953D02*
X190547D01*
X196602Y-22000D02*
X196602Y231748D01*
X189000Y-22000D02*
X196500D01*
X189000Y-113000D02*
X196500D01*
X189000D02*
Y-83000D01*
Y-52000D02*
Y-22000D01*
X30252Y156748D02*
X40694Y146306D01*
X44230Y57226D02*
Y137770D01*
X30252Y38248D02*
X40694Y48690D01*
X39252Y29248D02*
X50216Y40213D01*
X58752Y43748D02*
X137752D01*
X146288Y40213D02*
X157252Y29248D01*
X39252D02*
X157252D01*
X30252Y38248D02*
Y156748D01*
X146788Y155284D02*
X157252Y165748D01*
X127752Y151748D02*
X138252D01*
X58252D02*
X127752D01*
X39252Y165748D02*
X49716Y155284D01*
X39252Y165748D02*
X157252D01*
X166252Y38248D02*
Y156748D01*
X155788Y48713D02*
X166252Y38248D01*
X152252Y57248D02*
Y137748D01*
X155788Y146284D02*
X166252Y156748D01*
X-248Y-161953D02*
Y-79252D01*
Y226748D02*
Y231748D01*
X1252D01*
X-248Y-79252D02*
Y226748D01*
X1252Y231748D02*
X196602D01*
D16*
X27768Y19020D02*
G03*
X27768Y19020I-8268J0D01*
G01*
X185248Y176500D02*
G03*
X185248Y176500I-8268J0D01*
G01*
Y19020D02*
G03*
X185248Y19020I-8268J0D01*
G01*
X27768Y176500D02*
G03*
X27768Y176500I-8268J0D01*
G01*
M02*
