G04*
G04 #@! TF.GenerationSoftware,Altium Limited,Altium Designer,22.9.1 (49)*
G04*
G04 Layer_Color=8388736*
%FSLAX24Y24*%
%MOIN*%
G70*
G04*
G04 #@! TF.SameCoordinates,552243BB-0F40-405C-A021-40A65FA5EEAB*
G04*
G04*
G04 #@! TF.FilePolarity,Negative*
G04*
G01*
G75*
%ADD35R,1.4250X0.2750*%
%ADD36R,0.2750X1.6950*%
%ADD37R,1.7000X0.2750*%
%ADD38R,0.2700X1.9700*%
%ADD39R,0.0503X0.1113*%
%ADD40R,0.0660X0.0286*%
%ADD41R,0.0286X0.0660*%
%ADD42R,0.0444X0.0424*%
%ADD43R,0.0424X0.0444*%
G04:AMPARAMS|DCode=44|XSize=44.4mil|YSize=54.2mil|CornerRadius=12.3mil|HoleSize=0mil|Usage=FLASHONLY|Rotation=90.000|XOffset=0mil|YOffset=0mil|HoleType=Round|Shape=RoundedRectangle|*
%AMROUNDEDRECTD44*
21,1,0.0444,0.0295,0,0,90.0*
21,1,0.0197,0.0542,0,0,90.0*
1,1,0.0247,0.0148,0.0098*
1,1,0.0247,0.0148,-0.0098*
1,1,0.0247,-0.0148,-0.0098*
1,1,0.0247,-0.0148,0.0098*
%
%ADD44ROUNDEDRECTD44*%
%ADD45R,0.0778X0.0700*%
%ADD46R,0.0227X0.0601*%
G04:AMPARAMS|DCode=47|XSize=36.5mil|YSize=34.5mil|CornerRadius=9.9mil|HoleSize=0mil|Usage=FLASHONLY|Rotation=90.000|XOffset=0mil|YOffset=0mil|HoleType=Round|Shape=RoundedRectangle|*
%AMROUNDEDRECTD47*
21,1,0.0365,0.0148,0,0,90.0*
21,1,0.0167,0.0345,0,0,90.0*
1,1,0.0198,0.0074,0.0084*
1,1,0.0198,0.0074,-0.0084*
1,1,0.0198,-0.0074,-0.0084*
1,1,0.0198,-0.0074,0.0084*
%
%ADD47ROUNDEDRECTD47*%
%ADD48R,0.0306X0.0463*%
G04:AMPARAMS|DCode=49|XSize=44.4mil|YSize=54.2mil|CornerRadius=12.3mil|HoleSize=0mil|Usage=FLASHONLY|Rotation=0.000|XOffset=0mil|YOffset=0mil|HoleType=Round|Shape=RoundedRectangle|*
%AMROUNDEDRECTD49*
21,1,0.0444,0.0295,0,0,0.0*
21,1,0.0197,0.0542,0,0,0.0*
1,1,0.0247,0.0098,-0.0148*
1,1,0.0247,-0.0098,-0.0148*
1,1,0.0247,-0.0098,0.0148*
1,1,0.0247,0.0098,0.0148*
%
%ADD49ROUNDEDRECTD49*%
%ADD50R,0.0267X0.0483*%
G04:AMPARAMS|DCode=51|XSize=36.5mil|YSize=34.5mil|CornerRadius=9.9mil|HoleSize=0mil|Usage=FLASHONLY|Rotation=180.000|XOffset=0mil|YOffset=0mil|HoleType=Round|Shape=RoundedRectangle|*
%AMROUNDEDRECTD51*
21,1,0.0365,0.0148,0,0,180.0*
21,1,0.0167,0.0345,0,0,180.0*
1,1,0.0198,-0.0084,0.0074*
1,1,0.0198,0.0084,0.0074*
1,1,0.0198,0.0084,-0.0074*
1,1,0.0198,-0.0084,-0.0074*
%
%ADD51ROUNDEDRECTD51*%
G04:AMPARAMS|DCode=52|XSize=44.4mil|YSize=54.2mil|CornerRadius=12.3mil|HoleSize=0mil|Usage=FLASHONLY|Rotation=315.000|XOffset=0mil|YOffset=0mil|HoleType=Round|Shape=RoundedRectangle|*
%AMROUNDEDRECTD52*
21,1,0.0444,0.0295,0,0,315.0*
21,1,0.0197,0.0542,0,0,315.0*
1,1,0.0247,-0.0035,-0.0174*
1,1,0.0247,-0.0174,-0.0035*
1,1,0.0247,0.0035,0.0174*
1,1,0.0247,0.0174,0.0035*
%
%ADD52ROUNDEDRECTD52*%
G04:AMPARAMS|DCode=53|XSize=36.5mil|YSize=34.5mil|CornerRadius=9.9mil|HoleSize=0mil|Usage=FLASHONLY|Rotation=315.000|XOffset=0mil|YOffset=0mil|HoleType=Round|Shape=RoundedRectangle|*
%AMROUNDEDRECTD53*
21,1,0.0365,0.0148,0,0,315.0*
21,1,0.0167,0.0345,0,0,315.0*
1,1,0.0198,0.0007,-0.0111*
1,1,0.0198,-0.0111,0.0007*
1,1,0.0198,-0.0007,0.0111*
1,1,0.0198,0.0111,-0.0007*
%
%ADD53ROUNDEDRECTD53*%
G04:AMPARAMS|DCode=54|XSize=36.5mil|YSize=34.5mil|CornerRadius=9.9mil|HoleSize=0mil|Usage=FLASHONLY|Rotation=45.000|XOffset=0mil|YOffset=0mil|HoleType=Round|Shape=RoundedRectangle|*
%AMROUNDEDRECTD54*
21,1,0.0365,0.0148,0,0,45.0*
21,1,0.0167,0.0345,0,0,45.0*
1,1,0.0198,0.0111,0.0007*
1,1,0.0198,-0.0007,-0.0111*
1,1,0.0198,-0.0111,-0.0007*
1,1,0.0198,0.0007,0.0111*
%
%ADD54ROUNDEDRECTD54*%
G04:AMPARAMS|DCode=55|XSize=44.4mil|YSize=54.2mil|CornerRadius=12.3mil|HoleSize=0mil|Usage=FLASHONLY|Rotation=45.000|XOffset=0mil|YOffset=0mil|HoleType=Round|Shape=RoundedRectangle|*
%AMROUNDEDRECTD55*
21,1,0.0444,0.0295,0,0,45.0*
21,1,0.0197,0.0542,0,0,45.0*
1,1,0.0247,0.0174,-0.0035*
1,1,0.0247,0.0035,-0.0174*
1,1,0.0247,-0.0174,0.0035*
1,1,0.0247,-0.0035,0.0174*
%
%ADD55ROUNDEDRECTD55*%
G04:AMPARAMS|DCode=56|XSize=32.6mil|YSize=108.5mil|CornerRadius=0mil|HoleSize=0mil|Usage=FLASHONLY|Rotation=45.000|XOffset=0mil|YOffset=0mil|HoleType=Round|Shape=Round|*
%AMOVALD56*
21,1,0.0760,0.0326,0.0000,0.0000,135.0*
1,1,0.0326,0.0269,-0.0269*
1,1,0.0326,-0.0269,0.0269*
%
%ADD56OVALD56*%

G04:AMPARAMS|DCode=57|XSize=32.6mil|YSize=83.7mil|CornerRadius=0mil|HoleSize=0mil|Usage=FLASHONLY|Rotation=135.000|XOffset=0mil|YOffset=0mil|HoleType=Round|Shape=Round|*
%AMOVALD57*
21,1,0.0512,0.0326,0.0000,0.0000,225.0*
1,1,0.0326,0.0181,0.0181*
1,1,0.0326,-0.0181,-0.0181*
%
%ADD57OVALD57*%

G04:AMPARAMS|DCode=58|XSize=32.6mil|YSize=83.7mil|CornerRadius=0mil|HoleSize=0mil|Usage=FLASHONLY|Rotation=45.000|XOffset=0mil|YOffset=0mil|HoleType=Round|Shape=Round|*
%AMOVALD58*
21,1,0.0512,0.0326,0.0000,0.0000,135.0*
1,1,0.0326,0.0181,-0.0181*
1,1,0.0326,-0.0181,0.0181*
%
%ADD58OVALD58*%

G04:AMPARAMS|DCode=59|XSize=32.6mil|YSize=108.5mil|CornerRadius=0mil|HoleSize=0mil|Usage=FLASHONLY|Rotation=135.000|XOffset=0mil|YOffset=0mil|HoleType=Round|Shape=Round|*
%AMOVALD59*
21,1,0.0760,0.0326,0.0000,0.0000,225.0*
1,1,0.0326,0.0269,0.0269*
1,1,0.0326,-0.0269,-0.0269*
%
%ADD59OVALD59*%

%ADD60C,0.0641*%
%ADD61R,0.0641X0.0641*%
D35*
X25Y8475D02*
D03*
D36*
X-8475Y1375D02*
D03*
D37*
X-1350Y-8475D02*
D03*
D38*
X8500Y0D02*
D03*
D39*
X-5741Y-16750D02*
D03*
X-4559D02*
D03*
D40*
X87Y-14850D02*
D03*
Y-15350D02*
D03*
Y-15850D02*
D03*
Y-16350D02*
D03*
X2213Y-14850D02*
D03*
Y-15350D02*
D03*
Y-15850D02*
D03*
Y-16350D02*
D03*
X-5913Y-11100D02*
D03*
Y-11600D02*
D03*
Y-12100D02*
D03*
Y-12600D02*
D03*
X-3787Y-11100D02*
D03*
Y-11600D02*
D03*
Y-12100D02*
D03*
Y-12600D02*
D03*
D41*
X858Y-11179D02*
D03*
X358D02*
D03*
X-142D02*
D03*
X-642D02*
D03*
X858Y-13305D02*
D03*
X358D02*
D03*
X-142D02*
D03*
X-642D02*
D03*
X8508Y-11229D02*
D03*
X8008D02*
D03*
X7508D02*
D03*
X7008D02*
D03*
X8508Y-13355D02*
D03*
X8008D02*
D03*
X7508D02*
D03*
X7008D02*
D03*
D42*
X6250Y-13265D02*
D03*
Y-12635D02*
D03*
X3050Y-16115D02*
D03*
Y-15485D02*
D03*
X-700Y-15215D02*
D03*
Y-14585D02*
D03*
X3958Y-11177D02*
D03*
Y-11807D02*
D03*
X-6750Y-11085D02*
D03*
Y-11715D02*
D03*
X-3000Y-11735D02*
D03*
Y-12365D02*
D03*
D43*
X7435Y-14200D02*
D03*
X8065D02*
D03*
D44*
X-750Y-15856D02*
D03*
Y-16644D02*
D03*
X3050Y-14794D02*
D03*
Y-14006D02*
D03*
X3958Y-13386D02*
D03*
Y-12598D02*
D03*
X1608Y-12636D02*
D03*
Y-11848D02*
D03*
X-1392Y-12629D02*
D03*
Y-11842D02*
D03*
X9250Y-12744D02*
D03*
Y-11956D02*
D03*
X6300Y-11894D02*
D03*
Y-11106D02*
D03*
X-6800Y-14006D02*
D03*
Y-14794D02*
D03*
X-6000Y-14006D02*
D03*
Y-14794D02*
D03*
X-5200Y-14000D02*
D03*
Y-14787D02*
D03*
X-4400Y-14006D02*
D03*
Y-14794D02*
D03*
X-9200Y-14006D02*
D03*
Y-14794D02*
D03*
X-8400Y-14006D02*
D03*
Y-14794D02*
D03*
X-7600Y-14013D02*
D03*
Y-14800D02*
D03*
D45*
X5108Y-12242D02*
D03*
X2790Y-12212D02*
D03*
D46*
X4724Y-11376D02*
D03*
X4980D02*
D03*
X5236D02*
D03*
X5492D02*
D03*
Y-13108D02*
D03*
X5236D02*
D03*
X4980D02*
D03*
X4724D02*
D03*
X2406Y-11346D02*
D03*
X2662D02*
D03*
X2918D02*
D03*
X3173D02*
D03*
Y-13079D02*
D03*
X2918D02*
D03*
X2662D02*
D03*
X2406D02*
D03*
D47*
X-1450Y-14155D02*
D03*
Y-14745D02*
D03*
X-2150D02*
D03*
Y-14155D02*
D03*
X4750Y-295D02*
D03*
Y295D02*
D03*
X-4800D02*
D03*
Y-295D02*
D03*
D48*
X-3624Y-14803D02*
D03*
X-2876D02*
D03*
X-3250Y-13897D02*
D03*
D49*
X-4406Y-10350D02*
D03*
X-5194D02*
D03*
X-4756Y-13300D02*
D03*
X-5544D02*
D03*
D50*
X-7626Y-12409D02*
D03*
X-8374Y-12429D02*
D03*
X-8000Y-13299D02*
D03*
D51*
X-8295Y-11700D02*
D03*
X-7705D02*
D03*
X-8295Y-11050D02*
D03*
X-7705D02*
D03*
X295Y-4750D02*
D03*
X-295D02*
D03*
Y4724D02*
D03*
X295D02*
D03*
D52*
X-3322Y-2978D02*
D03*
X-3878Y-2422D02*
D03*
X3928Y3422D02*
D03*
X3372Y3978D02*
D03*
X3272Y2928D02*
D03*
X3828Y2372D02*
D03*
X-4028Y-3422D02*
D03*
X-3472Y-3978D02*
D03*
D53*
X-1041Y291D02*
D03*
X-1459Y709D02*
D03*
X941Y-291D02*
D03*
X1359Y-709D02*
D03*
X-341Y991D02*
D03*
X-759Y1409D02*
D03*
X3941Y4459D02*
D03*
X4359Y4041D02*
D03*
X-4091Y-4409D02*
D03*
X-4509Y-3991D02*
D03*
X241Y-991D02*
D03*
X659Y-1409D02*
D03*
X2391Y3859D02*
D03*
X2809Y3441D02*
D03*
X-2441Y-3859D02*
D03*
X-2859Y-3441D02*
D03*
D54*
X-291Y-1041D02*
D03*
X-709Y-1459D02*
D03*
X241Y991D02*
D03*
X659Y1409D02*
D03*
X-4459Y3991D02*
D03*
X-4041Y4409D02*
D03*
X991Y241D02*
D03*
X1409Y659D02*
D03*
X4359Y-4041D02*
D03*
X3941Y-4459D02*
D03*
X-1041Y-291D02*
D03*
X-1459Y-709D02*
D03*
X-3859Y2391D02*
D03*
X-3441Y2809D02*
D03*
X3391Y-2859D02*
D03*
X3809Y-2441D02*
D03*
D55*
X-3422Y3928D02*
D03*
X-3978Y3372D02*
D03*
X3422Y-3978D02*
D03*
X3978Y-3422D02*
D03*
X2928Y-3322D02*
D03*
X2372Y-3878D02*
D03*
X-2978Y3272D02*
D03*
X-2422Y3828D02*
D03*
D56*
X1511Y-1561D02*
D03*
X-1574Y1524D02*
D03*
D57*
X2182Y-1035D02*
D03*
X2536Y-1388D02*
D03*
X2889Y-1742D02*
D03*
X1692Y-2939D02*
D03*
X1338Y-2586D02*
D03*
X985Y-2232D02*
D03*
X2452Y2465D02*
D03*
X-2245Y998D02*
D03*
X-2599Y1351D02*
D03*
X-2952Y1705D02*
D03*
X-1755Y2902D02*
D03*
X-1401Y2549D02*
D03*
X-1048Y2195D02*
D03*
X-2515Y-2502D02*
D03*
D58*
X2452D02*
D03*
X985Y2195D02*
D03*
X1338Y2549D02*
D03*
X1692Y2902D02*
D03*
X2889Y1705D02*
D03*
X2536Y1351D02*
D03*
X2182Y998D02*
D03*
X-2515Y2465D02*
D03*
X-1048Y-2232D02*
D03*
X-1401Y-2586D02*
D03*
X-1755Y-2939D02*
D03*
X-2952Y-1742D02*
D03*
X-2599Y-1388D02*
D03*
X-2245Y-1035D02*
D03*
D59*
X1511Y1524D02*
D03*
X-1574Y-1561D02*
D03*
D60*
X9224Y-15854D02*
D03*
Y-16854D02*
D03*
X8224Y-15854D02*
D03*
Y-16854D02*
D03*
X7224Y-15854D02*
D03*
Y-16854D02*
D03*
X6224Y-15854D02*
D03*
Y-16854D02*
D03*
X5224Y-15854D02*
D03*
D61*
Y-16854D02*
D03*
M02*
