G04*
G04 #@! TF.GenerationSoftware,Altium Limited,Altium Designer,22.9.1 (49)*
G04*
G04 Layer_Physical_Order=2*
G04 Layer_Color=36540*
%FSLAX24Y24*%
%MOIN*%
G70*
G04*
G04 #@! TF.SameCoordinates,552243BB-0F40-405C-A021-40A65FA5EEAB*
G04*
G04*
G04 #@! TF.FilePolarity,Positive*
G04*
G01*
G75*
%ADD10C,0.0098*%
%ADD62C,0.0197*%
%ADD63C,0.0394*%
%ADD66C,0.0591*%
%ADD68C,0.0354*%
G36*
X9690Y-17564D02*
X1969D01*
X1910Y-17575D01*
X1860Y-17608D01*
X1827Y-17658D01*
X1819Y-17700D01*
X-1819D01*
X-1827Y-17658D01*
X-1860Y-17608D01*
X-1910Y-17575D01*
X-1969Y-17564D01*
X-9690D01*
X-9690Y-11062D01*
X-9641Y-11047D01*
X-9640Y-11047D01*
X-9177Y-11509D01*
Y-11536D01*
X-9158Y-11607D01*
X-9122Y-11670D01*
X-9070Y-11722D01*
X-9007Y-11758D01*
X-8936Y-11777D01*
X-8864D01*
X-8793Y-11758D01*
X-8730Y-11722D01*
X-8678Y-11670D01*
X-8642Y-11607D01*
X-8623Y-11536D01*
Y-11464D01*
X-8642Y-11393D01*
X-8678Y-11330D01*
X-8730Y-11278D01*
X-8735Y-11275D01*
Y-11225D01*
X-8730Y-11222D01*
X-8678Y-11170D01*
X-8642Y-11107D01*
X-8623Y-11036D01*
Y-10964D01*
X-8642Y-10893D01*
X-8678Y-10830D01*
X-8730Y-10778D01*
X-8793Y-10742D01*
X-8864Y-10723D01*
X-8891D01*
X-9048Y-10566D01*
Y-10250D01*
X-4124D01*
X-4099Y-10293D01*
X-4103Y-10301D01*
X-4122Y-10371D01*
Y-10444D01*
X-4103Y-10515D01*
X-4066Y-10578D01*
X-4015Y-10629D01*
X-3952Y-10666D01*
X-3881Y-10685D01*
X-3808D01*
X-3738Y-10666D01*
X-3674Y-10629D01*
X-3623Y-10578D01*
X-3586Y-10515D01*
X-3568Y-10444D01*
Y-10371D01*
X-3586Y-10301D01*
X-3591Y-10293D01*
X-3566Y-10250D01*
X7377D01*
X7688Y-10562D01*
X7750Y-10609D01*
X7823Y-10639D01*
X7900Y-10649D01*
X8840D01*
X8857Y-10666D01*
X8947Y-10718D01*
X9048Y-10745D01*
X9152D01*
X9253Y-10718D01*
X9343Y-10666D01*
X9416Y-10593D01*
X9468Y-10503D01*
X9495Y-10402D01*
Y-10298D01*
X9493Y-10290D01*
X9523Y-10250D01*
X9690D01*
X9690Y-17564D01*
D02*
G37*
G36*
X3842Y1458D02*
X2492Y108D01*
X2459Y59D01*
X2447Y0D01*
X2459Y-59D01*
X2492Y-108D01*
X3842Y-1458D01*
X1458Y-3842D01*
X108Y-2492D01*
X59Y-2459D01*
X0Y-2447D01*
X-59Y-2459D01*
X-108Y-2492D01*
X-1458Y-3842D01*
X-3842Y-1458D01*
X-2492Y-108D01*
X-2459Y-59D01*
X-2447Y0D01*
X-2459Y59D01*
X-2492Y108D01*
X-3842Y1458D01*
X-1458Y3842D01*
X-108Y2492D01*
X-59Y2459D01*
X0Y2447D01*
X59Y2459D01*
X108Y2492D01*
X1458Y3842D01*
X3842Y1458D01*
D02*
G37*
%LPC*%
G36*
X6686Y-10815D02*
X6613D01*
X6543Y-10833D01*
X6480Y-10870D01*
X6428Y-10921D01*
X6392Y-10985D01*
X6373Y-11055D01*
Y-11128D01*
X6392Y-11199D01*
X6428Y-11262D01*
X6480Y-11313D01*
X6543Y-11350D01*
X6613Y-11369D01*
X6686D01*
X6757Y-11350D01*
X6820Y-11313D01*
X6872Y-11262D01*
X6908Y-11199D01*
X6927Y-11128D01*
Y-11055D01*
X6908Y-10985D01*
X6872Y-10921D01*
X6820Y-10870D01*
X6757Y-10833D01*
X6686Y-10815D01*
D02*
G37*
G36*
X-1240Y-11023D02*
X-1313D01*
X-1384Y-11042D01*
X-1447Y-11078D01*
X-1498Y-11130D01*
X-1535Y-11193D01*
X-1554Y-11264D01*
Y-11336D01*
X-1535Y-11407D01*
X-1498Y-11470D01*
X-1447Y-11522D01*
X-1384Y-11558D01*
X-1313Y-11577D01*
X-1240D01*
X-1170Y-11558D01*
X-1106Y-11522D01*
X-1055Y-11470D01*
X-1018Y-11407D01*
X-999Y-11336D01*
Y-11264D01*
X-1018Y-11193D01*
X-1055Y-11130D01*
X-1106Y-11078D01*
X-1170Y-11042D01*
X-1240Y-11023D01*
D02*
G37*
G36*
X7386Y-11623D02*
X7314D01*
X7243Y-11642D01*
X7180Y-11678D01*
X7128Y-11730D01*
X7092Y-11793D01*
X7073Y-11864D01*
Y-11936D01*
X7092Y-12007D01*
X7128Y-12070D01*
X7180Y-12122D01*
X7243Y-12158D01*
X7314Y-12177D01*
X7386D01*
X7457Y-12158D01*
X7520Y-12122D01*
X7572Y-12070D01*
X7608Y-12007D01*
X7627Y-11936D01*
Y-11864D01*
X7608Y-11793D01*
X7572Y-11730D01*
X7520Y-11678D01*
X7457Y-11642D01*
X7386Y-11623D01*
D02*
G37*
G36*
X3986Y-11973D02*
X3914D01*
X3843Y-11992D01*
X3780Y-12028D01*
X3728Y-12080D01*
X3692Y-12143D01*
X3673Y-12214D01*
Y-12286D01*
X3692Y-12357D01*
X3728Y-12420D01*
X3780Y-12472D01*
X3843Y-12508D01*
X3914Y-12527D01*
X3986D01*
X4057Y-12508D01*
X4120Y-12472D01*
X4172Y-12420D01*
X4208Y-12357D01*
X4227Y-12286D01*
Y-12214D01*
X4208Y-12143D01*
X4172Y-12080D01*
X4120Y-12028D01*
X4057Y-11992D01*
X3986Y-11973D01*
D02*
G37*
G36*
X-520Y-11731D02*
X-593D01*
X-664Y-11750D01*
X-727Y-11786D01*
X-779Y-11838D01*
X-815Y-11901D01*
X-834Y-11972D01*
Y-12045D01*
X-815Y-12115D01*
X-779Y-12178D01*
X-733Y-12225D01*
X-730Y-12252D01*
X-734Y-12284D01*
X-770Y-12304D01*
X-822Y-12356D01*
X-858Y-12419D01*
X-877Y-12489D01*
Y-12562D01*
X-858Y-12633D01*
X-822Y-12696D01*
X-770Y-12748D01*
X-707Y-12784D01*
X-636Y-12803D01*
X-564D01*
X-493Y-12784D01*
X-430Y-12748D01*
X-378Y-12696D01*
X-342Y-12633D01*
X-323Y-12562D01*
Y-12489D01*
X-342Y-12419D01*
X-378Y-12356D01*
X-424Y-12310D01*
X-427Y-12282D01*
X-423Y-12251D01*
X-387Y-12230D01*
X-335Y-12178D01*
X-299Y-12115D01*
X-280Y-12045D01*
Y-11972D01*
X-299Y-11901D01*
X-335Y-11838D01*
X-387Y-11786D01*
X-450Y-11750D01*
X-520Y-11731D01*
D02*
G37*
G36*
X-3414Y-12773D02*
X-3486D01*
X-3557Y-12792D01*
X-3620Y-12828D01*
X-3672Y-12880D01*
X-3708Y-12943D01*
X-3727Y-13014D01*
Y-13086D01*
X-3708Y-13157D01*
X-3672Y-13220D01*
X-3620Y-13272D01*
X-3557Y-13308D01*
X-3486Y-13327D01*
X-3414D01*
X-3343Y-13308D01*
X-3280Y-13272D01*
X-3228Y-13220D01*
X-3192Y-13157D01*
X-3173Y-13086D01*
Y-13014D01*
X-3192Y-12943D01*
X-3228Y-12880D01*
X-3280Y-12828D01*
X-3343Y-12792D01*
X-3414Y-12773D01*
D02*
G37*
G36*
X1566Y-12894D02*
X1493D01*
X1422Y-12913D01*
X1359Y-12949D01*
X1307Y-13001D01*
X1271Y-13064D01*
X1252Y-13134D01*
Y-13207D01*
X1271Y-13278D01*
X1307Y-13341D01*
X1359Y-13393D01*
X1422Y-13429D01*
X1493Y-13448D01*
X1566D01*
X1636Y-13429D01*
X1699Y-13393D01*
X1751Y-13341D01*
X1787Y-13278D01*
X1806Y-13207D01*
Y-13134D01*
X1787Y-13064D01*
X1751Y-13001D01*
X1699Y-12949D01*
X1636Y-12913D01*
X1566Y-12894D01*
D02*
G37*
G36*
X9227Y-13018D02*
X9154D01*
X9083Y-13037D01*
X9020Y-13074D01*
X8969Y-13125D01*
X8932Y-13188D01*
X8913Y-13259D01*
Y-13332D01*
X8932Y-13402D01*
X8969Y-13466D01*
X9020Y-13517D01*
X9083Y-13554D01*
X9154Y-13573D01*
X9227D01*
X9297Y-13554D01*
X9361Y-13517D01*
X9412Y-13466D01*
X9449Y-13402D01*
X9468Y-13332D01*
Y-13259D01*
X9449Y-13188D01*
X9412Y-13125D01*
X9361Y-13074D01*
X9297Y-13037D01*
X9227Y-13018D01*
D02*
G37*
G36*
X-6014Y-13023D02*
X-6086D01*
X-6157Y-13042D01*
X-6220Y-13078D01*
X-6272Y-13130D01*
X-6308Y-13193D01*
X-6327Y-13264D01*
Y-13336D01*
X-6308Y-13407D01*
X-6272Y-13470D01*
X-6220Y-13522D01*
X-6157Y-13558D01*
X-6086Y-13577D01*
X-6014D01*
X-5943Y-13558D01*
X-5880Y-13522D01*
X-5828Y-13470D01*
X-5792Y-13407D01*
X-5773Y-13336D01*
Y-13264D01*
X-5792Y-13193D01*
X-5828Y-13130D01*
X-5880Y-13078D01*
X-5943Y-13042D01*
X-6014Y-13023D01*
D02*
G37*
G36*
X-1464Y-13323D02*
X-1536D01*
X-1607Y-13342D01*
X-1670Y-13378D01*
X-1722Y-13430D01*
X-1758Y-13493D01*
X-1777Y-13564D01*
Y-13636D01*
X-1758Y-13707D01*
X-1722Y-13770D01*
X-1670Y-13822D01*
X-1607Y-13858D01*
X-1536Y-13877D01*
X-1464D01*
X-1393Y-13858D01*
X-1330Y-13822D01*
X-1278Y-13770D01*
X-1242Y-13707D01*
X-1223Y-13636D01*
Y-13564D01*
X-1242Y-13493D01*
X-1278Y-13430D01*
X-1330Y-13378D01*
X-1393Y-13342D01*
X-1464Y-13323D01*
D02*
G37*
G36*
X-2114D02*
X-2186D01*
X-2257Y-13342D01*
X-2320Y-13378D01*
X-2372Y-13430D01*
X-2408Y-13493D01*
X-2427Y-13564D01*
Y-13636D01*
X-2408Y-13707D01*
X-2372Y-13770D01*
X-2320Y-13822D01*
X-2257Y-13858D01*
X-2186Y-13877D01*
X-2114D01*
X-2043Y-13858D01*
X-1980Y-13822D01*
X-1928Y-13770D01*
X-1892Y-13707D01*
X-1873Y-13636D01*
Y-13564D01*
X-1892Y-13493D01*
X-1928Y-13430D01*
X-1980Y-13378D01*
X-2043Y-13342D01*
X-2114Y-13323D01*
D02*
G37*
G36*
X386Y-13573D02*
X314D01*
X243Y-13592D01*
X180Y-13628D01*
X128Y-13680D01*
X92Y-13743D01*
X73Y-13814D01*
Y-13886D01*
X92Y-13957D01*
X128Y-14020D01*
X180Y-14072D01*
X243Y-14108D01*
X314Y-14127D01*
X386D01*
X457Y-14108D01*
X520Y-14072D01*
X572Y-14020D01*
X608Y-13957D01*
X627Y-13886D01*
Y-13814D01*
X608Y-13743D01*
X572Y-13680D01*
X520Y-13628D01*
X457Y-13592D01*
X386Y-13573D01*
D02*
G37*
G36*
X7430Y-14517D02*
X7357D01*
X7287Y-14535D01*
X7224Y-14572D01*
X7172Y-14624D01*
X7135Y-14687D01*
X7117Y-14757D01*
Y-14830D01*
X7135Y-14901D01*
X7172Y-14964D01*
X7224Y-15015D01*
X7287Y-15052D01*
X7357Y-15071D01*
X7430D01*
X7501Y-15052D01*
X7564Y-15015D01*
X7615Y-14964D01*
X7652Y-14901D01*
X7671Y-14830D01*
Y-14757D01*
X7652Y-14687D01*
X7615Y-14624D01*
X7564Y-14572D01*
X7501Y-14535D01*
X7430Y-14517D01*
D02*
G37*
G36*
X3630D02*
X3557D01*
X3487Y-14535D01*
X3424Y-14572D01*
X3372Y-14624D01*
X3335Y-14687D01*
X3317Y-14757D01*
Y-14830D01*
X3335Y-14901D01*
X3372Y-14964D01*
X3424Y-15015D01*
X3487Y-15052D01*
X3557Y-15071D01*
X3630D01*
X3701Y-15052D01*
X3764Y-15015D01*
X3815Y-14964D01*
X3852Y-14901D01*
X3871Y-14830D01*
Y-14757D01*
X3852Y-14687D01*
X3815Y-14624D01*
X3764Y-14572D01*
X3701Y-14535D01*
X3630Y-14517D01*
D02*
G37*
G36*
X-6764Y-15123D02*
X-6836D01*
X-6907Y-15142D01*
X-6970Y-15178D01*
X-7022Y-15230D01*
X-7058Y-15293D01*
X-7077Y-15364D01*
Y-15436D01*
X-7058Y-15507D01*
X-7022Y-15570D01*
X-6970Y-15622D01*
X-6907Y-15658D01*
X-6836Y-15677D01*
X-6764D01*
X-6693Y-15658D01*
X-6630Y-15622D01*
X-6578Y-15570D01*
X-6542Y-15507D01*
X-6523Y-15436D01*
Y-15364D01*
X-6542Y-15293D01*
X-6578Y-15230D01*
X-6630Y-15178D01*
X-6693Y-15142D01*
X-6764Y-15123D01*
D02*
G37*
G36*
X711Y-15598D02*
X639D01*
X568Y-15617D01*
X505Y-15653D01*
X453Y-15705D01*
X417Y-15768D01*
X398Y-15839D01*
Y-15911D01*
X417Y-15982D01*
X453Y-16045D01*
X505Y-16097D01*
X568Y-16133D01*
X639Y-16152D01*
X711D01*
X782Y-16133D01*
X845Y-16097D01*
X897Y-16045D01*
X933Y-15982D01*
X952Y-15911D01*
Y-15839D01*
X933Y-15768D01*
X897Y-15705D01*
X845Y-15653D01*
X782Y-15617D01*
X711Y-15598D01*
D02*
G37*
G36*
X9276Y-15459D02*
X9172D01*
X9072Y-15486D01*
X8982Y-15538D01*
X8908Y-15612D01*
X8856Y-15702D01*
X8829Y-15802D01*
Y-15906D01*
X8856Y-16007D01*
X8908Y-16097D01*
X8982Y-16171D01*
X9072Y-16223D01*
X9172Y-16250D01*
X9276D01*
X9377Y-16223D01*
X9467Y-16171D01*
X9541Y-16097D01*
X9593Y-16007D01*
X9620Y-15906D01*
Y-15802D01*
X9593Y-15702D01*
X9541Y-15612D01*
X9467Y-15538D01*
X9377Y-15486D01*
X9276Y-15459D01*
D02*
G37*
G36*
X7276D02*
X7172D01*
X7072Y-15486D01*
X6982Y-15538D01*
X6908Y-15612D01*
X6856Y-15702D01*
X6829Y-15802D01*
Y-15906D01*
X6856Y-16007D01*
X6908Y-16097D01*
X6982Y-16171D01*
X7072Y-16223D01*
X7172Y-16250D01*
X7276D01*
X7377Y-16223D01*
X7467Y-16171D01*
X7541Y-16097D01*
X7593Y-16007D01*
X7620Y-15906D01*
Y-15802D01*
X7593Y-15702D01*
X7541Y-15612D01*
X7467Y-15538D01*
X7377Y-15486D01*
X7276Y-15459D01*
D02*
G37*
G36*
X6276D02*
X6172D01*
X6072Y-15486D01*
X5982Y-15538D01*
X5908Y-15612D01*
X5856Y-15702D01*
X5829Y-15802D01*
Y-15906D01*
X5856Y-16007D01*
X5908Y-16097D01*
X5982Y-16171D01*
X6072Y-16223D01*
X6172Y-16250D01*
X6276D01*
X6377Y-16223D01*
X6467Y-16171D01*
X6541Y-16097D01*
X6593Y-16007D01*
X6620Y-15906D01*
Y-15802D01*
X6593Y-15702D01*
X6541Y-15612D01*
X6467Y-15538D01*
X6377Y-15486D01*
X6276Y-15459D01*
D02*
G37*
G36*
X5276D02*
X5172D01*
X5072Y-15486D01*
X4982Y-15538D01*
X4908Y-15612D01*
X4856Y-15702D01*
X4829Y-15802D01*
Y-15906D01*
X4856Y-16007D01*
X4908Y-16097D01*
X4982Y-16171D01*
X5072Y-16223D01*
X5172Y-16250D01*
X5276D01*
X5377Y-16223D01*
X5467Y-16171D01*
X5541Y-16097D01*
X5593Y-16007D01*
X5620Y-15906D01*
Y-15802D01*
X5593Y-15702D01*
X5541Y-15612D01*
X5467Y-15538D01*
X5377Y-15486D01*
X5276Y-15459D01*
D02*
G37*
G36*
X1536Y-15973D02*
X1464D01*
X1393Y-15992D01*
X1330Y-16028D01*
X1278Y-16080D01*
X1242Y-16143D01*
X1223Y-16214D01*
Y-16286D01*
X1242Y-16357D01*
X1278Y-16420D01*
X1330Y-16472D01*
X1393Y-16508D01*
X1464Y-16527D01*
X1536D01*
X1607Y-16508D01*
X1670Y-16472D01*
X1722Y-16420D01*
X1758Y-16357D01*
X1777Y-16286D01*
Y-16214D01*
X1758Y-16143D01*
X1722Y-16080D01*
X1670Y-16028D01*
X1607Y-15992D01*
X1536Y-15973D01*
D02*
G37*
G36*
X-129Y-16423D02*
X-202D01*
X-272Y-16442D01*
X-336Y-16478D01*
X-387Y-16530D01*
X-424Y-16593D01*
X-442Y-16664D01*
Y-16736D01*
X-424Y-16807D01*
X-387Y-16870D01*
X-336Y-16922D01*
X-272Y-16958D01*
X-202Y-16977D01*
X-129D01*
X-58Y-16958D01*
X5Y-16922D01*
X56Y-16870D01*
X93Y-16807D01*
X112Y-16736D01*
Y-16664D01*
X93Y-16593D01*
X56Y-16530D01*
X5Y-16478D01*
X-58Y-16442D01*
X-129Y-16423D01*
D02*
G37*
G36*
X9276Y-16459D02*
X9172D01*
X9072Y-16486D01*
X8982Y-16538D01*
X8908Y-16612D01*
X8856Y-16702D01*
X8829Y-16802D01*
Y-16906D01*
X8856Y-17007D01*
X8908Y-17097D01*
X8982Y-17171D01*
X9072Y-17223D01*
X9172Y-17250D01*
X9276D01*
X9377Y-17223D01*
X9467Y-17171D01*
X9541Y-17097D01*
X9593Y-17007D01*
X9620Y-16906D01*
Y-16802D01*
X9593Y-16702D01*
X9541Y-16612D01*
X9467Y-16538D01*
X9377Y-16486D01*
X9276Y-16459D01*
D02*
G37*
G36*
X8276D02*
X8172D01*
X8072Y-16486D01*
X7982Y-16538D01*
X7908Y-16612D01*
X7856Y-16702D01*
X7829Y-16802D01*
Y-16906D01*
X7856Y-17007D01*
X7908Y-17097D01*
X7982Y-17171D01*
X8072Y-17223D01*
X8172Y-17250D01*
X8276D01*
X8377Y-17223D01*
X8467Y-17171D01*
X8541Y-17097D01*
X8593Y-17007D01*
X8620Y-16906D01*
Y-16802D01*
X8593Y-16702D01*
X8541Y-16612D01*
X8467Y-16538D01*
X8377Y-16486D01*
X8276Y-16459D01*
D02*
G37*
G36*
X7276D02*
X7172D01*
X7072Y-16486D01*
X6982Y-16538D01*
X6908Y-16612D01*
X6856Y-16702D01*
X6829Y-16802D01*
Y-16906D01*
X6856Y-17007D01*
X6908Y-17097D01*
X6982Y-17171D01*
X7072Y-17223D01*
X7172Y-17250D01*
X7276D01*
X7377Y-17223D01*
X7467Y-17171D01*
X7541Y-17097D01*
X7593Y-17007D01*
X7620Y-16906D01*
Y-16802D01*
X7593Y-16702D01*
X7541Y-16612D01*
X7467Y-16538D01*
X7377Y-16486D01*
X7276Y-16459D01*
D02*
G37*
G36*
X6276D02*
X6172D01*
X6072Y-16486D01*
X5982Y-16538D01*
X5908Y-16612D01*
X5856Y-16702D01*
X5829Y-16802D01*
Y-16906D01*
X5856Y-17007D01*
X5908Y-17097D01*
X5982Y-17171D01*
X6072Y-17223D01*
X6172Y-17250D01*
X6276D01*
X6377Y-17223D01*
X6467Y-17171D01*
X6541Y-17097D01*
X6593Y-17007D01*
X6620Y-16906D01*
Y-16802D01*
X6593Y-16702D01*
X6541Y-16612D01*
X6467Y-16538D01*
X6377Y-16486D01*
X6276Y-16459D01*
D02*
G37*
G36*
X5620D02*
X4829D01*
Y-17250D01*
X5620D01*
Y-16459D01*
D02*
G37*
G36*
X1028Y1268D02*
X955D01*
X884Y1249D01*
X821Y1213D01*
X769Y1161D01*
X733Y1098D01*
X714Y1027D01*
Y958D01*
X712Y953D01*
X672Y918D01*
X636Y927D01*
X564D01*
X493Y908D01*
X430Y872D01*
X378Y820D01*
X342Y757D01*
X323Y686D01*
Y614D01*
X342Y543D01*
X378Y480D01*
X430Y428D01*
X493Y392D01*
X564Y373D01*
X636D01*
X707Y392D01*
X770Y428D01*
X822Y480D01*
X858Y543D01*
X877Y614D01*
Y683D01*
X879Y688D01*
X919Y723D01*
X955Y714D01*
X1028D01*
X1098Y732D01*
X1161Y769D01*
X1213Y821D01*
X1249Y884D01*
X1268Y954D01*
Y1027D01*
X1249Y1098D01*
X1213Y1161D01*
X1161Y1213D01*
X1098Y1249D01*
X1028Y1268D01*
D02*
G37*
G36*
X-1011Y1275D02*
X-1084D01*
X-1154Y1256D01*
X-1218Y1219D01*
X-1269Y1168D01*
X-1306Y1104D01*
X-1325Y1034D01*
Y961D01*
X-1306Y890D01*
X-1269Y827D01*
X-1218Y776D01*
X-1154Y739D01*
X-1084Y720D01*
X-1011D01*
X-967Y732D01*
X-926Y692D01*
X-927Y686D01*
Y614D01*
X-908Y543D01*
X-872Y480D01*
X-820Y428D01*
X-757Y392D01*
X-686Y373D01*
X-614D01*
X-543Y392D01*
X-480Y428D01*
X-428Y480D01*
X-392Y543D01*
X-373Y614D01*
Y686D01*
X-392Y757D01*
X-428Y820D01*
X-480Y872D01*
X-543Y908D01*
X-614Y927D01*
X-686D01*
X-731Y915D01*
X-772Y955D01*
X-770Y961D01*
Y1034D01*
X-789Y1104D01*
X-826Y1168D01*
X-877Y1219D01*
X-940Y1256D01*
X-1011Y1275D01*
D02*
G37*
G36*
X-614Y-373D02*
X-686D01*
X-757Y-392D01*
X-820Y-428D01*
X-872Y-480D01*
X-908Y-543D01*
X-927Y-614D01*
Y-686D01*
X-913Y-739D01*
X-915Y-744D01*
X-947Y-775D01*
X-952Y-778D01*
X-1004Y-764D01*
X-1077D01*
X-1148Y-783D01*
X-1211Y-819D01*
X-1262Y-871D01*
X-1299Y-934D01*
X-1318Y-1005D01*
Y-1078D01*
X-1299Y-1148D01*
X-1262Y-1211D01*
X-1211Y-1263D01*
X-1148Y-1299D01*
X-1077Y-1318D01*
X-1004D01*
X-934Y-1299D01*
X-871Y-1263D01*
X-819Y-1211D01*
X-782Y-1148D01*
X-764Y-1078D01*
Y-1005D01*
X-778Y-952D01*
X-775Y-948D01*
X-744Y-916D01*
X-739Y-913D01*
X-686Y-927D01*
X-614D01*
X-543Y-908D01*
X-480Y-872D01*
X-428Y-820D01*
X-392Y-757D01*
X-373Y-686D01*
Y-614D01*
X-392Y-543D01*
X-428Y-480D01*
X-480Y-428D01*
X-543Y-392D01*
X-614Y-373D01*
D02*
G37*
G36*
X636D02*
X564D01*
X493Y-392D01*
X430Y-428D01*
X378Y-480D01*
X342Y-543D01*
X323Y-614D01*
Y-686D01*
X342Y-757D01*
X378Y-820D01*
X430Y-872D01*
X493Y-908D01*
X564Y-927D01*
X636D01*
X677Y-916D01*
X718Y-957D01*
X707Y-998D01*
Y-1071D01*
X726Y-1141D01*
X763Y-1205D01*
X814Y-1256D01*
X877Y-1293D01*
X948Y-1312D01*
X1021D01*
X1091Y-1293D01*
X1155Y-1256D01*
X1206Y-1205D01*
X1243Y-1141D01*
X1262Y-1071D01*
Y-998D01*
X1243Y-927D01*
X1206Y-864D01*
X1155Y-813D01*
X1091Y-776D01*
X1021Y-757D01*
X948D01*
X907Y-768D01*
X866Y-727D01*
X877Y-686D01*
Y-614D01*
X858Y-543D01*
X822Y-480D01*
X770Y-428D01*
X707Y-392D01*
X636Y-373D01*
D02*
G37*
%LPD*%
D10*
X-3200Y-2850D02*
X-2550Y-2200D01*
X-3850Y-2850D02*
X-3200D01*
X-4600Y-2100D02*
X-3850Y-2850D01*
X-4600Y-2100D02*
Y-1200D01*
X4819Y2081D02*
Y2081D01*
Y1451D02*
Y2081D01*
X-7550Y150D02*
X-4750D01*
X-7500Y-450D02*
X-7150Y-100D01*
X-5000D01*
X-4600Y-1200D02*
Y0D01*
X-4750Y150D02*
X-4600Y0D01*
X5076D02*
X7500D01*
X-4900Y-900D02*
Y-200D01*
X-5000Y-100D02*
X-4900Y-200D01*
X2692Y2392D02*
X3559Y3259D01*
X3641D01*
X4819Y2081D01*
Y1451D02*
X4900Y1369D01*
Y1300D02*
Y1369D01*
X2379Y2729D02*
X3199Y3549D01*
X4451D01*
X3500Y-4500D02*
Y-3900D01*
X2228Y-2628D02*
X3500Y-3900D01*
X-4600Y-3500D02*
X-3200D01*
X-2030Y-2330D01*
X-3350Y3300D02*
Y4550D01*
Y3300D02*
X-2600Y2550D01*
X-1500Y4950D02*
Y5050D01*
X-4900D02*
X-1500D01*
X-900Y4850D02*
Y5350D01*
X-5350Y850D02*
Y5350D01*
X-900D01*
X-4900Y1450D02*
Y5050D01*
X-5350Y850D02*
X-4900D01*
X800Y4850D02*
Y5300D01*
X5250D01*
Y700D02*
Y5300D01*
X4850Y700D02*
X5250D01*
X5100Y-1059D02*
Y-950D01*
Y-1059D02*
X5126Y-1086D01*
Y-5316D02*
Y-1086D01*
X5042Y-5400D02*
X5126Y-5316D01*
X858Y-5400D02*
X5042D01*
X4850Y-1200D02*
X4950D01*
Y-5252D02*
Y-1200D01*
X1408Y-5252D02*
X4950D01*
X1350Y-5194D02*
X1408Y-5252D01*
X1350Y-5194D02*
Y-4900D01*
X800Y-5342D02*
X858Y-5400D01*
X800Y-5342D02*
Y-4900D01*
X4850Y-700D02*
X5100Y-950D01*
D62*
X-9250Y-10650D02*
Y-6850D01*
X-7500Y-5100D02*
Y-450D01*
X-9250Y-6850D02*
X-7500Y-5100D01*
X-9497Y-6747D02*
X-7800Y-5050D01*
Y-100D01*
X-9497Y-10903D02*
Y-6747D01*
X-9250Y-10650D02*
X-8900Y-11000D01*
X-9497Y-10903D02*
X-8900Y-11500D01*
X-7800Y-100D02*
X-7550Y150D01*
D63*
X7900Y-10350D02*
X9100D01*
X7100Y-9550D02*
X7900Y-10350D01*
X7100Y-9550D02*
Y-7850D01*
X7750Y-7200D01*
Y0D01*
X7500D02*
X7750D01*
D66*
X8224Y-15854D02*
D03*
X9100Y-10350D02*
D03*
D68*
X8823Y-17345D02*
D03*
X7878D02*
D03*
X6933Y-14038D02*
D03*
Y-17345D02*
D03*
X6461Y-14038D02*
D03*
X5989D02*
D03*
X5516D02*
D03*
X5044D02*
D03*
X4571Y-16872D02*
D03*
Y-17345D02*
D03*
X4099Y-16872D02*
D03*
Y-17345D02*
D03*
X3626Y-16872D02*
D03*
Y-17345D02*
D03*
X3154Y-16872D02*
D03*
Y-17345D02*
D03*
X2682Y-16872D02*
D03*
Y-17345D02*
D03*
X2209Y-16872D02*
D03*
Y-17345D02*
D03*
X1737D02*
D03*
X1264D02*
D03*
X792Y-12148D02*
D03*
Y-17345D02*
D03*
X319Y-16872D02*
D03*
Y-17345D02*
D03*
X-153D02*
D03*
X-626D02*
D03*
X-1098D02*
D03*
X-1570Y-10731D02*
D03*
Y-15455D02*
D03*
Y-16400D02*
D03*
Y-16872D02*
D03*
Y-17345D02*
D03*
X-2043Y-10731D02*
D03*
Y-15455D02*
D03*
Y-15928D02*
D03*
Y-16400D02*
D03*
Y-16872D02*
D03*
Y-17345D02*
D03*
X-2515Y-15455D02*
D03*
Y-15928D02*
D03*
Y-16400D02*
D03*
Y-16872D02*
D03*
Y-17345D02*
D03*
X-2988Y-15455D02*
D03*
Y-15928D02*
D03*
Y-16400D02*
D03*
Y-16872D02*
D03*
Y-17345D02*
D03*
X-3460Y-15455D02*
D03*
Y-15928D02*
D03*
Y-17345D02*
D03*
X-4405Y-11203D02*
D03*
Y-12620D02*
D03*
Y-15455D02*
D03*
Y-15928D02*
D03*
X-4878Y-11203D02*
D03*
Y-15455D02*
D03*
Y-15928D02*
D03*
X-5350Y-15455D02*
D03*
Y-15928D02*
D03*
X-5822Y-15455D02*
D03*
Y-15928D02*
D03*
X-6295Y-15455D02*
D03*
Y-15928D02*
D03*
X-6767Y-12620D02*
D03*
Y-13093D02*
D03*
X-7240Y-15928D02*
D03*
Y-16400D02*
D03*
Y-16872D02*
D03*
Y-17345D02*
D03*
X-7712Y-15455D02*
D03*
Y-15928D02*
D03*
Y-16400D02*
D03*
Y-16872D02*
D03*
Y-17345D02*
D03*
X-8185Y-15455D02*
D03*
Y-15928D02*
D03*
Y-16400D02*
D03*
Y-16872D02*
D03*
Y-17345D02*
D03*
X-8657Y-15455D02*
D03*
Y-15928D02*
D03*
Y-16400D02*
D03*
Y-16872D02*
D03*
Y-17345D02*
D03*
X-9130Y-12148D02*
D03*
Y-12620D02*
D03*
Y-13093D02*
D03*
Y-15455D02*
D03*
Y-15928D02*
D03*
Y-16400D02*
D03*
Y-16872D02*
D03*
Y-17345D02*
D03*
X-4250Y-13250D02*
D03*
X5108Y-12242D02*
D03*
X2790Y-12212D02*
D03*
X3600Y-14050D02*
D03*
X9250Y-11500D02*
D03*
X6828Y-11872D02*
D03*
X-1350Y-13100D02*
D03*
X1650Y-11300D02*
D03*
X-1344Y-15856D02*
D03*
X-5750Y-10350D02*
D03*
X-8900Y-11000D02*
D03*
Y-11500D02*
D03*
X5076Y0D02*
D03*
X-1500Y4950D02*
D03*
X-4900Y1450D02*
D03*
X-4600Y-1200D02*
D03*
X-4900Y-900D02*
D03*
Y850D02*
D03*
X-900Y4850D02*
D03*
X800D02*
D03*
X4900Y1300D02*
D03*
X4850Y-1200D02*
D03*
X1350Y-4900D02*
D03*
X800D02*
D03*
X4850Y-700D02*
D03*
Y700D02*
D03*
X-4600Y-3500D02*
D03*
X3500Y-4500D02*
D03*
X4451Y3549D02*
D03*
X-3350Y4550D02*
D03*
M02*
