G04*
G04 #@! TF.GenerationSoftware,Altium Limited,Altium Designer,22.9.1 (49)*
G04*
G04 Layer_Physical_Order=4*
G04 Layer_Color=16711680*
%FSLAX24Y24*%
%MOIN*%
G70*
G04*
G04 #@! TF.SameCoordinates,552243BB-0F40-405C-A021-40A65FA5EEAB*
G04*
G04*
G04 #@! TF.FilePolarity,Positive*
G04*
G01*
G75*
%ADD10C,0.0098*%
G04:AMPARAMS|DCode=22|XSize=31.5mil|YSize=29.5mil|CornerRadius=7.4mil|HoleSize=0mil|Usage=FLASHONLY|Rotation=90.000|XOffset=0mil|YOffset=0mil|HoleType=Round|Shape=RoundedRectangle|*
%AMROUNDEDRECTD22*
21,1,0.0315,0.0148,0,0,90.0*
21,1,0.0167,0.0295,0,0,90.0*
1,1,0.0148,0.0074,0.0084*
1,1,0.0148,0.0074,-0.0084*
1,1,0.0148,-0.0074,-0.0084*
1,1,0.0148,-0.0074,0.0084*
%
%ADD22ROUNDEDRECTD22*%
G04:AMPARAMS|DCode=26|XSize=31.5mil|YSize=29.5mil|CornerRadius=7.4mil|HoleSize=0mil|Usage=FLASHONLY|Rotation=180.000|XOffset=0mil|YOffset=0mil|HoleType=Round|Shape=RoundedRectangle|*
%AMROUNDEDRECTD26*
21,1,0.0315,0.0148,0,0,180.0*
21,1,0.0167,0.0295,0,0,180.0*
1,1,0.0148,-0.0084,0.0074*
1,1,0.0148,0.0084,0.0074*
1,1,0.0148,0.0084,-0.0074*
1,1,0.0148,-0.0084,-0.0074*
%
%ADD26ROUNDEDRECTD26*%
%ADD62C,0.0197*%
%ADD63C,0.0394*%
%ADD66C,0.0591*%
%ADD67R,0.0591X0.0591*%
%ADD68C,0.0354*%
G36*
X9690Y-17564D02*
X1969D01*
X1910Y-17575D01*
X1860Y-17608D01*
X1827Y-17658D01*
X1819Y-17700D01*
X-1819D01*
X-1827Y-17658D01*
X-1860Y-17608D01*
X-1910Y-17575D01*
X-1969Y-17564D01*
X-9690D01*
X-9690Y-10250D01*
X-4155D01*
X-4121Y-10300D01*
X-4134Y-10330D01*
X-4144Y-10408D01*
X-4134Y-10485D01*
X-4104Y-10557D01*
X-4056Y-10619D01*
X-3994Y-10667D01*
X-3922Y-10697D01*
X-3845Y-10707D01*
X-3366D01*
X-2499Y-11574D01*
Y-12850D01*
X-2489Y-12927D01*
X-2459Y-12999D01*
X-2412Y-13061D01*
X-2198Y-13275D01*
X-2214Y-13330D01*
X-2257Y-13342D01*
X-2320Y-13378D01*
X-2372Y-13430D01*
X-2408Y-13493D01*
X-2427Y-13564D01*
Y-13636D01*
X-2408Y-13707D01*
X-2372Y-13770D01*
X-2320Y-13822D01*
X-2257Y-13858D01*
X-2186Y-13877D01*
X-2114D01*
X-2043Y-13858D01*
X-1980Y-13822D01*
X-1928Y-13770D01*
X-1892Y-13707D01*
X-1880Y-13664D01*
X-1825Y-13648D01*
X-1785Y-13688D01*
X-1759Y-13750D01*
X-1712Y-13812D01*
X-1650Y-13859D01*
X-1577Y-13889D01*
X-1500Y-13899D01*
X-1423Y-13889D01*
X-1350Y-13859D01*
X-1288Y-13812D01*
X-1241Y-13750D01*
X-1211Y-13677D01*
X-1201Y-13600D01*
Y-13550D01*
X-1211Y-13472D01*
X-1241Y-13400D01*
X-1288Y-13338D01*
X-1901Y-12726D01*
Y-11450D01*
X-1911Y-11373D01*
X-1928Y-11330D01*
X-1941Y-11300D01*
X-1988Y-11238D01*
X-2930Y-10296D01*
X-2911Y-10250D01*
X8677D01*
X8707Y-10290D01*
X8705Y-10298D01*
Y-10402D01*
X8732Y-10503D01*
X8784Y-10593D01*
X8857Y-10666D01*
X8947Y-10718D01*
X9048Y-10745D01*
X9152D01*
X9253Y-10718D01*
X9343Y-10666D01*
X9416Y-10593D01*
X9468Y-10503D01*
X9495Y-10402D01*
Y-10298D01*
X9493Y-10290D01*
X9523Y-10250D01*
X9690D01*
X9690Y-17564D01*
D02*
G37*
G36*
X9690Y-9850D02*
X-9690D01*
X-9690Y9690D01*
X9690D01*
X9690Y-9850D01*
D02*
G37*
%LPC*%
G36*
X6686Y-10815D02*
X6613D01*
X6543Y-10833D01*
X6480Y-10870D01*
X6428Y-10921D01*
X6392Y-10985D01*
X6373Y-11055D01*
Y-11128D01*
X6392Y-11199D01*
X6428Y-11262D01*
X6480Y-11313D01*
X6539Y-11348D01*
X6541Y-11352D01*
X6516Y-11398D01*
X3688D01*
X3688Y-11398D01*
X3629Y-11409D01*
X3580Y-11442D01*
X3580Y-11442D01*
X3574Y-11448D01*
X700D01*
X700Y-11448D01*
X642Y-11459D01*
X592Y-11492D01*
X592Y-11492D01*
X587Y-11498D01*
X-650D01*
X-708Y-11509D01*
X-758Y-11542D01*
X-941Y-11726D01*
X-974Y-11775D01*
X-985Y-11833D01*
Y-12293D01*
X-974Y-12351D01*
X-941Y-12400D01*
X-872Y-12469D01*
X-877Y-12489D01*
Y-12562D01*
X-858Y-12633D01*
X-822Y-12696D01*
X-770Y-12748D01*
X-707Y-12784D01*
X-636Y-12803D01*
X-564D01*
X-493Y-12784D01*
X-430Y-12748D01*
X-378Y-12696D01*
X-342Y-12633D01*
X-323Y-12562D01*
Y-12489D01*
X-342Y-12419D01*
X-378Y-12356D01*
X-424Y-12310D01*
X-427Y-12282D01*
X-423Y-12251D01*
X-387Y-12230D01*
X-335Y-12178D01*
X-325Y-12160D01*
X-255D01*
X1348Y-13763D01*
Y-16018D01*
X1330Y-16028D01*
X1278Y-16080D01*
X1242Y-16143D01*
X1223Y-16214D01*
Y-16286D01*
X1233Y-16323D01*
X1196Y-16373D01*
X809D01*
X638Y-16202D01*
X659Y-16152D01*
X711D01*
X782Y-16133D01*
X845Y-16097D01*
X897Y-16045D01*
X933Y-15982D01*
X952Y-15911D01*
Y-15839D01*
X933Y-15768D01*
X897Y-15705D01*
X845Y-15653D01*
X827Y-15643D01*
Y-14175D01*
X816Y-14117D01*
X783Y-14067D01*
X783Y-14067D01*
X622Y-13907D01*
X627Y-13886D01*
Y-13814D01*
X608Y-13743D01*
X572Y-13680D01*
X520Y-13628D01*
X457Y-13592D01*
X386Y-13573D01*
X314D01*
X243Y-13592D01*
X180Y-13628D01*
X128Y-13680D01*
X92Y-13743D01*
X73Y-13814D01*
Y-13886D01*
X92Y-13957D01*
X128Y-14020D01*
X180Y-14072D01*
X243Y-14108D01*
X314Y-14127D01*
X386D01*
X407Y-14122D01*
X523Y-14238D01*
Y-15643D01*
X505Y-15653D01*
X453Y-15705D01*
X417Y-15768D01*
X398Y-15839D01*
Y-15891D01*
X348Y-15912D01*
X-942Y-14622D01*
X-1008Y-14578D01*
X-1085Y-14563D01*
X-1651D01*
X-3173Y-13041D01*
Y-13014D01*
X-3192Y-12943D01*
X-3228Y-12880D01*
X-3280Y-12828D01*
X-3343Y-12792D01*
X-3414Y-12773D01*
X-3486D01*
X-3557Y-12792D01*
X-3620Y-12828D01*
X-3672Y-12880D01*
X-3708Y-12943D01*
X-3727Y-13014D01*
Y-13041D01*
X-4709Y-14023D01*
X-5625D01*
X-5702Y-14038D01*
X-5768Y-14082D01*
X-6809Y-15123D01*
X-6836D01*
X-6907Y-15142D01*
X-6970Y-15178D01*
X-7022Y-15230D01*
X-7058Y-15293D01*
X-7077Y-15364D01*
Y-15436D01*
X-7058Y-15507D01*
X-7022Y-15570D01*
X-6970Y-15622D01*
X-6907Y-15658D01*
X-6836Y-15677D01*
X-6764D01*
X-6693Y-15658D01*
X-6630Y-15622D01*
X-6578Y-15570D01*
X-6542Y-15507D01*
X-6523Y-15436D01*
Y-15409D01*
X-5541Y-14427D01*
X-4625D01*
X-4548Y-14412D01*
X-4482Y-14368D01*
X-3450Y-13336D01*
X-1878Y-14908D01*
X-1812Y-14952D01*
X-1735Y-14967D01*
X-1169D01*
X583Y-16719D01*
X648Y-16762D01*
X726Y-16778D01*
X1635D01*
X1712Y-16762D01*
X1778Y-16719D01*
X1944Y-16552D01*
X4829D01*
Y-17250D01*
X5620D01*
Y-16552D01*
X5902D01*
X5921Y-16599D01*
X5908Y-16612D01*
X5856Y-16702D01*
X5829Y-16802D01*
Y-16906D01*
X5856Y-17007D01*
X5908Y-17097D01*
X5982Y-17171D01*
X6072Y-17223D01*
X6172Y-17250D01*
X6276D01*
X6377Y-17223D01*
X6467Y-17171D01*
X6541Y-17097D01*
X6593Y-17007D01*
X6620Y-16906D01*
Y-16802D01*
X6593Y-16702D01*
X6541Y-16612D01*
X6528Y-16599D01*
X6547Y-16552D01*
X6902D01*
X6921Y-16599D01*
X6908Y-16612D01*
X6856Y-16702D01*
X6829Y-16802D01*
Y-16906D01*
X6856Y-17007D01*
X6908Y-17097D01*
X6982Y-17171D01*
X7072Y-17223D01*
X7172Y-17250D01*
X7276D01*
X7377Y-17223D01*
X7467Y-17171D01*
X7541Y-17097D01*
X7593Y-17007D01*
X7620Y-16906D01*
Y-16802D01*
X7614Y-16782D01*
X7659Y-16756D01*
X7836Y-16934D01*
X7856Y-17007D01*
X7908Y-17097D01*
X7982Y-17171D01*
X8072Y-17223D01*
X8172Y-17250D01*
X8276D01*
X8377Y-17223D01*
X8467Y-17171D01*
X8541Y-17097D01*
X8593Y-17007D01*
X8620Y-16906D01*
Y-16802D01*
X8593Y-16702D01*
X8541Y-16612D01*
X8467Y-16538D01*
X8377Y-16486D01*
X8276Y-16459D01*
X8172D01*
X8072Y-16486D01*
X8002Y-16527D01*
X7682Y-16207D01*
X7616Y-16163D01*
X7557Y-16151D01*
X7537Y-16101D01*
X7541Y-16097D01*
X7593Y-16007D01*
X7620Y-15906D01*
Y-15802D01*
X7593Y-15702D01*
X7541Y-15612D01*
X7467Y-15538D01*
X7377Y-15486D01*
X7276Y-15459D01*
X7172D01*
X7072Y-15486D01*
X6982Y-15538D01*
X6908Y-15612D01*
X6856Y-15702D01*
X6829Y-15802D01*
Y-15906D01*
X6856Y-16007D01*
X6908Y-16097D01*
X6913Y-16101D01*
X6893Y-16148D01*
X6555D01*
X6536Y-16101D01*
X6541Y-16097D01*
X6593Y-16007D01*
X6620Y-15906D01*
Y-15802D01*
X6593Y-15702D01*
X6541Y-15612D01*
X6467Y-15538D01*
X6377Y-15486D01*
X6276Y-15459D01*
X6172D01*
X6072Y-15486D01*
X5982Y-15538D01*
X5908Y-15612D01*
X5856Y-15702D01*
X5829Y-15802D01*
Y-15906D01*
X5856Y-16007D01*
X5908Y-16097D01*
X5913Y-16101D01*
X5893Y-16148D01*
X5555D01*
X5536Y-16101D01*
X5541Y-16097D01*
X5593Y-16007D01*
X5620Y-15906D01*
Y-15802D01*
X5593Y-15702D01*
X5541Y-15612D01*
X5467Y-15538D01*
X5377Y-15486D01*
X5276Y-15459D01*
X5172D01*
X5072Y-15486D01*
X4982Y-15538D01*
X4908Y-15612D01*
X4856Y-15702D01*
X4829Y-15802D01*
Y-15906D01*
X4856Y-16007D01*
X4908Y-16097D01*
X4913Y-16101D01*
X4893Y-16148D01*
X2414D01*
X2395Y-16101D01*
X2643Y-15854D01*
X2687Y-15788D01*
X2702Y-15710D01*
Y-13784D01*
X3959Y-12527D01*
X3986D01*
X4057Y-12508D01*
X4120Y-12472D01*
X4172Y-12420D01*
X4208Y-12357D01*
X4227Y-12286D01*
Y-12214D01*
X4208Y-12143D01*
X4172Y-12080D01*
X4120Y-12028D01*
X4057Y-11992D01*
X3986Y-11973D01*
X3914D01*
X3843Y-11992D01*
X3780Y-12028D01*
X3728Y-12080D01*
X3692Y-12143D01*
X3673Y-12214D01*
Y-12241D01*
X2357Y-13557D01*
X2313Y-13623D01*
X2298Y-13700D01*
Y-15627D01*
X1802Y-16122D01*
X1741Y-16113D01*
X1722Y-16080D01*
X1670Y-16028D01*
X1652Y-16018D01*
Y-13700D01*
X1652Y-13700D01*
X1641Y-13642D01*
X1608Y-13592D01*
X1608Y-13592D01*
X1513Y-13498D01*
X1534Y-13448D01*
X1566D01*
X1636Y-13429D01*
X1699Y-13393D01*
X1751Y-13341D01*
X1787Y-13278D01*
X1806Y-13207D01*
Y-13134D01*
X1787Y-13064D01*
X1751Y-13001D01*
X1699Y-12949D01*
X1636Y-12913D01*
X1566Y-12894D01*
X1493D01*
X1422Y-12913D01*
X1359Y-12949D01*
X1307Y-13001D01*
X1271Y-13064D01*
X1252Y-13134D01*
Y-13166D01*
X1202Y-13187D01*
X-84Y-11901D01*
X-133Y-11868D01*
X-192Y-11856D01*
X-275D01*
X-277Y-11852D01*
X-250Y-11802D01*
X650D01*
X708Y-11791D01*
X758Y-11758D01*
X763Y-11752D01*
X3638D01*
X3696Y-11741D01*
X3745Y-11708D01*
X3751Y-11702D01*
X6937D01*
X7078Y-11843D01*
X7073Y-11864D01*
Y-11936D01*
X7092Y-12007D01*
X7128Y-12070D01*
X7180Y-12122D01*
X7243Y-12158D01*
X7314Y-12177D01*
X7386D01*
X7457Y-12158D01*
X7520Y-12122D01*
X7572Y-12070D01*
X7608Y-12007D01*
X7627Y-11936D01*
Y-11864D01*
X7608Y-11793D01*
X7572Y-11730D01*
X7520Y-11678D01*
X7457Y-11642D01*
X7386Y-11623D01*
X7314D01*
X7293Y-11628D01*
X7108Y-11442D01*
X7058Y-11409D01*
X7000Y-11398D01*
X6784D01*
X6759Y-11352D01*
X6761Y-11348D01*
X6820Y-11313D01*
X6872Y-11262D01*
X6908Y-11199D01*
X6927Y-11128D01*
Y-11055D01*
X6908Y-10985D01*
X6872Y-10921D01*
X6820Y-10870D01*
X6757Y-10833D01*
X6686Y-10815D01*
D02*
G37*
G36*
X-1240Y-11023D02*
X-1313D01*
X-1384Y-11042D01*
X-1447Y-11078D01*
X-1498Y-11130D01*
X-1535Y-11193D01*
X-1554Y-11264D01*
Y-11336D01*
X-1535Y-11407D01*
X-1498Y-11470D01*
X-1447Y-11522D01*
X-1384Y-11558D01*
X-1313Y-11577D01*
X-1240D01*
X-1170Y-11558D01*
X-1106Y-11522D01*
X-1055Y-11470D01*
X-1018Y-11407D01*
X-999Y-11336D01*
Y-11264D01*
X-1018Y-11193D01*
X-1055Y-11130D01*
X-1106Y-11078D01*
X-1170Y-11042D01*
X-1240Y-11023D01*
D02*
G37*
G36*
X-8864Y-10723D02*
X-8936D01*
X-9007Y-10742D01*
X-9070Y-10778D01*
X-9122Y-10830D01*
X-9158Y-10893D01*
X-9177Y-10964D01*
Y-11036D01*
X-9158Y-11107D01*
X-9122Y-11170D01*
X-9070Y-11222D01*
X-9065Y-11225D01*
Y-11275D01*
X-9070Y-11278D01*
X-9122Y-11330D01*
X-9158Y-11393D01*
X-9177Y-11464D01*
Y-11536D01*
X-9158Y-11607D01*
X-9122Y-11670D01*
X-9070Y-11722D01*
X-9007Y-11758D01*
X-8936Y-11777D01*
X-8864D01*
X-8793Y-11758D01*
X-8730Y-11722D01*
X-8678Y-11670D01*
X-8642Y-11607D01*
X-8623Y-11536D01*
Y-11464D01*
X-8642Y-11393D01*
X-8678Y-11330D01*
X-8730Y-11278D01*
X-8735Y-11275D01*
Y-11225D01*
X-8730Y-11222D01*
X-8678Y-11170D01*
X-8642Y-11107D01*
X-8623Y-11036D01*
Y-10964D01*
X-8642Y-10893D01*
X-8678Y-10830D01*
X-8730Y-10778D01*
X-8793Y-10742D01*
X-8864Y-10723D01*
D02*
G37*
G36*
X-6014Y-13023D02*
X-6086D01*
X-6157Y-13042D01*
X-6220Y-13078D01*
X-6272Y-13130D01*
X-6308Y-13193D01*
X-6327Y-13264D01*
Y-13336D01*
X-6308Y-13407D01*
X-6272Y-13470D01*
X-6220Y-13522D01*
X-6157Y-13558D01*
X-6086Y-13577D01*
X-6014D01*
X-5943Y-13558D01*
X-5880Y-13522D01*
X-5828Y-13470D01*
X-5792Y-13407D01*
X-5773Y-13336D01*
Y-13264D01*
X-5792Y-13193D01*
X-5828Y-13130D01*
X-5880Y-13078D01*
X-5943Y-13042D01*
X-6014Y-13023D01*
D02*
G37*
G36*
X3630Y-14517D02*
X3557D01*
X3487Y-14535D01*
X3424Y-14572D01*
X3372Y-14624D01*
X3335Y-14687D01*
X3317Y-14757D01*
Y-14830D01*
X3335Y-14901D01*
X3372Y-14964D01*
X3424Y-15015D01*
X3487Y-15052D01*
X3557Y-15071D01*
X3630D01*
X3701Y-15052D01*
X3764Y-15015D01*
X3815Y-14964D01*
X3852Y-14901D01*
X3871Y-14830D01*
Y-14757D01*
X3852Y-14687D01*
X3815Y-14624D01*
X3764Y-14572D01*
X3701Y-14535D01*
X3630Y-14517D01*
D02*
G37*
G36*
X9190Y-12996D02*
X9113Y-13006D01*
X9041Y-13036D01*
X8979Y-13084D01*
X7568Y-14494D01*
X7394D01*
X7316Y-14504D01*
X7244Y-14534D01*
X7182Y-14582D01*
X7134Y-14644D01*
X7104Y-14716D01*
X7094Y-14794D01*
X7104Y-14871D01*
X7134Y-14943D01*
X7182Y-15005D01*
X7244Y-15053D01*
X7316Y-15083D01*
X7394Y-15093D01*
X7692D01*
X7770Y-15083D01*
X7842Y-15053D01*
X7904Y-15005D01*
X9402Y-13507D01*
X9450Y-13445D01*
X9480Y-13373D01*
X9490Y-13295D01*
X9480Y-13218D01*
X9450Y-13146D01*
X9402Y-13084D01*
X9340Y-13036D01*
X9268Y-13006D01*
X9190Y-12996D01*
D02*
G37*
G36*
X9276Y-15459D02*
X9172D01*
X9072Y-15486D01*
X8982Y-15538D01*
X8908Y-15612D01*
X8856Y-15702D01*
X8829Y-15802D01*
Y-15906D01*
X8856Y-16007D01*
X8908Y-16097D01*
X8982Y-16171D01*
X9072Y-16223D01*
X9172Y-16250D01*
X9276D01*
X9377Y-16223D01*
X9467Y-16171D01*
X9541Y-16097D01*
X9593Y-16007D01*
X9620Y-15906D01*
Y-15802D01*
X9593Y-15702D01*
X9541Y-15612D01*
X9467Y-15538D01*
X9377Y-15486D01*
X9276Y-15459D01*
D02*
G37*
G36*
X-129Y-16423D02*
X-202D01*
X-272Y-16442D01*
X-336Y-16478D01*
X-387Y-16530D01*
X-424Y-16593D01*
X-442Y-16664D01*
Y-16736D01*
X-424Y-16807D01*
X-387Y-16870D01*
X-336Y-16922D01*
X-272Y-16958D01*
X-202Y-16977D01*
X-129D01*
X-58Y-16958D01*
X5Y-16922D01*
X56Y-16870D01*
X93Y-16807D01*
X112Y-16736D01*
Y-16664D01*
X93Y-16593D01*
X56Y-16530D01*
X5Y-16478D01*
X-58Y-16442D01*
X-129Y-16423D01*
D02*
G37*
G36*
X9276Y-16459D02*
X9172D01*
X9072Y-16486D01*
X8982Y-16538D01*
X8908Y-16612D01*
X8856Y-16702D01*
X8829Y-16802D01*
Y-16906D01*
X8856Y-17007D01*
X8908Y-17097D01*
X8982Y-17171D01*
X9072Y-17223D01*
X9172Y-17250D01*
X9276D01*
X9377Y-17223D01*
X9467Y-17171D01*
X9541Y-17097D01*
X9593Y-17007D01*
X9620Y-16906D01*
Y-16802D01*
X9593Y-16702D01*
X9541Y-16612D01*
X9467Y-16538D01*
X9377Y-16486D01*
X9276Y-16459D01*
D02*
G37*
G36*
X8330Y9051D02*
X8206D01*
X8191Y9048D01*
X8176D01*
X8054Y9023D01*
X8040Y9018D01*
X8025Y9015D01*
X7911Y8967D01*
X7898Y8959D01*
X7884Y8953D01*
X7781Y8884D01*
X7771Y8874D01*
X7758Y8865D01*
X7670Y8777D01*
X7662Y8765D01*
X7651Y8754D01*
X7582Y8651D01*
X7577Y8637D01*
X7568Y8625D01*
X7521Y8510D01*
X7518Y8495D01*
X7512Y8481D01*
X7488Y8360D01*
Y8345D01*
X7485Y8330D01*
Y8268D01*
Y8206D01*
X7488Y8191D01*
Y8176D01*
X7512Y8054D01*
X7518Y8040D01*
X7521Y8025D01*
X7568Y7911D01*
X7577Y7898D01*
X7582Y7884D01*
X7651Y7781D01*
X7662Y7771D01*
X7670Y7758D01*
X7758Y7670D01*
X7771Y7662D01*
X7781Y7651D01*
X7884Y7582D01*
X7898Y7577D01*
X7911Y7568D01*
X8025Y7521D01*
X8040Y7518D01*
X8054Y7512D01*
X8176Y7488D01*
X8191D01*
X8206Y7485D01*
X8330D01*
X8345Y7488D01*
X8360D01*
X8481Y7512D01*
X8495Y7518D01*
X8510Y7521D01*
X8625Y7568D01*
X8637Y7577D01*
X8651Y7582D01*
X8754Y7651D01*
X8765Y7662D01*
X8777Y7670D01*
X8865Y7758D01*
X8874Y7771D01*
X8884Y7781D01*
X8953Y7884D01*
X8959Y7898D01*
X8967Y7911D01*
X9015Y8025D01*
X9018Y8040D01*
X9023Y8054D01*
X9048Y8176D01*
Y8191D01*
X9051Y8206D01*
Y8268D01*
Y8330D01*
X9048Y8345D01*
Y8360D01*
X9023Y8481D01*
X9018Y8495D01*
X9015Y8510D01*
X8967Y8625D01*
X8959Y8637D01*
X8953Y8651D01*
X8884Y8754D01*
X8874Y8765D01*
X8865Y8777D01*
X8777Y8865D01*
X8765Y8874D01*
X8754Y8884D01*
X8651Y8953D01*
X8637Y8959D01*
X8625Y8967D01*
X8510Y9015D01*
X8495Y9018D01*
X8481Y9023D01*
X8360Y9048D01*
X8345D01*
X8330Y9051D01*
D02*
G37*
G36*
X-8206D02*
X-8330D01*
X-8345Y9048D01*
X-8360D01*
X-8481Y9023D01*
X-8495Y9018D01*
X-8510Y9015D01*
X-8625Y8967D01*
X-8637Y8959D01*
X-8651Y8953D01*
X-8754Y8884D01*
X-8765Y8874D01*
X-8777Y8865D01*
X-8865Y8777D01*
X-8874Y8765D01*
X-8884Y8754D01*
X-8953Y8651D01*
X-8959Y8637D01*
X-8967Y8625D01*
X-9015Y8510D01*
X-9018Y8495D01*
X-9023Y8481D01*
X-9048Y8360D01*
Y8345D01*
X-9051Y8330D01*
Y8268D01*
Y8206D01*
X-9048Y8191D01*
Y8176D01*
X-9023Y8054D01*
X-9018Y8040D01*
X-9015Y8025D01*
X-8967Y7911D01*
X-8959Y7898D01*
X-8953Y7884D01*
X-8884Y7781D01*
X-8874Y7771D01*
X-8865Y7758D01*
X-8777Y7670D01*
X-8765Y7662D01*
X-8754Y7651D01*
X-8651Y7582D01*
X-8637Y7577D01*
X-8625Y7568D01*
X-8510Y7521D01*
X-8495Y7518D01*
X-8481Y7512D01*
X-8360Y7488D01*
X-8345D01*
X-8330Y7485D01*
X-8206D01*
X-8191Y7488D01*
X-8176D01*
X-8054Y7512D01*
X-8040Y7518D01*
X-8025Y7521D01*
X-7911Y7568D01*
X-7898Y7577D01*
X-7884Y7582D01*
X-7781Y7651D01*
X-7771Y7662D01*
X-7758Y7670D01*
X-7670Y7758D01*
X-7662Y7771D01*
X-7651Y7781D01*
X-7582Y7884D01*
X-7577Y7898D01*
X-7568Y7911D01*
X-7521Y8025D01*
X-7518Y8040D01*
X-7512Y8054D01*
X-7488Y8176D01*
Y8191D01*
X-7485Y8206D01*
Y8268D01*
Y8330D01*
X-7488Y8345D01*
Y8360D01*
X-7512Y8481D01*
X-7518Y8495D01*
X-7521Y8510D01*
X-7568Y8625D01*
X-7577Y8637D01*
X-7582Y8651D01*
X-7651Y8754D01*
X-7662Y8765D01*
X-7670Y8777D01*
X-7758Y8865D01*
X-7771Y8874D01*
X-7781Y8884D01*
X-7884Y8953D01*
X-7898Y8959D01*
X-7911Y8967D01*
X-8025Y9015D01*
X-8040Y9018D01*
X-8054Y9023D01*
X-8176Y9048D01*
X-8191D01*
X-8206Y9051D01*
D02*
G37*
G36*
X7150Y7253D02*
X591Y7253D01*
X591Y7253D01*
X532Y7241D01*
X482Y7208D01*
X449Y7159D01*
X438Y7100D01*
X-438D01*
X-449Y7159D01*
X-482Y7208D01*
X-532Y7241D01*
X-591Y7253D01*
X-7100D01*
X-7159Y7241D01*
X-7208Y7208D01*
X-7241Y7159D01*
X-7253Y7100D01*
Y591D01*
X-7241Y532D01*
X-7208Y482D01*
X-7159Y449D01*
X-7100Y438D01*
Y-438D01*
X-7159Y-449D01*
X-7208Y-482D01*
X-7241Y-532D01*
X-7253Y-591D01*
Y-7100D01*
X-7241Y-7159D01*
X-7208Y-7208D01*
X-7159Y-7241D01*
X-7100Y-7253D01*
X-591D01*
X-532Y-7241D01*
X-482Y-7208D01*
X-449Y-7159D01*
X-438Y-7100D01*
X438D01*
Y-7100D01*
X449Y-7159D01*
X482Y-7208D01*
X532Y-7241D01*
X591Y-7253D01*
X7150Y-7253D01*
X7209Y-7241D01*
X7258Y-7208D01*
X7291Y-7159D01*
X7303Y-7100D01*
Y-591D01*
X7291Y-532D01*
X7258Y-482D01*
X7209Y-449D01*
X7150Y-438D01*
Y438D01*
X7209Y449D01*
X7258Y482D01*
X7291Y532D01*
X7303Y591D01*
Y7100D01*
X7291Y7159D01*
X7258Y7208D01*
X7209Y7241D01*
X7150Y7253D01*
D02*
G37*
G36*
X8330Y-7485D02*
X8206D01*
X8191Y-7488D01*
X8176D01*
X8054Y-7512D01*
X8040Y-7518D01*
X8025Y-7521D01*
X7911Y-7568D01*
X7898Y-7577D01*
X7884Y-7582D01*
X7781Y-7651D01*
X7771Y-7662D01*
X7758Y-7670D01*
X7670Y-7758D01*
X7662Y-7771D01*
X7651Y-7781D01*
X7582Y-7884D01*
X7577Y-7898D01*
X7568Y-7911D01*
X7521Y-8025D01*
X7518Y-8040D01*
X7512Y-8054D01*
X7488Y-8176D01*
Y-8191D01*
X7485Y-8206D01*
Y-8268D01*
Y-8330D01*
X7488Y-8345D01*
Y-8360D01*
X7512Y-8481D01*
X7518Y-8495D01*
X7521Y-8510D01*
X7568Y-8625D01*
X7577Y-8637D01*
X7582Y-8651D01*
X7651Y-8754D01*
X7662Y-8765D01*
X7670Y-8777D01*
X7758Y-8865D01*
X7771Y-8874D01*
X7781Y-8884D01*
X7884Y-8953D01*
X7898Y-8959D01*
X7911Y-8967D01*
X8025Y-9015D01*
X8040Y-9018D01*
X8054Y-9023D01*
X8176Y-9048D01*
X8191D01*
X8206Y-9051D01*
X8330D01*
X8345Y-9048D01*
X8360D01*
X8481Y-9023D01*
X8495Y-9018D01*
X8510Y-9015D01*
X8625Y-8967D01*
X8637Y-8959D01*
X8651Y-8953D01*
X8754Y-8884D01*
X8765Y-8874D01*
X8777Y-8865D01*
X8865Y-8777D01*
X8874Y-8765D01*
X8884Y-8754D01*
X8953Y-8651D01*
X8959Y-8637D01*
X8967Y-8625D01*
X9015Y-8510D01*
X9018Y-8495D01*
X9023Y-8481D01*
X9048Y-8360D01*
Y-8345D01*
X9051Y-8330D01*
Y-8268D01*
Y-8206D01*
X9048Y-8191D01*
Y-8176D01*
X9023Y-8054D01*
X9018Y-8040D01*
X9015Y-8025D01*
X8967Y-7911D01*
X8959Y-7898D01*
X8953Y-7884D01*
X8884Y-7781D01*
X8874Y-7771D01*
X8865Y-7758D01*
X8777Y-7670D01*
X8765Y-7662D01*
X8754Y-7651D01*
X8651Y-7582D01*
X8637Y-7577D01*
X8625Y-7568D01*
X8510Y-7521D01*
X8495Y-7518D01*
X8481Y-7512D01*
X8360Y-7488D01*
X8345D01*
X8330Y-7485D01*
D02*
G37*
G36*
X-8206D02*
X-8330D01*
X-8345Y-7488D01*
X-8360D01*
X-8481Y-7512D01*
X-8495Y-7518D01*
X-8510Y-7521D01*
X-8625Y-7568D01*
X-8637Y-7577D01*
X-8651Y-7582D01*
X-8754Y-7651D01*
X-8765Y-7662D01*
X-8777Y-7670D01*
X-8865Y-7758D01*
X-8874Y-7771D01*
X-8884Y-7781D01*
X-8953Y-7884D01*
X-8959Y-7898D01*
X-8967Y-7911D01*
X-9015Y-8025D01*
X-9018Y-8040D01*
X-9023Y-8054D01*
X-9048Y-8176D01*
Y-8191D01*
X-9051Y-8206D01*
Y-8268D01*
Y-8330D01*
X-9048Y-8345D01*
Y-8360D01*
X-9023Y-8481D01*
X-9018Y-8495D01*
X-9015Y-8510D01*
X-8967Y-8625D01*
X-8959Y-8637D01*
X-8953Y-8651D01*
X-8884Y-8754D01*
X-8874Y-8765D01*
X-8865Y-8777D01*
X-8777Y-8865D01*
X-8765Y-8874D01*
X-8754Y-8884D01*
X-8651Y-8953D01*
X-8637Y-8959D01*
X-8625Y-8967D01*
X-8510Y-9015D01*
X-8495Y-9018D01*
X-8481Y-9023D01*
X-8360Y-9048D01*
X-8345D01*
X-8330Y-9051D01*
X-8206D01*
X-8191Y-9048D01*
X-8176D01*
X-8054Y-9023D01*
X-8040Y-9018D01*
X-8025Y-9015D01*
X-7911Y-8967D01*
X-7898Y-8959D01*
X-7884Y-8953D01*
X-7781Y-8884D01*
X-7771Y-8874D01*
X-7758Y-8865D01*
X-7670Y-8777D01*
X-7662Y-8765D01*
X-7651Y-8754D01*
X-7582Y-8651D01*
X-7577Y-8637D01*
X-7568Y-8625D01*
X-7521Y-8510D01*
X-7518Y-8495D01*
X-7512Y-8481D01*
X-7488Y-8360D01*
Y-8345D01*
X-7485Y-8330D01*
Y-8268D01*
Y-8206D01*
X-7488Y-8191D01*
Y-8176D01*
X-7512Y-8054D01*
X-7518Y-8040D01*
X-7521Y-8025D01*
X-7568Y-7911D01*
X-7577Y-7898D01*
X-7582Y-7884D01*
X-7651Y-7781D01*
X-7662Y-7771D01*
X-7670Y-7758D01*
X-7758Y-7670D01*
X-7771Y-7662D01*
X-7781Y-7651D01*
X-7884Y-7582D01*
X-7898Y-7577D01*
X-7911Y-7568D01*
X-8025Y-7521D01*
X-8040Y-7518D01*
X-8054Y-7512D01*
X-8176Y-7488D01*
X-8191D01*
X-8206Y-7485D01*
D02*
G37*
%LPD*%
D10*
X3688Y-11550D02*
X7000D01*
X650Y-11650D02*
X700Y-11600D01*
X-650Y-11650D02*
X650D01*
X3638Y-11600D02*
X3688Y-11550D01*
X700Y-11600D02*
X3638D01*
X-833Y-11833D02*
X-650Y-11650D01*
X7000Y-11550D02*
X7350Y-11900D01*
X-833Y-12293D02*
Y-11833D01*
X-192Y-12008D02*
X1500Y-13700D01*
X-557Y-12008D02*
X-192D01*
X-833Y-12293D02*
X-600Y-12526D01*
X1500Y-16250D02*
Y-13700D01*
X-4600Y-1200D02*
Y-295D01*
X675Y-15875D02*
Y-14175D01*
X350Y-13850D02*
X675Y-14175D01*
X-1350Y-4600D02*
X-295D01*
X991Y-1034D02*
Y991D01*
X-1047D02*
X991D01*
X-1047Y-1041D02*
Y991D01*
X-1041Y-1041D02*
X984D01*
X1400Y4550D02*
Y4950D01*
X295Y4550D02*
X1400D01*
X295D02*
Y4750D01*
X-759Y4600D02*
X-295D01*
X-1500Y4574D02*
Y4950D01*
X-786Y4574D02*
X-759Y4600D01*
X-1500Y4574D02*
X-786D01*
X-295Y4600D02*
Y4750D01*
X-4900Y1450D02*
X-4600D01*
Y295D02*
Y1450D01*
X-4750Y295D02*
X-4600D01*
X-4750Y-295D02*
X-4600D01*
X4550Y1300D02*
X4900D01*
X4550Y295D02*
Y1300D01*
Y295D02*
X4750D01*
X4550Y-1200D02*
X4850D01*
X4550D02*
Y-295D01*
X4750D01*
X1350Y-4900D02*
Y-4600D01*
X295D02*
X1350D01*
X295Y-4750D02*
Y-4600D01*
X-1350Y-4900D02*
Y-4600D01*
X-295Y-4750D02*
Y-4600D01*
X-900Y-5559D02*
X-800D01*
Y-4900D01*
X984Y-1034D02*
X991D01*
X984Y-1041D02*
Y-1034D01*
X-1047Y991D02*
Y997D01*
Y-1041D02*
X-1041D01*
D22*
X-4750Y295D02*
D03*
Y-295D02*
D03*
X4750D02*
D03*
Y295D02*
D03*
D26*
X-295Y-4750D02*
D03*
X295D02*
D03*
Y4750D02*
D03*
X-295D02*
D03*
D62*
X7539Y-16350D02*
X8118Y-16929D01*
X1860Y-16350D02*
X2500Y-15710D01*
X1635Y-16576D02*
X1860Y-16350D01*
X7539D01*
X-1085Y-14765D02*
X726Y-16576D01*
X2500Y-15710D02*
Y-13700D01*
X726Y-16576D02*
X1635D01*
X-9250Y-10450D02*
Y-9300D01*
X2500Y-13700D02*
X3950Y-12250D01*
X-1735Y-14765D02*
X-1085D01*
X-3450Y-13050D02*
X-1735Y-14765D01*
X-6800Y-15400D02*
X-5625Y-14225D01*
X-4625D01*
X-3450Y-13050D01*
D63*
X7692Y-14794D02*
X9190Y-13295D01*
X7394Y-14794D02*
X7692D01*
X-3845Y-10408D02*
X-3242D01*
X-2200Y-11450D01*
Y-12850D02*
Y-11450D01*
X-1500Y-13600D02*
Y-13550D01*
X-2200Y-12850D02*
X-1500Y-13550D01*
X5500Y-4900D02*
Y0D01*
X5076D02*
X5500D01*
Y3109D01*
X-5550Y-3050D02*
Y5550D01*
X5500Y-5559D02*
Y-4900D01*
X3076Y-5559D02*
X5500D01*
X-800D02*
X3076D01*
X-5550D02*
X-900D01*
X5483Y3125D02*
X5500Y3109D01*
X-2926Y5483D02*
X-2859Y5550D01*
X-5550D02*
X-2859D01*
X-5550Y-3050D02*
X-4450D01*
X-5550Y-5559D02*
Y-3050D01*
X3076Y-5559D02*
Y-4324D01*
X5500Y3109D02*
Y5550D01*
X-2859D02*
X5500D01*
X3076Y-4324D02*
X3100Y-4300D01*
X4275Y3125D02*
X5483D01*
X4250Y3150D02*
X4275Y3125D01*
X4225Y3150D02*
X4250D01*
X-3050Y4250D02*
X-2926Y4374D01*
Y5483D01*
X-3050Y4250D02*
Y4250D01*
X-4450Y-3050D02*
X-4400Y-3100D01*
X-4350D01*
D66*
X9224Y-15854D02*
D03*
Y-16854D02*
D03*
X8224Y-15854D02*
D03*
Y-16854D02*
D03*
X7224Y-15854D02*
D03*
Y-16854D02*
D03*
X6224Y-15854D02*
D03*
Y-16854D02*
D03*
X5224Y-15854D02*
D03*
X9100Y-10350D02*
D03*
D67*
X5224Y-16854D02*
D03*
D68*
X8823Y-17345D02*
D03*
X7878D02*
D03*
X6933Y-14038D02*
D03*
Y-17345D02*
D03*
X6461Y-14038D02*
D03*
X5989D02*
D03*
X5516D02*
D03*
X5044D02*
D03*
X4571Y-16872D02*
D03*
Y-17345D02*
D03*
X4099Y-16872D02*
D03*
Y-17345D02*
D03*
X3626Y-16872D02*
D03*
Y-17345D02*
D03*
X3154Y-16872D02*
D03*
Y-17345D02*
D03*
X2682Y-16872D02*
D03*
Y-17345D02*
D03*
X2209Y-16872D02*
D03*
Y-17345D02*
D03*
X1737D02*
D03*
X1264D02*
D03*
X792Y-12148D02*
D03*
Y-17345D02*
D03*
X319Y-16872D02*
D03*
Y-17345D02*
D03*
X-153D02*
D03*
X-626D02*
D03*
X-1098D02*
D03*
X-1570Y-10731D02*
D03*
Y-15455D02*
D03*
Y-16400D02*
D03*
Y-16872D02*
D03*
Y-17345D02*
D03*
X-2043Y-10731D02*
D03*
Y-15455D02*
D03*
Y-15928D02*
D03*
Y-16400D02*
D03*
Y-16872D02*
D03*
Y-17345D02*
D03*
X-2515Y-15455D02*
D03*
Y-15928D02*
D03*
Y-16400D02*
D03*
Y-16872D02*
D03*
Y-17345D02*
D03*
X-2988Y-15455D02*
D03*
Y-15928D02*
D03*
Y-16400D02*
D03*
Y-16872D02*
D03*
Y-17345D02*
D03*
X-3460Y-15455D02*
D03*
Y-15928D02*
D03*
Y-17345D02*
D03*
X-4405Y-11203D02*
D03*
Y-12620D02*
D03*
Y-15455D02*
D03*
Y-15928D02*
D03*
X-4878Y-11203D02*
D03*
Y-15455D02*
D03*
Y-15928D02*
D03*
X-5350Y-15455D02*
D03*
Y-15928D02*
D03*
X-5822Y-15455D02*
D03*
Y-15928D02*
D03*
X-6295Y-15455D02*
D03*
Y-15928D02*
D03*
X-6767Y-12620D02*
D03*
Y-13093D02*
D03*
X-7240Y-15928D02*
D03*
Y-16400D02*
D03*
Y-16872D02*
D03*
Y-17345D02*
D03*
X-7712Y-15455D02*
D03*
Y-15928D02*
D03*
Y-16400D02*
D03*
Y-16872D02*
D03*
Y-17345D02*
D03*
X-8185Y-15455D02*
D03*
Y-15928D02*
D03*
Y-16400D02*
D03*
Y-16872D02*
D03*
Y-17345D02*
D03*
X-8657Y-15455D02*
D03*
Y-15928D02*
D03*
Y-16400D02*
D03*
Y-16872D02*
D03*
Y-17345D02*
D03*
X-9130Y-12148D02*
D03*
Y-12620D02*
D03*
Y-13093D02*
D03*
Y-15455D02*
D03*
Y-15928D02*
D03*
Y-16400D02*
D03*
Y-16872D02*
D03*
Y-17345D02*
D03*
X7350Y-11900D02*
D03*
X-557Y-12008D02*
D03*
X6650Y-11092D02*
D03*
X-4250Y-13250D02*
D03*
X7394Y-14794D02*
D03*
X-600Y-12526D02*
D03*
X1500Y-16250D02*
D03*
X9174Y7071D02*
D03*
Y5890D02*
D03*
Y4709D02*
D03*
Y3528D02*
D03*
Y2346D02*
D03*
Y1165D02*
D03*
Y-16D02*
D03*
Y-1197D02*
D03*
Y-2378D02*
D03*
Y-3559D02*
D03*
Y-4740D02*
D03*
Y-5921D02*
D03*
Y-7102D02*
D03*
Y-9465D02*
D03*
X8583Y7071D02*
D03*
X8879Y6480D02*
D03*
X8583Y5890D02*
D03*
X8879Y5299D02*
D03*
X8583Y4709D02*
D03*
X8879Y4118D02*
D03*
X8583Y3528D02*
D03*
X8879Y2937D02*
D03*
X8583Y2346D02*
D03*
X8879Y1756D02*
D03*
X8583Y1165D02*
D03*
X8879Y575D02*
D03*
X8583Y-16D02*
D03*
X8879Y-606D02*
D03*
X8583Y-1197D02*
D03*
X8879Y-1787D02*
D03*
X8583Y-2378D02*
D03*
X8879Y-2969D02*
D03*
X8583Y-3559D02*
D03*
X8879Y-4150D02*
D03*
X8583Y-4740D02*
D03*
X8879Y-5331D02*
D03*
X8583Y-5921D02*
D03*
X8879Y-6512D02*
D03*
X8583Y-7102D02*
D03*
Y-9465D02*
D03*
X7993Y7071D02*
D03*
X8288Y6480D02*
D03*
X7993Y5890D02*
D03*
X8288Y5299D02*
D03*
X7993Y4709D02*
D03*
X8288Y4118D02*
D03*
X7993Y3528D02*
D03*
X8288Y2937D02*
D03*
X7993Y2346D02*
D03*
X8288Y1756D02*
D03*
X7993Y1165D02*
D03*
X8288Y575D02*
D03*
Y-606D02*
D03*
Y-1787D02*
D03*
Y-2969D02*
D03*
Y-4150D02*
D03*
Y-5331D02*
D03*
Y-6512D02*
D03*
X7993Y-9465D02*
D03*
X7698Y6480D02*
D03*
Y5299D02*
D03*
Y4118D02*
D03*
Y2937D02*
D03*
Y1756D02*
D03*
Y575D02*
D03*
X7107Y8843D02*
D03*
X6812Y8252D02*
D03*
X7107Y7661D02*
D03*
X6517Y8843D02*
D03*
X6221Y8252D02*
D03*
X6517Y7661D02*
D03*
Y-7693D02*
D03*
X6221Y-8283D02*
D03*
X6517Y-8874D02*
D03*
X6221Y-9465D02*
D03*
X5926Y8843D02*
D03*
X5631Y8252D02*
D03*
X5926Y7661D02*
D03*
Y-7693D02*
D03*
X5631Y-8283D02*
D03*
X5926Y-8874D02*
D03*
X5631Y-9465D02*
D03*
X5335Y8843D02*
D03*
X5040Y8252D02*
D03*
X5335Y7661D02*
D03*
Y-7693D02*
D03*
X5040Y-8283D02*
D03*
X5335Y-8874D02*
D03*
X5040Y-9465D02*
D03*
X4745Y8843D02*
D03*
X4450Y8252D02*
D03*
X4745Y7661D02*
D03*
Y-7693D02*
D03*
X4450Y-8283D02*
D03*
X4745Y-8874D02*
D03*
X4450Y-9465D02*
D03*
X4154Y8843D02*
D03*
X3859Y8252D02*
D03*
X4154Y7661D02*
D03*
Y-7693D02*
D03*
X3859Y-8283D02*
D03*
X4154Y-8874D02*
D03*
X3859Y-9465D02*
D03*
X3564Y8843D02*
D03*
X3268Y8252D02*
D03*
X3564Y7661D02*
D03*
Y-7693D02*
D03*
X3268Y-8283D02*
D03*
X3564Y-8874D02*
D03*
X3268Y-9465D02*
D03*
X2973Y8843D02*
D03*
X2678Y8252D02*
D03*
X2973Y7661D02*
D03*
X2383Y8843D02*
D03*
X2087Y8252D02*
D03*
X2383Y7661D02*
D03*
X1792Y8843D02*
D03*
X1497Y8252D02*
D03*
X1792Y7661D02*
D03*
X1202Y8843D02*
D03*
X906Y8252D02*
D03*
X1202Y7661D02*
D03*
X611Y8843D02*
D03*
X316Y8252D02*
D03*
X611Y7661D02*
D03*
X20Y8843D02*
D03*
X-275Y8252D02*
D03*
X20Y7661D02*
D03*
X-570Y8843D02*
D03*
X-865Y8252D02*
D03*
X-570Y7661D02*
D03*
X-1161Y8843D02*
D03*
X-1456Y8252D02*
D03*
X-1161Y7661D02*
D03*
X-1751Y8843D02*
D03*
X-2046Y8252D02*
D03*
X-1751Y7661D02*
D03*
X-2342Y8843D02*
D03*
X-2637Y8252D02*
D03*
X-2342Y7661D02*
D03*
X-2932Y8843D02*
D03*
X-3228Y8252D02*
D03*
X-2932Y7661D02*
D03*
X-3228Y-8283D02*
D03*
Y-9465D02*
D03*
X-3523Y8843D02*
D03*
X-3818Y8252D02*
D03*
X-3523Y7661D02*
D03*
Y-7693D02*
D03*
X-3818Y-8283D02*
D03*
X-3523Y-8874D02*
D03*
X-3818Y-9465D02*
D03*
X-4113Y8843D02*
D03*
X-4409Y8252D02*
D03*
X-4113Y7661D02*
D03*
Y-7693D02*
D03*
X-4409Y-8283D02*
D03*
X-4113Y-8874D02*
D03*
X-4409Y-9465D02*
D03*
X-4704Y8843D02*
D03*
X-4999Y8252D02*
D03*
X-4704Y7661D02*
D03*
Y-7693D02*
D03*
X-4999Y-8283D02*
D03*
X-4704Y-8874D02*
D03*
X-4999Y-9465D02*
D03*
X-5294Y8843D02*
D03*
X-5590Y8252D02*
D03*
X-5294Y7661D02*
D03*
Y-7693D02*
D03*
X-5590Y-8283D02*
D03*
X-5294Y-8874D02*
D03*
X-5590Y-9465D02*
D03*
X-5885Y8843D02*
D03*
X-6180Y8252D02*
D03*
X-5885Y7661D02*
D03*
Y-7693D02*
D03*
X-6180Y-8283D02*
D03*
X-5885Y-8874D02*
D03*
X-6180Y-9465D02*
D03*
X-6476Y8843D02*
D03*
X-6771Y8252D02*
D03*
X-6476Y7661D02*
D03*
Y-7693D02*
D03*
X-6771Y-8283D02*
D03*
X-6476Y-8874D02*
D03*
X-6771Y-9465D02*
D03*
X-7066Y8843D02*
D03*
Y7661D02*
D03*
Y-7693D02*
D03*
Y-8874D02*
D03*
X-7361Y-9465D02*
D03*
X-7952Y7071D02*
D03*
X-7657Y6480D02*
D03*
X-7952Y5890D02*
D03*
X-7657Y5299D02*
D03*
X-7952Y4709D02*
D03*
X-7657Y4118D02*
D03*
X-7952Y3528D02*
D03*
X-7657Y2937D02*
D03*
X-7952Y2346D02*
D03*
X-7657Y1756D02*
D03*
X-7952Y1165D02*
D03*
X-7657Y575D02*
D03*
Y-6512D02*
D03*
X-7952Y-7102D02*
D03*
Y-9465D02*
D03*
X-8543Y7071D02*
D03*
X-8247Y6480D02*
D03*
X-8543Y5890D02*
D03*
X-8247Y5299D02*
D03*
X-8543Y4709D02*
D03*
X-8247Y4118D02*
D03*
X-8543Y3528D02*
D03*
X-8247Y2937D02*
D03*
X-8543Y2346D02*
D03*
X-8247Y1756D02*
D03*
X-8543Y1165D02*
D03*
X-8247Y575D02*
D03*
X-8543Y-16D02*
D03*
X-8247Y-606D02*
D03*
X-8543Y-1197D02*
D03*
X-8247Y-1787D02*
D03*
X-8543Y-2378D02*
D03*
X-8247Y-2969D02*
D03*
X-8543Y-3559D02*
D03*
X-8247Y-4150D02*
D03*
X-8543Y-4740D02*
D03*
X-8247Y-6512D02*
D03*
X-8543Y-7102D02*
D03*
Y-9465D02*
D03*
X-9133Y7071D02*
D03*
X-8838Y6480D02*
D03*
X-9133Y5890D02*
D03*
X-8838Y5299D02*
D03*
X-9133Y4709D02*
D03*
X-8838Y4118D02*
D03*
X-9133Y3528D02*
D03*
X-8838Y2937D02*
D03*
X-9133Y2346D02*
D03*
X-8838Y1756D02*
D03*
X-9133Y1165D02*
D03*
X-8838Y575D02*
D03*
X-9133Y-16D02*
D03*
X-8838Y-606D02*
D03*
X-9133Y-1197D02*
D03*
X-8838Y-1787D02*
D03*
X-9133Y-2378D02*
D03*
X-8838Y-2969D02*
D03*
X-9133Y-3559D02*
D03*
X-8838Y-4150D02*
D03*
X-9133Y-4740D02*
D03*
X-8838Y-5331D02*
D03*
X-9133Y-5921D02*
D03*
X5108Y-12242D02*
D03*
X2790Y-12212D02*
D03*
X350Y-13850D02*
D03*
X675Y-15875D02*
D03*
X3594Y-14794D02*
D03*
X3600Y-14050D02*
D03*
X9190Y-13295D02*
D03*
X9250Y-11500D02*
D03*
X6828Y-11872D02*
D03*
X3950Y-12250D02*
D03*
X-1277Y-11300D02*
D03*
X-3450Y-13050D02*
D03*
X-1350Y-13100D02*
D03*
X1529Y-13171D02*
D03*
X1650Y-11300D02*
D03*
X-165Y-16700D02*
D03*
X-1344Y-15856D02*
D03*
X-5750Y-10350D02*
D03*
X-3845Y-10408D02*
D03*
X-6800Y-15400D02*
D03*
X-2150Y-13600D02*
D03*
X-1500D02*
D03*
X-6050Y-13300D02*
D03*
X-8900Y-11000D02*
D03*
Y-11500D02*
D03*
X5076Y0D02*
D03*
X1400Y4950D02*
D03*
X-1500D02*
D03*
X-4900Y1450D02*
D03*
X-4600Y-1200D02*
D03*
X-4900Y-900D02*
D03*
Y850D02*
D03*
X-900Y4850D02*
D03*
X800D02*
D03*
X4900Y1300D02*
D03*
X4850Y-1200D02*
D03*
X-1350Y-4900D02*
D03*
X1350D02*
D03*
X-800D02*
D03*
X800D02*
D03*
X4850Y-700D02*
D03*
Y700D02*
D03*
X-3701Y4751D02*
D03*
X-5050Y-3700D02*
D03*
X-4600Y-3500D02*
D03*
X-4350Y-3100D02*
D03*
X-3250Y-4300D02*
D03*
X3600Y-4950D02*
D03*
X3500Y-4500D02*
D03*
X3100Y-4300D02*
D03*
X4250Y-3150D02*
D03*
X4800Y3800D02*
D03*
X4451Y3549D02*
D03*
X4225Y3150D02*
D03*
X3050Y4250D02*
D03*
X-3350Y4550D02*
D03*
X-4250Y3100D02*
D03*
X-3050Y4250D02*
D03*
X-650Y-650D02*
D03*
X-1041Y-1041D02*
D03*
X600Y-650D02*
D03*
X984Y-1034D02*
D03*
X-650Y650D02*
D03*
X-1047Y997D02*
D03*
X600Y650D02*
D03*
X991Y991D02*
D03*
M02*
