G04*
G04 #@! TF.GenerationSoftware,Altium Limited,Altium Designer,22.9.1 (49)*
G04*
G04 Layer_Physical_Order=3*
G04 Layer_Color=16440176*
%FSLAX24Y24*%
%MOIN*%
G70*
G04*
G04 #@! TF.SameCoordinates,552243BB-0F40-405C-A021-40A65FA5EEAB*
G04*
G04*
G04 #@! TF.FilePolarity,Positive*
G04*
G01*
G75*
%ADD10C,0.0098*%
%ADD62C,0.0197*%
%ADD63C,0.0394*%
%ADD66C,0.0591*%
%ADD68C,0.0354*%
%ADD69R,0.0900X0.1500*%
%ADD70R,0.2650X0.2550*%
G36*
X7801Y-10474D02*
Y-10901D01*
X6882D01*
X6862Y-10880D01*
X6800Y-10832D01*
X6727Y-10802D01*
X6650Y-10792D01*
X2981D01*
X2903Y-10802D01*
X2861Y-10820D01*
X2831Y-10832D01*
X2769Y-10880D01*
X998Y-12651D01*
X-297D01*
X-333Y-12601D01*
X-323Y-12562D01*
Y-12489D01*
X-328Y-12469D01*
X208Y-11934D01*
X208Y-11934D01*
X241Y-11884D01*
X247Y-11852D01*
X1000D01*
X1039Y-11844D01*
X1072Y-11822D01*
X1094Y-11789D01*
X1102Y-11750D01*
Y-10250D01*
X7577D01*
X7801Y-10474D01*
D02*
G37*
G36*
X9690Y-17564D02*
X1969D01*
X1910Y-17575D01*
X1860Y-17608D01*
X1827Y-17658D01*
X1819Y-17700D01*
X-1819D01*
X-1827Y-17658D01*
X-1860Y-17608D01*
X-1910Y-17575D01*
X-1969Y-17564D01*
X-9690D01*
X-9690Y-10250D01*
X-4124D01*
X-4099Y-10293D01*
X-4103Y-10301D01*
X-4122Y-10371D01*
Y-10444D01*
X-4103Y-10515D01*
X-4066Y-10578D01*
X-4015Y-10629D01*
X-3952Y-10666D01*
X-3881Y-10685D01*
X-3808D01*
X-3738Y-10666D01*
X-3674Y-10629D01*
X-3623Y-10578D01*
X-3586Y-10515D01*
X-3568Y-10444D01*
Y-10371D01*
X-3586Y-10301D01*
X-3591Y-10293D01*
X-3566Y-10250D01*
X-1102D01*
Y-11000D01*
X-1152Y-11030D01*
X-1199Y-11011D01*
X-1277Y-11001D01*
X-1354Y-11011D01*
X-1426Y-11041D01*
X-1488Y-11088D01*
X-1657Y-11257D01*
X-1705Y-11319D01*
X-1735Y-11391D01*
X-1745Y-11469D01*
Y-12321D01*
X-2274Y-12851D01*
X-2950D01*
X-3028Y-12861D01*
X-3100Y-12891D01*
X-3146Y-12926D01*
X-3148Y-12927D01*
X-3194Y-12921D01*
X-3208Y-12914D01*
X-3228Y-12880D01*
X-3280Y-12828D01*
X-3343Y-12792D01*
X-3414Y-12773D01*
X-3486D01*
X-3557Y-12792D01*
X-3620Y-12828D01*
X-3672Y-12880D01*
X-3708Y-12943D01*
X-3727Y-13014D01*
Y-13086D01*
X-3708Y-13157D01*
X-3672Y-13220D01*
X-3620Y-13272D01*
X-3586Y-13292D01*
X-3576Y-13352D01*
X-3774Y-13551D01*
X-5376D01*
X-5838Y-13088D01*
X-5900Y-13041D01*
X-5973Y-13011D01*
X-6050Y-13001D01*
X-6127Y-13011D01*
X-6200Y-13041D01*
X-6262Y-13088D01*
X-6309Y-13150D01*
X-6339Y-13223D01*
X-6349Y-13300D01*
X-6339Y-13377D01*
X-6309Y-13450D01*
X-6262Y-13512D01*
X-5712Y-14062D01*
X-5650Y-14109D01*
X-5577Y-14139D01*
X-5500Y-14149D01*
X-3650D01*
X-3573Y-14139D01*
X-3501Y-14109D01*
X-3439Y-14062D01*
X-2826Y-13449D01*
X-2449D01*
Y-13950D01*
X-2439Y-14027D01*
X-2409Y-14100D01*
X-2362Y-14162D01*
X-465Y-16059D01*
Y-16700D01*
X-455Y-16777D01*
X-425Y-16850D01*
X-377Y-16912D01*
X-315Y-16959D01*
X-243Y-16989D01*
X-165Y-16999D01*
X-88Y-16989D01*
X-16Y-16959D01*
X46Y-16912D01*
X94Y-16850D01*
X124Y-16777D01*
X134Y-16700D01*
Y-15935D01*
X124Y-15857D01*
X106Y-15815D01*
X94Y-15785D01*
X46Y-15723D01*
X-1851Y-13826D01*
Y-13600D01*
Y-13274D01*
X-1400Y-12823D01*
X-1062Y-13162D01*
X-1000Y-13209D01*
X-927Y-13239D01*
X-850Y-13249D01*
X1123D01*
X1200Y-13239D01*
X1246Y-13268D01*
X1250Y-13273D01*
X1270Y-13321D01*
X1317Y-13383D01*
X2383Y-14448D01*
X2364Y-14494D01*
X-182D01*
X-1288Y-13388D01*
X-1350Y-13341D01*
X-1423Y-13311D01*
X-1500Y-13301D01*
X-1577Y-13311D01*
X-1650Y-13341D01*
X-1712Y-13388D01*
X-1759Y-13450D01*
X-1789Y-13523D01*
X-1799Y-13600D01*
X-1789Y-13677D01*
X-1759Y-13750D01*
X-1712Y-13812D01*
X-518Y-15005D01*
X-456Y-15053D01*
X-426Y-15065D01*
X-384Y-15083D01*
X-306Y-15093D01*
X7394D01*
X7471Y-15083D01*
X7543Y-15053D01*
X7605Y-15005D01*
X7653Y-14943D01*
X7683Y-14871D01*
X7693Y-14794D01*
X7683Y-14716D01*
X7653Y-14644D01*
X7605Y-14582D01*
X7543Y-14534D01*
X7471Y-14504D01*
X7394Y-14494D01*
X3276D01*
X1741Y-12959D01*
X1679Y-12912D01*
X1654Y-12901D01*
X1644Y-12852D01*
X3105Y-11391D01*
X6526D01*
X6547Y-11412D01*
X6609Y-11459D01*
X6681Y-11489D01*
X6758Y-11499D01*
X7801D01*
Y-14753D01*
Y-14850D01*
X7811Y-14927D01*
X7841Y-15000D01*
X7888Y-15062D01*
X8538Y-15712D01*
X8548Y-15719D01*
Y-16548D01*
X8515Y-16567D01*
X8499Y-16570D01*
X8467Y-16538D01*
X8377Y-16486D01*
X8276Y-16459D01*
X8172D01*
X8072Y-16486D01*
X7982Y-16538D01*
X7908Y-16612D01*
X7856Y-16702D01*
X7829Y-16802D01*
Y-16906D01*
X7856Y-17007D01*
X7908Y-17097D01*
X7982Y-17171D01*
X8072Y-17223D01*
X8172Y-17250D01*
X8276D01*
X8377Y-17223D01*
X8467Y-17171D01*
X8541Y-17097D01*
X8593Y-17007D01*
X8620Y-16906D01*
Y-16802D01*
X8614Y-16782D01*
X8659Y-16756D01*
X8770Y-16867D01*
X8829Y-16907D01*
X8856Y-17007D01*
X8908Y-17097D01*
X8982Y-17171D01*
X9072Y-17223D01*
X9172Y-17250D01*
X9276D01*
X9377Y-17223D01*
X9467Y-17171D01*
X9541Y-17097D01*
X9593Y-17007D01*
X9620Y-16906D01*
Y-16802D01*
X9593Y-16702D01*
X9541Y-16612D01*
X9467Y-16538D01*
X9377Y-16486D01*
X9276Y-16459D01*
X9172D01*
X9072Y-16486D01*
X9004Y-16525D01*
X8999Y-16524D01*
X8952Y-16477D01*
Y-16208D01*
X9002Y-16183D01*
X9072Y-16223D01*
X9172Y-16250D01*
X9276D01*
X9377Y-16223D01*
X9467Y-16171D01*
X9541Y-16097D01*
X9593Y-16007D01*
X9620Y-15906D01*
Y-15802D01*
X9593Y-15702D01*
X9541Y-15612D01*
X9524Y-15595D01*
Y-13339D01*
X9514Y-13261D01*
X9490Y-13204D01*
Y-13140D01*
X9480Y-13063D01*
X9450Y-12991D01*
X9402Y-12929D01*
X9049Y-12576D01*
Y-11124D01*
X9274Y-10899D01*
X9322Y-10837D01*
X9352Y-10765D01*
X9362Y-10688D01*
Y-10647D01*
X9416Y-10593D01*
X9468Y-10503D01*
X9495Y-10402D01*
Y-10298D01*
X9493Y-10290D01*
X9523Y-10250D01*
X9690D01*
X9690Y-17564D01*
D02*
G37*
G36*
X8707Y-10290D02*
X8705Y-10298D01*
Y-10402D01*
X8732Y-10503D01*
X8763Y-10557D01*
Y-10564D01*
X8538Y-10788D01*
X8491Y-10850D01*
X8461Y-10923D01*
X8451Y-11000D01*
Y-12700D01*
X8461Y-12777D01*
X8491Y-12850D01*
X8538Y-12912D01*
X8891Y-13264D01*
Y-13295D01*
X8892Y-13300D01*
X8891Y-13305D01*
X8901Y-13382D01*
X8925Y-13439D01*
Y-15186D01*
X8879Y-15205D01*
X8399Y-14726D01*
Y-11200D01*
Y-10350D01*
X8393Y-10300D01*
X8427Y-10254D01*
X8434Y-10250D01*
X8677D01*
X8707Y-10290D01*
D02*
G37*
%LPC*%
G36*
X-8864Y-10723D02*
X-8936D01*
X-9007Y-10742D01*
X-9070Y-10778D01*
X-9122Y-10830D01*
X-9158Y-10893D01*
X-9177Y-10964D01*
Y-11036D01*
X-9158Y-11107D01*
X-9122Y-11170D01*
X-9070Y-11222D01*
X-9065Y-11225D01*
Y-11275D01*
X-9070Y-11278D01*
X-9122Y-11330D01*
X-9158Y-11393D01*
X-9177Y-11464D01*
Y-11536D01*
X-9158Y-11607D01*
X-9122Y-11670D01*
X-9070Y-11722D01*
X-9007Y-11758D01*
X-8936Y-11777D01*
X-8864D01*
X-8793Y-11758D01*
X-8730Y-11722D01*
X-8678Y-11670D01*
X-8642Y-11607D01*
X-8623Y-11536D01*
Y-11464D01*
X-8642Y-11393D01*
X-8678Y-11330D01*
X-8730Y-11278D01*
X-8735Y-11275D01*
Y-11225D01*
X-8730Y-11222D01*
X-8678Y-11170D01*
X-8642Y-11107D01*
X-8623Y-11036D01*
Y-10964D01*
X-8642Y-10893D01*
X-8678Y-10830D01*
X-8730Y-10778D01*
X-8793Y-10742D01*
X-8864Y-10723D01*
D02*
G37*
G36*
X7386Y-11623D02*
X7314D01*
X7243Y-11642D01*
X7180Y-11678D01*
X7128Y-11730D01*
X7092Y-11793D01*
X7073Y-11864D01*
Y-11936D01*
X7092Y-12007D01*
X7128Y-12070D01*
X7180Y-12122D01*
X7243Y-12158D01*
X7314Y-12177D01*
X7386D01*
X7457Y-12158D01*
X7520Y-12122D01*
X7572Y-12070D01*
X7608Y-12007D01*
X7627Y-11936D01*
Y-11864D01*
X7608Y-11793D01*
X7572Y-11730D01*
X7520Y-11678D01*
X7457Y-11642D01*
X7386Y-11623D01*
D02*
G37*
G36*
X3986Y-11973D02*
X3914D01*
X3843Y-11992D01*
X3780Y-12028D01*
X3728Y-12080D01*
X3692Y-12143D01*
X3673Y-12214D01*
Y-12286D01*
X3692Y-12357D01*
X3728Y-12420D01*
X3780Y-12472D01*
X3843Y-12508D01*
X3914Y-12527D01*
X3986D01*
X4057Y-12508D01*
X4120Y-12472D01*
X4172Y-12420D01*
X4208Y-12357D01*
X4227Y-12286D01*
Y-12214D01*
X4208Y-12143D01*
X4172Y-12080D01*
X4120Y-12028D01*
X4057Y-11992D01*
X3986Y-11973D01*
D02*
G37*
G36*
X386Y-13573D02*
X314D01*
X243Y-13592D01*
X180Y-13628D01*
X128Y-13680D01*
X92Y-13743D01*
X73Y-13814D01*
Y-13886D01*
X92Y-13957D01*
X128Y-14020D01*
X180Y-14072D01*
X243Y-14108D01*
X314Y-14127D01*
X386D01*
X457Y-14108D01*
X520Y-14072D01*
X572Y-14020D01*
X608Y-13957D01*
X627Y-13886D01*
Y-13814D01*
X608Y-13743D01*
X572Y-13680D01*
X520Y-13628D01*
X457Y-13592D01*
X386Y-13573D01*
D02*
G37*
G36*
X-6764Y-15123D02*
X-6836D01*
X-6907Y-15142D01*
X-6970Y-15178D01*
X-7022Y-15230D01*
X-7058Y-15293D01*
X-7077Y-15364D01*
Y-15436D01*
X-7058Y-15507D01*
X-7022Y-15570D01*
X-6970Y-15622D01*
X-6907Y-15658D01*
X-6836Y-15677D01*
X-6764D01*
X-6693Y-15658D01*
X-6630Y-15622D01*
X-6578Y-15570D01*
X-6542Y-15507D01*
X-6523Y-15436D01*
Y-15364D01*
X-6542Y-15293D01*
X-6578Y-15230D01*
X-6630Y-15178D01*
X-6693Y-15142D01*
X-6764Y-15123D01*
D02*
G37*
G36*
X711Y-15598D02*
X639D01*
X568Y-15617D01*
X505Y-15653D01*
X453Y-15705D01*
X417Y-15768D01*
X398Y-15839D01*
Y-15911D01*
X417Y-15982D01*
X453Y-16045D01*
X505Y-16097D01*
X568Y-16133D01*
X639Y-16152D01*
X711D01*
X782Y-16133D01*
X845Y-16097D01*
X897Y-16045D01*
X933Y-15982D01*
X952Y-15911D01*
Y-15839D01*
X933Y-15768D01*
X897Y-15705D01*
X845Y-15653D01*
X782Y-15617D01*
X711Y-15598D01*
D02*
G37*
G36*
X7276Y-15459D02*
X7172D01*
X7072Y-15486D01*
X6982Y-15538D01*
X6908Y-15612D01*
X6856Y-15702D01*
X6829Y-15802D01*
Y-15906D01*
X6856Y-16007D01*
X6908Y-16097D01*
X6982Y-16171D01*
X7072Y-16223D01*
X7172Y-16250D01*
X7276D01*
X7377Y-16223D01*
X7467Y-16171D01*
X7541Y-16097D01*
X7593Y-16007D01*
X7620Y-15906D01*
Y-15802D01*
X7593Y-15702D01*
X7541Y-15612D01*
X7467Y-15538D01*
X7377Y-15486D01*
X7276Y-15459D01*
D02*
G37*
G36*
X6276D02*
X6172D01*
X6072Y-15486D01*
X5982Y-15538D01*
X5908Y-15612D01*
X5856Y-15702D01*
X5829Y-15802D01*
Y-15906D01*
X5856Y-16007D01*
X5908Y-16097D01*
X5982Y-16171D01*
X6072Y-16223D01*
X6172Y-16250D01*
X6276D01*
X6377Y-16223D01*
X6467Y-16171D01*
X6541Y-16097D01*
X6593Y-16007D01*
X6620Y-15906D01*
Y-15802D01*
X6593Y-15702D01*
X6541Y-15612D01*
X6467Y-15538D01*
X6377Y-15486D01*
X6276Y-15459D01*
D02*
G37*
G36*
X5276D02*
X5172D01*
X5072Y-15486D01*
X4982Y-15538D01*
X4908Y-15612D01*
X4856Y-15702D01*
X4829Y-15802D01*
Y-15906D01*
X4856Y-16007D01*
X4908Y-16097D01*
X4982Y-16171D01*
X5072Y-16223D01*
X5172Y-16250D01*
X5276D01*
X5377Y-16223D01*
X5467Y-16171D01*
X5541Y-16097D01*
X5593Y-16007D01*
X5620Y-15906D01*
Y-15802D01*
X5593Y-15702D01*
X5541Y-15612D01*
X5467Y-15538D01*
X5377Y-15486D01*
X5276Y-15459D01*
D02*
G37*
G36*
X1536Y-15973D02*
X1464D01*
X1393Y-15992D01*
X1330Y-16028D01*
X1278Y-16080D01*
X1242Y-16143D01*
X1223Y-16214D01*
Y-16286D01*
X1242Y-16357D01*
X1278Y-16420D01*
X1330Y-16472D01*
X1393Y-16508D01*
X1464Y-16527D01*
X1536D01*
X1607Y-16508D01*
X1670Y-16472D01*
X1722Y-16420D01*
X1758Y-16357D01*
X1777Y-16286D01*
Y-16214D01*
X1758Y-16143D01*
X1722Y-16080D01*
X1670Y-16028D01*
X1607Y-15992D01*
X1536Y-15973D01*
D02*
G37*
G36*
X7276Y-16459D02*
X7172D01*
X7072Y-16486D01*
X6982Y-16538D01*
X6908Y-16612D01*
X6856Y-16702D01*
X6829Y-16802D01*
Y-16906D01*
X6856Y-17007D01*
X6908Y-17097D01*
X6982Y-17171D01*
X7072Y-17223D01*
X7172Y-17250D01*
X7276D01*
X7377Y-17223D01*
X7467Y-17171D01*
X7541Y-17097D01*
X7593Y-17007D01*
X7620Y-16906D01*
Y-16802D01*
X7593Y-16702D01*
X7541Y-16612D01*
X7467Y-16538D01*
X7377Y-16486D01*
X7276Y-16459D01*
D02*
G37*
G36*
X6276D02*
X6172D01*
X6072Y-16486D01*
X5982Y-16538D01*
X5908Y-16612D01*
X5856Y-16702D01*
X5829Y-16802D01*
Y-16906D01*
X5856Y-17007D01*
X5908Y-17097D01*
X5982Y-17171D01*
X6072Y-17223D01*
X6172Y-17250D01*
X6276D01*
X6377Y-17223D01*
X6467Y-17171D01*
X6541Y-17097D01*
X6593Y-17007D01*
X6620Y-16906D01*
Y-16802D01*
X6593Y-16702D01*
X6541Y-16612D01*
X6467Y-16538D01*
X6377Y-16486D01*
X6276Y-16459D01*
D02*
G37*
G36*
X5620D02*
X4829D01*
Y-17250D01*
X5620D01*
Y-16459D01*
D02*
G37*
%LPD*%
D10*
X-508Y-12008D02*
X-100Y-11600D01*
X-557Y-12008D02*
X-508D01*
X-600Y-12526D02*
X100Y-11826D01*
X650Y-650D02*
Y650D01*
X-100Y-11600D02*
Y-4850D01*
X100Y-11826D02*
Y-4950D01*
X450Y-4600D01*
X1350Y4950D02*
Y5550D01*
X-1400Y-5550D02*
Y-4900D01*
X2251Y-4600D02*
X2850Y-4001D01*
X450Y-4600D02*
X2251D01*
X2189Y-4452D02*
X2700Y-3941D01*
X298Y-4452D02*
X2189D01*
X-100Y-4850D02*
X298Y-4452D01*
X5509Y0D02*
X7500D01*
X2700Y-3941D02*
Y-2900D01*
X1044Y-1034D02*
X2850Y-2840D01*
X1200Y-1400D02*
X2700Y-2900D01*
X2850Y-4001D02*
Y-2840D01*
X984Y-1034D02*
X1044D01*
X959Y-1400D02*
X1200D01*
X600Y-1041D02*
Y-650D01*
Y-1041D02*
X959Y-1400D01*
X1350Y4950D02*
X1400D01*
X-1400Y-4900D02*
X-1350D01*
X-650Y-650D02*
X600D01*
X-650D02*
Y650D01*
X600D01*
D62*
X8750Y-16561D02*
Y-15500D01*
Y-16561D02*
X8913Y-16724D01*
X8988D01*
X9118Y-16855D01*
Y-16929D02*
Y-16855D01*
D63*
X6650Y-11092D02*
X6758Y-11200D01*
X1123Y-12950D02*
X2981Y-11092D01*
X6650D01*
X6758Y-11200D02*
X8100D01*
X9190Y-13305D02*
X9224Y-13339D01*
Y-15823D02*
Y-13339D01*
X8100Y-14850D02*
Y-14753D01*
X9156Y-15891D02*
X9224Y-15823D01*
X8100Y-14850D02*
X8750Y-15500D01*
X-2150Y-13950D02*
Y-13600D01*
Y-13950D02*
X-165Y-15935D01*
Y-16700D02*
Y-15935D01*
X3594Y-14794D02*
X7394D01*
X3152D02*
X3594D01*
X5509Y-3150D02*
Y0D01*
Y5550D01*
X8100Y-14753D02*
Y-11200D01*
X9190Y-13295D02*
Y-13140D01*
X-850Y-12950D02*
X1123D01*
X-1445Y-12355D02*
X-850Y-12950D01*
X-1445Y-12445D02*
Y-11469D01*
X-2150Y-13150D02*
X-1445Y-12445D01*
X-2150Y-13600D02*
Y-13150D01*
X-1445Y-11469D02*
X-1277Y-11300D01*
X-306Y-14794D02*
X3152D01*
X1529Y-13171D02*
X3152Y-14794D01*
X-1500Y-13600D02*
X-306Y-14794D01*
X8750Y-12700D02*
Y-11000D01*
Y-12700D02*
X9190Y-13140D01*
X8750Y-11000D02*
X9062Y-10688D01*
Y-10388D01*
X-6050Y-13300D02*
X-5500Y-13850D01*
X-2950Y-13150D02*
X-2150D01*
X-3650Y-13850D02*
X-2950Y-13150D01*
X-5500Y-13850D02*
X-3650D01*
X8100Y-11200D02*
Y-10350D01*
X7100Y-9350D02*
X8100Y-10350D01*
X9062Y-10388D02*
X9100Y-10350D01*
X-5550Y5550D02*
X3050D01*
X7100Y-9350D02*
Y-7850D01*
X7750Y-7200D01*
Y0D01*
X7500D02*
X7750D01*
X-5550Y-5550D02*
Y3100D01*
X-1400Y-5550D02*
X-500D01*
X-3250D02*
X-1400D01*
X450D02*
X5509D01*
Y-4900D01*
X3050Y5550D02*
X5509D01*
X-5550Y-5550D02*
X-3250D01*
X4250Y-3150D02*
X5509D01*
Y-4900D02*
Y-3150D01*
X-3250Y-5550D02*
Y-4300D01*
X-5550Y3100D02*
X-4250D01*
X-5550D02*
Y5550D01*
X3050Y4250D02*
Y5509D01*
D66*
X9224Y-15854D02*
D03*
Y-16854D02*
D03*
X8224Y-15854D02*
D03*
X9100Y-10350D02*
D03*
D68*
X8823Y-17345D02*
D03*
X7878D02*
D03*
X6933Y-14038D02*
D03*
Y-17345D02*
D03*
X6461Y-14038D02*
D03*
X5989D02*
D03*
X5516D02*
D03*
X5044D02*
D03*
X4571Y-16872D02*
D03*
Y-17345D02*
D03*
X4099Y-16872D02*
D03*
Y-17345D02*
D03*
X3626Y-16872D02*
D03*
Y-17345D02*
D03*
X3154Y-16872D02*
D03*
Y-17345D02*
D03*
X2682Y-16872D02*
D03*
Y-17345D02*
D03*
X2209Y-16872D02*
D03*
Y-17345D02*
D03*
X1737D02*
D03*
X1264D02*
D03*
X792Y-12148D02*
D03*
Y-17345D02*
D03*
X319Y-16872D02*
D03*
Y-17345D02*
D03*
X-153D02*
D03*
X-626D02*
D03*
X-1098D02*
D03*
X-1570Y-10731D02*
D03*
Y-15455D02*
D03*
Y-16400D02*
D03*
Y-16872D02*
D03*
Y-17345D02*
D03*
X-2043Y-10731D02*
D03*
Y-15455D02*
D03*
Y-15928D02*
D03*
Y-16400D02*
D03*
Y-16872D02*
D03*
Y-17345D02*
D03*
X-2515Y-15455D02*
D03*
Y-15928D02*
D03*
Y-16400D02*
D03*
Y-16872D02*
D03*
Y-17345D02*
D03*
X-2988Y-15455D02*
D03*
Y-15928D02*
D03*
Y-16400D02*
D03*
Y-16872D02*
D03*
Y-17345D02*
D03*
X-3460Y-15455D02*
D03*
Y-15928D02*
D03*
Y-17345D02*
D03*
X-4405Y-11203D02*
D03*
Y-12620D02*
D03*
Y-15455D02*
D03*
Y-15928D02*
D03*
X-4878Y-11203D02*
D03*
Y-15455D02*
D03*
Y-15928D02*
D03*
X-5350Y-15455D02*
D03*
Y-15928D02*
D03*
X-5822Y-15455D02*
D03*
Y-15928D02*
D03*
X-6295Y-15455D02*
D03*
Y-15928D02*
D03*
X-6767Y-12620D02*
D03*
Y-13093D02*
D03*
X-7240Y-15928D02*
D03*
Y-16400D02*
D03*
Y-16872D02*
D03*
Y-17345D02*
D03*
X-7712Y-15455D02*
D03*
Y-15928D02*
D03*
Y-16400D02*
D03*
Y-16872D02*
D03*
Y-17345D02*
D03*
X-8185Y-15455D02*
D03*
Y-15928D02*
D03*
Y-16400D02*
D03*
Y-16872D02*
D03*
Y-17345D02*
D03*
X-8657Y-15455D02*
D03*
Y-15928D02*
D03*
Y-16400D02*
D03*
Y-16872D02*
D03*
Y-17345D02*
D03*
X-9130Y-12148D02*
D03*
Y-12620D02*
D03*
Y-13093D02*
D03*
Y-15455D02*
D03*
Y-15928D02*
D03*
Y-16400D02*
D03*
Y-16872D02*
D03*
Y-17345D02*
D03*
X-557Y-12008D02*
D03*
X6650Y-11092D02*
D03*
X-4250Y-13250D02*
D03*
X7394Y-14794D02*
D03*
X-600Y-12526D02*
D03*
X5108Y-12242D02*
D03*
X2790Y-12212D02*
D03*
X3594Y-14794D02*
D03*
X3600Y-14050D02*
D03*
X9190Y-13295D02*
D03*
X9250Y-11500D02*
D03*
X6828Y-11872D02*
D03*
X-1277Y-11300D02*
D03*
X-1350Y-13100D02*
D03*
X1529Y-13171D02*
D03*
X1650Y-11300D02*
D03*
X-165Y-16700D02*
D03*
X-1344Y-15856D02*
D03*
X-5750Y-10350D02*
D03*
X-2150Y-13600D02*
D03*
X-1500D02*
D03*
X-6050Y-13300D02*
D03*
X1400Y4950D02*
D03*
X-1350Y-4900D02*
D03*
X-3250Y-4300D02*
D03*
X4250Y-3150D02*
D03*
X3050Y4250D02*
D03*
X-4250Y3100D02*
D03*
X-650Y-650D02*
D03*
X600D02*
D03*
X984Y-1034D02*
D03*
X-650Y650D02*
D03*
X600D02*
D03*
D69*
X550Y-11000D02*
D03*
X-550D02*
D03*
D70*
X-1425Y-8575D02*
D03*
X1425D02*
D03*
M02*
