M48
;Layer_Color=9474304
;FILE_FORMAT=2:4
INCH
;TYPE=PLATED
T1F00S00C0.0118
T2F00S00C0.0236
T3F00S00C0.0354
%
T01
X006933Y-017345
X007878
X008823
X007394Y-014794
X006933Y-014038
X006461
X005989
X006828Y-011872
X007350Y-011900
X006650Y-011092
X006221Y-009465
X005631
X005926Y-008874
X006517
X006221Y-008283
X005631
X005926Y-007693
X006517
X008583Y-007102
X009174
X008879Y-006512
X008288
X007993Y-009465
X008583
X009174
X009250Y-011500
X009190Y-013295
X005516Y-014038
X005044
X003600Y-014050
X003594Y-014794
X003626Y-016872
X004099
X004571
Y-017345
X004099
X003626
X003154
Y-016872
X002682
Y-017345
X002209
Y-016872
X001737Y-017345
X001264
X000792
X000319
Y-016872
X-000165Y-016700
X-000153Y-017345
X-000626
X-001098
X-001570
Y-016872
Y-016400
X-002043
Y-015928
Y-015455
X-001570
X-001344Y-015856
X-002515Y-015928
Y-015455
X-002988
Y-015928
Y-016400
X-002515
Y-016872
X-002043
Y-017345
X-002515
X-002988
Y-016872
X-003460Y-017345
Y-015928
Y-015455
X-004405
Y-015928
X-004878
Y-015455
X-005350
Y-015928
X-005822
Y-015455
X-006295
Y-015928
X-007240
Y-016400
Y-016872
Y-017345
X-007712
Y-016872
Y-016400
Y-015928
Y-015455
X-008185
Y-015928
Y-016400
Y-016872
Y-017345
X-008657
Y-016872
Y-016400
Y-015928
Y-015455
X-009130
Y-015928
Y-016400
Y-016872
Y-017345
Y-013093
Y-012620
Y-012148
X-008900Y-011500
Y-011000
X-008543Y-009465
X-007952
X-007361
X-006771
X-006180
X-005590
X-004999
X-004409
X-003818
X-003228
X-003523Y-008874
X-004113
X-004704
X-005294
X-005885
X-006476
X-007066
X-006771Y-008283
X-006180
X-005590
X-004999
X-004409
X-003818
X-003228
X-003523Y-007693
X-004113
X-004704
X-005294
X-005885
X-006476
X-007066
X-007952Y-007102
X-008543
X-008247Y-006512
X-007657
X-005750Y-010350
X-004878Y-011203
X-004405
X-003845Y-010408
X-002043Y-010731
X-001570
X-001277Y-011300
X-000557Y-012008
X-000600Y-012526
X-001350Y-013100
X-001500Y-013600
X-002150
X-003450Y-013050
X-004250Y-013250
X-004405Y-012620
X-006050Y-013300
X-006767Y-013093
Y-012620
X-006800Y-015400
X000675Y-015875
X001500Y-016250
X001529Y-013171
X000792Y-012148
X001650Y-011300
X002790Y-012212
X003950Y-012250
X005108Y-012242
X005040Y-009465
X004450
X003859
X003268
X003564Y-008874
X004154
X004745
X005335
X005040Y-008283
X004450
X003859
X003268
X003564Y-007693
X004154
X004745
X005335
X000350Y-013850
X000800Y-004900
X001350
X-000800
X-001350
X-003250Y-004300
X-004600Y-003500
X-005050Y-003700
X-004350Y-003100
X-004600Y-001200
X-004900Y-000900
Y000850
Y001450
X-004250Y003100
X-003701Y004751
X-003350Y004550
X-003050Y004250
X-001500Y004950
X-000900Y004850
X000800
X001400Y004950
X003050Y004250
X004451Y003549
X004800Y003800
X004225Y003150
X004900Y001300
X004850Y000700
X005076Y000000
X004850Y-000700
Y-001200
X004250Y-003150
X003500Y-004500
X003600Y-004950
X003100Y-004300
X000984Y-001034
X000600Y-000650
X-000650
X-001041Y-001041
X-001047Y000997
X-000650Y000650
X000600
X000991Y000991
X001202Y007661
X001792
X002383
X002973
X003564
X004154
X004745
X005335
X005040Y008252
X004450
X003859
X003268
X002678
X002087
X001497
X000906
X000316
X-000275
X-000865
X-001456
X-002046
X-002637
X-003228
X-003818
X-004409
X-004999
X-005590
X-006180
X-006771
X-006476Y008843
X-005885
X-005294
X-004704
X-004113
X-003523
X-002932
X-002342
X-001751
X-001161
X-000570
X000020
X000611
X001202
X001792
X002383
X002973
X003564
X004154
X004745
X005335
X000611Y007661
X000020
X-000570
X-001161
X-001751
X-002342
X-002932
X-003523
X-004113
X-004704
X-005294
X-005885
X-006476
X-007066
Y008843
X-007952Y007071
X-008543
X-009133
X-008838Y006480
X-008247
X-007657
X-007952Y005890
X-008543
X-009133
X-008838Y005299
X-008247
X-007657
X-007952Y004709
X-008543
X-009133
X-008838Y004118
X-008247
X-007657
X-007952Y003528
X-008543
X-009133
X-008838Y002937
X-008247
X-007657
X-007952Y002346
X-008543
X-009133
X-008838Y001756
X-008247
X-007657
X-007952Y001165
X-008543
X-009133
X-008838Y000575
X-008247
X-007657
X-008543Y-000016
X-009133
X-008838Y-000606
X-008247
X-008543Y-001197
X-009133
X-008838Y-001787
X-008247
X-008543Y-002378
X-009133
X-008838Y-002969
X-008247
X-008543Y-003559
X-009133
X-008838Y-004150
X-008247
X-008543Y-004740
X-009133
X-008838Y-005331
X-009133Y-005921
X008583
X009174
X008879Y-005331
X008288
X008583Y-004740
X009174
X008879Y-004150
X008288
X008583Y-003559
X009174
X008879Y-002969
X008288
X008583Y-002378
X009174
X008879Y-001787
X008288
X008583Y-001197
X009174
X008879Y-000606
X008288
X008583Y-000016
X009174
X008879Y000575
X008288
X007698
X007993Y001165
X008583
X009174
X008879Y001756
X008288
X007698
X007993Y002346
X008583
X009174
X008879Y002937
X008288
X007698
X007993Y003528
X008583
X009174
X008879Y004118
X008288
X007698
X007993Y004709
X008583
X009174
X008879Y005299
X008288
X007698
X007993Y005890
X008583
X009174
X008879Y006480
X008288
X007698
X007993Y007071
X008583
X009174
X007107Y007661
X006517
X005926
X005631Y008252
X006221
X006812
X007107Y008843
X006517
X005926
T02
X009100Y-010350
T03
X006224Y-016854
X007224
X008224
X009224
Y-015854
X008224
X007224
X006224
X005224
Y-016854
M30
