G04*
G04 #@! TF.GenerationSoftware,Altium Limited,Altium Designer,22.9.1 (49)*
G04*
G04 Layer_Color=65535*
%FSLAX24Y24*%
%MOIN*%
G70*
G04*
G04 #@! TF.SameCoordinates,552243BB-0F40-405C-A021-40A65FA5EEAB*
G04*
G04*
G04 #@! TF.FilePolarity,Positive*
G04*
G01*
G75*
%ADD10C,0.0098*%
%ADD11C,0.0079*%
%ADD12C,0.0049*%
%ADD13C,0.0059*%
G36*
X-1633Y-14809D02*
X-1631Y-14810D01*
X-1630Y-14810D01*
X-1628Y-14810D01*
X-1626Y-14810D01*
X-1622Y-14811D01*
X-1618Y-14812D01*
X-1616Y-14813D01*
X-1614Y-14814D01*
X-1612Y-14815D01*
X-1610Y-14817D01*
X-1610Y-14817D01*
X-1610Y-14817D01*
X-1610Y-14818D01*
X-1609Y-14818D01*
X-1609Y-14819D01*
X-1608Y-14820D01*
X-1607Y-14821D01*
X-1607Y-14822D01*
X-1606Y-14823D01*
X-1605Y-14825D01*
X-1604Y-14827D01*
X-1604Y-14828D01*
X-1603Y-14830D01*
X-1603Y-14832D01*
X-1603Y-14835D01*
X-1602Y-14837D01*
Y-14838D01*
X-1603Y-14839D01*
X-1603Y-14840D01*
X-1603Y-14841D01*
X-1603Y-14843D01*
X-1603Y-14844D01*
X-1604Y-14848D01*
X-1605Y-14849D01*
X-1606Y-14851D01*
X-1607Y-14853D01*
X-1608Y-14854D01*
X-1609Y-14856D01*
X-1610Y-14857D01*
X-1611Y-14857D01*
X-1611Y-14858D01*
X-1611Y-14858D01*
X-1612Y-14858D01*
X-1613Y-14859D01*
X-1614Y-14860D01*
X-1615Y-14860D01*
X-1617Y-14861D01*
X-1618Y-14862D01*
X-1620Y-14862D01*
X-1622Y-14863D01*
X-1624Y-14864D01*
X-1627Y-14864D01*
X-1630Y-14864D01*
X-1632Y-14865D01*
X-1636Y-14865D01*
X-1636D01*
X-1636D01*
X-1637D01*
X-1638Y-14865D01*
X-1640Y-14864D01*
X-1641Y-14864D01*
X-1643Y-14864D01*
X-1645Y-14864D01*
X-1649Y-14863D01*
X-1653Y-14862D01*
X-1655Y-14861D01*
X-1657Y-14860D01*
X-1659Y-14859D01*
X-1661Y-14857D01*
X-1661Y-14857D01*
X-1661Y-14857D01*
X-1661Y-14857D01*
X-1662Y-14856D01*
X-1663Y-14855D01*
X-1663Y-14854D01*
X-1664Y-14853D01*
X-1665Y-14852D01*
X-1666Y-14851D01*
X-1666Y-14849D01*
X-1667Y-14848D01*
X-1668Y-14846D01*
X-1668Y-14844D01*
X-1668Y-14842D01*
X-1669Y-14839D01*
X-1669Y-14837D01*
Y-14836D01*
X-1669Y-14835D01*
X-1669Y-14834D01*
X-1668Y-14833D01*
X-1668Y-14831D01*
X-1668Y-14830D01*
X-1667Y-14826D01*
X-1666Y-14825D01*
X-1665Y-14823D01*
X-1664Y-14821D01*
X-1663Y-14820D01*
X-1662Y-14818D01*
X-1661Y-14817D01*
X-1661Y-14817D01*
X-1660Y-14817D01*
X-1660Y-14816D01*
X-1659Y-14816D01*
X-1658Y-14815D01*
X-1657Y-14815D01*
X-1656Y-14814D01*
X-1655Y-14813D01*
X-1653Y-14812D01*
X-1651Y-14812D01*
X-1649Y-14811D01*
X-1647Y-14811D01*
X-1644Y-14810D01*
X-1642Y-14810D01*
X-1639Y-14809D01*
X-1636Y-14809D01*
X-1636D01*
X-1635D01*
X-1634D01*
X-1633Y-14809D01*
D02*
G37*
G36*
X-1603Y-14904D02*
Y-14921D01*
X-1735Y-14855D01*
Y-14837D01*
X-1603Y-14904D01*
D02*
G37*
G36*
X-1699Y-14894D02*
X-1698Y-14894D01*
X-1696Y-14894D01*
X-1695Y-14895D01*
X-1693Y-14895D01*
X-1689Y-14896D01*
X-1684Y-14897D01*
X-1682Y-14898D01*
X-1681Y-14899D01*
X-1679Y-14900D01*
X-1677Y-14901D01*
X-1677Y-14902D01*
X-1677Y-14902D01*
X-1676Y-14902D01*
X-1676Y-14903D01*
X-1675Y-14903D01*
X-1675Y-14904D01*
X-1674Y-14906D01*
X-1673Y-14907D01*
X-1672Y-14908D01*
X-1672Y-14910D01*
X-1671Y-14911D01*
X-1670Y-14913D01*
X-1670Y-14915D01*
X-1670Y-14917D01*
X-1669Y-14919D01*
X-1669Y-14921D01*
Y-14923D01*
X-1669Y-14924D01*
X-1669Y-14925D01*
X-1670Y-14926D01*
X-1670Y-14927D01*
X-1670Y-14929D01*
X-1671Y-14932D01*
X-1672Y-14934D01*
X-1672Y-14936D01*
X-1673Y-14937D01*
X-1675Y-14939D01*
X-1676Y-14940D01*
X-1677Y-14942D01*
X-1677Y-14942D01*
X-1678Y-14942D01*
X-1678Y-14943D01*
X-1679Y-14943D01*
X-1679Y-14944D01*
X-1681Y-14944D01*
X-1682Y-14945D01*
X-1683Y-14946D01*
X-1685Y-14946D01*
X-1687Y-14947D01*
X-1689Y-14948D01*
X-1691Y-14948D01*
X-1693Y-14949D01*
X-1696Y-14949D01*
X-1699Y-14949D01*
X-1702Y-14949D01*
X-1702D01*
X-1703D01*
X-1704D01*
X-1705Y-14949D01*
X-1706Y-14949D01*
X-1708Y-14949D01*
X-1709Y-14949D01*
X-1711Y-14948D01*
X-1715Y-14948D01*
X-1720Y-14946D01*
X-1722Y-14945D01*
X-1723Y-14944D01*
X-1725Y-14943D01*
X-1727Y-14942D01*
X-1727Y-14942D01*
X-1727Y-14942D01*
X-1728Y-14941D01*
X-1728Y-14941D01*
X-1729Y-14940D01*
X-1729Y-14939D01*
X-1730Y-14938D01*
X-1731Y-14937D01*
X-1732Y-14935D01*
X-1732Y-14934D01*
X-1733Y-14932D01*
X-1734Y-14930D01*
X-1734Y-14928D01*
X-1735Y-14926D01*
X-1735Y-14924D01*
X-1735Y-14922D01*
Y-14921D01*
X-1735Y-14920D01*
X-1735Y-14919D01*
X-1735Y-14917D01*
X-1734Y-14916D01*
X-1734Y-14914D01*
X-1733Y-14911D01*
X-1732Y-14909D01*
X-1732Y-14908D01*
X-1731Y-14906D01*
X-1730Y-14904D01*
X-1728Y-14903D01*
X-1727Y-14901D01*
X-1727Y-14901D01*
X-1726Y-14901D01*
X-1726Y-14901D01*
X-1725Y-14900D01*
X-1725Y-14900D01*
X-1723Y-14899D01*
X-1722Y-14898D01*
X-1721Y-14898D01*
X-1719Y-14897D01*
X-1717Y-14896D01*
X-1715Y-14896D01*
X-1713Y-14895D01*
X-1711Y-14895D01*
X-1708Y-14894D01*
X-1705Y-14894D01*
X-1702Y-14894D01*
X-1702D01*
X-1701D01*
X-1700D01*
X-1699Y-14894D01*
D02*
G37*
G36*
X-1607Y-15010D02*
X-1698D01*
X-1698Y-15010D01*
X-1697Y-15010D01*
X-1697Y-15011D01*
X-1696Y-15012D01*
X-1695Y-15013D01*
X-1694Y-15015D01*
X-1692Y-15016D01*
X-1691Y-15018D01*
X-1689Y-15021D01*
X-1688Y-15023D01*
X-1687Y-15025D01*
X-1685Y-15028D01*
X-1683Y-15031D01*
X-1682Y-15034D01*
X-1681Y-15037D01*
X-1680Y-15041D01*
X-1702D01*
Y-15040D01*
X-1702Y-15040D01*
X-1702Y-15040D01*
X-1702Y-15039D01*
X-1703Y-15038D01*
X-1703Y-15037D01*
X-1704Y-15036D01*
X-1704Y-15034D01*
X-1706Y-15031D01*
X-1708Y-15028D01*
X-1710Y-15024D01*
X-1713Y-15020D01*
X-1713Y-15020D01*
X-1714Y-15020D01*
X-1714Y-15019D01*
X-1715Y-15018D01*
X-1715Y-15017D01*
X-1717Y-15016D01*
X-1718Y-15015D01*
X-1719Y-15014D01*
X-1722Y-15012D01*
X-1725Y-15009D01*
X-1729Y-15007D01*
X-1731Y-15006D01*
X-1733Y-15005D01*
Y-14985D01*
X-1607D01*
Y-15010D01*
D02*
G37*
G36*
X-1898Y-13860D02*
X-1898Y-13860D01*
X-1898Y-13860D01*
X-1898Y-13861D01*
X-1897Y-13862D01*
X-1897Y-13863D01*
X-1896Y-13864D01*
X-1896Y-13866D01*
X-1894Y-13869D01*
X-1892Y-13872D01*
X-1890Y-13876D01*
X-1887Y-13880D01*
X-1887Y-13880D01*
X-1886Y-13880D01*
X-1886Y-13881D01*
X-1885Y-13882D01*
X-1885Y-13883D01*
X-1883Y-13884D01*
X-1882Y-13885D01*
X-1881Y-13886D01*
X-1878Y-13888D01*
X-1875Y-13891D01*
X-1871Y-13893D01*
X-1869Y-13894D01*
X-1867Y-13895D01*
Y-13915D01*
X-1993D01*
Y-13890D01*
X-1902D01*
X-1902Y-13890D01*
X-1903Y-13890D01*
X-1903Y-13889D01*
X-1904Y-13888D01*
X-1905Y-13887D01*
X-1906Y-13885D01*
X-1908Y-13884D01*
X-1909Y-13882D01*
X-1911Y-13879D01*
X-1912Y-13877D01*
X-1913Y-13875D01*
X-1915Y-13872D01*
X-1917Y-13869D01*
X-1918Y-13866D01*
X-1919Y-13863D01*
X-1920Y-13859D01*
X-1898D01*
Y-13860D01*
D02*
G37*
G36*
X-1895Y-13951D02*
X-1894Y-13951D01*
X-1892Y-13951D01*
X-1891Y-13951D01*
X-1889Y-13952D01*
X-1885Y-13952D01*
X-1880Y-13954D01*
X-1878Y-13955D01*
X-1877Y-13956D01*
X-1875Y-13957D01*
X-1873Y-13958D01*
X-1873Y-13958D01*
X-1873Y-13958D01*
X-1872Y-13959D01*
X-1872Y-13959D01*
X-1871Y-13960D01*
X-1871Y-13961D01*
X-1870Y-13962D01*
X-1869Y-13963D01*
X-1868Y-13965D01*
X-1868Y-13966D01*
X-1867Y-13968D01*
X-1866Y-13970D01*
X-1866Y-13972D01*
X-1865Y-13974D01*
X-1865Y-13976D01*
X-1865Y-13978D01*
Y-13979D01*
X-1865Y-13980D01*
X-1865Y-13981D01*
X-1865Y-13983D01*
X-1866Y-13984D01*
X-1866Y-13986D01*
X-1867Y-13989D01*
X-1868Y-13991D01*
X-1868Y-13992D01*
X-1869Y-13994D01*
X-1870Y-13996D01*
X-1872Y-13997D01*
X-1873Y-13999D01*
X-1873Y-13999D01*
X-1874Y-13999D01*
X-1874Y-13999D01*
X-1875Y-14000D01*
X-1875Y-14000D01*
X-1877Y-14001D01*
X-1878Y-14002D01*
X-1879Y-14002D01*
X-1881Y-14003D01*
X-1883Y-14004D01*
X-1885Y-14004D01*
X-1887Y-14005D01*
X-1889Y-14005D01*
X-1892Y-14006D01*
X-1895Y-14006D01*
X-1898Y-14006D01*
X-1898D01*
X-1899D01*
X-1900D01*
X-1901Y-14006D01*
X-1902Y-14006D01*
X-1904Y-14006D01*
X-1905Y-14005D01*
X-1907Y-14005D01*
X-1911Y-14004D01*
X-1916Y-14003D01*
X-1918Y-14002D01*
X-1919Y-14001D01*
X-1921Y-14000D01*
X-1923Y-13999D01*
X-1923Y-13998D01*
X-1923Y-13998D01*
X-1924Y-13998D01*
X-1924Y-13997D01*
X-1925Y-13997D01*
X-1925Y-13996D01*
X-1926Y-13994D01*
X-1927Y-13993D01*
X-1928Y-13992D01*
X-1928Y-13990D01*
X-1929Y-13989D01*
X-1930Y-13987D01*
X-1930Y-13985D01*
X-1930Y-13983D01*
X-1931Y-13981D01*
X-1931Y-13979D01*
Y-13977D01*
X-1931Y-13976D01*
X-1931Y-13975D01*
X-1930Y-13974D01*
X-1930Y-13973D01*
X-1930Y-13971D01*
X-1929Y-13968D01*
X-1928Y-13966D01*
X-1928Y-13964D01*
X-1927Y-13963D01*
X-1925Y-13961D01*
X-1924Y-13960D01*
X-1923Y-13958D01*
X-1923Y-13958D01*
X-1922Y-13958D01*
X-1922Y-13957D01*
X-1921Y-13957D01*
X-1921Y-13956D01*
X-1919Y-13956D01*
X-1918Y-13955D01*
X-1917Y-13954D01*
X-1915Y-13954D01*
X-1913Y-13953D01*
X-1911Y-13952D01*
X-1909Y-13952D01*
X-1907Y-13951D01*
X-1904Y-13951D01*
X-1901Y-13951D01*
X-1898Y-13951D01*
X-1898D01*
X-1897D01*
X-1896D01*
X-1895Y-13951D01*
D02*
G37*
G36*
X-1865Y-14045D02*
Y-14063D01*
X-1997Y-13996D01*
Y-13979D01*
X-1865Y-14045D01*
D02*
G37*
G36*
X-1962Y-14035D02*
X-1960Y-14036D01*
X-1959Y-14036D01*
X-1957Y-14036D01*
X-1955Y-14036D01*
X-1951Y-14037D01*
X-1947Y-14038D01*
X-1945Y-14039D01*
X-1943Y-14040D01*
X-1941Y-14041D01*
X-1939Y-14043D01*
X-1939Y-14043D01*
X-1939Y-14043D01*
X-1939Y-14043D01*
X-1938Y-14044D01*
X-1937Y-14045D01*
X-1937Y-14046D01*
X-1936Y-14047D01*
X-1935Y-14048D01*
X-1934Y-14049D01*
X-1934Y-14051D01*
X-1933Y-14052D01*
X-1932Y-14054D01*
X-1932Y-14056D01*
X-1932Y-14058D01*
X-1931Y-14061D01*
X-1931Y-14063D01*
Y-14064D01*
X-1931Y-14065D01*
X-1931Y-14066D01*
X-1932Y-14067D01*
X-1932Y-14069D01*
X-1932Y-14070D01*
X-1933Y-14074D01*
X-1934Y-14075D01*
X-1935Y-14077D01*
X-1936Y-14079D01*
X-1937Y-14080D01*
X-1938Y-14082D01*
X-1939Y-14083D01*
X-1939Y-14083D01*
X-1940Y-14083D01*
X-1940Y-14084D01*
X-1941Y-14084D01*
X-1942Y-14085D01*
X-1943Y-14085D01*
X-1944Y-14086D01*
X-1945Y-14087D01*
X-1947Y-14088D01*
X-1949Y-14088D01*
X-1951Y-14089D01*
X-1953Y-14089D01*
X-1956Y-14090D01*
X-1958Y-14090D01*
X-1961Y-14091D01*
X-1964Y-14091D01*
X-1964D01*
X-1965D01*
X-1966D01*
X-1967Y-14091D01*
X-1969Y-14090D01*
X-1970Y-14090D01*
X-1972Y-14090D01*
X-1974Y-14090D01*
X-1978Y-14089D01*
X-1982Y-14088D01*
X-1984Y-14087D01*
X-1986Y-14086D01*
X-1988Y-14085D01*
X-1990Y-14083D01*
X-1990Y-14083D01*
X-1990Y-14083D01*
X-1990Y-14082D01*
X-1991Y-14082D01*
X-1991Y-14081D01*
X-1992Y-14080D01*
X-1993Y-14079D01*
X-1993Y-14078D01*
X-1994Y-14076D01*
X-1995Y-14075D01*
X-1996Y-14073D01*
X-1996Y-14072D01*
X-1997Y-14070D01*
X-1997Y-14068D01*
X-1997Y-14065D01*
X-1998Y-14063D01*
Y-14062D01*
X-1997Y-14061D01*
X-1997Y-14060D01*
X-1997Y-14059D01*
X-1997Y-14057D01*
X-1997Y-14056D01*
X-1996Y-14052D01*
X-1995Y-14051D01*
X-1994Y-14049D01*
X-1993Y-14047D01*
X-1992Y-14046D01*
X-1991Y-14044D01*
X-1990Y-14043D01*
X-1989Y-14043D01*
X-1989Y-14042D01*
X-1989Y-14042D01*
X-1988Y-14042D01*
X-1987Y-14041D01*
X-1986Y-14040D01*
X-1985Y-14040D01*
X-1983Y-14039D01*
X-1982Y-14038D01*
X-1980Y-14038D01*
X-1978Y-14037D01*
X-1976Y-14036D01*
X-1973Y-14036D01*
X-1970Y-14036D01*
X-1968Y-14035D01*
X-1964Y-14035D01*
X-1964D01*
X-1964D01*
X-1963D01*
X-1962Y-14035D01*
D02*
G37*
G36*
X-7611Y-11853D02*
X-7610Y-11853D01*
X-7609Y-11853D01*
X-7607Y-11853D01*
X-7606Y-11853D01*
X-7602Y-11854D01*
X-7601Y-11855D01*
X-7599Y-11856D01*
X-7597Y-11857D01*
X-7596Y-11858D01*
X-7594Y-11859D01*
X-7593Y-11860D01*
X-7592Y-11861D01*
X-7592Y-11861D01*
X-7592Y-11861D01*
X-7592Y-11862D01*
X-7591Y-11863D01*
X-7590Y-11864D01*
X-7590Y-11865D01*
X-7589Y-11867D01*
X-7588Y-11868D01*
X-7588Y-11870D01*
X-7587Y-11872D01*
X-7586Y-11874D01*
X-7586Y-11877D01*
X-7586Y-11880D01*
X-7585Y-11882D01*
X-7585Y-11886D01*
Y-11886D01*
Y-11886D01*
Y-11887D01*
X-7585Y-11888D01*
X-7586Y-11890D01*
X-7586Y-11891D01*
X-7586Y-11893D01*
X-7586Y-11895D01*
X-7587Y-11899D01*
X-7588Y-11903D01*
X-7589Y-11905D01*
X-7590Y-11907D01*
X-7591Y-11909D01*
X-7593Y-11911D01*
X-7593Y-11911D01*
X-7593Y-11911D01*
X-7593Y-11911D01*
X-7594Y-11912D01*
X-7595Y-11913D01*
X-7596Y-11913D01*
X-7597Y-11914D01*
X-7598Y-11915D01*
X-7599Y-11916D01*
X-7601Y-11916D01*
X-7602Y-11917D01*
X-7604Y-11918D01*
X-7606Y-11918D01*
X-7608Y-11918D01*
X-7611Y-11919D01*
X-7613Y-11919D01*
X-7614D01*
X-7615Y-11919D01*
X-7616Y-11919D01*
X-7617Y-11918D01*
X-7619Y-11918D01*
X-7620Y-11918D01*
X-7624Y-11917D01*
X-7625Y-11916D01*
X-7627Y-11915D01*
X-7629Y-11914D01*
X-7630Y-11913D01*
X-7632Y-11912D01*
X-7633Y-11911D01*
X-7633Y-11911D01*
X-7633Y-11910D01*
X-7634Y-11910D01*
X-7634Y-11909D01*
X-7635Y-11908D01*
X-7635Y-11907D01*
X-7636Y-11906D01*
X-7637Y-11905D01*
X-7638Y-11903D01*
X-7638Y-11901D01*
X-7639Y-11899D01*
X-7639Y-11897D01*
X-7640Y-11894D01*
X-7640Y-11892D01*
X-7641Y-11889D01*
X-7641Y-11886D01*
Y-11885D01*
Y-11885D01*
Y-11884D01*
X-7641Y-11883D01*
X-7640Y-11881D01*
X-7640Y-11880D01*
X-7640Y-11878D01*
X-7640Y-11876D01*
X-7639Y-11872D01*
X-7638Y-11868D01*
X-7637Y-11866D01*
X-7636Y-11864D01*
X-7635Y-11862D01*
X-7633Y-11860D01*
X-7633Y-11860D01*
X-7633Y-11860D01*
X-7632Y-11860D01*
X-7632Y-11859D01*
X-7631Y-11859D01*
X-7630Y-11858D01*
X-7629Y-11857D01*
X-7628Y-11857D01*
X-7627Y-11856D01*
X-7625Y-11855D01*
X-7623Y-11854D01*
X-7622Y-11854D01*
X-7620Y-11853D01*
X-7618Y-11853D01*
X-7615Y-11853D01*
X-7613Y-11852D01*
X-7612D01*
X-7611Y-11853D01*
D02*
G37*
G36*
X-7440Y-11948D02*
X-7440Y-11948D01*
X-7440Y-11947D01*
X-7439Y-11947D01*
X-7438Y-11946D01*
X-7437Y-11945D01*
X-7435Y-11944D01*
X-7434Y-11942D01*
X-7432Y-11941D01*
X-7429Y-11939D01*
X-7427Y-11938D01*
X-7425Y-11937D01*
X-7422Y-11935D01*
X-7419Y-11933D01*
X-7416Y-11932D01*
X-7413Y-11931D01*
X-7409Y-11930D01*
Y-11952D01*
X-7410D01*
X-7410Y-11952D01*
X-7410Y-11952D01*
X-7411Y-11952D01*
X-7412Y-11953D01*
X-7413Y-11953D01*
X-7414Y-11954D01*
X-7416Y-11954D01*
X-7419Y-11956D01*
X-7422Y-11958D01*
X-7426Y-11960D01*
X-7430Y-11963D01*
X-7430Y-11963D01*
X-7430Y-11964D01*
X-7431Y-11964D01*
X-7432Y-11965D01*
X-7433Y-11965D01*
X-7434Y-11967D01*
X-7435Y-11968D01*
X-7436Y-11969D01*
X-7438Y-11972D01*
X-7441Y-11975D01*
X-7443Y-11979D01*
X-7444Y-11981D01*
X-7445Y-11983D01*
X-7465D01*
Y-11857D01*
X-7440D01*
Y-11948D01*
D02*
G37*
G36*
X-7526Y-11919D02*
X-7525Y-11919D01*
X-7524Y-11919D01*
X-7523Y-11920D01*
X-7521Y-11920D01*
X-7518Y-11921D01*
X-7516Y-11922D01*
X-7514Y-11922D01*
X-7513Y-11923D01*
X-7511Y-11925D01*
X-7510Y-11926D01*
X-7508Y-11927D01*
X-7508Y-11927D01*
X-7508Y-11928D01*
X-7507Y-11928D01*
X-7507Y-11929D01*
X-7506Y-11929D01*
X-7506Y-11931D01*
X-7505Y-11932D01*
X-7504Y-11933D01*
X-7504Y-11935D01*
X-7503Y-11937D01*
X-7502Y-11939D01*
X-7502Y-11941D01*
X-7501Y-11943D01*
X-7501Y-11946D01*
X-7501Y-11949D01*
X-7501Y-11952D01*
Y-11952D01*
Y-11953D01*
Y-11954D01*
X-7501Y-11955D01*
X-7501Y-11956D01*
X-7501Y-11958D01*
X-7501Y-11959D01*
X-7502Y-11961D01*
X-7502Y-11965D01*
X-7504Y-11970D01*
X-7505Y-11972D01*
X-7506Y-11973D01*
X-7507Y-11975D01*
X-7508Y-11977D01*
X-7508Y-11977D01*
X-7508Y-11977D01*
X-7509Y-11978D01*
X-7509Y-11978D01*
X-7510Y-11979D01*
X-7511Y-11979D01*
X-7512Y-11980D01*
X-7513Y-11981D01*
X-7515Y-11982D01*
X-7516Y-11982D01*
X-7518Y-11983D01*
X-7520Y-11984D01*
X-7522Y-11984D01*
X-7524Y-11985D01*
X-7526Y-11985D01*
X-7528Y-11985D01*
X-7529D01*
X-7530Y-11985D01*
X-7531Y-11985D01*
X-7533Y-11985D01*
X-7534Y-11984D01*
X-7536Y-11984D01*
X-7539Y-11983D01*
X-7541Y-11982D01*
X-7542Y-11982D01*
X-7544Y-11981D01*
X-7546Y-11980D01*
X-7547Y-11978D01*
X-7549Y-11977D01*
X-7549Y-11977D01*
X-7549Y-11976D01*
X-7549Y-11976D01*
X-7550Y-11975D01*
X-7550Y-11975D01*
X-7551Y-11973D01*
X-7552Y-11972D01*
X-7552Y-11971D01*
X-7553Y-11969D01*
X-7554Y-11967D01*
X-7554Y-11965D01*
X-7555Y-11963D01*
X-7555Y-11961D01*
X-7556Y-11958D01*
X-7556Y-11955D01*
X-7556Y-11952D01*
Y-11952D01*
Y-11951D01*
Y-11950D01*
X-7556Y-11949D01*
X-7556Y-11948D01*
X-7556Y-11946D01*
X-7555Y-11945D01*
X-7555Y-11943D01*
X-7554Y-11939D01*
X-7553Y-11934D01*
X-7552Y-11932D01*
X-7551Y-11931D01*
X-7550Y-11929D01*
X-7549Y-11927D01*
X-7548Y-11927D01*
X-7548Y-11927D01*
X-7548Y-11926D01*
X-7547Y-11926D01*
X-7547Y-11925D01*
X-7546Y-11925D01*
X-7545Y-11924D01*
X-7543Y-11923D01*
X-7542Y-11922D01*
X-7540Y-11922D01*
X-7539Y-11921D01*
X-7537Y-11920D01*
X-7535Y-11920D01*
X-7533Y-11919D01*
X-7531Y-11919D01*
X-7529Y-11919D01*
X-7527D01*
X-7526Y-11919D01*
D02*
G37*
G36*
X-7595Y-11985D02*
X-7613D01*
X-7546Y-11853D01*
X-7529D01*
X-7595Y-11985D01*
D02*
G37*
G36*
X-7611Y-11203D02*
X-7610Y-11203D01*
X-7609Y-11203D01*
X-7607Y-11203D01*
X-7606Y-11203D01*
X-7602Y-11204D01*
X-7601Y-11205D01*
X-7599Y-11206D01*
X-7597Y-11207D01*
X-7596Y-11208D01*
X-7594Y-11209D01*
X-7593Y-11210D01*
X-7592Y-11211D01*
X-7592Y-11211D01*
X-7592Y-11211D01*
X-7592Y-11212D01*
X-7591Y-11213D01*
X-7590Y-11214D01*
X-7590Y-11215D01*
X-7589Y-11217D01*
X-7588Y-11218D01*
X-7588Y-11220D01*
X-7587Y-11222D01*
X-7586Y-11224D01*
X-7586Y-11227D01*
X-7586Y-11230D01*
X-7585Y-11233D01*
X-7585Y-11236D01*
Y-11236D01*
Y-11236D01*
Y-11237D01*
X-7585Y-11238D01*
X-7586Y-11240D01*
X-7586Y-11241D01*
X-7586Y-11243D01*
X-7586Y-11245D01*
X-7587Y-11249D01*
X-7588Y-11253D01*
X-7589Y-11255D01*
X-7590Y-11257D01*
X-7591Y-11259D01*
X-7593Y-11261D01*
X-7593Y-11261D01*
X-7593Y-11261D01*
X-7593Y-11261D01*
X-7594Y-11262D01*
X-7595Y-11263D01*
X-7596Y-11263D01*
X-7597Y-11264D01*
X-7598Y-11265D01*
X-7599Y-11266D01*
X-7601Y-11266D01*
X-7602Y-11267D01*
X-7604Y-11268D01*
X-7606Y-11268D01*
X-7608Y-11268D01*
X-7611Y-11269D01*
X-7613Y-11269D01*
X-7614D01*
X-7615Y-11269D01*
X-7616Y-11269D01*
X-7617Y-11268D01*
X-7619Y-11268D01*
X-7620Y-11268D01*
X-7624Y-11267D01*
X-7625Y-11266D01*
X-7627Y-11265D01*
X-7629Y-11264D01*
X-7630Y-11263D01*
X-7632Y-11262D01*
X-7633Y-11261D01*
X-7633Y-11261D01*
X-7633Y-11260D01*
X-7634Y-11260D01*
X-7634Y-11259D01*
X-7635Y-11258D01*
X-7635Y-11257D01*
X-7636Y-11256D01*
X-7637Y-11255D01*
X-7638Y-11253D01*
X-7638Y-11251D01*
X-7639Y-11249D01*
X-7639Y-11247D01*
X-7640Y-11244D01*
X-7640Y-11242D01*
X-7641Y-11239D01*
X-7641Y-11236D01*
Y-11236D01*
Y-11235D01*
Y-11234D01*
X-7641Y-11233D01*
X-7640Y-11231D01*
X-7640Y-11230D01*
X-7640Y-11228D01*
X-7640Y-11226D01*
X-7639Y-11222D01*
X-7638Y-11218D01*
X-7637Y-11216D01*
X-7636Y-11214D01*
X-7635Y-11212D01*
X-7633Y-11210D01*
X-7633Y-11210D01*
X-7633Y-11210D01*
X-7632Y-11210D01*
X-7632Y-11209D01*
X-7631Y-11209D01*
X-7630Y-11208D01*
X-7629Y-11207D01*
X-7628Y-11207D01*
X-7627Y-11206D01*
X-7625Y-11205D01*
X-7623Y-11204D01*
X-7622Y-11204D01*
X-7620Y-11203D01*
X-7618Y-11203D01*
X-7615Y-11203D01*
X-7613Y-11202D01*
X-7612D01*
X-7611Y-11203D01*
D02*
G37*
G36*
X-7440Y-11298D02*
X-7440Y-11298D01*
X-7440Y-11297D01*
X-7439Y-11297D01*
X-7438Y-11296D01*
X-7437Y-11295D01*
X-7435Y-11294D01*
X-7434Y-11292D01*
X-7432Y-11291D01*
X-7429Y-11289D01*
X-7427Y-11288D01*
X-7425Y-11286D01*
X-7422Y-11285D01*
X-7419Y-11284D01*
X-7416Y-11282D01*
X-7413Y-11281D01*
X-7409Y-11280D01*
Y-11302D01*
X-7410D01*
X-7410Y-11302D01*
X-7410Y-11302D01*
X-7411Y-11302D01*
X-7412Y-11303D01*
X-7413Y-11303D01*
X-7414Y-11303D01*
X-7416Y-11304D01*
X-7419Y-11306D01*
X-7422Y-11308D01*
X-7426Y-11310D01*
X-7430Y-11313D01*
X-7430Y-11313D01*
X-7430Y-11314D01*
X-7431Y-11314D01*
X-7432Y-11315D01*
X-7433Y-11315D01*
X-7434Y-11317D01*
X-7435Y-11318D01*
X-7436Y-11319D01*
X-7438Y-11322D01*
X-7441Y-11325D01*
X-7443Y-11329D01*
X-7444Y-11331D01*
X-7445Y-11333D01*
X-7465D01*
Y-11207D01*
X-7440D01*
Y-11298D01*
D02*
G37*
G36*
X-7526Y-11269D02*
X-7525Y-11269D01*
X-7524Y-11270D01*
X-7523Y-11270D01*
X-7521Y-11270D01*
X-7518Y-11271D01*
X-7516Y-11272D01*
X-7514Y-11272D01*
X-7513Y-11273D01*
X-7511Y-11275D01*
X-7510Y-11276D01*
X-7508Y-11277D01*
X-7508Y-11277D01*
X-7508Y-11278D01*
X-7507Y-11278D01*
X-7507Y-11279D01*
X-7506Y-11279D01*
X-7506Y-11281D01*
X-7505Y-11282D01*
X-7504Y-11283D01*
X-7504Y-11285D01*
X-7503Y-11287D01*
X-7502Y-11289D01*
X-7502Y-11291D01*
X-7501Y-11293D01*
X-7501Y-11296D01*
X-7501Y-11299D01*
X-7501Y-11302D01*
Y-11302D01*
Y-11303D01*
Y-11304D01*
X-7501Y-11305D01*
X-7501Y-11306D01*
X-7501Y-11308D01*
X-7501Y-11309D01*
X-7502Y-11311D01*
X-7502Y-11315D01*
X-7504Y-11320D01*
X-7505Y-11322D01*
X-7506Y-11323D01*
X-7507Y-11325D01*
X-7508Y-11327D01*
X-7508Y-11327D01*
X-7508Y-11327D01*
X-7509Y-11328D01*
X-7509Y-11328D01*
X-7510Y-11329D01*
X-7511Y-11329D01*
X-7512Y-11330D01*
X-7513Y-11331D01*
X-7515Y-11332D01*
X-7516Y-11332D01*
X-7518Y-11333D01*
X-7520Y-11334D01*
X-7522Y-11334D01*
X-7524Y-11335D01*
X-7526Y-11335D01*
X-7528Y-11335D01*
X-7529D01*
X-7530Y-11335D01*
X-7531Y-11335D01*
X-7533Y-11335D01*
X-7534Y-11334D01*
X-7536Y-11334D01*
X-7539Y-11333D01*
X-7541Y-11332D01*
X-7542Y-11332D01*
X-7544Y-11331D01*
X-7546Y-11330D01*
X-7547Y-11328D01*
X-7549Y-11327D01*
X-7549Y-11327D01*
X-7549Y-11326D01*
X-7549Y-11326D01*
X-7550Y-11325D01*
X-7550Y-11325D01*
X-7551Y-11323D01*
X-7552Y-11322D01*
X-7552Y-11321D01*
X-7553Y-11319D01*
X-7554Y-11317D01*
X-7554Y-11315D01*
X-7555Y-11313D01*
X-7555Y-11311D01*
X-7556Y-11308D01*
X-7556Y-11305D01*
X-7556Y-11302D01*
Y-11302D01*
Y-11301D01*
Y-11300D01*
X-7556Y-11299D01*
X-7556Y-11298D01*
X-7556Y-11296D01*
X-7555Y-11295D01*
X-7555Y-11293D01*
X-7554Y-11289D01*
X-7553Y-11284D01*
X-7552Y-11282D01*
X-7551Y-11281D01*
X-7550Y-11279D01*
X-7549Y-11277D01*
X-7548Y-11277D01*
X-7548Y-11277D01*
X-7548Y-11276D01*
X-7547Y-11276D01*
X-7547Y-11275D01*
X-7546Y-11275D01*
X-7545Y-11274D01*
X-7543Y-11273D01*
X-7542Y-11272D01*
X-7540Y-11272D01*
X-7539Y-11271D01*
X-7537Y-11270D01*
X-7535Y-11270D01*
X-7533Y-11270D01*
X-7531Y-11269D01*
X-7529Y-11269D01*
X-7527D01*
X-7526Y-11269D01*
D02*
G37*
G36*
X-7595Y-11335D02*
X-7613D01*
X-7546Y-11203D01*
X-7529D01*
X-7595Y-11335D01*
D02*
G37*
G36*
X5002Y590D02*
X5002Y590D01*
X5002Y590D01*
X5002Y589D01*
X5003Y588D01*
X5003Y587D01*
X5003Y586D01*
X5004Y584D01*
X5006Y581D01*
X5008Y578D01*
X5010Y574D01*
X5013Y570D01*
X5013Y570D01*
X5014Y570D01*
X5014Y569D01*
X5015Y568D01*
X5015Y567D01*
X5017Y566D01*
X5018Y565D01*
X5019Y564D01*
X5022Y562D01*
X5025Y559D01*
X5029Y557D01*
X5031Y556D01*
X5033Y555D01*
Y535D01*
X4907D01*
Y560D01*
X4998D01*
X4998Y560D01*
X4997Y560D01*
X4997Y561D01*
X4996Y562D01*
X4995Y563D01*
X4994Y565D01*
X4992Y566D01*
X4991Y568D01*
X4989Y571D01*
X4988Y573D01*
X4987Y575D01*
X4985Y578D01*
X4983Y581D01*
X4982Y584D01*
X4981Y587D01*
X4980Y591D01*
X5002D01*
Y590D01*
D02*
G37*
G36*
X5005Y499D02*
X5006Y499D01*
X5008Y499D01*
X5009Y499D01*
X5011Y498D01*
X5015Y498D01*
X5020Y496D01*
X5022Y495D01*
X5023Y494D01*
X5025Y493D01*
X5027Y492D01*
X5027Y492D01*
X5027Y492D01*
X5028Y491D01*
X5028Y491D01*
X5029Y490D01*
X5029Y489D01*
X5030Y488D01*
X5031Y487D01*
X5032Y485D01*
X5032Y484D01*
X5033Y482D01*
X5034Y480D01*
X5034Y478D01*
X5035Y476D01*
X5035Y474D01*
X5035Y472D01*
Y471D01*
X5035Y470D01*
X5035Y469D01*
X5035Y467D01*
X5034Y466D01*
X5034Y464D01*
X5033Y461D01*
X5032Y459D01*
X5032Y458D01*
X5031Y456D01*
X5030Y454D01*
X5028Y453D01*
X5027Y451D01*
X5027Y451D01*
X5026Y451D01*
X5026Y451D01*
X5025Y450D01*
X5025Y450D01*
X5023Y449D01*
X5022Y448D01*
X5021Y448D01*
X5019Y447D01*
X5017Y446D01*
X5015Y446D01*
X5013Y445D01*
X5011Y445D01*
X5008Y444D01*
X5005Y444D01*
X5002Y444D01*
X5002D01*
X5001D01*
X5000D01*
X4999Y444D01*
X4998Y444D01*
X4996Y444D01*
X4995Y445D01*
X4993Y445D01*
X4989Y446D01*
X4984Y447D01*
X4982Y448D01*
X4981Y449D01*
X4979Y450D01*
X4977Y451D01*
X4977Y452D01*
X4977Y452D01*
X4976Y452D01*
X4976Y453D01*
X4975Y453D01*
X4975Y454D01*
X4974Y455D01*
X4973Y457D01*
X4972Y458D01*
X4972Y460D01*
X4971Y461D01*
X4970Y463D01*
X4970Y465D01*
X4970Y467D01*
X4969Y469D01*
X4969Y471D01*
Y473D01*
X4969Y474D01*
X4969Y475D01*
X4970Y476D01*
X4970Y477D01*
X4970Y479D01*
X4971Y482D01*
X4972Y484D01*
X4972Y486D01*
X4973Y487D01*
X4975Y489D01*
X4976Y490D01*
X4977Y492D01*
X4977Y492D01*
X4978Y492D01*
X4978Y493D01*
X4979Y493D01*
X4979Y494D01*
X4981Y494D01*
X4982Y495D01*
X4983Y496D01*
X4985Y496D01*
X4987Y497D01*
X4989Y498D01*
X4991Y498D01*
X4993Y499D01*
X4996Y499D01*
X4999Y499D01*
X5002Y499D01*
X5002D01*
X5003D01*
X5004D01*
X5005Y499D01*
D02*
G37*
G36*
X5035Y405D02*
Y387D01*
X4903Y454D01*
Y471D01*
X5035Y405D01*
D02*
G37*
G36*
X4938Y415D02*
X4940Y414D01*
X4941Y414D01*
X4943Y414D01*
X4945Y414D01*
X4949Y413D01*
X4953Y412D01*
X4955Y411D01*
X4957Y410D01*
X4959Y409D01*
X4961Y407D01*
X4961Y407D01*
X4961Y407D01*
X4961Y407D01*
X4962Y406D01*
X4963Y405D01*
X4963Y404D01*
X4964Y403D01*
X4965Y402D01*
X4966Y401D01*
X4966Y399D01*
X4967Y398D01*
X4968Y396D01*
X4968Y394D01*
X4968Y392D01*
X4969Y389D01*
X4969Y387D01*
Y386D01*
X4969Y385D01*
X4969Y384D01*
X4968Y383D01*
X4968Y381D01*
X4968Y380D01*
X4967Y376D01*
X4966Y375D01*
X4965Y373D01*
X4964Y371D01*
X4963Y370D01*
X4962Y368D01*
X4961Y367D01*
X4961Y367D01*
X4960Y367D01*
X4960Y366D01*
X4959Y366D01*
X4958Y365D01*
X4957Y365D01*
X4956Y364D01*
X4955Y363D01*
X4953Y362D01*
X4951Y362D01*
X4949Y361D01*
X4947Y361D01*
X4944Y360D01*
X4942Y360D01*
X4939Y359D01*
X4936Y359D01*
X4936D01*
X4935D01*
X4934D01*
X4933Y359D01*
X4931Y360D01*
X4930Y360D01*
X4928Y360D01*
X4926Y360D01*
X4922Y361D01*
X4918Y362D01*
X4916Y363D01*
X4914Y364D01*
X4912Y365D01*
X4910Y367D01*
X4910Y367D01*
X4910Y367D01*
X4910Y368D01*
X4909Y368D01*
X4909Y369D01*
X4908Y370D01*
X4907Y371D01*
X4907Y372D01*
X4906Y373D01*
X4905Y375D01*
X4904Y377D01*
X4904Y378D01*
X4903Y380D01*
X4903Y382D01*
X4903Y385D01*
X4902Y387D01*
Y388D01*
X4903Y389D01*
X4903Y390D01*
X4903Y391D01*
X4903Y393D01*
X4903Y394D01*
X4904Y398D01*
X4905Y399D01*
X4906Y401D01*
X4907Y403D01*
X4908Y404D01*
X4909Y406D01*
X4910Y407D01*
X4911Y407D01*
X4911Y408D01*
X4911Y408D01*
X4912Y408D01*
X4913Y409D01*
X4914Y410D01*
X4915Y410D01*
X4917Y411D01*
X4918Y412D01*
X4920Y412D01*
X4922Y413D01*
X4924Y414D01*
X4927Y414D01*
X4930Y414D01*
X4933Y415D01*
X4936Y415D01*
X4936D01*
X4936D01*
X4937D01*
X4938Y415D01*
D02*
G37*
G36*
X-470Y-4465D02*
X-469Y-4465D01*
X-467Y-4465D01*
X-466Y-4466D01*
X-464Y-4466D01*
X-461Y-4467D01*
X-459Y-4468D01*
X-458Y-4468D01*
X-456Y-4469D01*
X-454Y-4470D01*
X-453Y-4472D01*
X-451Y-4473D01*
X-451Y-4473D01*
X-451Y-4474D01*
X-451Y-4474D01*
X-450Y-4475D01*
X-450Y-4475D01*
X-449Y-4477D01*
X-448Y-4478D01*
X-448Y-4479D01*
X-447Y-4481D01*
X-446Y-4483D01*
X-446Y-4485D01*
X-445Y-4487D01*
X-445Y-4489D01*
X-444Y-4492D01*
X-444Y-4495D01*
X-444Y-4498D01*
Y-4498D01*
Y-4499D01*
Y-4500D01*
X-444Y-4501D01*
X-444Y-4502D01*
X-444Y-4504D01*
X-445Y-4505D01*
X-445Y-4507D01*
X-446Y-4511D01*
X-447Y-4516D01*
X-448Y-4518D01*
X-449Y-4519D01*
X-450Y-4521D01*
X-451Y-4523D01*
X-452Y-4523D01*
X-452Y-4523D01*
X-452Y-4524D01*
X-453Y-4524D01*
X-453Y-4525D01*
X-454Y-4525D01*
X-455Y-4526D01*
X-457Y-4527D01*
X-458Y-4528D01*
X-460Y-4528D01*
X-461Y-4529D01*
X-463Y-4530D01*
X-465Y-4530D01*
X-467Y-4530D01*
X-469Y-4531D01*
X-471Y-4531D01*
X-473D01*
X-474Y-4531D01*
X-475Y-4531D01*
X-476Y-4530D01*
X-477Y-4530D01*
X-479Y-4530D01*
X-482Y-4529D01*
X-484Y-4528D01*
X-486Y-4528D01*
X-487Y-4527D01*
X-489Y-4525D01*
X-490Y-4524D01*
X-492Y-4523D01*
X-492Y-4523D01*
X-492Y-4522D01*
X-493Y-4522D01*
X-493Y-4521D01*
X-494Y-4521D01*
X-494Y-4519D01*
X-495Y-4518D01*
X-496Y-4517D01*
X-496Y-4515D01*
X-497Y-4513D01*
X-498Y-4511D01*
X-498Y-4509D01*
X-499Y-4507D01*
X-499Y-4504D01*
X-499Y-4501D01*
X-499Y-4498D01*
Y-4498D01*
Y-4497D01*
Y-4496D01*
X-499Y-4495D01*
X-499Y-4494D01*
X-499Y-4492D01*
X-499Y-4491D01*
X-498Y-4489D01*
X-498Y-4485D01*
X-496Y-4480D01*
X-495Y-4478D01*
X-494Y-4477D01*
X-493Y-4475D01*
X-492Y-4473D01*
X-492Y-4473D01*
X-492Y-4473D01*
X-491Y-4472D01*
X-491Y-4472D01*
X-490Y-4471D01*
X-489Y-4471D01*
X-488Y-4470D01*
X-487Y-4469D01*
X-485Y-4468D01*
X-484Y-4468D01*
X-482Y-4467D01*
X-480Y-4466D01*
X-478Y-4466D01*
X-476Y-4465D01*
X-474Y-4465D01*
X-472Y-4465D01*
X-471D01*
X-470Y-4465D01*
D02*
G37*
G36*
X-535Y-4593D02*
X-560D01*
Y-4502D01*
X-560Y-4502D01*
X-560Y-4503D01*
X-561Y-4503D01*
X-562Y-4504D01*
X-563Y-4505D01*
X-565Y-4506D01*
X-566Y-4508D01*
X-568Y-4509D01*
X-571Y-4511D01*
X-573Y-4512D01*
X-575Y-4514D01*
X-578Y-4515D01*
X-581Y-4516D01*
X-584Y-4518D01*
X-587Y-4519D01*
X-591Y-4520D01*
Y-4498D01*
X-590D01*
X-590Y-4498D01*
X-590Y-4498D01*
X-589Y-4498D01*
X-588Y-4497D01*
X-587Y-4497D01*
X-586Y-4496D01*
X-584Y-4496D01*
X-581Y-4494D01*
X-578Y-4492D01*
X-574Y-4490D01*
X-570Y-4487D01*
X-570Y-4487D01*
X-570Y-4486D01*
X-569Y-4486D01*
X-568Y-4485D01*
X-567Y-4485D01*
X-566Y-4483D01*
X-565Y-4482D01*
X-564Y-4481D01*
X-562Y-4478D01*
X-559Y-4475D01*
X-557Y-4471D01*
X-556Y-4469D01*
X-555Y-4467D01*
X-535D01*
Y-4593D01*
D02*
G37*
G36*
X-454Y-4597D02*
X-471D01*
X-405Y-4465D01*
X-387D01*
X-454Y-4597D01*
D02*
G37*
G36*
X-385Y-4531D02*
X-384Y-4531D01*
X-383Y-4532D01*
X-381Y-4532D01*
X-380Y-4532D01*
X-376Y-4533D01*
X-375Y-4534D01*
X-373Y-4535D01*
X-371Y-4536D01*
X-370Y-4537D01*
X-368Y-4538D01*
X-367Y-4539D01*
X-367Y-4539D01*
X-367Y-4540D01*
X-366Y-4540D01*
X-366Y-4541D01*
X-365Y-4542D01*
X-365Y-4543D01*
X-364Y-4544D01*
X-363Y-4545D01*
X-362Y-4547D01*
X-362Y-4549D01*
X-361Y-4551D01*
X-361Y-4553D01*
X-360Y-4556D01*
X-360Y-4558D01*
X-359Y-4561D01*
X-359Y-4564D01*
Y-4564D01*
Y-4565D01*
Y-4566D01*
X-359Y-4567D01*
X-360Y-4569D01*
X-360Y-4570D01*
X-360Y-4572D01*
X-360Y-4574D01*
X-361Y-4578D01*
X-362Y-4582D01*
X-363Y-4584D01*
X-364Y-4586D01*
X-365Y-4588D01*
X-367Y-4590D01*
X-367Y-4590D01*
X-367Y-4590D01*
X-368Y-4590D01*
X-368Y-4591D01*
X-369Y-4591D01*
X-370Y-4592D01*
X-371Y-4593D01*
X-372Y-4593D01*
X-373Y-4594D01*
X-375Y-4595D01*
X-377Y-4596D01*
X-378Y-4596D01*
X-380Y-4597D01*
X-382Y-4597D01*
X-385Y-4597D01*
X-387Y-4598D01*
X-388D01*
X-389Y-4597D01*
X-390Y-4597D01*
X-391Y-4597D01*
X-393Y-4597D01*
X-394Y-4597D01*
X-398Y-4596D01*
X-399Y-4595D01*
X-401Y-4594D01*
X-403Y-4593D01*
X-404Y-4592D01*
X-406Y-4591D01*
X-407Y-4590D01*
X-407Y-4589D01*
X-408Y-4589D01*
X-408Y-4589D01*
X-408Y-4588D01*
X-409Y-4587D01*
X-410Y-4586D01*
X-410Y-4585D01*
X-411Y-4583D01*
X-412Y-4582D01*
X-412Y-4580D01*
X-413Y-4578D01*
X-414Y-4576D01*
X-414Y-4573D01*
X-414Y-4570D01*
X-415Y-4568D01*
X-415Y-4564D01*
Y-4564D01*
Y-4564D01*
Y-4563D01*
X-415Y-4562D01*
X-414Y-4560D01*
X-414Y-4559D01*
X-414Y-4557D01*
X-414Y-4555D01*
X-413Y-4551D01*
X-412Y-4547D01*
X-411Y-4545D01*
X-410Y-4543D01*
X-409Y-4541D01*
X-407Y-4539D01*
X-407Y-4539D01*
X-407Y-4539D01*
X-407Y-4539D01*
X-406Y-4538D01*
X-405Y-4537D01*
X-404Y-4537D01*
X-403Y-4536D01*
X-402Y-4535D01*
X-401Y-4534D01*
X-399Y-4534D01*
X-398Y-4533D01*
X-396Y-4532D01*
X-394Y-4532D01*
X-392Y-4532D01*
X-389Y-4531D01*
X-387Y-4531D01*
X-386D01*
X-385Y-4531D01*
D02*
G37*
G36*
X-4983Y-359D02*
X-4981Y-360D01*
X-4980Y-360D01*
X-4978Y-360D01*
X-4976Y-360D01*
X-4972Y-361D01*
X-4968Y-362D01*
X-4966Y-363D01*
X-4964Y-364D01*
X-4962Y-365D01*
X-4960Y-367D01*
X-4960Y-367D01*
X-4960Y-367D01*
X-4960Y-368D01*
X-4959Y-368D01*
X-4959Y-369D01*
X-4958Y-370D01*
X-4957Y-371D01*
X-4957Y-372D01*
X-4956Y-373D01*
X-4955Y-375D01*
X-4954Y-377D01*
X-4954Y-378D01*
X-4953Y-380D01*
X-4953Y-382D01*
X-4953Y-385D01*
X-4952Y-387D01*
Y-388D01*
X-4953Y-389D01*
X-4953Y-390D01*
X-4953Y-391D01*
X-4953Y-393D01*
X-4953Y-394D01*
X-4954Y-398D01*
X-4955Y-399D01*
X-4956Y-401D01*
X-4957Y-403D01*
X-4958Y-404D01*
X-4959Y-406D01*
X-4960Y-407D01*
X-4961Y-407D01*
X-4961Y-408D01*
X-4961Y-408D01*
X-4962Y-408D01*
X-4963Y-409D01*
X-4964Y-410D01*
X-4965Y-410D01*
X-4967Y-411D01*
X-4968Y-412D01*
X-4970Y-412D01*
X-4972Y-413D01*
X-4974Y-414D01*
X-4977Y-414D01*
X-4980Y-414D01*
X-4983Y-415D01*
X-4986Y-415D01*
X-4986D01*
X-4986D01*
X-4987D01*
X-4988Y-415D01*
X-4990Y-414D01*
X-4991Y-414D01*
X-4993Y-414D01*
X-4995Y-414D01*
X-4999Y-413D01*
X-5003Y-412D01*
X-5005Y-411D01*
X-5007Y-410D01*
X-5009Y-409D01*
X-5011Y-407D01*
X-5011Y-407D01*
X-5011Y-407D01*
X-5011Y-407D01*
X-5012Y-406D01*
X-5013Y-405D01*
X-5013Y-404D01*
X-5014Y-403D01*
X-5015Y-402D01*
X-5016Y-401D01*
X-5016Y-399D01*
X-5017Y-398D01*
X-5018Y-396D01*
X-5018Y-394D01*
X-5018Y-392D01*
X-5019Y-389D01*
X-5019Y-387D01*
Y-386D01*
X-5019Y-385D01*
X-5019Y-384D01*
X-5018Y-383D01*
X-5018Y-381D01*
X-5018Y-380D01*
X-5017Y-376D01*
X-5016Y-375D01*
X-5015Y-373D01*
X-5014Y-371D01*
X-5013Y-370D01*
X-5012Y-368D01*
X-5011Y-367D01*
X-5011Y-367D01*
X-5010Y-367D01*
X-5010Y-366D01*
X-5009Y-366D01*
X-5008Y-365D01*
X-5007Y-365D01*
X-5006Y-364D01*
X-5005Y-363D01*
X-5003Y-362D01*
X-5001Y-362D01*
X-4999Y-361D01*
X-4997Y-361D01*
X-4994Y-360D01*
X-4992Y-360D01*
X-4989Y-359D01*
X-4986Y-359D01*
X-4985D01*
X-4985D01*
X-4984D01*
X-4983Y-359D01*
D02*
G37*
G36*
X-4953Y-454D02*
Y-471D01*
X-5085Y-405D01*
Y-387D01*
X-4953Y-454D01*
D02*
G37*
G36*
X-5049Y-444D02*
X-5048Y-444D01*
X-5046Y-444D01*
X-5045Y-445D01*
X-5043Y-445D01*
X-5039Y-446D01*
X-5034Y-447D01*
X-5032Y-448D01*
X-5031Y-449D01*
X-5029Y-450D01*
X-5027Y-451D01*
X-5027Y-452D01*
X-5027Y-452D01*
X-5026Y-452D01*
X-5026Y-453D01*
X-5025Y-453D01*
X-5025Y-454D01*
X-5024Y-455D01*
X-5023Y-457D01*
X-5022Y-458D01*
X-5022Y-460D01*
X-5021Y-461D01*
X-5020Y-463D01*
X-5020Y-465D01*
X-5020Y-467D01*
X-5019Y-469D01*
X-5019Y-471D01*
Y-473D01*
X-5019Y-474D01*
X-5019Y-475D01*
X-5020Y-476D01*
X-5020Y-477D01*
X-5020Y-479D01*
X-5021Y-482D01*
X-5022Y-484D01*
X-5022Y-486D01*
X-5023Y-487D01*
X-5025Y-489D01*
X-5026Y-490D01*
X-5027Y-492D01*
X-5027Y-492D01*
X-5028Y-492D01*
X-5028Y-493D01*
X-5029Y-493D01*
X-5029Y-494D01*
X-5031Y-494D01*
X-5032Y-495D01*
X-5033Y-496D01*
X-5035Y-496D01*
X-5037Y-497D01*
X-5039Y-498D01*
X-5041Y-498D01*
X-5043Y-499D01*
X-5046Y-499D01*
X-5049Y-499D01*
X-5052Y-499D01*
X-5052D01*
X-5053D01*
X-5054D01*
X-5055Y-499D01*
X-5056Y-499D01*
X-5058Y-499D01*
X-5059Y-499D01*
X-5061Y-498D01*
X-5065Y-498D01*
X-5070Y-496D01*
X-5072Y-495D01*
X-5073Y-494D01*
X-5075Y-493D01*
X-5077Y-492D01*
X-5077Y-492D01*
X-5077Y-492D01*
X-5078Y-491D01*
X-5078Y-491D01*
X-5079Y-490D01*
X-5079Y-489D01*
X-5080Y-488D01*
X-5081Y-487D01*
X-5082Y-485D01*
X-5082Y-484D01*
X-5083Y-482D01*
X-5084Y-480D01*
X-5084Y-478D01*
X-5085Y-476D01*
X-5085Y-474D01*
X-5085Y-472D01*
Y-471D01*
X-5085Y-470D01*
X-5085Y-469D01*
X-5085Y-467D01*
X-5084Y-466D01*
X-5084Y-464D01*
X-5083Y-461D01*
X-5082Y-459D01*
X-5082Y-458D01*
X-5081Y-456D01*
X-5080Y-454D01*
X-5078Y-453D01*
X-5077Y-451D01*
X-5077Y-451D01*
X-5076Y-451D01*
X-5076Y-451D01*
X-5075Y-450D01*
X-5075Y-450D01*
X-5073Y-449D01*
X-5072Y-448D01*
X-5071Y-448D01*
X-5069Y-447D01*
X-5067Y-446D01*
X-5065Y-446D01*
X-5063Y-445D01*
X-5061Y-445D01*
X-5058Y-444D01*
X-5055Y-444D01*
X-5052Y-444D01*
X-5052D01*
X-5051D01*
X-5050D01*
X-5049Y-444D01*
D02*
G37*
G36*
X-4957Y-560D02*
X-5048D01*
X-5048Y-560D01*
X-5047Y-560D01*
X-5047Y-561D01*
X-5046Y-562D01*
X-5045Y-563D01*
X-5044Y-565D01*
X-5042Y-566D01*
X-5041Y-568D01*
X-5039Y-571D01*
X-5038Y-573D01*
X-5037Y-575D01*
X-5035Y-578D01*
X-5034Y-581D01*
X-5032Y-584D01*
X-5031Y-587D01*
X-5030Y-591D01*
X-5052D01*
Y-590D01*
X-5052Y-590D01*
X-5052Y-590D01*
X-5052Y-589D01*
X-5053Y-588D01*
X-5053Y-587D01*
X-5053Y-586D01*
X-5054Y-584D01*
X-5056Y-581D01*
X-5058Y-578D01*
X-5060Y-574D01*
X-5063Y-570D01*
X-5063Y-570D01*
X-5064Y-570D01*
X-5064Y-569D01*
X-5065Y-568D01*
X-5065Y-567D01*
X-5067Y-566D01*
X-5068Y-565D01*
X-5069Y-564D01*
X-5072Y-562D01*
X-5075Y-559D01*
X-5079Y-557D01*
X-5081Y-556D01*
X-5083Y-555D01*
Y-535D01*
X-4957D01*
Y-560D01*
D02*
G37*
G36*
X389Y4572D02*
X390Y4572D01*
X391Y4572D01*
X393Y4571D01*
X394Y4571D01*
X398Y4570D01*
X399Y4569D01*
X401Y4569D01*
X403Y4568D01*
X404Y4567D01*
X406Y4565D01*
X407Y4564D01*
X407Y4564D01*
X408Y4564D01*
X408Y4563D01*
X408Y4562D01*
X409Y4561D01*
X410Y4560D01*
X410Y4559D01*
X411Y4558D01*
X412Y4556D01*
X412Y4554D01*
X413Y4552D01*
X414Y4550D01*
X414Y4547D01*
X414Y4545D01*
X415Y4542D01*
X415Y4539D01*
Y4539D01*
Y4538D01*
Y4537D01*
X415Y4536D01*
X414Y4535D01*
X414Y4533D01*
X414Y4531D01*
X414Y4529D01*
X413Y4525D01*
X412Y4521D01*
X411Y4519D01*
X410Y4517D01*
X409Y4515D01*
X407Y4514D01*
X407Y4514D01*
X407Y4513D01*
X407Y4513D01*
X406Y4513D01*
X405Y4512D01*
X404Y4511D01*
X403Y4510D01*
X402Y4510D01*
X401Y4509D01*
X399Y4508D01*
X398Y4507D01*
X396Y4507D01*
X394Y4506D01*
X392Y4506D01*
X389Y4506D01*
X387Y4506D01*
X386D01*
X385Y4506D01*
X384Y4506D01*
X383Y4506D01*
X381Y4506D01*
X380Y4507D01*
X376Y4508D01*
X375Y4508D01*
X373Y4509D01*
X371Y4510D01*
X370Y4511D01*
X368Y4512D01*
X367Y4514D01*
X367Y4514D01*
X367Y4514D01*
X366Y4515D01*
X366Y4515D01*
X365Y4516D01*
X365Y4517D01*
X364Y4519D01*
X363Y4520D01*
X362Y4522D01*
X362Y4523D01*
X361Y4525D01*
X361Y4528D01*
X360Y4530D01*
X360Y4533D01*
X359Y4536D01*
X359Y4539D01*
Y4539D01*
Y4539D01*
Y4540D01*
X359Y4541D01*
X360Y4543D01*
X360Y4545D01*
X360Y4546D01*
X360Y4548D01*
X361Y4552D01*
X362Y4557D01*
X363Y4559D01*
X364Y4561D01*
X365Y4562D01*
X367Y4564D01*
X367Y4564D01*
X367Y4564D01*
X368Y4565D01*
X368Y4565D01*
X369Y4566D01*
X370Y4567D01*
X371Y4567D01*
X372Y4568D01*
X373Y4569D01*
X375Y4569D01*
X377Y4570D01*
X378Y4571D01*
X380Y4571D01*
X382Y4572D01*
X385Y4572D01*
X387Y4572D01*
X388D01*
X389Y4572D01*
D02*
G37*
G36*
X560Y4476D02*
X560Y4477D01*
X560Y4477D01*
X561Y4478D01*
X562Y4479D01*
X563Y4479D01*
X565Y4481D01*
X566Y4482D01*
X568Y4483D01*
X571Y4485D01*
X573Y4486D01*
X575Y4488D01*
X578Y4489D01*
X581Y4491D01*
X584Y4492D01*
X587Y4493D01*
X591Y4495D01*
Y4473D01*
X590D01*
X590Y4473D01*
X590Y4473D01*
X589Y4472D01*
X588Y4472D01*
X587Y4471D01*
X586Y4471D01*
X584Y4470D01*
X581Y4469D01*
X578Y4467D01*
X574Y4464D01*
X570Y4461D01*
X570Y4461D01*
X570Y4461D01*
X569Y4460D01*
X568Y4460D01*
X567Y4459D01*
X566Y4458D01*
X565Y4457D01*
X564Y4455D01*
X562Y4452D01*
X559Y4449D01*
X557Y4445D01*
X556Y4443D01*
X555Y4441D01*
X535D01*
Y4567D01*
X560D01*
Y4476D01*
D02*
G37*
G36*
X474Y4505D02*
X475Y4505D01*
X476Y4505D01*
X477Y4505D01*
X479Y4504D01*
X482Y4503D01*
X484Y4503D01*
X486Y4502D01*
X487Y4501D01*
X489Y4500D01*
X490Y4499D01*
X492Y4497D01*
X492Y4497D01*
X492Y4497D01*
X493Y4496D01*
X493Y4496D01*
X494Y4495D01*
X494Y4494D01*
X495Y4493D01*
X496Y4491D01*
X496Y4490D01*
X497Y4488D01*
X498Y4486D01*
X498Y4483D01*
X499Y4481D01*
X499Y4478D01*
X499Y4475D01*
X499Y4472D01*
Y4472D01*
Y4472D01*
Y4471D01*
X499Y4470D01*
X499Y4468D01*
X499Y4467D01*
X499Y4465D01*
X498Y4463D01*
X498Y4459D01*
X496Y4455D01*
X495Y4453D01*
X494Y4451D01*
X493Y4449D01*
X492Y4448D01*
X492Y4447D01*
X492Y4447D01*
X491Y4447D01*
X491Y4446D01*
X490Y4446D01*
X489Y4445D01*
X488Y4444D01*
X487Y4443D01*
X485Y4443D01*
X484Y4442D01*
X482Y4441D01*
X480Y4441D01*
X478Y4440D01*
X476Y4440D01*
X474Y4439D01*
X472Y4439D01*
X471D01*
X470Y4439D01*
X469Y4440D01*
X467Y4440D01*
X466Y4440D01*
X464Y4440D01*
X461Y4441D01*
X459Y4442D01*
X458Y4443D01*
X456Y4444D01*
X454Y4445D01*
X453Y4446D01*
X451Y4448D01*
X451Y4448D01*
X451Y4448D01*
X451Y4448D01*
X450Y4449D01*
X450Y4450D01*
X449Y4451D01*
X448Y4452D01*
X448Y4454D01*
X447Y4455D01*
X446Y4457D01*
X446Y4459D01*
X445Y4461D01*
X445Y4464D01*
X444Y4467D01*
X444Y4469D01*
X444Y4472D01*
Y4473D01*
Y4473D01*
Y4474D01*
X444Y4475D01*
X444Y4476D01*
X444Y4478D01*
X445Y4480D01*
X445Y4482D01*
X446Y4486D01*
X447Y4490D01*
X448Y4492D01*
X449Y4494D01*
X450Y4496D01*
X451Y4497D01*
X452Y4497D01*
X452Y4498D01*
X452Y4498D01*
X453Y4499D01*
X453Y4499D01*
X454Y4500D01*
X455Y4501D01*
X457Y4501D01*
X458Y4502D01*
X460Y4503D01*
X461Y4503D01*
X463Y4504D01*
X465Y4505D01*
X467Y4505D01*
X469Y4505D01*
X471Y4505D01*
X473D01*
X474Y4505D01*
D02*
G37*
G36*
X405Y4439D02*
X387D01*
X454Y4572D01*
X471D01*
X405Y4439D01*
D02*
G37*
G36*
X2747Y3277D02*
X2749D01*
X2750Y3277D01*
X2751Y3277D01*
X2752Y3276D01*
X2754Y3276D01*
X2756Y3275D01*
X2757Y3275D01*
X2759Y3274D01*
X2761Y3273D01*
X2762Y3272D01*
X2764Y3270D01*
X2766Y3269D01*
X2767Y3268D01*
X2767Y3267D01*
X2768Y3266D01*
X2769Y3265D01*
X2769Y3264D01*
X2770Y3263D01*
X2772Y3260D01*
X2773Y3258D01*
X2773Y3256D01*
X2774Y3254D01*
X2774Y3252D01*
X2774Y3250D01*
X2775Y3248D01*
Y3248D01*
X2774Y3248D01*
Y3247D01*
X2774Y3247D01*
X2774Y3246D01*
X2774Y3244D01*
X2773Y3243D01*
X2773Y3241D01*
X2772Y3240D01*
X2771Y3238D01*
X2770Y3236D01*
X2769Y3234D01*
X2768Y3232D01*
X2766Y3230D01*
X2764Y3228D01*
X2762Y3225D01*
X2762Y3225D01*
X2761Y3225D01*
X2761Y3224D01*
X2760Y3224D01*
X2759Y3223D01*
X2758Y3222D01*
X2756Y3221D01*
X2755Y3219D01*
X2751Y3217D01*
X2747Y3215D01*
X2745Y3214D01*
X2743Y3214D01*
X2741Y3213D01*
X2739Y3213D01*
X2738D01*
X2737Y3213D01*
X2736D01*
X2735Y3213D01*
X2734Y3214D01*
X2732Y3214D01*
X2731Y3214D01*
X2729Y3215D01*
X2728Y3216D01*
X2726Y3216D01*
X2724Y3217D01*
X2723Y3219D01*
X2721Y3220D01*
X2719Y3222D01*
X2718Y3222D01*
X2718Y3223D01*
X2717Y3224D01*
X2716Y3225D01*
X2715Y3226D01*
X2714Y3227D01*
X2713Y3230D01*
X2712Y3232D01*
X2711Y3234D01*
X2711Y3236D01*
X2711Y3238D01*
X2710Y3240D01*
Y3242D01*
Y3242D01*
X2711Y3242D01*
Y3243D01*
X2711Y3244D01*
X2711Y3245D01*
X2711Y3246D01*
X2712Y3247D01*
X2712Y3249D01*
X2713Y3250D01*
X2714Y3252D01*
X2715Y3254D01*
X2716Y3256D01*
X2717Y3258D01*
X2719Y3260D01*
X2721Y3262D01*
X2723Y3265D01*
X2723Y3265D01*
X2723Y3265D01*
X2724Y3266D01*
X2725Y3266D01*
X2726Y3267D01*
X2727Y3268D01*
X2729Y3270D01*
X2730Y3271D01*
X2734Y3273D01*
X2738Y3275D01*
X2740Y3276D01*
X2742Y3276D01*
X2744Y3277D01*
X2746Y3277D01*
X2746D01*
X2746Y3277D01*
X2747Y3277D01*
D02*
G37*
G36*
X2825Y3209D02*
X2685Y3162D01*
X2672Y3175D01*
X2813Y3221D01*
X2825Y3209D01*
D02*
G37*
G36*
X2760Y3170D02*
X2761D01*
X2763Y3170D01*
X2764Y3170D01*
X2765Y3169D01*
X2767Y3169D01*
X2768Y3168D01*
X2770Y3168D01*
X2772Y3167D01*
X2773Y3166D01*
X2775Y3165D01*
X2777Y3163D01*
X2778Y3162D01*
X2779Y3161D01*
X2780Y3160D01*
X2781Y3159D01*
X2781Y3158D01*
X2782Y3157D01*
X2783Y3156D01*
X2785Y3153D01*
X2785Y3151D01*
X2786Y3149D01*
X2787Y3147D01*
X2787Y3145D01*
X2787Y3144D01*
X2787Y3142D01*
Y3141D01*
X2787Y3141D01*
Y3140D01*
X2787Y3140D01*
X2787Y3139D01*
X2786Y3138D01*
X2786Y3136D01*
X2786Y3135D01*
X2785Y3133D01*
X2784Y3131D01*
X2783Y3129D01*
X2782Y3127D01*
X2780Y3125D01*
X2779Y3123D01*
X2777Y3121D01*
X2775Y3119D01*
X2775Y3119D01*
X2774Y3118D01*
X2774Y3118D01*
X2773Y3117D01*
X2772Y3116D01*
X2771Y3115D01*
X2769Y3114D01*
X2768Y3113D01*
X2764Y3110D01*
X2760Y3109D01*
X2758Y3108D01*
X2756Y3107D01*
X2754Y3107D01*
X2752Y3106D01*
X2751D01*
X2750Y3106D01*
X2749D01*
X2748Y3107D01*
X2747Y3107D01*
X2745Y3107D01*
X2744Y3108D01*
X2742Y3108D01*
X2741Y3109D01*
X2739Y3110D01*
X2737Y3111D01*
X2736Y3112D01*
X2734Y3113D01*
X2732Y3115D01*
X2731Y3116D01*
X2731Y3116D01*
X2730Y3117D01*
X2729Y3118D01*
X2728Y3119D01*
X2728Y3121D01*
X2726Y3124D01*
X2725Y3125D01*
X2724Y3127D01*
X2724Y3129D01*
X2724Y3131D01*
X2723Y3133D01*
Y3135D01*
Y3135D01*
X2724Y3135D01*
Y3136D01*
X2724Y3137D01*
X2724Y3138D01*
X2724Y3139D01*
X2725Y3140D01*
X2725Y3142D01*
X2726Y3144D01*
X2727Y3145D01*
X2728Y3147D01*
X2729Y3149D01*
X2730Y3151D01*
X2732Y3154D01*
X2734Y3156D01*
X2736Y3158D01*
X2736Y3158D01*
X2736Y3158D01*
X2737Y3159D01*
X2738Y3160D01*
X2739Y3161D01*
X2740Y3162D01*
X2741Y3163D01*
X2743Y3164D01*
X2746Y3166D01*
X2750Y3168D01*
X2752Y3169D01*
X2754Y3170D01*
X2756Y3170D01*
X2759Y3170D01*
X2759D01*
X2759Y3170D01*
X2760Y3170D01*
D02*
G37*
G36*
X2884Y3143D02*
X2820Y3079D01*
X2821D01*
X2822Y3079D01*
X2823Y3079D01*
X2825Y3079D01*
X2827Y3078D01*
X2829Y3078D01*
X2832Y3078D01*
X2834Y3077D01*
X2837Y3077D01*
X2840Y3076D01*
X2843Y3075D01*
X2846Y3074D01*
X2849Y3073D01*
X2852Y3071D01*
X2855Y3070D01*
X2840Y3055D01*
X2840Y3055D01*
X2839Y3055D01*
X2839Y3055D01*
X2838Y3055D01*
X2837Y3056D01*
X2836Y3056D01*
X2835Y3057D01*
X2834Y3057D01*
X2830Y3058D01*
X2827Y3059D01*
X2822Y3060D01*
X2817Y3061D01*
X2817D01*
X2816Y3061D01*
X2816Y3061D01*
X2815D01*
X2814Y3061D01*
X2812Y3061D01*
X2811D01*
X2809Y3061D01*
X2805Y3061D01*
X2801Y3060D01*
X2796Y3059D01*
X2794Y3058D01*
X2792Y3057D01*
X2778Y3071D01*
X2867Y3160D01*
X2884Y3143D01*
D02*
G37*
G36*
X-3079Y2820D02*
Y2821D01*
Y2821D01*
X-3079Y2822D01*
X-3079Y2823D01*
X-3079Y2825D01*
X-3078Y2827D01*
X-3078Y2829D01*
X-3078Y2832D01*
X-3077Y2834D01*
X-3077Y2837D01*
X-3076Y2840D01*
X-3075Y2843D01*
X-3074Y2846D01*
X-3073Y2849D01*
X-3071Y2852D01*
X-3070Y2855D01*
X-3055Y2840D01*
X-3055Y2840D01*
X-3055Y2839D01*
X-3055Y2839D01*
X-3055Y2838D01*
X-3056Y2837D01*
X-3056Y2836D01*
X-3057Y2835D01*
X-3057Y2834D01*
X-3058Y2830D01*
X-3059Y2827D01*
X-3060Y2822D01*
X-3061Y2817D01*
Y2817D01*
X-3061Y2816D01*
X-3061Y2816D01*
Y2815D01*
X-3061Y2814D01*
X-3061Y2812D01*
Y2811D01*
X-3061Y2809D01*
X-3061Y2805D01*
X-3060Y2801D01*
X-3059Y2796D01*
X-3058Y2794D01*
X-3057Y2792D01*
X-3071Y2778D01*
X-3160Y2867D01*
X-3143Y2884D01*
X-3079Y2820D01*
D02*
G37*
G36*
X-3141Y2787D02*
X-3141Y2787D01*
X-3140D01*
X-3140Y2787D01*
X-3139Y2787D01*
X-3138Y2786D01*
X-3136Y2786D01*
X-3135Y2786D01*
X-3133Y2785D01*
X-3131Y2784D01*
X-3129Y2783D01*
X-3127Y2782D01*
X-3125Y2780D01*
X-3123Y2779D01*
X-3121Y2777D01*
X-3119Y2775D01*
X-3119Y2775D01*
X-3118Y2774D01*
X-3118Y2774D01*
X-3117Y2773D01*
X-3116Y2772D01*
X-3115Y2771D01*
X-3114Y2769D01*
X-3113Y2768D01*
X-3110Y2764D01*
X-3109Y2760D01*
X-3108Y2758D01*
X-3107Y2756D01*
X-3107Y2754D01*
X-3106Y2752D01*
Y2752D01*
Y2751D01*
Y2751D01*
X-3106Y2750D01*
Y2749D01*
X-3107Y2748D01*
X-3107Y2747D01*
X-3107Y2745D01*
X-3108Y2744D01*
X-3108Y2742D01*
X-3109Y2741D01*
X-3110Y2739D01*
X-3111Y2737D01*
X-3112Y2736D01*
X-3113Y2734D01*
X-3115Y2732D01*
X-3116Y2731D01*
X-3116Y2731D01*
X-3117Y2730D01*
X-3118Y2729D01*
X-3119Y2728D01*
X-3121Y2728D01*
X-3124Y2726D01*
X-3125Y2725D01*
X-3127Y2724D01*
X-3129Y2724D01*
X-3131Y2724D01*
X-3133Y2723D01*
X-3135D01*
X-3135D01*
X-3135Y2724D01*
X-3136D01*
X-3137Y2724D01*
X-3138Y2724D01*
X-3139Y2724D01*
X-3140Y2725D01*
X-3142Y2725D01*
X-3144Y2726D01*
X-3145Y2727D01*
X-3147Y2728D01*
X-3149Y2729D01*
X-3151Y2730D01*
X-3154Y2732D01*
X-3156Y2734D01*
X-3158Y2736D01*
X-3158Y2736D01*
X-3158Y2736D01*
X-3159Y2737D01*
X-3160Y2738D01*
X-3161Y2739D01*
X-3162Y2740D01*
X-3163Y2741D01*
X-3164Y2743D01*
X-3166Y2746D01*
X-3168Y2750D01*
X-3169Y2752D01*
X-3170Y2754D01*
X-3170Y2756D01*
X-3170Y2759D01*
Y2759D01*
X-3170Y2759D01*
X-3170Y2760D01*
Y2760D01*
Y2761D01*
X-3170Y2763D01*
X-3170Y2764D01*
X-3169Y2765D01*
X-3169Y2767D01*
X-3168Y2768D01*
X-3168Y2770D01*
X-3167Y2772D01*
X-3166Y2773D01*
X-3165Y2775D01*
X-3163Y2777D01*
X-3162Y2778D01*
X-3161Y2779D01*
X-3160Y2780D01*
X-3159Y2781D01*
X-3158Y2781D01*
X-3157Y2782D01*
X-3156Y2783D01*
X-3153Y2785D01*
X-3151Y2785D01*
X-3149Y2786D01*
X-3147Y2787D01*
X-3145Y2787D01*
X-3144Y2787D01*
X-3142Y2787D01*
X-3141D01*
D02*
G37*
G36*
X-3248Y2775D02*
X-3248Y2774D01*
X-3247D01*
X-3247Y2774D01*
X-3246Y2774D01*
X-3244Y2774D01*
X-3243Y2773D01*
X-3241Y2773D01*
X-3240Y2772D01*
X-3238Y2771D01*
X-3236Y2770D01*
X-3234Y2769D01*
X-3232Y2768D01*
X-3230Y2766D01*
X-3228Y2764D01*
X-3225Y2762D01*
X-3225Y2762D01*
X-3225Y2761D01*
X-3224Y2761D01*
X-3224Y2760D01*
X-3223Y2759D01*
X-3222Y2758D01*
X-3221Y2756D01*
X-3219Y2755D01*
X-3217Y2751D01*
X-3215Y2747D01*
X-3214Y2745D01*
X-3214Y2743D01*
X-3213Y2741D01*
X-3213Y2739D01*
Y2739D01*
Y2739D01*
Y2738D01*
X-3213Y2737D01*
Y2736D01*
X-3213Y2735D01*
X-3214Y2734D01*
X-3214Y2732D01*
X-3214Y2731D01*
X-3215Y2729D01*
X-3216Y2728D01*
X-3216Y2726D01*
X-3217Y2724D01*
X-3219Y2723D01*
X-3220Y2721D01*
X-3222Y2719D01*
X-3222Y2718D01*
X-3223Y2718D01*
X-3224Y2717D01*
X-3225Y2716D01*
X-3226Y2715D01*
X-3227Y2714D01*
X-3230Y2713D01*
X-3232Y2712D01*
X-3234Y2711D01*
X-3236Y2711D01*
X-3238Y2711D01*
X-3240Y2710D01*
X-3242D01*
X-3242D01*
X-3242Y2711D01*
X-3243D01*
X-3244Y2711D01*
X-3245Y2711D01*
X-3246Y2711D01*
X-3247Y2712D01*
X-3249Y2712D01*
X-3250Y2713D01*
X-3252Y2714D01*
X-3254Y2715D01*
X-3256Y2716D01*
X-3258Y2717D01*
X-3260Y2719D01*
X-3262Y2721D01*
X-3265Y2723D01*
X-3265Y2723D01*
X-3265Y2723D01*
X-3266Y2724D01*
X-3266Y2725D01*
X-3267Y2726D01*
X-3268Y2727D01*
X-3270Y2729D01*
X-3271Y2730D01*
X-3273Y2734D01*
X-3275Y2738D01*
X-3276Y2740D01*
X-3276Y2742D01*
X-3277Y2744D01*
X-3277Y2746D01*
Y2746D01*
X-3277Y2746D01*
X-3277Y2747D01*
Y2748D01*
Y2749D01*
X-3277Y2750D01*
X-3277Y2751D01*
X-3276Y2752D01*
X-3276Y2754D01*
X-3275Y2756D01*
X-3275Y2757D01*
X-3274Y2759D01*
X-3273Y2761D01*
X-3272Y2762D01*
X-3270Y2764D01*
X-3269Y2766D01*
X-3268Y2767D01*
X-3267Y2767D01*
X-3266Y2768D01*
X-3265Y2769D01*
X-3264Y2769D01*
X-3263Y2770D01*
X-3260Y2772D01*
X-3258Y2773D01*
X-3256Y2773D01*
X-3254Y2774D01*
X-3252Y2774D01*
X-3250Y2774D01*
X-3248Y2775D01*
X-3248D01*
D02*
G37*
G36*
X-3162Y2685D02*
X-3175Y2672D01*
X-3221Y2813D01*
X-3209Y2825D01*
X-3162Y2685D01*
D02*
G37*
G36*
X-2890Y-3055D02*
X-2889Y-3055D01*
X-2889Y-3055D01*
X-2888Y-3055D01*
X-2887Y-3056D01*
X-2886Y-3056D01*
X-2885Y-3057D01*
X-2884Y-3057D01*
X-2880Y-3058D01*
X-2877Y-3059D01*
X-2872Y-3060D01*
X-2867Y-3061D01*
X-2867D01*
X-2866Y-3061D01*
X-2866Y-3061D01*
X-2865D01*
X-2864Y-3061D01*
X-2862Y-3061D01*
X-2861D01*
X-2859Y-3061D01*
X-2855Y-3061D01*
X-2851Y-3060D01*
X-2846Y-3059D01*
X-2844Y-3058D01*
X-2842Y-3057D01*
X-2828Y-3071D01*
X-2917Y-3160D01*
X-2934Y-3143D01*
X-2870Y-3079D01*
X-2871D01*
X-2871D01*
X-2872Y-3079D01*
X-2873Y-3079D01*
X-2875Y-3079D01*
X-2877Y-3078D01*
X-2879Y-3078D01*
X-2882Y-3078D01*
X-2884Y-3077D01*
X-2887Y-3077D01*
X-2890Y-3076D01*
X-2893Y-3075D01*
X-2896Y-3074D01*
X-2899Y-3073D01*
X-2902Y-3071D01*
X-2905Y-3070D01*
X-2890Y-3055D01*
X-2890Y-3055D01*
D02*
G37*
G36*
X-2802Y-3106D02*
X-2801D01*
X-2801D01*
X-2800Y-3106D01*
X-2799D01*
X-2798Y-3107D01*
X-2797Y-3107D01*
X-2795Y-3107D01*
X-2794Y-3108D01*
X-2792Y-3108D01*
X-2791Y-3109D01*
X-2789Y-3110D01*
X-2787Y-3111D01*
X-2786Y-3112D01*
X-2784Y-3113D01*
X-2782Y-3115D01*
X-2781Y-3116D01*
X-2781Y-3116D01*
X-2780Y-3117D01*
X-2779Y-3118D01*
X-2778Y-3119D01*
X-2778Y-3121D01*
X-2776Y-3124D01*
X-2775Y-3125D01*
X-2774Y-3127D01*
X-2774Y-3129D01*
X-2774Y-3131D01*
X-2773Y-3133D01*
Y-3135D01*
Y-3135D01*
X-2774Y-3135D01*
Y-3136D01*
X-2774Y-3137D01*
X-2774Y-3138D01*
X-2774Y-3139D01*
X-2775Y-3140D01*
X-2775Y-3142D01*
X-2776Y-3144D01*
X-2777Y-3145D01*
X-2778Y-3147D01*
X-2779Y-3149D01*
X-2780Y-3151D01*
X-2782Y-3154D01*
X-2784Y-3156D01*
X-2786Y-3158D01*
X-2786Y-3158D01*
X-2786Y-3158D01*
X-2787Y-3159D01*
X-2788Y-3160D01*
X-2789Y-3161D01*
X-2790Y-3162D01*
X-2791Y-3163D01*
X-2793Y-3164D01*
X-2796Y-3166D01*
X-2800Y-3168D01*
X-2802Y-3169D01*
X-2804Y-3170D01*
X-2806Y-3170D01*
X-2809Y-3170D01*
X-2809D01*
X-2809Y-3170D01*
X-2810Y-3170D01*
X-2810D01*
X-2811D01*
X-2813Y-3170D01*
X-2814Y-3170D01*
X-2815Y-3169D01*
X-2817Y-3169D01*
X-2818Y-3168D01*
X-2820Y-3168D01*
X-2822Y-3167D01*
X-2823Y-3166D01*
X-2825Y-3165D01*
X-2827Y-3163D01*
X-2828Y-3162D01*
X-2829Y-3161D01*
X-2830Y-3160D01*
X-2831Y-3159D01*
X-2831Y-3158D01*
X-2832Y-3157D01*
X-2833Y-3156D01*
X-2835Y-3153D01*
X-2835Y-3151D01*
X-2836Y-3149D01*
X-2837Y-3147D01*
X-2837Y-3145D01*
X-2837Y-3144D01*
X-2837Y-3142D01*
Y-3141D01*
X-2837Y-3141D01*
Y-3140D01*
X-2837Y-3140D01*
X-2837Y-3139D01*
X-2837Y-3138D01*
X-2836Y-3136D01*
X-2836Y-3135D01*
X-2835Y-3133D01*
X-2834Y-3131D01*
X-2833Y-3129D01*
X-2832Y-3127D01*
X-2830Y-3125D01*
X-2829Y-3123D01*
X-2827Y-3121D01*
X-2825Y-3119D01*
X-2825Y-3119D01*
X-2824Y-3118D01*
X-2824Y-3118D01*
X-2823Y-3117D01*
X-2822Y-3116D01*
X-2821Y-3115D01*
X-2819Y-3114D01*
X-2818Y-3113D01*
X-2814Y-3110D01*
X-2810Y-3109D01*
X-2808Y-3108D01*
X-2806Y-3107D01*
X-2804Y-3107D01*
X-2802Y-3106D01*
X-2802D01*
D02*
G37*
G36*
X-2722Y-3175D02*
X-2863Y-3221D01*
X-2875Y-3209D01*
X-2735Y-3162D01*
X-2722Y-3175D01*
D02*
G37*
G36*
X-2789Y-3213D02*
X-2789D01*
X-2788D01*
X-2787Y-3213D01*
X-2786D01*
X-2785Y-3213D01*
X-2784Y-3214D01*
X-2782Y-3214D01*
X-2781Y-3214D01*
X-2779Y-3215D01*
X-2778Y-3216D01*
X-2776Y-3216D01*
X-2774Y-3217D01*
X-2773Y-3219D01*
X-2771Y-3220D01*
X-2769Y-3222D01*
X-2768Y-3222D01*
X-2768Y-3223D01*
X-2767Y-3224D01*
X-2766Y-3225D01*
X-2765Y-3226D01*
X-2764Y-3227D01*
X-2763Y-3230D01*
X-2762Y-3232D01*
X-2761Y-3234D01*
X-2761Y-3236D01*
X-2761Y-3238D01*
X-2760Y-3240D01*
Y-3242D01*
Y-3242D01*
X-2761Y-3242D01*
Y-3243D01*
X-2761Y-3244D01*
X-2761Y-3245D01*
X-2761Y-3246D01*
X-2762Y-3247D01*
X-2762Y-3249D01*
X-2763Y-3250D01*
X-2764Y-3252D01*
X-2765Y-3254D01*
X-2766Y-3256D01*
X-2767Y-3258D01*
X-2769Y-3260D01*
X-2771Y-3262D01*
X-2773Y-3265D01*
X-2773Y-3265D01*
X-2773Y-3265D01*
X-2774Y-3266D01*
X-2775Y-3266D01*
X-2776Y-3267D01*
X-2777Y-3268D01*
X-2779Y-3270D01*
X-2780Y-3271D01*
X-2784Y-3273D01*
X-2788Y-3275D01*
X-2790Y-3276D01*
X-2792Y-3276D01*
X-2794Y-3277D01*
X-2796Y-3277D01*
X-2796D01*
X-2796Y-3277D01*
X-2797Y-3277D01*
X-2798D01*
X-2799D01*
X-2800Y-3277D01*
X-2801Y-3277D01*
X-2802Y-3276D01*
X-2804Y-3276D01*
X-2806Y-3275D01*
X-2807Y-3275D01*
X-2809Y-3274D01*
X-2811Y-3273D01*
X-2812Y-3272D01*
X-2814Y-3270D01*
X-2816Y-3269D01*
X-2817Y-3268D01*
X-2817Y-3267D01*
X-2818Y-3266D01*
X-2819Y-3265D01*
X-2819Y-3264D01*
X-2820Y-3263D01*
X-2822Y-3260D01*
X-2823Y-3258D01*
X-2823Y-3256D01*
X-2824Y-3254D01*
X-2824Y-3252D01*
X-2824Y-3250D01*
X-2825Y-3248D01*
Y-3248D01*
X-2824Y-3248D01*
Y-3247D01*
X-2824Y-3247D01*
X-2824Y-3246D01*
X-2824Y-3244D01*
X-2823Y-3243D01*
X-2823Y-3241D01*
X-2822Y-3240D01*
X-2821Y-3238D01*
X-2820Y-3236D01*
X-2819Y-3234D01*
X-2818Y-3232D01*
X-2816Y-3230D01*
X-2814Y-3228D01*
X-2812Y-3225D01*
X-2812Y-3225D01*
X-2812Y-3225D01*
X-2811Y-3224D01*
X-2810Y-3224D01*
X-2809Y-3223D01*
X-2808Y-3222D01*
X-2806Y-3221D01*
X-2805Y-3219D01*
X-2801Y-3217D01*
X-2797Y-3215D01*
X-2795Y-3214D01*
X-2793Y-3214D01*
X-2791Y-3213D01*
X-2789Y-3213D01*
X-2789D01*
D02*
G37*
G36*
X3192Y-2761D02*
X3193D01*
X3194Y-2761D01*
X3195Y-2761D01*
X3196Y-2761D01*
X3197Y-2762D01*
X3199Y-2762D01*
X3200Y-2763D01*
X3202Y-2764D01*
X3204Y-2765D01*
X3206Y-2766D01*
X3208Y-2767D01*
X3210Y-2769D01*
X3212Y-2771D01*
X3215Y-2773D01*
X3215Y-2773D01*
X3215Y-2773D01*
X3216Y-2774D01*
X3216Y-2775D01*
X3217Y-2776D01*
X3218Y-2777D01*
X3220Y-2779D01*
X3221Y-2780D01*
X3223Y-2784D01*
X3225Y-2788D01*
X3226Y-2790D01*
X3226Y-2792D01*
X3227Y-2794D01*
X3227Y-2796D01*
Y-2796D01*
X3227Y-2796D01*
X3227Y-2797D01*
Y-2798D01*
Y-2799D01*
X3227Y-2800D01*
X3227Y-2801D01*
X3226Y-2802D01*
X3226Y-2804D01*
X3225Y-2806D01*
X3225Y-2807D01*
X3224Y-2809D01*
X3223Y-2811D01*
X3222Y-2812D01*
X3220Y-2814D01*
X3219Y-2816D01*
X3218Y-2817D01*
X3217Y-2817D01*
X3216Y-2818D01*
X3215Y-2819D01*
X3214Y-2819D01*
X3213Y-2820D01*
X3210Y-2822D01*
X3208Y-2823D01*
X3206Y-2823D01*
X3204Y-2824D01*
X3202Y-2824D01*
X3201Y-2824D01*
X3198Y-2825D01*
X3198D01*
X3198Y-2824D01*
X3197D01*
X3197Y-2824D01*
X3196Y-2824D01*
X3194Y-2824D01*
X3193Y-2823D01*
X3191Y-2823D01*
X3190Y-2822D01*
X3188Y-2821D01*
X3186Y-2820D01*
X3184Y-2819D01*
X3182Y-2818D01*
X3180Y-2816D01*
X3178Y-2814D01*
X3176Y-2812D01*
X3175Y-2812D01*
X3175Y-2812D01*
X3174Y-2811D01*
X3174Y-2810D01*
X3173Y-2809D01*
X3172Y-2808D01*
X3171Y-2806D01*
X3169Y-2805D01*
X3167Y-2801D01*
X3165Y-2797D01*
X3164Y-2795D01*
X3164Y-2793D01*
X3163Y-2791D01*
X3163Y-2789D01*
Y-2789D01*
Y-2789D01*
Y-2788D01*
X3163Y-2787D01*
Y-2786D01*
X3163Y-2785D01*
X3164Y-2784D01*
X3164Y-2782D01*
X3164Y-2781D01*
X3165Y-2779D01*
X3165Y-2778D01*
X3166Y-2776D01*
X3167Y-2774D01*
X3169Y-2773D01*
X3170Y-2771D01*
X3172Y-2769D01*
X3172Y-2768D01*
X3173Y-2768D01*
X3174Y-2767D01*
X3175Y-2766D01*
X3176Y-2765D01*
X3177Y-2764D01*
X3180Y-2763D01*
X3182Y-2762D01*
X3184Y-2761D01*
X3186Y-2761D01*
X3188Y-2761D01*
X3190Y-2760D01*
X3192D01*
X3192Y-2761D01*
D02*
G37*
G36*
X3085Y-2774D02*
X3086D01*
X3087Y-2774D01*
X3088Y-2774D01*
X3089Y-2774D01*
X3090Y-2775D01*
X3092Y-2775D01*
X3094Y-2776D01*
X3095Y-2777D01*
X3097Y-2778D01*
X3099Y-2779D01*
X3101Y-2780D01*
X3104Y-2782D01*
X3106Y-2784D01*
X3108Y-2786D01*
X3108Y-2786D01*
X3108Y-2786D01*
X3109Y-2787D01*
X3110Y-2788D01*
X3111Y-2789D01*
X3112Y-2790D01*
X3113Y-2791D01*
X3114Y-2793D01*
X3116Y-2796D01*
X3118Y-2800D01*
X3119Y-2802D01*
X3120Y-2804D01*
X3120Y-2806D01*
X3120Y-2809D01*
Y-2809D01*
X3120Y-2809D01*
X3120Y-2810D01*
Y-2810D01*
Y-2811D01*
X3120Y-2813D01*
X3120Y-2814D01*
X3119Y-2815D01*
X3119Y-2817D01*
X3118Y-2818D01*
X3118Y-2820D01*
X3117Y-2822D01*
X3116Y-2823D01*
X3115Y-2825D01*
X3113Y-2827D01*
X3112Y-2828D01*
X3111Y-2829D01*
X3110Y-2830D01*
X3109Y-2831D01*
X3108Y-2831D01*
X3107Y-2832D01*
X3106Y-2833D01*
X3103Y-2835D01*
X3101Y-2835D01*
X3099Y-2836D01*
X3097Y-2837D01*
X3095Y-2837D01*
X3094Y-2837D01*
X3092Y-2837D01*
X3091D01*
X3091Y-2837D01*
X3090D01*
X3090Y-2837D01*
X3089Y-2837D01*
X3088Y-2837D01*
X3086Y-2836D01*
X3085Y-2836D01*
X3083Y-2835D01*
X3081Y-2834D01*
X3079Y-2833D01*
X3077Y-2832D01*
X3075Y-2830D01*
X3073Y-2829D01*
X3071Y-2827D01*
X3069Y-2825D01*
X3069Y-2825D01*
X3068Y-2824D01*
X3068Y-2824D01*
X3067Y-2823D01*
X3066Y-2822D01*
X3065Y-2821D01*
X3064Y-2819D01*
X3063Y-2818D01*
X3060Y-2814D01*
X3059Y-2810D01*
X3058Y-2808D01*
X3057Y-2806D01*
X3057Y-2804D01*
X3056Y-2802D01*
Y-2802D01*
Y-2801D01*
Y-2801D01*
X3056Y-2800D01*
Y-2799D01*
X3057Y-2798D01*
X3057Y-2797D01*
X3057Y-2795D01*
X3058Y-2794D01*
X3058Y-2792D01*
X3059Y-2791D01*
X3060Y-2789D01*
X3061Y-2787D01*
X3062Y-2786D01*
X3063Y-2784D01*
X3065Y-2782D01*
X3066Y-2781D01*
X3066Y-2781D01*
X3067Y-2780D01*
X3068Y-2779D01*
X3069Y-2778D01*
X3071Y-2778D01*
X3074Y-2776D01*
X3075Y-2775D01*
X3077Y-2774D01*
X3079Y-2774D01*
X3081Y-2774D01*
X3083Y-2773D01*
X3085D01*
X3085Y-2774D01*
D02*
G37*
G36*
X3171Y-2863D02*
X3159Y-2875D01*
X3112Y-2735D01*
X3125Y-2722D01*
X3171Y-2863D01*
D02*
G37*
G36*
X3110Y-2917D02*
X3093Y-2934D01*
X3029Y-2870D01*
Y-2871D01*
Y-2871D01*
X3029Y-2872D01*
X3029Y-2873D01*
X3029Y-2875D01*
X3028Y-2877D01*
X3028Y-2879D01*
X3028Y-2882D01*
X3027Y-2884D01*
X3027Y-2887D01*
X3026Y-2890D01*
X3025Y-2893D01*
X3024Y-2896D01*
X3023Y-2899D01*
X3021Y-2902D01*
X3020Y-2905D01*
X3005Y-2890D01*
X3005Y-2890D01*
X3005Y-2889D01*
X3005Y-2889D01*
X3005Y-2888D01*
X3006Y-2887D01*
X3006Y-2886D01*
X3007Y-2885D01*
X3007Y-2884D01*
X3008Y-2880D01*
X3009Y-2877D01*
X3010Y-2872D01*
X3011Y-2867D01*
Y-2867D01*
X3011Y-2866D01*
X3011Y-2866D01*
Y-2865D01*
X3011Y-2864D01*
X3011Y-2862D01*
Y-2861D01*
X3011Y-2859D01*
X3011Y-2855D01*
X3010Y-2851D01*
X3009Y-2846D01*
X3008Y-2844D01*
X3007Y-2842D01*
X3021Y-2828D01*
X3110Y-2917D01*
D02*
G37*
%LPC*%
G36*
X-1633Y-14829D02*
X-1636D01*
X-1636D01*
X-1636D01*
X-1637D01*
X-1638D01*
X-1639Y-14829D01*
X-1640D01*
X-1642Y-14829D01*
X-1645Y-14829D01*
X-1648Y-14830D01*
X-1650Y-14830D01*
X-1651Y-14831D01*
X-1652Y-14831D01*
X-1652Y-14832D01*
X-1653Y-14832D01*
X-1653Y-14832D01*
X-1654Y-14833D01*
X-1654Y-14834D01*
X-1655Y-14835D01*
X-1655Y-14836D01*
X-1655Y-14837D01*
Y-14838D01*
X-1655Y-14839D01*
X-1655Y-14839D01*
X-1654Y-14840D01*
X-1654Y-14841D01*
X-1653Y-14842D01*
X-1652Y-14843D01*
X-1652Y-14843D01*
X-1651Y-14844D01*
X-1650Y-14844D01*
X-1649Y-14844D01*
X-1648Y-14845D01*
X-1647Y-14845D01*
X-1646Y-14845D01*
X-1645Y-14845D01*
X-1643Y-14846D01*
X-1642Y-14846D01*
X-1640Y-14846D01*
X-1638Y-14846D01*
X-1636D01*
X-1636D01*
X-1635D01*
X-1634D01*
X-1634D01*
X-1633Y-14846D01*
X-1632D01*
X-1629Y-14846D01*
X-1626Y-14845D01*
X-1624Y-14845D01*
X-1621Y-14844D01*
X-1620Y-14844D01*
X-1619Y-14843D01*
X-1619Y-14843D01*
X-1619Y-14843D01*
X-1618Y-14842D01*
X-1618Y-14842D01*
X-1617Y-14841D01*
X-1617Y-14840D01*
X-1616Y-14839D01*
X-1616Y-14837D01*
Y-14837D01*
X-1616Y-14836D01*
X-1616Y-14835D01*
X-1617Y-14834D01*
X-1617Y-14833D01*
X-1618Y-14832D01*
X-1619Y-14831D01*
X-1619Y-14831D01*
X-1620Y-14831D01*
X-1621Y-14830D01*
X-1622Y-14830D01*
X-1623Y-14830D01*
X-1624Y-14830D01*
X-1625Y-14829D01*
X-1626Y-14829D01*
X-1628Y-14829D01*
X-1630Y-14829D01*
X-1631Y-14829D01*
X-1633Y-14829D01*
D02*
G37*
G36*
X-1700Y-14913D02*
X-1702D01*
X-1702D01*
X-1703D01*
X-1703D01*
X-1704D01*
X-1705Y-14913D01*
X-1706D01*
X-1709Y-14914D01*
X-1711Y-14914D01*
X-1714Y-14914D01*
X-1716Y-14915D01*
X-1717Y-14915D01*
X-1718Y-14916D01*
X-1718Y-14916D01*
X-1719Y-14916D01*
X-1719Y-14917D01*
X-1720Y-14917D01*
X-1720Y-14918D01*
X-1721Y-14919D01*
X-1721Y-14920D01*
X-1721Y-14922D01*
Y-14922D01*
X-1721Y-14923D01*
X-1721Y-14924D01*
X-1721Y-14925D01*
X-1720Y-14926D01*
X-1719Y-14927D01*
X-1718Y-14928D01*
X-1718Y-14928D01*
X-1717Y-14928D01*
X-1716Y-14929D01*
X-1716Y-14929D01*
X-1715Y-14929D01*
X-1714Y-14929D01*
X-1712Y-14930D01*
X-1711Y-14930D01*
X-1710Y-14930D01*
X-1708Y-14930D01*
X-1706Y-14930D01*
X-1704Y-14931D01*
X-1702D01*
X-1702D01*
X-1701D01*
X-1701D01*
X-1700D01*
X-1699Y-14930D01*
X-1698D01*
X-1695Y-14930D01*
X-1693Y-14930D01*
X-1690Y-14929D01*
X-1688Y-14929D01*
X-1687Y-14928D01*
X-1686Y-14928D01*
X-1686Y-14928D01*
X-1685Y-14927D01*
X-1685Y-14927D01*
X-1684Y-14926D01*
X-1684Y-14925D01*
X-1683Y-14924D01*
X-1683Y-14923D01*
X-1683Y-14922D01*
Y-14921D01*
X-1683Y-14920D01*
X-1683Y-14920D01*
X-1683Y-14919D01*
X-1684Y-14918D01*
X-1685Y-14917D01*
X-1686Y-14916D01*
X-1686Y-14916D01*
X-1687Y-14916D01*
X-1688Y-14915D01*
X-1688Y-14915D01*
X-1689Y-14914D01*
X-1690Y-14914D01*
X-1692Y-14914D01*
X-1693Y-14914D01*
X-1694Y-14914D01*
X-1696Y-14913D01*
X-1698Y-14913D01*
X-1700Y-14913D01*
D02*
G37*
G36*
X-1896Y-13969D02*
X-1898D01*
X-1898D01*
X-1899D01*
X-1899D01*
X-1900D01*
X-1901Y-13970D01*
X-1902D01*
X-1905Y-13970D01*
X-1907Y-13970D01*
X-1910Y-13971D01*
X-1912Y-13971D01*
X-1913Y-13972D01*
X-1914Y-13972D01*
X-1914Y-13972D01*
X-1915Y-13973D01*
X-1915Y-13973D01*
X-1916Y-13974D01*
X-1916Y-13975D01*
X-1917Y-13976D01*
X-1917Y-13977D01*
X-1917Y-13978D01*
Y-13979D01*
X-1917Y-13980D01*
X-1917Y-13980D01*
X-1917Y-13981D01*
X-1916Y-13982D01*
X-1915Y-13983D01*
X-1914Y-13984D01*
X-1914Y-13984D01*
X-1913Y-13984D01*
X-1912Y-13985D01*
X-1912Y-13985D01*
X-1911Y-13986D01*
X-1910Y-13986D01*
X-1908Y-13986D01*
X-1907Y-13986D01*
X-1906Y-13986D01*
X-1904Y-13987D01*
X-1902Y-13987D01*
X-1900Y-13987D01*
X-1898D01*
X-1898D01*
X-1897D01*
X-1897D01*
X-1896D01*
X-1895Y-13987D01*
X-1894D01*
X-1891Y-13986D01*
X-1889Y-13986D01*
X-1886Y-13986D01*
X-1884Y-13985D01*
X-1883Y-13985D01*
X-1882Y-13984D01*
X-1882Y-13984D01*
X-1881Y-13984D01*
X-1881Y-13983D01*
X-1880Y-13983D01*
X-1880Y-13982D01*
X-1879Y-13981D01*
X-1879Y-13980D01*
X-1879Y-13978D01*
Y-13978D01*
X-1879Y-13977D01*
X-1879Y-13976D01*
X-1879Y-13975D01*
X-1880Y-13974D01*
X-1881Y-13973D01*
X-1882Y-13972D01*
X-1882Y-13972D01*
X-1883Y-13972D01*
X-1884Y-13971D01*
X-1884Y-13971D01*
X-1885Y-13971D01*
X-1886Y-13971D01*
X-1888Y-13970D01*
X-1889Y-13970D01*
X-1890Y-13970D01*
X-1892Y-13970D01*
X-1894Y-13970D01*
X-1896Y-13969D01*
D02*
G37*
G36*
X-1962Y-14054D02*
X-1964D01*
X-1964D01*
X-1965D01*
X-1966D01*
X-1966D01*
X-1967Y-14054D01*
X-1968D01*
X-1971Y-14054D01*
X-1974Y-14055D01*
X-1976Y-14055D01*
X-1979Y-14056D01*
X-1980Y-14056D01*
X-1981Y-14057D01*
X-1981Y-14057D01*
X-1981Y-14057D01*
X-1982Y-14058D01*
X-1982Y-14058D01*
X-1983Y-14059D01*
X-1983Y-14060D01*
X-1984Y-14061D01*
X-1984Y-14063D01*
Y-14063D01*
X-1984Y-14064D01*
X-1984Y-14065D01*
X-1983Y-14066D01*
X-1983Y-14067D01*
X-1982Y-14068D01*
X-1981Y-14069D01*
X-1981Y-14069D01*
X-1980Y-14069D01*
X-1979Y-14070D01*
X-1978Y-14070D01*
X-1977Y-14070D01*
X-1976Y-14070D01*
X-1975Y-14071D01*
X-1974Y-14071D01*
X-1972Y-14071D01*
X-1970Y-14071D01*
X-1969Y-14071D01*
X-1967Y-14071D01*
X-1964D01*
X-1964D01*
X-1964D01*
X-1963D01*
X-1962D01*
X-1961Y-14071D01*
X-1960D01*
X-1958Y-14071D01*
X-1955Y-14071D01*
X-1952Y-14070D01*
X-1950Y-14070D01*
X-1949Y-14069D01*
X-1948Y-14069D01*
X-1948Y-14068D01*
X-1947Y-14068D01*
X-1947Y-14068D01*
X-1946Y-14067D01*
X-1946Y-14066D01*
X-1945Y-14065D01*
X-1945Y-14064D01*
X-1945Y-14063D01*
Y-14062D01*
X-1945Y-14061D01*
X-1945Y-14061D01*
X-1946Y-14060D01*
X-1946Y-14059D01*
X-1947Y-14058D01*
X-1948Y-14057D01*
X-1948Y-14057D01*
X-1949Y-14056D01*
X-1950Y-14056D01*
X-1951Y-14056D01*
X-1952Y-14055D01*
X-1953Y-14055D01*
X-1954Y-14055D01*
X-1955Y-14055D01*
X-1957Y-14054D01*
X-1958Y-14054D01*
X-1960Y-14054D01*
X-1962Y-14054D01*
D02*
G37*
G36*
X-7613Y-11866D02*
X-7613D01*
X-7614Y-11866D01*
X-7615Y-11866D01*
X-7616Y-11867D01*
X-7617Y-11867D01*
X-7618Y-11868D01*
X-7619Y-11869D01*
X-7619Y-11869D01*
X-7619Y-11870D01*
X-7620Y-11871D01*
X-7620Y-11872D01*
X-7620Y-11873D01*
X-7620Y-11874D01*
X-7621Y-11875D01*
X-7621Y-11876D01*
X-7621Y-11878D01*
X-7621Y-11880D01*
X-7621Y-11881D01*
X-7621Y-11883D01*
Y-11886D01*
Y-11886D01*
Y-11886D01*
Y-11887D01*
Y-11888D01*
X-7621Y-11889D01*
Y-11890D01*
X-7621Y-11892D01*
X-7621Y-11895D01*
X-7620Y-11898D01*
X-7620Y-11900D01*
X-7619Y-11901D01*
X-7619Y-11902D01*
X-7618Y-11902D01*
X-7618Y-11903D01*
X-7618Y-11903D01*
X-7617Y-11904D01*
X-7616Y-11904D01*
X-7615Y-11905D01*
X-7614Y-11905D01*
X-7613Y-11905D01*
X-7612D01*
X-7611Y-11905D01*
X-7611Y-11905D01*
X-7610Y-11904D01*
X-7609Y-11904D01*
X-7608Y-11903D01*
X-7607Y-11902D01*
X-7607Y-11902D01*
X-7606Y-11901D01*
X-7606Y-11900D01*
X-7606Y-11899D01*
X-7605Y-11898D01*
X-7605Y-11897D01*
X-7605Y-11896D01*
X-7605Y-11895D01*
X-7604Y-11893D01*
X-7604Y-11892D01*
X-7604Y-11890D01*
X-7604Y-11888D01*
Y-11886D01*
Y-11885D01*
Y-11885D01*
Y-11884D01*
Y-11884D01*
X-7604Y-11883D01*
Y-11882D01*
X-7604Y-11879D01*
X-7605Y-11876D01*
X-7605Y-11874D01*
X-7606Y-11871D01*
X-7606Y-11870D01*
X-7607Y-11869D01*
X-7607Y-11869D01*
X-7607Y-11869D01*
X-7608Y-11868D01*
X-7608Y-11868D01*
X-7609Y-11867D01*
X-7610Y-11867D01*
X-7611Y-11866D01*
X-7613Y-11866D01*
D02*
G37*
G36*
X-7528Y-11933D02*
X-7529D01*
X-7530Y-11933D01*
X-7530Y-11933D01*
X-7531Y-11933D01*
X-7532Y-11934D01*
X-7533Y-11935D01*
X-7534Y-11936D01*
X-7534Y-11936D01*
X-7534Y-11937D01*
X-7535Y-11938D01*
X-7535Y-11938D01*
X-7536Y-11939D01*
X-7536Y-11940D01*
X-7536Y-11942D01*
X-7536Y-11943D01*
X-7536Y-11944D01*
X-7537Y-11946D01*
X-7537Y-11948D01*
X-7537Y-11950D01*
Y-11952D01*
Y-11952D01*
Y-11953D01*
Y-11953D01*
Y-11954D01*
X-7537Y-11955D01*
Y-11956D01*
X-7536Y-11959D01*
X-7536Y-11961D01*
X-7536Y-11964D01*
X-7535Y-11966D01*
X-7535Y-11967D01*
X-7534Y-11968D01*
X-7534Y-11968D01*
X-7534Y-11969D01*
X-7533Y-11969D01*
X-7533Y-11970D01*
X-7532Y-11970D01*
X-7531Y-11971D01*
X-7530Y-11971D01*
X-7528Y-11971D01*
X-7527D01*
X-7527Y-11971D01*
X-7526Y-11971D01*
X-7525Y-11971D01*
X-7524Y-11970D01*
X-7523Y-11969D01*
X-7522Y-11968D01*
X-7522Y-11968D01*
X-7522Y-11968D01*
X-7521Y-11966D01*
X-7521Y-11966D01*
X-7521Y-11965D01*
X-7521Y-11964D01*
X-7520Y-11962D01*
X-7520Y-11961D01*
X-7520Y-11960D01*
X-7520Y-11958D01*
X-7520Y-11956D01*
X-7519Y-11954D01*
Y-11952D01*
Y-11952D01*
Y-11951D01*
Y-11951D01*
Y-11950D01*
X-7520Y-11949D01*
Y-11948D01*
X-7520Y-11945D01*
X-7520Y-11943D01*
X-7521Y-11940D01*
X-7521Y-11938D01*
X-7522Y-11937D01*
X-7522Y-11936D01*
X-7522Y-11936D01*
X-7523Y-11935D01*
X-7523Y-11935D01*
X-7524Y-11934D01*
X-7525Y-11934D01*
X-7526Y-11933D01*
X-7527Y-11933D01*
X-7528Y-11933D01*
D02*
G37*
G36*
X-7613Y-11216D02*
X-7613D01*
X-7614Y-11216D01*
X-7615Y-11216D01*
X-7616Y-11217D01*
X-7617Y-11217D01*
X-7618Y-11218D01*
X-7619Y-11219D01*
X-7619Y-11219D01*
X-7619Y-11220D01*
X-7620Y-11221D01*
X-7620Y-11222D01*
X-7620Y-11223D01*
X-7620Y-11224D01*
X-7621Y-11225D01*
X-7621Y-11226D01*
X-7621Y-11228D01*
X-7621Y-11230D01*
X-7621Y-11231D01*
X-7621Y-11233D01*
Y-11236D01*
Y-11236D01*
Y-11236D01*
Y-11237D01*
Y-11238D01*
X-7621Y-11239D01*
Y-11240D01*
X-7621Y-11242D01*
X-7621Y-11245D01*
X-7620Y-11248D01*
X-7620Y-11250D01*
X-7619Y-11251D01*
X-7619Y-11252D01*
X-7618Y-11252D01*
X-7618Y-11253D01*
X-7618Y-11253D01*
X-7617Y-11254D01*
X-7616Y-11254D01*
X-7615Y-11255D01*
X-7614Y-11255D01*
X-7613Y-11255D01*
X-7612D01*
X-7611Y-11255D01*
X-7611Y-11255D01*
X-7610Y-11254D01*
X-7609Y-11254D01*
X-7608Y-11253D01*
X-7607Y-11252D01*
X-7607Y-11252D01*
X-7606Y-11251D01*
X-7606Y-11250D01*
X-7606Y-11249D01*
X-7605Y-11248D01*
X-7605Y-11247D01*
X-7605Y-11246D01*
X-7605Y-11245D01*
X-7604Y-11243D01*
X-7604Y-11242D01*
X-7604Y-11240D01*
X-7604Y-11238D01*
Y-11236D01*
Y-11236D01*
Y-11235D01*
Y-11234D01*
Y-11234D01*
X-7604Y-11233D01*
Y-11232D01*
X-7604Y-11229D01*
X-7605Y-11226D01*
X-7605Y-11224D01*
X-7606Y-11221D01*
X-7606Y-11220D01*
X-7607Y-11219D01*
X-7607Y-11219D01*
X-7607Y-11219D01*
X-7608Y-11218D01*
X-7608Y-11218D01*
X-7609Y-11217D01*
X-7610Y-11217D01*
X-7611Y-11216D01*
X-7613Y-11216D01*
D02*
G37*
G36*
X-7528Y-11283D02*
X-7529D01*
X-7530Y-11283D01*
X-7530Y-11283D01*
X-7531Y-11283D01*
X-7532Y-11284D01*
X-7533Y-11285D01*
X-7534Y-11286D01*
X-7534Y-11286D01*
X-7534Y-11286D01*
X-7535Y-11288D01*
X-7535Y-11288D01*
X-7536Y-11289D01*
X-7536Y-11290D01*
X-7536Y-11292D01*
X-7536Y-11293D01*
X-7536Y-11294D01*
X-7537Y-11296D01*
X-7537Y-11298D01*
X-7537Y-11300D01*
Y-11302D01*
Y-11302D01*
Y-11303D01*
Y-11303D01*
Y-11304D01*
X-7537Y-11305D01*
Y-11306D01*
X-7536Y-11309D01*
X-7536Y-11311D01*
X-7536Y-11314D01*
X-7535Y-11316D01*
X-7535Y-11317D01*
X-7534Y-11318D01*
X-7534Y-11318D01*
X-7534Y-11319D01*
X-7533Y-11319D01*
X-7533Y-11320D01*
X-7532Y-11320D01*
X-7531Y-11321D01*
X-7530Y-11321D01*
X-7528Y-11321D01*
X-7527D01*
X-7527Y-11321D01*
X-7526Y-11321D01*
X-7525Y-11321D01*
X-7524Y-11320D01*
X-7523Y-11319D01*
X-7522Y-11318D01*
X-7522Y-11318D01*
X-7522Y-11317D01*
X-7521Y-11316D01*
X-7521Y-11316D01*
X-7521Y-11315D01*
X-7521Y-11314D01*
X-7520Y-11312D01*
X-7520Y-11311D01*
X-7520Y-11310D01*
X-7520Y-11308D01*
X-7520Y-11306D01*
X-7519Y-11304D01*
Y-11302D01*
Y-11302D01*
Y-11301D01*
Y-11301D01*
Y-11300D01*
X-7520Y-11299D01*
Y-11298D01*
X-7520Y-11295D01*
X-7520Y-11293D01*
X-7521Y-11290D01*
X-7521Y-11288D01*
X-7522Y-11286D01*
X-7522Y-11286D01*
X-7522Y-11286D01*
X-7523Y-11285D01*
X-7523Y-11285D01*
X-7524Y-11284D01*
X-7525Y-11284D01*
X-7526Y-11283D01*
X-7527Y-11283D01*
X-7528Y-11283D01*
D02*
G37*
G36*
X5004Y481D02*
X5002D01*
X5002D01*
X5001D01*
X5001D01*
X5000D01*
X4999Y480D01*
X4998D01*
X4995Y480D01*
X4993Y480D01*
X4990Y479D01*
X4988Y479D01*
X4987Y478D01*
X4986Y478D01*
X4986Y478D01*
X4985Y477D01*
X4985Y477D01*
X4984Y476D01*
X4984Y475D01*
X4983Y474D01*
X4983Y473D01*
X4983Y472D01*
Y471D01*
X4983Y470D01*
X4983Y470D01*
X4983Y469D01*
X4984Y468D01*
X4985Y467D01*
X4986Y466D01*
X4986Y466D01*
X4987Y466D01*
X4988Y465D01*
X4988Y465D01*
X4989Y464D01*
X4990Y464D01*
X4992Y464D01*
X4993Y464D01*
X4994Y464D01*
X4996Y463D01*
X4998Y463D01*
X5000Y463D01*
X5002D01*
X5002D01*
X5003D01*
X5003D01*
X5004D01*
X5005Y463D01*
X5006D01*
X5009Y464D01*
X5011Y464D01*
X5014Y464D01*
X5016Y465D01*
X5017Y465D01*
X5018Y466D01*
X5018Y466D01*
X5019Y466D01*
X5019Y467D01*
X5020Y467D01*
X5020Y468D01*
X5021Y469D01*
X5021Y470D01*
X5021Y472D01*
Y472D01*
X5021Y473D01*
X5021Y474D01*
X5021Y475D01*
X5020Y476D01*
X5019Y477D01*
X5018Y478D01*
X5018Y478D01*
X5017Y478D01*
X5016Y479D01*
X5016Y479D01*
X5015Y479D01*
X5014Y479D01*
X5012Y480D01*
X5011Y480D01*
X5010Y480D01*
X5008Y480D01*
X5006Y480D01*
X5004Y481D01*
D02*
G37*
G36*
X4938Y396D02*
X4936D01*
X4936D01*
X4935D01*
X4934D01*
X4934D01*
X4933Y396D01*
X4932D01*
X4929Y396D01*
X4926Y395D01*
X4924Y395D01*
X4921Y394D01*
X4920Y394D01*
X4919Y393D01*
X4919Y393D01*
X4919Y393D01*
X4918Y392D01*
X4918Y392D01*
X4917Y391D01*
X4917Y390D01*
X4916Y389D01*
X4916Y387D01*
Y387D01*
X4916Y386D01*
X4916Y385D01*
X4917Y384D01*
X4917Y383D01*
X4918Y382D01*
X4919Y381D01*
X4919Y381D01*
X4920Y381D01*
X4921Y380D01*
X4922Y380D01*
X4923Y380D01*
X4924Y380D01*
X4925Y379D01*
X4926Y379D01*
X4928Y379D01*
X4930Y379D01*
X4931Y379D01*
X4933Y379D01*
X4936D01*
X4936D01*
X4936D01*
X4937D01*
X4938D01*
X4939Y379D01*
X4940D01*
X4942Y379D01*
X4945Y379D01*
X4948Y380D01*
X4950Y380D01*
X4951Y381D01*
X4952Y381D01*
X4952Y382D01*
X4953Y382D01*
X4953Y382D01*
X4954Y383D01*
X4954Y384D01*
X4955Y385D01*
X4955Y386D01*
X4955Y387D01*
Y388D01*
X4955Y389D01*
X4955Y389D01*
X4954Y390D01*
X4954Y391D01*
X4953Y392D01*
X4952Y393D01*
X4952Y393D01*
X4951Y394D01*
X4950Y394D01*
X4949Y394D01*
X4948Y395D01*
X4947Y395D01*
X4946Y395D01*
X4945Y395D01*
X4943Y396D01*
X4942Y396D01*
X4940Y396D01*
X4938Y396D01*
D02*
G37*
G36*
X-472Y-4479D02*
X-472D01*
X-473Y-4479D01*
X-474Y-4479D01*
X-475Y-4479D01*
X-476Y-4480D01*
X-477Y-4481D01*
X-478Y-4482D01*
X-478Y-4482D01*
X-478Y-4482D01*
X-479Y-4484D01*
X-479Y-4484D01*
X-479Y-4485D01*
X-479Y-4486D01*
X-480Y-4488D01*
X-480Y-4489D01*
X-480Y-4490D01*
X-480Y-4492D01*
X-480Y-4494D01*
X-481Y-4496D01*
Y-4498D01*
Y-4498D01*
Y-4499D01*
Y-4499D01*
Y-4500D01*
X-480Y-4501D01*
Y-4502D01*
X-480Y-4505D01*
X-480Y-4507D01*
X-479Y-4510D01*
X-479Y-4512D01*
X-478Y-4514D01*
X-478Y-4514D01*
X-478Y-4514D01*
X-477Y-4515D01*
X-477Y-4515D01*
X-476Y-4516D01*
X-475Y-4516D01*
X-474Y-4517D01*
X-473Y-4517D01*
X-472Y-4517D01*
X-471D01*
X-470Y-4517D01*
X-470Y-4517D01*
X-469Y-4517D01*
X-468Y-4516D01*
X-467Y-4515D01*
X-466Y-4514D01*
X-466Y-4514D01*
X-466Y-4514D01*
X-465Y-4512D01*
X-465Y-4512D01*
X-464Y-4511D01*
X-464Y-4510D01*
X-464Y-4508D01*
X-464Y-4507D01*
X-464Y-4506D01*
X-463Y-4504D01*
X-463Y-4502D01*
X-463Y-4500D01*
Y-4498D01*
Y-4498D01*
Y-4497D01*
Y-4497D01*
Y-4496D01*
X-463Y-4495D01*
Y-4494D01*
X-464Y-4491D01*
X-464Y-4489D01*
X-464Y-4486D01*
X-465Y-4484D01*
X-465Y-4483D01*
X-466Y-4482D01*
X-466Y-4482D01*
X-466Y-4481D01*
X-467Y-4481D01*
X-467Y-4480D01*
X-468Y-4480D01*
X-469Y-4479D01*
X-470Y-4479D01*
X-472Y-4479D01*
D02*
G37*
G36*
X-387Y-4545D02*
X-388D01*
X-389Y-4545D01*
X-389Y-4545D01*
X-390Y-4546D01*
X-391Y-4546D01*
X-392Y-4547D01*
X-393Y-4548D01*
X-393Y-4548D01*
X-394Y-4549D01*
X-394Y-4550D01*
X-394Y-4551D01*
X-395Y-4552D01*
X-395Y-4553D01*
X-395Y-4554D01*
X-395Y-4555D01*
X-396Y-4557D01*
X-396Y-4558D01*
X-396Y-4560D01*
X-396Y-4562D01*
Y-4564D01*
Y-4564D01*
Y-4565D01*
Y-4566D01*
Y-4566D01*
X-396Y-4567D01*
Y-4568D01*
X-396Y-4571D01*
X-395Y-4574D01*
X-395Y-4576D01*
X-394Y-4579D01*
X-394Y-4580D01*
X-393Y-4581D01*
X-393Y-4581D01*
X-393Y-4581D01*
X-392Y-4582D01*
X-392Y-4582D01*
X-391Y-4583D01*
X-390Y-4583D01*
X-389Y-4584D01*
X-387Y-4584D01*
X-387D01*
X-386Y-4584D01*
X-385Y-4584D01*
X-384Y-4583D01*
X-383Y-4583D01*
X-382Y-4582D01*
X-381Y-4581D01*
X-381Y-4581D01*
X-381Y-4580D01*
X-380Y-4579D01*
X-380Y-4578D01*
X-380Y-4577D01*
X-380Y-4576D01*
X-379Y-4575D01*
X-379Y-4574D01*
X-379Y-4572D01*
X-379Y-4570D01*
X-379Y-4569D01*
X-379Y-4567D01*
Y-4564D01*
Y-4564D01*
Y-4564D01*
Y-4563D01*
Y-4562D01*
X-379Y-4561D01*
Y-4560D01*
X-379Y-4558D01*
X-379Y-4555D01*
X-380Y-4552D01*
X-380Y-4550D01*
X-381Y-4549D01*
X-381Y-4548D01*
X-382Y-4548D01*
X-382Y-4547D01*
X-382Y-4547D01*
X-383Y-4546D01*
X-384Y-4546D01*
X-385Y-4545D01*
X-386Y-4545D01*
X-387Y-4545D01*
D02*
G37*
G36*
X-4983Y-379D02*
X-4986D01*
X-4986D01*
X-4986D01*
X-4987D01*
X-4988D01*
X-4989Y-379D01*
X-4990D01*
X-4992Y-379D01*
X-4995Y-379D01*
X-4998Y-380D01*
X-5000Y-380D01*
X-5001Y-381D01*
X-5002Y-381D01*
X-5002Y-382D01*
X-5003Y-382D01*
X-5003Y-382D01*
X-5004Y-383D01*
X-5004Y-384D01*
X-5005Y-385D01*
X-5005Y-386D01*
X-5005Y-387D01*
Y-388D01*
X-5005Y-389D01*
X-5005Y-389D01*
X-5004Y-390D01*
X-5004Y-391D01*
X-5003Y-392D01*
X-5002Y-393D01*
X-5002Y-393D01*
X-5001Y-394D01*
X-5000Y-394D01*
X-4999Y-394D01*
X-4998Y-395D01*
X-4997Y-395D01*
X-4996Y-395D01*
X-4995Y-395D01*
X-4993Y-396D01*
X-4992Y-396D01*
X-4990Y-396D01*
X-4988Y-396D01*
X-4986D01*
X-4985D01*
X-4985D01*
X-4984D01*
X-4984D01*
X-4983Y-396D01*
X-4982D01*
X-4979Y-396D01*
X-4976Y-395D01*
X-4974Y-395D01*
X-4971Y-394D01*
X-4970Y-394D01*
X-4969Y-393D01*
X-4969Y-393D01*
X-4969Y-393D01*
X-4968Y-392D01*
X-4968Y-392D01*
X-4967Y-391D01*
X-4967Y-390D01*
X-4966Y-389D01*
X-4966Y-387D01*
Y-387D01*
X-4966Y-386D01*
X-4966Y-385D01*
X-4967Y-384D01*
X-4967Y-383D01*
X-4968Y-382D01*
X-4969Y-381D01*
X-4969Y-381D01*
X-4970Y-381D01*
X-4971Y-380D01*
X-4972Y-380D01*
X-4973Y-380D01*
X-4974Y-380D01*
X-4975Y-379D01*
X-4976Y-379D01*
X-4978Y-379D01*
X-4980Y-379D01*
X-4981Y-379D01*
X-4983Y-379D01*
D02*
G37*
G36*
X-5050Y-463D02*
X-5052D01*
X-5052D01*
X-5053D01*
X-5053D01*
X-5054D01*
X-5055Y-463D01*
X-5056D01*
X-5059Y-464D01*
X-5061Y-464D01*
X-5064Y-464D01*
X-5066Y-465D01*
X-5067Y-465D01*
X-5068Y-466D01*
X-5068Y-466D01*
X-5069Y-466D01*
X-5069Y-467D01*
X-5070Y-467D01*
X-5070Y-468D01*
X-5071Y-469D01*
X-5071Y-470D01*
X-5071Y-472D01*
Y-472D01*
X-5071Y-473D01*
X-5071Y-474D01*
X-5071Y-475D01*
X-5070Y-476D01*
X-5069Y-477D01*
X-5068Y-478D01*
X-5068Y-478D01*
X-5067Y-478D01*
X-5066Y-479D01*
X-5066Y-479D01*
X-5065Y-479D01*
X-5064Y-479D01*
X-5062Y-480D01*
X-5061Y-480D01*
X-5060Y-480D01*
X-5058Y-480D01*
X-5056Y-480D01*
X-5054Y-481D01*
X-5052D01*
X-5052D01*
X-5051D01*
X-5051D01*
X-5050D01*
X-5049Y-480D01*
X-5048D01*
X-5045Y-480D01*
X-5043Y-480D01*
X-5040Y-479D01*
X-5038Y-479D01*
X-5037Y-478D01*
X-5036Y-478D01*
X-5036Y-478D01*
X-5035Y-477D01*
X-5035Y-477D01*
X-5034Y-476D01*
X-5034Y-475D01*
X-5033Y-474D01*
X-5033Y-473D01*
X-5033Y-472D01*
Y-471D01*
X-5033Y-470D01*
X-5033Y-470D01*
X-5033Y-469D01*
X-5034Y-468D01*
X-5035Y-467D01*
X-5036Y-466D01*
X-5036Y-466D01*
X-5037Y-466D01*
X-5038Y-465D01*
X-5038Y-465D01*
X-5039Y-464D01*
X-5040Y-464D01*
X-5042Y-464D01*
X-5043Y-464D01*
X-5044Y-464D01*
X-5046Y-463D01*
X-5048Y-463D01*
X-5050Y-463D01*
D02*
G37*
G36*
X387Y4558D02*
X387D01*
X386Y4558D01*
X385Y4558D01*
X384Y4558D01*
X383Y4557D01*
X382Y4556D01*
X381Y4555D01*
X381Y4555D01*
X381Y4555D01*
X380Y4553D01*
X380Y4553D01*
X380Y4552D01*
X380Y4551D01*
X379Y4550D01*
X379Y4548D01*
X379Y4547D01*
X379Y4545D01*
X379Y4543D01*
X379Y4541D01*
Y4539D01*
Y4539D01*
Y4538D01*
Y4538D01*
Y4537D01*
X379Y4536D01*
Y4535D01*
X379Y4532D01*
X379Y4529D01*
X380Y4527D01*
X380Y4524D01*
X381Y4523D01*
X381Y4522D01*
X382Y4522D01*
X382Y4522D01*
X382Y4521D01*
X383Y4521D01*
X384Y4520D01*
X385Y4520D01*
X386Y4519D01*
X387Y4519D01*
X388D01*
X389Y4519D01*
X389Y4520D01*
X390Y4520D01*
X391Y4521D01*
X392Y4521D01*
X393Y4522D01*
X393Y4522D01*
X394Y4523D01*
X394Y4524D01*
X394Y4525D01*
X395Y4526D01*
X395Y4527D01*
X395Y4528D01*
X395Y4530D01*
X396Y4531D01*
X396Y4533D01*
X396Y4535D01*
X396Y4537D01*
Y4539D01*
Y4539D01*
Y4539D01*
Y4540D01*
Y4541D01*
X396Y4542D01*
Y4543D01*
X396Y4545D01*
X395Y4548D01*
X395Y4551D01*
X394Y4553D01*
X394Y4554D01*
X393Y4555D01*
X393Y4555D01*
X393Y4556D01*
X392Y4556D01*
X392Y4557D01*
X391Y4557D01*
X390Y4558D01*
X389Y4558D01*
X387Y4558D01*
D02*
G37*
G36*
X472Y4492D02*
X471D01*
X470Y4492D01*
X470Y4491D01*
X469Y4491D01*
X468Y4491D01*
X467Y4490D01*
X466Y4489D01*
X466Y4488D01*
X466Y4488D01*
X465Y4487D01*
X465Y4486D01*
X464Y4485D01*
X464Y4484D01*
X464Y4483D01*
X464Y4482D01*
X464Y4480D01*
X463Y4478D01*
X463Y4477D01*
X463Y4475D01*
Y4472D01*
Y4472D01*
Y4472D01*
Y4471D01*
Y4471D01*
X463Y4469D01*
Y4468D01*
X464Y4466D01*
X464Y4463D01*
X464Y4460D01*
X465Y4458D01*
X465Y4457D01*
X466Y4456D01*
X466Y4456D01*
X466Y4456D01*
X467Y4455D01*
X467Y4455D01*
X468Y4454D01*
X469Y4454D01*
X470Y4453D01*
X472Y4453D01*
X472D01*
X473Y4453D01*
X474Y4453D01*
X475Y4454D01*
X476Y4454D01*
X477Y4455D01*
X478Y4456D01*
X478Y4456D01*
X478Y4457D01*
X479Y4458D01*
X479Y4459D01*
X479Y4460D01*
X479Y4461D01*
X480Y4462D01*
X480Y4463D01*
X480Y4465D01*
X480Y4466D01*
X480Y4468D01*
X481Y4470D01*
Y4472D01*
Y4473D01*
Y4473D01*
Y4473D01*
Y4474D01*
X480Y4475D01*
Y4476D01*
X480Y4479D01*
X480Y4482D01*
X479Y4484D01*
X479Y4487D01*
X478Y4488D01*
X478Y4489D01*
X478Y4489D01*
X477Y4489D01*
X477Y4490D01*
X476Y4490D01*
X475Y4491D01*
X474Y4491D01*
X473Y4492D01*
X472Y4492D01*
D02*
G37*
G36*
X2751Y3261D02*
X2750Y3261D01*
X2750Y3261D01*
X2749Y3261D01*
X2748Y3260D01*
X2747Y3260D01*
X2746Y3259D01*
X2746Y3259D01*
X2745Y3258D01*
X2744Y3257D01*
X2742Y3256D01*
X2741Y3255D01*
X2739Y3254D01*
X2738Y3253D01*
X2736Y3251D01*
X2736Y3251D01*
X2736Y3251D01*
X2736Y3250D01*
X2735Y3250D01*
X2734Y3249D01*
X2734Y3248D01*
X2732Y3246D01*
X2730Y3244D01*
X2729Y3242D01*
X2727Y3239D01*
X2727Y3238D01*
X2727Y3237D01*
Y3237D01*
X2727Y3237D01*
Y3236D01*
Y3235D01*
X2727Y3234D01*
X2727Y3233D01*
X2728Y3232D01*
X2729Y3231D01*
X2729Y3231D01*
X2730Y3230D01*
X2731Y3230D01*
X2731Y3229D01*
X2733Y3229D01*
X2734Y3229D01*
X2735Y3229D01*
X2735D01*
X2736Y3229D01*
X2737Y3230D01*
X2738Y3230D01*
X2739Y3231D01*
X2740Y3231D01*
X2741Y3232D01*
X2742Y3233D01*
X2743Y3234D01*
X2744Y3235D01*
X2746Y3236D01*
X2747Y3237D01*
X2749Y3239D01*
X2749Y3239D01*
X2749Y3239D01*
X2750Y3240D01*
X2750Y3240D01*
X2751Y3241D01*
X2751Y3242D01*
X2753Y3244D01*
X2755Y3246D01*
X2756Y3248D01*
X2758Y3250D01*
X2758Y3251D01*
X2758Y3252D01*
Y3253D01*
X2759Y3253D01*
X2758Y3254D01*
X2758Y3255D01*
X2758Y3256D01*
X2758Y3257D01*
X2757Y3258D01*
X2756Y3259D01*
X2756Y3259D01*
X2755Y3260D01*
X2755Y3260D01*
X2754Y3261D01*
X2753Y3261D01*
X2751Y3261D01*
D02*
G37*
G36*
X2764Y3154D02*
X2763Y3154D01*
X2763Y3154D01*
X2762Y3154D01*
X2761Y3153D01*
X2760Y3153D01*
X2759Y3152D01*
X2758Y3152D01*
X2757Y3151D01*
X2756Y3150D01*
X2755Y3149D01*
X2754Y3148D01*
X2752Y3147D01*
X2751Y3146D01*
X2749Y3144D01*
X2749Y3144D01*
X2749Y3144D01*
X2749Y3144D01*
X2748Y3143D01*
X2747Y3142D01*
X2746Y3141D01*
X2745Y3139D01*
X2743Y3137D01*
X2742Y3135D01*
X2741Y3133D01*
X2740Y3132D01*
X2740Y3131D01*
Y3131D01*
X2740Y3130D01*
X2740Y3130D01*
X2740Y3129D01*
X2740Y3128D01*
X2740Y3127D01*
X2741Y3125D01*
X2742Y3124D01*
X2742Y3124D01*
X2743Y3124D01*
X2744Y3123D01*
X2744Y3123D01*
X2746Y3122D01*
X2747Y3122D01*
X2748Y3122D01*
X2748D01*
X2749Y3123D01*
X2750Y3123D01*
X2751Y3124D01*
X2752Y3124D01*
X2753Y3125D01*
X2754Y3125D01*
X2755Y3126D01*
X2756Y3127D01*
X2757Y3128D01*
X2759Y3129D01*
X2760Y3130D01*
X2762Y3132D01*
X2762Y3132D01*
X2762Y3132D01*
X2762Y3133D01*
X2763Y3133D01*
X2764Y3134D01*
X2764Y3135D01*
X2766Y3137D01*
X2768Y3139D01*
X2769Y3141D01*
X2771Y3143D01*
X2771Y3145D01*
X2771Y3145D01*
Y3146D01*
Y3146D01*
Y3147D01*
X2771Y3148D01*
X2771Y3149D01*
X2771Y3150D01*
X2770Y3151D01*
X2769Y3152D01*
X2769Y3152D01*
X2768Y3153D01*
X2767Y3153D01*
X2766Y3154D01*
X2765Y3154D01*
X2764Y3154D01*
D02*
G37*
G36*
X-3147Y2771D02*
X-3148Y2771D01*
X-3149Y2771D01*
X-3150Y2771D01*
X-3151Y2770D01*
X-3152Y2769D01*
X-3152Y2769D01*
X-3153Y2768D01*
X-3153Y2767D01*
X-3154Y2766D01*
X-3154Y2765D01*
X-3154Y2764D01*
X-3154Y2763D01*
X-3154Y2763D01*
X-3154Y2762D01*
X-3153Y2761D01*
X-3153Y2760D01*
X-3152Y2759D01*
X-3152Y2758D01*
X-3151Y2757D01*
X-3150Y2756D01*
X-3149Y2755D01*
X-3148Y2754D01*
X-3147Y2752D01*
X-3146Y2751D01*
X-3144Y2749D01*
X-3144Y2749D01*
X-3144Y2749D01*
X-3144Y2749D01*
X-3143Y2748D01*
X-3142Y2747D01*
X-3141Y2746D01*
X-3139Y2745D01*
X-3137Y2743D01*
X-3135Y2742D01*
X-3133Y2741D01*
X-3132Y2740D01*
X-3131Y2740D01*
X-3131D01*
X-3130Y2740D01*
X-3130Y2740D01*
X-3129Y2740D01*
X-3128Y2740D01*
X-3127Y2740D01*
X-3125Y2741D01*
X-3124Y2742D01*
X-3124Y2742D01*
X-3124Y2743D01*
X-3123Y2744D01*
X-3123Y2744D01*
X-3122Y2746D01*
X-3122Y2747D01*
X-3122Y2748D01*
Y2748D01*
X-3123Y2749D01*
X-3123Y2750D01*
X-3124Y2751D01*
X-3124Y2752D01*
X-3125Y2753D01*
X-3125Y2754D01*
X-3126Y2755D01*
X-3127Y2756D01*
X-3128Y2757D01*
X-3129Y2759D01*
X-3130Y2760D01*
X-3132Y2762D01*
X-3132Y2762D01*
X-3132Y2762D01*
X-3133Y2762D01*
X-3133Y2763D01*
X-3134Y2764D01*
X-3135Y2764D01*
X-3137Y2766D01*
X-3139Y2768D01*
X-3141Y2769D01*
X-3143Y2771D01*
X-3145Y2771D01*
X-3145Y2771D01*
X-3146D01*
X-3146D01*
X-3147D01*
D02*
G37*
G36*
X-3253Y2759D02*
X-3254Y2758D01*
X-3255Y2758D01*
X-3256Y2758D01*
X-3257Y2758D01*
X-3258Y2757D01*
X-3259Y2756D01*
X-3259Y2756D01*
X-3260Y2755D01*
X-3260Y2755D01*
X-3261Y2754D01*
X-3261Y2753D01*
X-3261Y2751D01*
X-3261Y2750D01*
X-3261Y2750D01*
X-3261Y2749D01*
X-3260Y2748D01*
X-3260Y2747D01*
X-3259Y2746D01*
X-3259Y2746D01*
X-3258Y2745D01*
X-3257Y2744D01*
X-3256Y2742D01*
X-3255Y2741D01*
X-3254Y2739D01*
X-3253Y2738D01*
X-3251Y2736D01*
X-3251Y2736D01*
X-3251Y2736D01*
X-3250Y2736D01*
X-3250Y2735D01*
X-3249Y2734D01*
X-3248Y2734D01*
X-3246Y2732D01*
X-3244Y2730D01*
X-3242Y2729D01*
X-3239Y2727D01*
X-3238Y2727D01*
X-3237Y2727D01*
X-3237D01*
X-3237Y2727D01*
X-3236D01*
X-3235D01*
X-3234Y2727D01*
X-3233Y2727D01*
X-3232Y2728D01*
X-3231Y2729D01*
X-3231Y2729D01*
X-3230Y2730D01*
X-3230Y2731D01*
X-3229Y2731D01*
X-3229Y2733D01*
X-3229Y2734D01*
X-3229Y2735D01*
Y2735D01*
X-3229Y2736D01*
X-3230Y2737D01*
X-3230Y2738D01*
X-3231Y2739D01*
X-3231Y2740D01*
X-3232Y2741D01*
X-3233Y2742D01*
X-3234Y2743D01*
X-3235Y2744D01*
X-3236Y2746D01*
X-3237Y2747D01*
X-3239Y2749D01*
X-3239Y2749D01*
X-3239Y2749D01*
X-3240Y2750D01*
X-3240Y2750D01*
X-3241Y2751D01*
X-3242Y2751D01*
X-3244Y2753D01*
X-3246Y2755D01*
X-3248Y2756D01*
X-3250Y2758D01*
X-3251Y2758D01*
X-3252Y2758D01*
X-3253D01*
X-3253Y2759D01*
D02*
G37*
G36*
X-2797Y-3122D02*
X-2798Y-3122D01*
X-2798D01*
X-2799Y-3123D01*
X-2800Y-3123D01*
X-2801Y-3124D01*
X-2802Y-3124D01*
X-2803Y-3125D01*
X-2804Y-3125D01*
X-2805Y-3126D01*
X-2806Y-3127D01*
X-2807Y-3128D01*
X-2809Y-3129D01*
X-2810Y-3130D01*
X-2812Y-3132D01*
X-2812Y-3132D01*
X-2812Y-3132D01*
X-2812Y-3133D01*
X-2813Y-3133D01*
X-2814Y-3134D01*
X-2814Y-3135D01*
X-2816Y-3137D01*
X-2818Y-3139D01*
X-2819Y-3141D01*
X-2821Y-3143D01*
X-2821Y-3145D01*
X-2821Y-3145D01*
Y-3146D01*
Y-3146D01*
Y-3147D01*
X-2821Y-3148D01*
X-2821Y-3149D01*
X-2821Y-3150D01*
X-2820Y-3151D01*
X-2819Y-3152D01*
X-2819Y-3152D01*
X-2818Y-3153D01*
X-2817Y-3153D01*
X-2816Y-3154D01*
X-2815Y-3154D01*
X-2814Y-3154D01*
X-2813Y-3154D01*
X-2813Y-3154D01*
X-2812Y-3154D01*
X-2811Y-3153D01*
X-2810Y-3153D01*
X-2809Y-3152D01*
X-2808Y-3152D01*
X-2807Y-3151D01*
X-2806Y-3150D01*
X-2805Y-3149D01*
X-2804Y-3148D01*
X-2802Y-3147D01*
X-2801Y-3146D01*
X-2799Y-3144D01*
X-2799Y-3144D01*
X-2799Y-3144D01*
X-2799Y-3144D01*
X-2798Y-3143D01*
X-2797Y-3142D01*
X-2796Y-3141D01*
X-2795Y-3139D01*
X-2793Y-3137D01*
X-2792Y-3135D01*
X-2791Y-3133D01*
X-2790Y-3132D01*
X-2790Y-3131D01*
Y-3131D01*
X-2790Y-3130D01*
X-2790Y-3130D01*
X-2790Y-3129D01*
X-2790Y-3128D01*
X-2790Y-3127D01*
X-2791Y-3125D01*
X-2792Y-3124D01*
X-2792Y-3124D01*
X-2793Y-3124D01*
X-2794Y-3123D01*
X-2794Y-3123D01*
X-2796Y-3122D01*
X-2797Y-3122D01*
D02*
G37*
G36*
X-2784Y-3229D02*
X-2785Y-3229D01*
X-2785D01*
X-2786Y-3229D01*
X-2787Y-3230D01*
X-2788Y-3230D01*
X-2789Y-3231D01*
X-2790Y-3231D01*
X-2791Y-3232D01*
X-2792Y-3233D01*
X-2793Y-3234D01*
X-2794Y-3235D01*
X-2796Y-3236D01*
X-2797Y-3237D01*
X-2799Y-3239D01*
X-2799Y-3239D01*
X-2799Y-3239D01*
X-2800Y-3240D01*
X-2800Y-3240D01*
X-2801Y-3241D01*
X-2801Y-3242D01*
X-2803Y-3244D01*
X-2805Y-3246D01*
X-2806Y-3248D01*
X-2808Y-3250D01*
X-2808Y-3251D01*
X-2808Y-3252D01*
Y-3253D01*
X-2809Y-3253D01*
X-2808Y-3254D01*
X-2808Y-3255D01*
X-2808Y-3256D01*
X-2808Y-3257D01*
X-2807Y-3258D01*
X-2806Y-3259D01*
X-2806Y-3259D01*
X-2805Y-3260D01*
X-2805Y-3260D01*
X-2804Y-3261D01*
X-2803Y-3261D01*
X-2801Y-3261D01*
X-2800Y-3261D01*
X-2800Y-3261D01*
X-2799Y-3261D01*
X-2798Y-3260D01*
X-2797Y-3260D01*
X-2796Y-3259D01*
X-2796Y-3259D01*
X-2795Y-3258D01*
X-2794Y-3257D01*
X-2792Y-3256D01*
X-2791Y-3255D01*
X-2789Y-3254D01*
X-2788Y-3253D01*
X-2786Y-3251D01*
X-2786Y-3251D01*
X-2786Y-3251D01*
X-2786Y-3250D01*
X-2785Y-3250D01*
X-2784Y-3249D01*
X-2784Y-3248D01*
X-2782Y-3246D01*
X-2780Y-3244D01*
X-2779Y-3242D01*
X-2777Y-3239D01*
X-2777Y-3238D01*
X-2777Y-3237D01*
Y-3237D01*
X-2777Y-3237D01*
Y-3236D01*
Y-3235D01*
X-2777Y-3234D01*
X-2777Y-3233D01*
X-2778Y-3232D01*
X-2779Y-3231D01*
X-2779Y-3231D01*
X-2780Y-3230D01*
X-2781Y-3230D01*
X-2781Y-3229D01*
X-2783Y-3229D01*
X-2784Y-3229D01*
D02*
G37*
G36*
X3187Y-2777D02*
X3185D01*
X3184Y-2777D01*
X3183Y-2777D01*
X3182Y-2778D01*
X3181Y-2779D01*
X3181Y-2779D01*
X3180Y-2780D01*
X3180Y-2781D01*
X3179Y-2781D01*
X3179Y-2783D01*
X3179Y-2784D01*
X3179Y-2785D01*
Y-2785D01*
X3179Y-2786D01*
X3180Y-2787D01*
X3180Y-2788D01*
X3181Y-2789D01*
X3181Y-2790D01*
X3182Y-2791D01*
X3183Y-2792D01*
X3184Y-2793D01*
X3185Y-2794D01*
X3186Y-2796D01*
X3187Y-2797D01*
X3189Y-2799D01*
X3189Y-2799D01*
X3189Y-2799D01*
X3190Y-2800D01*
X3190Y-2800D01*
X3191Y-2801D01*
X3192Y-2801D01*
X3194Y-2803D01*
X3196Y-2805D01*
X3198Y-2806D01*
X3200Y-2808D01*
X3201Y-2808D01*
X3202Y-2808D01*
X3203D01*
X3203Y-2809D01*
X3204Y-2808D01*
X3205Y-2808D01*
X3206Y-2808D01*
X3207Y-2808D01*
X3208Y-2807D01*
X3209Y-2806D01*
X3209Y-2806D01*
X3210Y-2805D01*
X3210Y-2805D01*
X3210Y-2804D01*
X3211Y-2803D01*
X3211Y-2801D01*
X3211Y-2800D01*
X3211Y-2800D01*
X3210Y-2799D01*
X3210Y-2798D01*
X3210Y-2797D01*
X3209Y-2796D01*
X3209Y-2796D01*
X3208Y-2795D01*
X3207Y-2794D01*
X3206Y-2792D01*
X3205Y-2791D01*
X3204Y-2789D01*
X3203Y-2788D01*
X3201Y-2786D01*
X3201Y-2786D01*
X3201Y-2786D01*
X3200Y-2786D01*
X3200Y-2785D01*
X3199Y-2784D01*
X3198Y-2784D01*
X3196Y-2782D01*
X3194Y-2780D01*
X3192Y-2779D01*
X3189Y-2777D01*
X3188Y-2777D01*
X3187Y-2777D01*
X3187D01*
X3187Y-2777D01*
D02*
G37*
G36*
X3080Y-2790D02*
X3079Y-2790D01*
X3078Y-2790D01*
X3077Y-2790D01*
X3075Y-2791D01*
X3074Y-2792D01*
X3074Y-2792D01*
X3074Y-2793D01*
X3073Y-2794D01*
X3073Y-2794D01*
X3072Y-2796D01*
X3072Y-2797D01*
X3072Y-2798D01*
Y-2798D01*
X3073Y-2799D01*
X3073Y-2800D01*
X3074Y-2801D01*
X3074Y-2802D01*
X3075Y-2803D01*
X3075Y-2804D01*
X3076Y-2805D01*
X3077Y-2806D01*
X3078Y-2807D01*
X3079Y-2809D01*
X3080Y-2810D01*
X3082Y-2812D01*
X3082Y-2812D01*
X3082Y-2812D01*
X3083Y-2812D01*
X3083Y-2813D01*
X3084Y-2814D01*
X3085Y-2814D01*
X3087Y-2816D01*
X3089Y-2818D01*
X3091Y-2819D01*
X3093Y-2821D01*
X3095Y-2821D01*
X3095Y-2821D01*
X3097D01*
X3098Y-2821D01*
X3099Y-2821D01*
X3100Y-2821D01*
X3101Y-2820D01*
X3102Y-2819D01*
X3102Y-2819D01*
X3103Y-2818D01*
X3103Y-2817D01*
X3104Y-2816D01*
X3104Y-2815D01*
X3104Y-2814D01*
X3104Y-2813D01*
X3104Y-2813D01*
X3104Y-2812D01*
X3103Y-2811D01*
X3103Y-2810D01*
X3102Y-2809D01*
X3102Y-2808D01*
X3101Y-2807D01*
X3100Y-2806D01*
X3099Y-2805D01*
X3098Y-2804D01*
X3097Y-2802D01*
X3096Y-2801D01*
X3094Y-2799D01*
X3094Y-2799D01*
X3094Y-2799D01*
X3094Y-2799D01*
X3093Y-2798D01*
X3092Y-2797D01*
X3091Y-2796D01*
X3089Y-2795D01*
X3087Y-2793D01*
X3085Y-2792D01*
X3083Y-2791D01*
X3082Y-2790D01*
X3081Y-2790D01*
X3081D01*
X3080Y-2790D01*
X3080Y-2790D01*
D02*
G37*
%LPD*%
D10*
X254Y-14515D02*
G03*
X254Y-14515I-49J0D01*
G01*
X1242Y-11297D02*
G03*
X1242Y-11297I-49J0D01*
G01*
X8892Y-11347D02*
G03*
X8892Y-11347I-49J0D01*
G01*
X4488Y-13285D02*
G03*
X4488Y-13285I-49J0D01*
G01*
X2169Y-13256D02*
G03*
X2169Y-13256I-49J0D01*
G01*
X-3909Y-14901D02*
G03*
X-3909Y-14901I-49J0D01*
G01*
X-5746Y-10765D02*
G03*
X-5746Y-10765I-49J0D01*
G01*
X-7252Y-12476D02*
G03*
X-7252Y-12476I-49J0D01*
G01*
X603Y-2663D02*
G03*
X603Y-2663I-49J0D01*
G01*
X2663Y566D02*
G03*
X2663Y566I-49J0D01*
G01*
X-567Y2626D02*
G03*
X-567Y2626I-49J0D01*
G01*
X-2627Y-603D02*
G03*
X-2627Y-603I-49J0D01*
G01*
D11*
X-5367Y-17242D02*
X-4933D01*
X-5367Y-16258D02*
X-4933D01*
X540Y-16584D02*
Y-14616D01*
X1760Y-16584D02*
Y-14616D01*
X540D02*
X1760D01*
X540Y-16584D02*
X1760D01*
X-876Y-11632D02*
X1092D01*
X-876Y-12852D02*
X1092D01*
Y-11632D01*
X-876Y-12852D02*
Y-11632D01*
X4724Y-17354D02*
X9724D01*
X4724Y-15354D02*
X9724D01*
X4724Y-17354D02*
Y-15354D01*
X9724Y-17354D02*
Y-15354D01*
X6774Y-11682D02*
X8742D01*
X6774Y-12902D02*
X8742D01*
Y-11682D01*
X6774Y-12902D02*
Y-11682D01*
X4518Y-12695D02*
Y-11789D01*
X5699Y-12695D02*
Y-11789D01*
X2199Y-12665D02*
Y-11760D01*
X3380Y-12665D02*
Y-11760D01*
X-2679Y-14468D02*
Y-14232D01*
X-3821D02*
X-2679D01*
X-3821Y-14468D02*
Y-14232D01*
Y-14468D02*
X-2679D01*
X-5460Y-12834D02*
Y-10866D01*
X-4240Y-12834D02*
Y-10866D01*
X-5460D02*
X-4240D01*
X-5460Y-12834D02*
X-4240D01*
X-7409Y-13126D02*
Y-12929D01*
X-7734Y-13126D02*
X-7409D01*
X-8591D02*
Y-12929D01*
Y-13126D02*
X-8266D01*
X2800Y-2432D02*
X3343Y-1890D01*
X3251Y-1798D02*
X3343Y-1890D01*
X1840Y-3393D02*
X2382Y-2850D01*
X1748Y-3301D02*
X1840Y-3393D01*
X1492Y-1124D02*
X2034Y-581D01*
X2126Y-673D01*
X577Y-2130D02*
Y-2039D01*
X1074Y-1542D01*
X577Y-2130D02*
X623Y-2176D01*
X1840Y3356D02*
X2382Y2813D01*
X1748Y3264D02*
X1840Y3356D01*
X2800Y2395D02*
X3343Y1853D01*
X3251Y1761D02*
X3343Y1853D01*
X531Y2047D02*
X1074Y1505D01*
X531Y2047D02*
X623Y2139D01*
X1989Y590D02*
X2080D01*
X1492Y1087D02*
X1989Y590D01*
X2080D02*
X2126Y636D01*
X-3406Y1853D02*
X-2863Y2395D01*
X-3406Y1853D02*
X-3314Y1761D01*
X-2445Y2813D02*
X-1903Y3356D01*
X-1811Y3264D01*
X-2097Y544D02*
X-1555Y1087D01*
X-2189Y636D02*
X-2097Y544D01*
X-640Y2001D02*
Y2093D01*
X-1137Y1505D02*
X-640Y2001D01*
X-686Y2139D02*
X-640Y2093D01*
X-2445Y-2850D02*
X-1903Y-3393D01*
X-1811Y-3301D01*
X-3406Y-1890D02*
X-2863Y-2432D01*
X-3406Y-1890D02*
X-3314Y-1798D01*
X-1137Y-1542D02*
X-594Y-2084D01*
X-686Y-2176D02*
X-594Y-2084D01*
X-2143Y-627D02*
X-2051D01*
X-1555Y-1124D01*
X-2189Y-673D02*
X-2143Y-627D01*
D12*
X-356Y-16053D02*
Y-15561D01*
X-1144Y-16053D02*
Y-15561D01*
X-356Y-16939D02*
Y-16447D01*
X-1144Y-16939D02*
Y-16447D01*
Y-16939D02*
X-356D01*
X-1144Y-15561D02*
X-356D01*
X2656Y-15089D02*
Y-14597D01*
X3444Y-15089D02*
Y-14597D01*
X2656Y-14203D02*
Y-13711D01*
X3444Y-14203D02*
Y-13711D01*
X2656D02*
X3444D01*
X2656Y-15089D02*
X3444D01*
X3564Y-13681D02*
Y-13189D01*
X4352Y-13681D02*
Y-13189D01*
X3564Y-12795D02*
Y-12303D01*
X4352Y-12795D02*
Y-12303D01*
X3564D02*
X4352D01*
X3564Y-13681D02*
X4352D01*
X1214Y-12931D02*
Y-12439D01*
X2002Y-12931D02*
Y-12439D01*
X1214Y-12045D02*
Y-11553D01*
X2002Y-12045D02*
Y-11553D01*
X1214D02*
X2002D01*
X1214Y-12931D02*
X2002D01*
X-1786Y-12925D02*
Y-12432D01*
X-998Y-12925D02*
Y-12432D01*
X-1786Y-12039D02*
Y-11547D01*
X-998Y-12039D02*
Y-11547D01*
X-1786D02*
X-998D01*
X-1786Y-12925D02*
X-998D01*
X-1785Y-15100D02*
Y-13800D01*
X-1115Y-15100D02*
Y-13800D01*
X-1785Y-15100D02*
X-1115D01*
X-1785Y-13800D02*
X-1115D01*
X-1815Y-15100D02*
Y-13800D01*
X-2485Y-15100D02*
Y-13800D01*
X-1815D01*
X-2485Y-15100D02*
X-1815D01*
X-4603Y-10744D02*
X-4111D01*
X-4603Y-9956D02*
X-4111D01*
X-5489Y-10744D02*
X-4997D01*
X-5489Y-9956D02*
X-4997D01*
X-5489Y-10744D02*
Y-9956D01*
X-4111Y-10744D02*
Y-9956D01*
X-4953Y-13694D02*
X-4461D01*
X-4953Y-12906D02*
X-4461D01*
X-5839Y-13694D02*
X-5347D01*
X-5839Y-12906D02*
X-5347D01*
X-5839Y-13694D02*
Y-12906D01*
X-4461Y-13694D02*
Y-12906D01*
X8856Y-13039D02*
Y-12547D01*
X9644Y-13039D02*
Y-12547D01*
X8856Y-12153D02*
Y-11661D01*
X9644Y-12153D02*
Y-11661D01*
X8856D02*
X9644D01*
X8856Y-13039D02*
X9644D01*
X5906Y-12189D02*
Y-11697D01*
X6694Y-12189D02*
Y-11697D01*
X5906Y-11303D02*
Y-10811D01*
X6694Y-11303D02*
Y-10811D01*
X5906D02*
X6694D01*
X5906Y-12189D02*
X6694D01*
X-6406Y-14203D02*
Y-13711D01*
X-7194Y-14203D02*
Y-13711D01*
X-6406Y-15089D02*
Y-14597D01*
X-7194Y-15089D02*
Y-14597D01*
Y-15089D02*
X-6406D01*
X-7194Y-13711D02*
X-6406D01*
X-5606Y-14203D02*
Y-13711D01*
X-6394Y-14203D02*
Y-13711D01*
X-5606Y-15089D02*
Y-14597D01*
X-6394Y-15089D02*
Y-14597D01*
Y-15089D02*
X-5606D01*
X-6394Y-13711D02*
X-5606D01*
X-4806Y-14197D02*
Y-13705D01*
X-5594Y-14197D02*
Y-13705D01*
X-4806Y-15083D02*
Y-14591D01*
X-5594Y-15083D02*
Y-14591D01*
Y-15083D02*
X-4806D01*
X-5594Y-13705D02*
X-4806D01*
X-4006Y-14203D02*
Y-13711D01*
X-4794Y-14203D02*
Y-13711D01*
X-4006Y-15089D02*
Y-14597D01*
X-4794Y-15089D02*
Y-14597D01*
Y-15089D02*
X-4006D01*
X-4794Y-13711D02*
X-4006D01*
X-8806Y-14203D02*
Y-13711D01*
X-9594Y-14203D02*
Y-13711D01*
X-8806Y-15089D02*
Y-14597D01*
X-9594Y-15089D02*
Y-14597D01*
Y-15089D02*
X-8806D01*
X-9594Y-13711D02*
X-8806D01*
X-8006Y-14203D02*
Y-13711D01*
X-8794Y-14203D02*
Y-13711D01*
X-8006Y-15089D02*
Y-14597D01*
X-8794Y-15089D02*
Y-14597D01*
Y-15089D02*
X-8006D01*
X-8794Y-13711D02*
X-8006D01*
X-7206Y-14209D02*
Y-13717D01*
X-7994Y-14209D02*
Y-13717D01*
X-7206Y-15095D02*
Y-14603D01*
X-7994Y-15095D02*
Y-14603D01*
Y-15095D02*
X-7206D01*
X-7994Y-13717D02*
X-7206D01*
X-8650Y-12035D02*
X-7350D01*
X-8650Y-11365D02*
X-7350D01*
Y-12035D02*
Y-11365D01*
X-8650Y-12035D02*
Y-11365D01*
Y-11385D02*
X-7350D01*
X-8650Y-10715D02*
X-7350D01*
Y-11385D02*
Y-10715D01*
X-8650Y-11385D02*
Y-10715D01*
X5085Y-650D02*
Y650D01*
X4415Y-650D02*
Y650D01*
X5085D01*
X4415Y-650D02*
X5085D01*
X-650Y-4415D02*
X650D01*
X-650Y-5085D02*
X650D01*
X-650D02*
Y-4415D01*
X650Y-5085D02*
Y-4415D01*
X-5135Y-650D02*
Y650D01*
X-4465Y-650D02*
Y650D01*
X-5135Y-650D02*
X-4465D01*
X-5135Y650D02*
X-4465D01*
X-650Y4390D02*
X650D01*
X-650Y5059D02*
X650D01*
Y4390D02*
Y5059D01*
X-650Y4390D02*
Y5059D01*
X-3739Y-3118D02*
X-3391Y-3466D01*
X-3182Y-2561D02*
X-2834Y-2909D01*
X-4366Y-2491D02*
X-4018Y-2839D01*
X-3809Y-1934D02*
X-3461Y-2282D01*
X-4366Y-2491D02*
X-3809Y-1934D01*
X-3391Y-3466D02*
X-2834Y-2909D01*
X-1473Y1196D02*
X-554Y277D01*
X-1946Y723D02*
X-1473Y1196D01*
X-1196Y-1473D02*
X-277Y-554D01*
X-1196Y-1473D02*
X-723Y-1946D01*
X454Y-277D02*
X1373Y-1196D01*
X1846Y-723D01*
X227Y504D02*
X1146Y1423D01*
X673Y1896D02*
X1146Y1423D01*
X-3282Y3511D02*
X-2934Y3859D01*
X-3839Y4068D02*
X-3491Y4416D01*
X-3909Y2884D02*
X-3561Y3232D01*
X-4466Y3441D02*
X-4118Y3789D01*
X-4466Y3441D02*
X-3909Y2884D01*
X-3491Y4416D02*
X-2934Y3859D01*
X3511Y3282D02*
X3859Y2934D01*
X4068Y3839D02*
X4416Y3491D01*
X2884Y3909D02*
X3232Y3561D01*
X3441Y4466D02*
X3789Y4118D01*
X2884Y3909D02*
X3441Y4466D01*
X3859Y2934D02*
X4416Y3491D01*
X-4946Y3977D02*
X-4027Y4896D01*
X-4946Y3977D02*
X-4473Y3504D01*
X-1246Y1423D02*
X-327Y504D01*
X-1246Y1423D02*
X-773Y1896D01*
X504Y227D02*
X1423Y1146D01*
X1896Y673D01*
X3927Y4946D02*
X4846Y4027D01*
X3454Y4473D02*
X3927Y4946D01*
Y-4946D02*
X4846Y-4027D01*
X4373Y-3554D02*
X4846Y-4027D01*
X-4996Y-3977D02*
X-4077Y-4896D01*
X-3604Y-4423D01*
X-1473Y-1196D02*
X-554Y-277D01*
X-1946Y-723D02*
X-1473Y-1196D01*
X227Y-504D02*
X1146Y-1423D01*
X673Y-1896D02*
X1146Y-1423D01*
X1904Y3873D02*
X2823Y2954D01*
X2377Y4346D02*
X3296Y3427D01*
X2823Y2954D02*
X3296Y3427D01*
X1904Y3873D02*
X2377Y4346D01*
X3341Y3416D02*
X3689Y3068D01*
X2784Y2859D02*
X3132Y2511D01*
X3968Y2789D02*
X4316Y2441D01*
X3411Y2232D02*
X3759Y1884D01*
X4316Y2441D01*
X2784Y2859D02*
X3341Y3416D01*
X-3873Y1904D02*
X-2954Y2823D01*
X-4346Y2377D02*
X-3427Y3296D01*
X-2954Y2823D01*
X-4346Y2377D02*
X-3873Y1904D01*
X-3959Y-2934D02*
X-3611Y-3282D01*
X-4516Y-3491D02*
X-4168Y-3839D01*
X-3332Y-3561D02*
X-2984Y-3909D01*
X-3889Y-4118D02*
X-3541Y-4466D01*
X-2984Y-3909D01*
X-4516Y-3491D02*
X-3959Y-2934D01*
X-2873Y-2954D02*
X-1954Y-3873D01*
X-3346Y-3427D02*
X-2427Y-4346D01*
X-3346Y-3427D02*
X-2873Y-2954D01*
X-2427Y-4346D02*
X-1954Y-3873D01*
X2934Y-3909D02*
X3282Y-3561D01*
X3491Y-4466D02*
X3839Y-4118D01*
X3561Y-3282D02*
X3909Y-2934D01*
X4118Y-3839D02*
X4466Y-3491D01*
X3909Y-2934D02*
X4466Y-3491D01*
X2934Y-3909D02*
X3491Y-4466D01*
X3823Y-1954D02*
X4296Y-2427D01*
X2904Y-2873D02*
X3377Y-3346D01*
X4296Y-2427D01*
X2904Y-2873D02*
X3823Y-1954D01*
X3068Y-3739D02*
X3416Y-3391D01*
X2511Y-3182D02*
X2859Y-2834D01*
X2441Y-4366D02*
X2789Y-4018D01*
X1884Y-3809D02*
X2232Y-3461D01*
X1884Y-3809D02*
X2441Y-4366D01*
X2859Y-2834D02*
X3416Y-3391D01*
X-3466Y3341D02*
X-3118Y3689D01*
X-2909Y2784D02*
X-2561Y3132D01*
X-2839Y3968D02*
X-2491Y4316D01*
X-2282Y3411D02*
X-1934Y3759D01*
X-2491Y4316D02*
X-1934Y3759D01*
X-3466Y3341D02*
X-2909Y2784D01*
D13*
X-6722Y-16752D02*
X-6771Y-16702D01*
X-6870D01*
X-6919Y-16752D01*
Y-16948D01*
X-6870Y-16998D01*
X-6771D01*
X-6722Y-16948D01*
X-6624Y-16998D02*
X-6525D01*
X-6575D01*
Y-16702D01*
X-6624Y-16752D01*
X-6181Y-16998D02*
X-6378D01*
X-6181Y-16801D01*
Y-16752D01*
X-6230Y-16702D01*
X-6329D01*
X-6378Y-16752D01*
X-1947Y-16652D02*
X-1996Y-16602D01*
X-2094D01*
X-2144Y-16652D01*
Y-16848D01*
X-2094Y-16898D01*
X-1996D01*
X-1947Y-16848D01*
X-1848Y-16652D02*
X-1799Y-16602D01*
X-1701D01*
X-1652Y-16652D01*
Y-16701D01*
X-1701Y-16750D01*
X-1750D01*
X-1701D01*
X-1652Y-16799D01*
Y-16848D01*
X-1701Y-16898D01*
X-1799D01*
X-1848Y-16848D01*
X-1356Y-16898D02*
X-1553D01*
X-1356Y-16701D01*
Y-16652D01*
X-1406Y-16602D01*
X-1504D01*
X-1553Y-16652D01*
X3748Y-14502D02*
X3798Y-14453D01*
Y-14355D01*
X3748Y-14306D01*
X3552D01*
X3502Y-14355D01*
Y-14453D01*
X3552Y-14502D01*
X3748Y-14601D02*
X3798Y-14650D01*
Y-14748D01*
X3748Y-14798D01*
X3699D01*
X3650Y-14748D01*
Y-14699D01*
Y-14748D01*
X3601Y-14798D01*
X3552D01*
X3502Y-14748D01*
Y-14650D01*
X3552Y-14601D01*
X3502Y-14896D02*
Y-14994D01*
Y-14945D01*
X3798D01*
X3748Y-14896D01*
X6138Y-10284D02*
X6089Y-10235D01*
X5991D01*
X5942Y-10284D01*
Y-10481D01*
X5991Y-10530D01*
X6089D01*
X6138Y-10481D01*
X6237Y-10284D02*
X6286Y-10235D01*
X6384D01*
X6433Y-10284D01*
Y-10334D01*
X6384Y-10383D01*
X6335D01*
X6384D01*
X6433Y-10432D01*
Y-10481D01*
X6384Y-10530D01*
X6286D01*
X6237Y-10481D01*
X6532Y-10284D02*
X6581Y-10235D01*
X6679D01*
X6729Y-10284D01*
Y-10481D01*
X6679Y-10530D01*
X6581D01*
X6532Y-10481D01*
Y-10284D01*
X9088Y-11134D02*
X9039Y-11085D01*
X8941D01*
X8892Y-11134D01*
Y-11331D01*
X8941Y-11380D01*
X9039D01*
X9088Y-11331D01*
X9383Y-11380D02*
X9187D01*
X9383Y-11184D01*
Y-11134D01*
X9334Y-11085D01*
X9236D01*
X9187Y-11134D01*
X9482Y-11331D02*
X9531Y-11380D01*
X9629D01*
X9679Y-11331D01*
Y-11134D01*
X9629Y-11085D01*
X9531D01*
X9482Y-11134D01*
Y-11184D01*
X9531Y-11233D01*
X9679D01*
X-1639Y-11144D02*
X-1688Y-11094D01*
X-1786D01*
X-1836Y-11144D01*
Y-11340D01*
X-1786Y-11390D01*
X-1688D01*
X-1639Y-11340D01*
X-1344Y-11390D02*
X-1540D01*
X-1344Y-11193D01*
Y-11144D01*
X-1393Y-11094D01*
X-1491D01*
X-1540Y-11144D01*
X-1245D02*
X-1196Y-11094D01*
X-1098D01*
X-1048Y-11144D01*
Y-11193D01*
X-1098Y-11242D01*
X-1048Y-11291D01*
Y-11340D01*
X-1098Y-11390D01*
X-1196D01*
X-1245Y-11340D01*
Y-11291D01*
X-1196Y-11242D01*
X-1245Y-11193D01*
Y-11144D01*
X-1196Y-11242D02*
X-1098D01*
X1511Y-11144D02*
X1462Y-11094D01*
X1364D01*
X1314Y-11144D01*
Y-11340D01*
X1364Y-11390D01*
X1462D01*
X1511Y-11340D01*
X1806Y-11390D02*
X1610D01*
X1806Y-11193D01*
Y-11144D01*
X1757Y-11094D01*
X1659D01*
X1610Y-11144D01*
X1905Y-11094D02*
X2102D01*
Y-11144D01*
X1905Y-11340D01*
Y-11390D01*
X-4097Y-13202D02*
X-4146Y-13152D01*
X-4244D01*
X-4294Y-13202D01*
Y-13398D01*
X-4244Y-13448D01*
X-4146D01*
X-4097Y-13398D01*
X-3802Y-13448D02*
X-3998D01*
X-3802Y-13251D01*
Y-13202D01*
X-3851Y-13152D01*
X-3949D01*
X-3998Y-13202D01*
X-3506Y-13152D02*
X-3605Y-13202D01*
X-3703Y-13300D01*
Y-13398D01*
X-3654Y-13448D01*
X-3556D01*
X-3506Y-13398D01*
Y-13349D01*
X-3556Y-13300D01*
X-3703D01*
X-3747Y-10252D02*
X-3796Y-10202D01*
X-3894D01*
X-3944Y-10252D01*
Y-10448D01*
X-3894Y-10498D01*
X-3796D01*
X-3747Y-10448D01*
X-3452Y-10498D02*
X-3648D01*
X-3452Y-10301D01*
Y-10252D01*
X-3501Y-10202D01*
X-3599D01*
X-3648Y-10252D01*
X-3156Y-10202D02*
X-3353D01*
Y-10350D01*
X-3255Y-10301D01*
X-3206D01*
X-3156Y-10350D01*
Y-10448D01*
X-3206Y-10498D01*
X-3304D01*
X-3353Y-10448D01*
X-5194Y-1048D02*
Y-752D01*
X-5046D01*
X-4997Y-802D01*
Y-900D01*
X-5046Y-949D01*
X-5194D01*
X-5095D02*
X-4997Y-1048D01*
X-4702D02*
X-4898D01*
X-4702Y-851D01*
Y-802D01*
X-4751Y-752D01*
X-4849D01*
X-4898Y-802D01*
X-4603Y-998D02*
X-4554Y-1048D01*
X-4456D01*
X-4406Y-998D01*
Y-802D01*
X-4456Y-752D01*
X-4554D01*
X-4603Y-802D01*
Y-851D01*
X-4554Y-900D01*
X-4406D01*
X-1594Y4652D02*
Y4948D01*
X-1446D01*
X-1397Y4898D01*
Y4800D01*
X-1446Y4751D01*
X-1594D01*
X-1495D02*
X-1397Y4652D01*
X-1102D02*
X-1298D01*
X-1102Y4849D01*
Y4898D01*
X-1151Y4948D01*
X-1249D01*
X-1298Y4898D01*
X-1003D02*
X-954Y4948D01*
X-856D01*
X-806Y4898D01*
Y4849D01*
X-856Y4800D01*
X-806Y4751D01*
Y4702D01*
X-856Y4652D01*
X-954D01*
X-1003Y4702D01*
Y4751D01*
X-954Y4800D01*
X-1003Y4849D01*
Y4898D01*
X-954Y4800D02*
X-856D01*
X4356Y-1098D02*
Y-802D01*
X4504D01*
X4553Y-852D01*
Y-950D01*
X4504Y-999D01*
X4356D01*
X4455D02*
X4553Y-1098D01*
X4848D02*
X4652D01*
X4848Y-901D01*
Y-852D01*
X4799Y-802D01*
X4701D01*
X4652Y-852D01*
X4947Y-802D02*
X5144D01*
Y-852D01*
X4947Y-1048D01*
Y-1098D01*
X-1594Y-5048D02*
Y-4752D01*
X-1446D01*
X-1397Y-4802D01*
Y-4900D01*
X-1446Y-4949D01*
X-1594D01*
X-1495D02*
X-1397Y-5048D01*
X-1102D02*
X-1298D01*
X-1102Y-4851D01*
Y-4802D01*
X-1151Y-4752D01*
X-1249D01*
X-1298Y-4802D01*
X-806Y-4752D02*
X-905Y-4802D01*
X-1003Y-4900D01*
Y-4998D01*
X-954Y-5048D01*
X-856D01*
X-806Y-4998D01*
Y-4949D01*
X-856Y-4900D01*
X-1003D01*
X4715Y-10790D02*
Y-10494D01*
X4862D01*
X4911Y-10544D01*
Y-10642D01*
X4862Y-10691D01*
X4715D01*
X4813D02*
X4911Y-10790D01*
X5010D02*
Y-10494D01*
X5206Y-10790D01*
Y-10494D01*
X5502Y-10790D02*
X5305D01*
X5502Y-10593D01*
Y-10544D01*
X5452Y-10494D01*
X5354D01*
X5305Y-10544D01*
X2414Y-10790D02*
Y-10494D01*
X2561D01*
X2610Y-10544D01*
Y-10642D01*
X2561Y-10691D01*
X2414D01*
X2512D02*
X2610Y-10790D01*
X2709D02*
Y-10494D01*
X2906Y-10790D01*
Y-10494D01*
X3004Y-10790D02*
X3102D01*
X3053D01*
Y-10494D01*
X3004Y-10544D01*
X-9444Y-11848D02*
Y-11552D01*
X-9297D01*
X-9248Y-11602D01*
Y-11700D01*
X-9297Y-11749D01*
X-9444D01*
X-9346D02*
X-9248Y-11848D01*
X-8952D02*
X-9149D01*
X-8952Y-11651D01*
Y-11602D01*
X-9002Y-11552D01*
X-9100D01*
X-9149Y-11602D01*
X-8854Y-11848D02*
X-8756D01*
X-8805D01*
Y-11552D01*
X-8854Y-11602D01*
X-9544Y-11198D02*
Y-10902D01*
X-9396D01*
X-9347Y-10952D01*
Y-11050D01*
X-9396Y-11099D01*
X-9544D01*
X-9445D02*
X-9347Y-11198D01*
X-9052D02*
X-9248D01*
X-9052Y-11001D01*
Y-10952D01*
X-9101Y-10902D01*
X-9199D01*
X-9248Y-10952D01*
X-8953D02*
X-8904Y-10902D01*
X-8806D01*
X-8756Y-10952D01*
Y-11148D01*
X-8806Y-11198D01*
X-8904D01*
X-8953Y-11148D01*
Y-10952D01*
X-1598Y-15281D02*
X-1302D01*
Y-15429D01*
X-1352Y-15478D01*
X-1450D01*
X-1499Y-15429D01*
Y-15281D01*
Y-15379D02*
X-1598Y-15478D01*
Y-15576D02*
Y-15675D01*
Y-15625D01*
X-1302D01*
X-1352Y-15576D01*
X-1548Y-15822D02*
X-1598Y-15871D01*
Y-15970D01*
X-1548Y-16019D01*
X-1352D01*
X-1302Y-15970D01*
Y-15871D01*
X-1352Y-15822D01*
X-1401D01*
X-1450Y-15871D01*
Y-16019D01*
X-9519Y-12948D02*
Y-12652D01*
X-9371D01*
X-9322Y-12702D01*
Y-12800D01*
X-9371Y-12849D01*
X-9519D01*
X-9421D02*
X-9322Y-12948D01*
X-9224D02*
X-9125D01*
X-9175D01*
Y-12652D01*
X-9224Y-12702D01*
X-8978D02*
X-8929Y-12652D01*
X-8830D01*
X-8781Y-12702D01*
Y-12751D01*
X-8830Y-12800D01*
X-8781Y-12849D01*
Y-12898D01*
X-8830Y-12948D01*
X-8929D01*
X-8978Y-12898D01*
Y-12849D01*
X-8929Y-12800D01*
X-8978Y-12751D01*
Y-12702D01*
X-8929Y-12800D02*
X-8830D01*
X-2298Y-15231D02*
X-2002D01*
Y-15379D01*
X-2052Y-15428D01*
X-2150D01*
X-2199Y-15379D01*
Y-15231D01*
Y-15329D02*
X-2298Y-15428D01*
Y-15526D02*
Y-15625D01*
Y-15575D01*
X-2002D01*
X-2052Y-15526D01*
X-2002Y-15772D02*
Y-15969D01*
X-2052D01*
X-2248Y-15772D01*
X-2298D01*
X1757Y665D02*
X1965Y457D01*
X1861Y352D01*
X1791D01*
X1722Y422D01*
X1722Y491D01*
X1826Y596D01*
X1757Y526D02*
X1617Y526D01*
X1548Y457D02*
X1478Y387D01*
X1513Y422D01*
X1722Y213D01*
Y283D01*
X1443Y-65D02*
X1478Y39D01*
Y178D01*
X1409Y248D01*
X1339D01*
X1270Y178D01*
Y109D01*
X1304Y74D01*
X1374Y74D01*
X1478Y178D01*
X-1657Y-615D02*
X-1865Y-407D01*
X-1761Y-302D01*
X-1691D01*
X-1622Y-372D01*
X-1622Y-441D01*
X-1726Y-546D01*
X-1657Y-476D02*
X-1517Y-476D01*
X-1448Y-407D02*
X-1378Y-337D01*
X-1413Y-372D01*
X-1622Y-163D01*
Y-233D01*
X-1170Y-128D02*
X-1378Y80D01*
X-1378Y-128D01*
X-1239Y11D01*
X2165Y4443D02*
X1957Y4235D01*
X1852Y4339D01*
Y4409D01*
X1922Y4478D01*
X1991Y4478D01*
X2096Y4374D01*
X2026Y4443D02*
X2026Y4583D01*
X1957Y4652D02*
X1887Y4722D01*
X1922Y4687D01*
X1713Y4478D01*
X1783D01*
X1609Y4652D02*
X1539D01*
X1470Y4722D01*
Y4791D01*
X1504Y4826D01*
X1574D01*
X1609Y4791D01*
X1574Y4826D01*
X1574Y4896D01*
X1609Y4930D01*
X1678D01*
X1748Y4861D01*
Y4791D01*
X1185Y-193D02*
X1393Y15D01*
X1498Y-89D01*
Y-159D01*
X1428Y-228D01*
X1359Y-228D01*
X1254Y-124D01*
X1324Y-193D02*
X1324Y-333D01*
X1393Y-402D02*
X1463Y-472D01*
X1428Y-437D01*
X1637Y-228D01*
X1567D01*
X1707Y-715D02*
X1567Y-576D01*
X1846D01*
X1880Y-541D01*
Y-472D01*
X1811Y-402D01*
X1741D01*
X178Y1270D02*
X-30Y1478D01*
X74Y1583D01*
X143D01*
X213Y1513D01*
X213Y1443D01*
X109Y1339D01*
X178Y1409D02*
X317Y1409D01*
X387Y1478D02*
X457Y1548D01*
X422Y1513D01*
X213Y1722D01*
Y1652D01*
X561D02*
X630Y1722D01*
X596Y1687D01*
X387Y1896D01*
Y1826D01*
X4843Y-3915D02*
X4635Y-3707D01*
X4739Y-3602D01*
X4809D01*
X4878Y-3672D01*
X4878Y-3741D01*
X4774Y-3846D01*
X4843Y-3776D02*
X4983Y-3776D01*
X5052Y-3707D02*
X5122Y-3637D01*
X5087Y-3672D01*
X4878Y-3463D01*
Y-3533D01*
X5052Y-3359D02*
Y-3289D01*
X5122Y-3220D01*
X5191D01*
X5330Y-3359D01*
Y-3428D01*
X5261Y-3498D01*
X5191D01*
X5052Y-3359D01*
X3628Y4930D02*
X3420Y4722D01*
X3315Y4826D01*
Y4896D01*
X3385Y4965D01*
X3454Y4965D01*
X3559Y4861D01*
X3489Y4930D02*
X3489Y5070D01*
X3385Y5104D02*
Y5174D01*
X3315Y5244D01*
X3246D01*
X3106Y5104D01*
Y5035D01*
X3176Y4965D01*
X3246D01*
X3280Y5000D01*
Y5070D01*
X3176Y5174D01*
X-678Y1720D02*
X-470Y1928D01*
X-365Y1824D01*
Y1754D01*
X-435Y1685D01*
X-504Y1685D01*
X-609Y1789D01*
X-539Y1720D02*
X-539Y1580D01*
X-296Y1685D02*
X-226D01*
X-156Y1615D01*
Y1546D01*
X-191Y1511D01*
X-261D01*
X-261Y1441D01*
X-296Y1406D01*
X-365D01*
X-435Y1476D01*
Y1546D01*
X-400Y1580D01*
X-330Y1580D01*
Y1650D01*
X-296Y1685D01*
X-330Y1580D02*
X-261Y1511D01*
X-2178Y-4280D02*
X-1970Y-4072D01*
X-1865Y-4176D01*
Y-4246D01*
X-1935Y-4315D01*
X-2004Y-4315D01*
X-2109Y-4211D01*
X-2039Y-4280D02*
X-2039Y-4420D01*
X-1761Y-4280D02*
X-1622Y-4420D01*
X-1656Y-4454D01*
X-1935D01*
X-1970Y-4489D01*
X578Y-1720D02*
X370Y-1928D01*
X265Y-1824D01*
Y-1754D01*
X335Y-1685D01*
X404Y-1685D01*
X509Y-1789D01*
X439Y-1720D02*
X439Y-1580D01*
X22D02*
X126Y-1615D01*
X265D01*
X335Y-1546D01*
Y-1476D01*
X265Y-1406D01*
X196D01*
X161Y-1441D01*
X161Y-1511D01*
X265Y-1615D01*
X-4570Y1472D02*
X-4778Y1680D01*
X-4674Y1785D01*
X-4604D01*
X-4535Y1715D01*
X-4535Y1646D01*
X-4639Y1541D01*
X-4570Y1611D02*
X-4430Y1611D01*
Y2028D02*
X-4570Y1889D01*
X-4465Y1785D01*
X-4430Y1889D01*
X-4396Y1924D01*
X-4326D01*
X-4256Y1854D01*
Y1785D01*
X-4326Y1715D01*
X-4396D01*
X-330Y-1422D02*
X-122Y-1630D01*
X-226Y-1735D01*
X-296D01*
X-365Y-1665D01*
X-365Y-1596D01*
X-261Y-1491D01*
X-330Y-1561D02*
X-470Y-1561D01*
X-644Y-1735D02*
X-435Y-1944D01*
X-435Y-1735D01*
X-574Y-1874D01*
X-1372Y280D02*
X-1580Y72D01*
X-1685Y176D01*
Y246D01*
X-1615Y315D01*
X-1546Y315D01*
X-1441Y211D01*
X-1511Y280D02*
X-1511Y420D01*
X-1754Y315D02*
X-1824D01*
X-1894Y385D01*
Y454D01*
X-1859Y489D01*
X-1789D01*
X-1754Y454D01*
X-1789Y489D01*
X-1789Y559D01*
X-1754Y594D01*
X-1685D01*
X-1615Y524D01*
Y454D01*
X-3878Y-4830D02*
X-3670Y-4622D01*
X-3565Y-4726D01*
Y-4796D01*
X-3635Y-4865D01*
X-3704Y-4865D01*
X-3809Y-4761D01*
X-3739Y-4830D02*
X-3739Y-4970D01*
X-3530Y-5178D02*
X-3670Y-5039D01*
X-3391D01*
X-3356Y-5004D01*
Y-4935D01*
X-3426Y-4865D01*
X-3496D01*
X-5235Y3256D02*
X-5444Y3465D01*
X-5339Y3570D01*
X-5270D01*
X-5200Y3500D01*
X-5200Y3430D01*
X-5304Y3326D01*
X-5235Y3396D02*
X-5096Y3396D01*
X-5026Y3465D02*
X-4956Y3535D01*
X-4991Y3500D01*
X-5200Y3709D01*
Y3639D01*
X831Y-14152D02*
X929D01*
X880D01*
Y-14448D01*
X831D01*
X929D01*
X1274Y-14202D02*
X1225Y-14152D01*
X1126D01*
X1077Y-14202D01*
Y-14398D01*
X1126Y-14448D01*
X1225D01*
X1274Y-14398D01*
X1520Y-14448D02*
Y-14152D01*
X1372Y-14300D01*
X1569D01*
X7339Y-10344D02*
X7437D01*
X7388D01*
Y-10640D01*
X7339D01*
X7437D01*
X7782Y-10394D02*
X7733Y-10344D01*
X7634D01*
X7585Y-10394D01*
Y-10590D01*
X7634Y-10640D01*
X7733D01*
X7782Y-10590D01*
X7880Y-10394D02*
X7929Y-10344D01*
X8028D01*
X8077Y-10394D01*
Y-10443D01*
X8028Y-10492D01*
X7979D01*
X8028D01*
X8077Y-10541D01*
Y-10590D01*
X8028Y-10640D01*
X7929D01*
X7880Y-10590D01*
X-161Y-10244D02*
X-63D01*
X-112D01*
Y-10540D01*
X-161D01*
X-63D01*
X282Y-10294D02*
X233Y-10244D01*
X134D01*
X85Y-10294D01*
Y-10490D01*
X134Y-10540D01*
X233D01*
X282Y-10490D01*
X577Y-10540D02*
X380D01*
X577Y-10343D01*
Y-10294D01*
X528Y-10244D01*
X429D01*
X380Y-10294D01*
X-3220Y-12852D02*
X-3121D01*
X-3171D01*
Y-13148D01*
X-3220D01*
X-3121D01*
X-2777Y-12902D02*
X-2826Y-12852D01*
X-2925D01*
X-2974Y-12902D01*
Y-13098D01*
X-2925Y-13148D01*
X-2826D01*
X-2777Y-13098D01*
X-2679Y-13148D02*
X-2580D01*
X-2629D01*
Y-12852D01*
X-2679Y-12902D01*
X-3152Y-15253D02*
X-3448D01*
Y-15401D01*
X-3398Y-15450D01*
X-3202D01*
X-3152Y-15401D01*
Y-15253D01*
X-3448Y-15548D02*
Y-15647D01*
Y-15598D01*
X-3152D01*
X-3202Y-15548D01*
X3761Y-13894D02*
X3712Y-13844D01*
X3614D01*
X3564Y-13894D01*
Y-14090D01*
X3614Y-14140D01*
X3712D01*
X3761Y-14090D01*
X4056Y-14140D02*
X3860D01*
X4056Y-13943D01*
Y-13894D01*
X4007Y-13844D01*
X3909D01*
X3860Y-13894D01*
X4302Y-14140D02*
Y-13844D01*
X4155Y-13992D01*
X4352D01*
X8753Y-14102D02*
X8704Y-14052D01*
X8606D01*
X8556Y-14102D01*
Y-14298D01*
X8606Y-14348D01*
X8704D01*
X8753Y-14298D01*
X9048Y-14348D02*
X8852D01*
X9048Y-14151D01*
Y-14102D01*
X8999Y-14052D01*
X8901D01*
X8852Y-14102D01*
X9147D02*
X9196Y-14052D01*
X9294D01*
X9344Y-14102D01*
Y-14151D01*
X9294Y-14200D01*
X9245D01*
X9294D01*
X9344Y-14249D01*
Y-14298D01*
X9294Y-14348D01*
X9196D01*
X9147Y-14298D01*
X-9152Y-15403D02*
X-9102Y-15354D01*
Y-15256D01*
X-9152Y-15206D01*
X-9348D01*
X-9398Y-15256D01*
Y-15354D01*
X-9348Y-15403D01*
X-9398Y-15698D02*
Y-15502D01*
X-9201Y-15698D01*
X-9152D01*
X-9102Y-15649D01*
Y-15551D01*
X-9152Y-15502D01*
X-9398Y-15994D02*
Y-15797D01*
X-9201Y-15994D01*
X-9152D01*
X-9102Y-15944D01*
Y-15846D01*
X-9152Y-15797D01*
X-8302Y-15452D02*
X-8252Y-15403D01*
Y-15305D01*
X-8302Y-15256D01*
X-8498D01*
X-8548Y-15305D01*
Y-15403D01*
X-8498Y-15452D01*
X-8548Y-15748D02*
Y-15551D01*
X-8351Y-15748D01*
X-8302D01*
X-8252Y-15698D01*
Y-15600D01*
X-8302Y-15551D01*
X-8548Y-15846D02*
Y-15944D01*
Y-15895D01*
X-8252D01*
X-8302Y-15846D01*
X-7502Y-15453D02*
X-7452Y-15404D01*
Y-15306D01*
X-7502Y-15256D01*
X-7698D01*
X-7748Y-15306D01*
Y-15404D01*
X-7698Y-15453D01*
X-7748Y-15748D02*
Y-15552D01*
X-7551Y-15748D01*
X-7502D01*
X-7452Y-15699D01*
Y-15601D01*
X-7502Y-15552D01*
Y-15847D02*
X-7452Y-15896D01*
Y-15994D01*
X-7502Y-16044D01*
X-7698D01*
X-7748Y-15994D01*
Y-15896D01*
X-7698Y-15847D01*
X-7502D01*
X6078Y-13802D02*
X6029Y-13752D01*
X5930D01*
X5881Y-13802D01*
Y-13998D01*
X5930Y-14048D01*
X6029D01*
X6078Y-13998D01*
X6176Y-14048D02*
X6275D01*
X6225D01*
Y-13752D01*
X6176Y-13802D01*
X6422Y-13998D02*
X6471Y-14048D01*
X6570D01*
X6619Y-13998D01*
Y-13802D01*
X6570Y-13752D01*
X6471D01*
X6422Y-13802D01*
Y-13851D01*
X6471Y-13900D01*
X6619D01*
X-3122Y-11052D02*
X-3171Y-11002D01*
X-3270D01*
X-3319Y-11052D01*
Y-11248D01*
X-3270Y-11298D01*
X-3171D01*
X-3122Y-11248D01*
X-3024Y-11298D02*
X-2925D01*
X-2975D01*
Y-11002D01*
X-3024Y-11052D01*
X-2778D02*
X-2729Y-11002D01*
X-2630D01*
X-2581Y-11052D01*
Y-11101D01*
X-2630Y-11150D01*
X-2581Y-11199D01*
Y-11248D01*
X-2630Y-11298D01*
X-2729D01*
X-2778Y-11248D01*
Y-11199D01*
X-2729Y-11150D01*
X-2778Y-11101D01*
Y-11052D01*
X-2729Y-11150D02*
X-2630D01*
X-672Y-13952D02*
X-721Y-13902D01*
X-820D01*
X-869Y-13952D01*
Y-14148D01*
X-820Y-14198D01*
X-721D01*
X-672Y-14148D01*
X-574Y-14198D02*
X-475D01*
X-525D01*
Y-13902D01*
X-574Y-13952D01*
X-328Y-13902D02*
X-131D01*
Y-13952D01*
X-328Y-14148D01*
Y-14198D01*
X3786Y-10444D02*
X3737Y-10394D01*
X3638D01*
X3589Y-10444D01*
Y-10640D01*
X3638Y-10690D01*
X3737D01*
X3786Y-10640D01*
X3884Y-10690D02*
X3983D01*
X3933D01*
Y-10394D01*
X3884Y-10444D01*
X4327Y-10394D02*
X4229Y-10444D01*
X4130Y-10542D01*
Y-10640D01*
X4179Y-10690D01*
X4278D01*
X4327Y-10640D01*
Y-10591D01*
X4278Y-10542D01*
X4130D01*
X-6922Y-10502D02*
X-6971Y-10452D01*
X-7070D01*
X-7119Y-10502D01*
Y-10698D01*
X-7070Y-10748D01*
X-6971D01*
X-6922Y-10698D01*
X-6824Y-10748D02*
X-6725D01*
X-6775D01*
Y-10452D01*
X-6824Y-10502D01*
X-6381Y-10452D02*
X-6578D01*
Y-10600D01*
X-6479Y-10551D01*
X-6430D01*
X-6381Y-10600D01*
Y-10698D01*
X-6430Y-10748D01*
X-6529D01*
X-6578Y-10698D01*
X-4302Y-15428D02*
X-4252Y-15379D01*
Y-15280D01*
X-4302Y-15231D01*
X-4498D01*
X-4548Y-15280D01*
Y-15379D01*
X-4498Y-15428D01*
X-4548Y-15526D02*
Y-15625D01*
Y-15575D01*
X-4252D01*
X-4302Y-15526D01*
X-4548Y-15920D02*
X-4252D01*
X-4400Y-15772D01*
Y-15969D01*
X3748Y-15678D02*
X3798Y-15629D01*
Y-15530D01*
X3748Y-15481D01*
X3552D01*
X3502Y-15530D01*
Y-15629D01*
X3552Y-15678D01*
X3502Y-15776D02*
Y-15875D01*
Y-15825D01*
X3798D01*
X3748Y-15776D01*
Y-16022D02*
X3798Y-16071D01*
Y-16170D01*
X3748Y-16219D01*
X3699D01*
X3650Y-16170D01*
Y-16121D01*
Y-16170D01*
X3601Y-16219D01*
X3552D01*
X3502Y-16170D01*
Y-16071D01*
X3552Y-16022D01*
X-5152Y-15427D02*
X-5102Y-15378D01*
Y-15279D01*
X-5152Y-15230D01*
X-5348D01*
X-5398Y-15279D01*
Y-15378D01*
X-5348Y-15427D01*
X-5398Y-15525D02*
Y-15624D01*
Y-15575D01*
X-5102D01*
X-5152Y-15525D01*
X-5398Y-15771D02*
Y-15870D01*
Y-15821D01*
X-5102D01*
X-5152Y-15771D01*
X-5952Y-15428D02*
X-5902Y-15379D01*
Y-15280D01*
X-5952Y-15231D01*
X-6148D01*
X-6198Y-15280D01*
Y-15379D01*
X-6148Y-15428D01*
X-6198Y-15526D02*
Y-15625D01*
Y-15575D01*
X-5902D01*
X-5952Y-15526D01*
Y-15772D02*
X-5902Y-15821D01*
Y-15920D01*
X-5952Y-15969D01*
X-6148D01*
X-6198Y-15920D01*
Y-15821D01*
X-6148Y-15772D01*
X-5952D01*
X-6752Y-15451D02*
X-6702Y-15402D01*
Y-15303D01*
X-6752Y-15254D01*
X-6948D01*
X-6998Y-15303D01*
Y-15402D01*
X-6948Y-15451D01*
Y-15549D02*
X-6998Y-15598D01*
Y-15697D01*
X-6948Y-15746D01*
X-6752D01*
X-6702Y-15697D01*
Y-15598D01*
X-6752Y-15549D01*
X-6801D01*
X-6850Y-15598D01*
Y-15746D01*
X1596Y-4315D02*
X1526D01*
X1456Y-4385D01*
Y-4454D01*
X1596Y-4594D01*
X1665D01*
X1735Y-4524D01*
Y-4454D01*
X1665Y-4246D02*
Y-4176D01*
X1735Y-4106D01*
X1804D01*
X1839Y-4141D01*
Y-4211D01*
X1909Y-4211D01*
X1944Y-4246D01*
Y-4315D01*
X1874Y-4385D01*
X1804D01*
X1770Y-4350D01*
X1770Y-4280D01*
X1700D01*
X1665Y-4246D01*
X1770Y-4280D02*
X1839Y-4211D01*
X4465Y1746D02*
Y1676D01*
X4535Y1606D01*
X4604D01*
X4744Y1746D01*
Y1815D01*
X4674Y1885D01*
X4604D01*
X4361Y1780D02*
X4222Y1920D01*
X4256Y1954D01*
X4535D01*
X4570Y1989D01*
X2846Y-4465D02*
X2776D01*
X2706Y-4535D01*
Y-4604D01*
X2846Y-4744D01*
X2915D01*
X2985Y-4674D01*
Y-4604D01*
X3020Y-4222D02*
X2985Y-4326D01*
Y-4465D01*
X3054Y-4535D01*
X3124D01*
X3194Y-4465D01*
Y-4396D01*
X3159Y-4361D01*
X3089Y-4361D01*
X2985Y-4465D01*
X2815Y4396D02*
Y4326D01*
X2885Y4256D01*
X2954D01*
X3094Y4396D01*
Y4465D01*
X3024Y4535D01*
X2954D01*
X2572Y4570D02*
X2711Y4430D01*
X2815Y4535D01*
X2711Y4570D01*
X2676Y4604D01*
Y4674D01*
X2746Y4744D01*
X2815D01*
X2885Y4674D01*
Y4604D01*
X-4415Y-1746D02*
Y-1676D01*
X-4485Y-1606D01*
X-4554D01*
X-4694Y-1746D01*
Y-1815D01*
X-4624Y-1885D01*
X-4554D01*
X-4415Y-2094D02*
X-4206Y-1885D01*
X-4415Y-1885D01*
X-4276Y-2024D01*
X-2054Y4385D02*
X-2124D01*
X-2194Y4315D01*
Y4246D01*
X-2054Y4106D01*
X-1985D01*
X-1915Y4176D01*
Y4246D01*
X-1985Y4454D02*
Y4524D01*
X-1915Y4594D01*
X-1846D01*
X-1811Y4559D01*
Y4489D01*
X-1846Y4454D01*
X-1811Y4489D01*
X-1741Y4489D01*
X-1706Y4454D01*
Y4385D01*
X-1776Y4315D01*
X-1846D01*
X-2815Y-4346D02*
Y-4276D01*
X-2885Y-4206D01*
X-2954D01*
X-3094Y-4346D01*
Y-4415D01*
X-3024Y-4485D01*
X-2954D01*
X-2780Y-4728D02*
X-2920Y-4589D01*
X-2641D01*
X-2606Y-4554D01*
Y-4485D01*
X-2676Y-4415D01*
X-2746D01*
X-4570Y2970D02*
X-4639D01*
X-4709Y2900D01*
Y2830D01*
X-4570Y2691D01*
X-4500D01*
X-4430Y2761D01*
Y2830D01*
X-4326Y2865D02*
X-4256Y2935D01*
X-4291Y2900D01*
X-4500Y3109D01*
Y3039D01*
X4343Y-2115D02*
X4135Y-1907D01*
X4239Y-1802D01*
X4309D01*
X4378Y-1872D01*
X4378Y-1941D01*
X4274Y-2046D01*
X4343Y-1976D02*
X4483Y-1976D01*
X4552Y-1907D02*
X4622Y-1837D01*
X4587Y-1872D01*
X4378Y-1663D01*
Y-1733D01*
X4657Y-1385D02*
X4517Y-1524D01*
X4622Y-1628D01*
X4657Y-1524D01*
X4691Y-1489D01*
X4761D01*
X4830Y-1559D01*
Y-1628D01*
X4761Y-1698D01*
X4691D01*
M02*
